<?xml version="1.0" encoding="utf-8"?>
<!-- Generator: Adobe Illustrator 24.3.0, SVG Export Plug-In . SVG Version: 6.00 Build 0)  -->
<svg version="1.1" id="Layer_3" xmlns="http://www.w3.org/2000/svg" xmlns:xlink="http://www.w3.org/1999/xlink" x="0px" y="0px"
	 viewBox="0 0 570 190" style="enable-background:new 0 0 570 190;" xml:space="preserve">
<style type="text/css">
	.st0{fill:none;stroke:#3A8DDE;stroke-width:2.5437;stroke-miterlimit:10;}
	.st1{fill:#3A8DDE;}
	.st2{fill:#C5212F;}
	.st3{fill:#4B9E46;}
	.st4{fill:#E4B632;}
	.st5{fill:#E8253C;}
	.st6{fill:#19496B;}
	.st7{fill:#00699D;}
	.st8{fill:#5FBA46;}
	.st9{fill:#1995D3;}
	.st10{fill:#417F44;}
	.st11{fill:#C6972D;}
	.st12{fill:#F89E27;}
	.st13{fill:#DC1768;}
	.st14{fill:#F16A2C;}
	.st15{fill:#A21C44;}
	.st16{fill:#F8C315;}
	.st17{fill:#27BCE1;}
	.st18{fill:#EE402B;}
</style>
<line class="st0" x1="439.9" y1="26.2" x2="439.9" y2="165.2"/>
<g>
	<path class="st1" d="M147.3,88.3c0-0.2,0.1-0.3,0.2-0.5c0.1-0.1,0.3-0.2,0.4-0.2h2c0.2,0,0.3,0.1,0.4,0.2c0.1,0.1,0.2,0.3,0.2,0.5
		v2.1c0,0.2-0.1,0.3-0.2,0.4c-0.1,0.1-0.2,0.2-0.4,0.2h-1.9c-0.2,0-0.3-0.1-0.4-0.2c-0.1-0.1-0.2-0.3-0.2-0.4V88.3z M144.9,96.3
		c0.3,0,0.5,0.2,0.4,0.5c0,0.4-0.1,0.8-0.1,1.3c0,0.5,0,0.8,0,1.1c0,1,0.1,1.9,0.2,2.8c0.1,0.8,0.4,1.5,0.7,2.1
		c0.4,0.6,0.9,1,1.6,1.3c0.7,0.3,1.6,0.5,2.7,0.5c0.3,0,0.6,0,0.9,0c0.3,0,0.6-0.1,1-0.1c0-0.9,0-1.7,0-2.3v-2.2v-8
		c0-0.1,0.1-0.3,0.2-0.4c0.1-0.1,0.2-0.2,0.3-0.2h2.2c0.1,0,0.2,0.1,0.3,0.2c0.1,0.1,0.1,0.2,0.1,0.4v10.6c0,0.7,0,1.4,0,2.2
		c0,0.8,0,1.5-0.1,2.2c0,0.3-0.2,0.5-0.5,0.6c-0.7,0.2-1.4,0.3-2.2,0.4c-0.7,0.1-1.5,0.1-2.3,0.1c-2.8,0-4.9-0.7-6.2-2.1
		c-1.3-1.4-2-3.5-2-6.5c0-0.2,0-0.4,0-0.8c0-0.3,0-0.7,0.1-1.1c0-0.4,0.1-0.7,0.1-1.1c0-0.4,0.1-0.7,0.1-1c0-0.2,0.1-0.3,0.2-0.4
		c0.1-0.1,0.2-0.1,0.4-0.1H144.9z"/>
	<path class="st1" d="M159.2,84.2c0-0.1,0-0.3,0.2-0.4c0.1-0.1,0.2-0.2,0.4-0.2h2.2c0.2,0,0.3,0.1,0.4,0.2c0.1,0.1,0.1,0.2,0.1,0.4
		v15.4c0,0.6,0.1,1,0.4,1.2c0.2,0.2,0.6,0.2,1,0.2h0.8v3.5h-1.7c-0.6,0-1.1,0-1.5-0.2c-0.5-0.1-0.8-0.3-1.2-0.6
		c-0.3-0.3-0.6-0.7-0.7-1.2c-0.2-0.5-0.3-1.2-0.3-2V84.2z"/>
	<path class="st1" d="M164.5,104.5c-0.2,0-0.4,0-0.5-0.1c-0.2-0.1-0.3-0.1-0.3-0.2v-2.9c0-0.1,0.1-0.2,0.3-0.2
		c0.2-0.1,0.4-0.1,0.5-0.1h5.5v3.5H164.5z"/>
	<path class="st1" d="M169.1,101.3c0-0.1,0.1-0.2,0.3-0.2c0.2-0.1,0.4-0.1,0.5-0.1h0.8c0.3,0,0.6-0.1,0.9-0.2
		c0.3-0.1,0.5-0.4,0.5-0.8v-5.6c0-0.2,0.1-0.3,0.2-0.4c0.1-0.1,0.2-0.2,0.3-0.2h2.1c0.1,0,0.2,0.1,0.3,0.2c0.1,0.1,0.1,0.2,0.1,0.4
		v6.1c0.1,0.1,0.1,0.2,0.3,0.3c0.1,0.1,0.3,0.1,0.4,0.2c0.1,0,0.3,0.1,0.5,0.1c0.2,0,0.3,0,0.4,0h0.3c0.2,0,0.3,0,0.5,0
		c0.2,0,0.3-0.1,0.4-0.1c0.1-0.1,0.2-0.2,0.3-0.3c0.1-0.1,0.1-0.3,0.1-0.5v-6.7c0-0.1,0.1-0.3,0.2-0.4c0.1-0.1,0.2-0.2,0.3-0.2h2.1
		c0.1,0,0.2,0.1,0.3,0.2c0.1,0.1,0.2,0.2,0.2,0.4v7.1c0.1,0.2,0.3,0.4,0.6,0.4c0.3,0.1,0.6,0.1,1,0.1h0.2c0.2,0,0.3,0,0.5,0
		c0.2,0,0.3-0.1,0.5-0.1c0.1-0.1,0.3-0.1,0.4-0.3c0.1-0.1,0.2-0.3,0.2-0.5v-7.7c0-0.2,0-0.3,0.1-0.4c0.1-0.1,0.2-0.2,0.4-0.2h2.2
		c0.1,0,0.2,0.1,0.3,0.2s0.1,0.2,0.1,0.4v8c0.1,0.1,0.1,0.2,0.3,0.2c0.1,0.1,0.3,0.1,0.5,0.2c0.2,0,0.4,0.1,0.5,0.1
		c0.2,0,0.3,0,0.4,0h0.6v3.5H190c-0.5,0-1.1-0.1-1.7-0.2c-0.6-0.1-1.2-0.4-1.7-0.7c-0.4,0.4-0.9,0.7-1.5,0.8
		c-0.5,0.1-1.1,0.2-1.6,0.2h-0.3c-0.6,0-1.1-0.1-1.6-0.2c-0.5-0.1-1-0.4-1.5-0.7c-0.4,0.3-0.8,0.6-1.3,0.7c-0.5,0.1-1.1,0.2-1.7,0.2
		h-0.3c-0.5,0-1-0.1-1.5-0.2c-0.5-0.1-1-0.4-1.4-0.8c-0.2,0.2-0.5,0.4-0.8,0.5c-0.3,0.1-0.6,0.2-0.8,0.3c-0.3,0.1-0.6,0.1-0.9,0.1
		c-0.3,0-0.5,0-0.8,0h-0.7c-0.2,0-0.4,0-0.5-0.1c-0.2-0.1-0.3-0.1-0.3-0.2V101.3z"/>
	<path class="st1" d="M192.6,86.9c0-0.2,0.1-0.3,0.2-0.5c0.1-0.1,0.3-0.2,0.4-0.2h2c0.2,0,0.3,0.1,0.4,0.2c0.1,0.1,0.2,0.3,0.2,0.5
		V89c0,0.2-0.1,0.3-0.2,0.4c-0.1,0.1-0.2,0.2-0.4,0.2h-1.9c-0.2,0-0.3-0.1-0.4-0.2c-0.1-0.1-0.2-0.3-0.2-0.4V86.9z M189.3,101.3
		c0-0.1,0.1-0.2,0.3-0.2c0.2-0.1,0.4-0.1,0.5-0.1h1.6c0.4,0,0.7,0,0.8-0.1c0.1-0.1,0.2-0.3,0.2-0.8v-3.3c0-1.1,0-2.4-0.1-3.7
		c0-0.1,0-0.3,0.1-0.4c0.1-0.1,0.2-0.2,0.4-0.2h2.1c0.2,0,0.3,0.1,0.4,0.2c0.1,0.1,0.1,0.2,0.1,0.4c0,0.6,0,1.1,0,1.5
		c0,0.4,0,0.9,0,1.3v1.2v1.3c0,1.2,0,2.2,0,2.9c0,0.8,0,1.4-0.1,1.9c0,0.2-0.1,0.3-0.2,0.5c-0.1,0.1-0.2,0.2-0.4,0.3
		c-0.2,0.1-0.4,0.1-0.7,0.1c-0.3,0-0.6,0.1-1,0.1c-0.4,0-0.8,0-1.2,0.1c-0.4,0-0.8,0-1.1,0h-1c-0.2,0-0.4,0-0.5-0.1
		c-0.2-0.1-0.3-0.1-0.3-0.2V101.3z"/>
	<path class="st1" d="M201.8,85.9c0-0.3,0.2-0.5,0.5-0.5h2.2c0.3,0,0.5,0.2,0.5,0.5v12.4c0,0.2,0,0.3-0.1,0.4
		c-0.1,0.1-0.2,0.2-0.3,0.2h-2.2c-0.1,0-0.2-0.1-0.3-0.2c-0.1-0.1-0.1-0.2-0.1-0.4V85.9z M201.3,111.4c-0.3,0-0.4-0.1-0.4-0.3v-0.8
		c0-0.2,0.1-0.3,0.4-0.3h0.5c-0.1-0.2-0.2-0.5-0.3-0.7c-0.1-0.3-0.1-0.5-0.1-0.8c0-1.5,0.8-2.3,2.5-2.3c0.1,0,0.3,0,0.5,0
		c0.2,0,0.4,0.1,0.6,0.1c0.2,0,0.3,0.1,0.3,0.3v0.7c0,0.2-0.1,0.3-0.3,0.3h-0.9c-0.4,0-0.7,0.1-0.9,0.2c-0.2,0.2-0.3,0.4-0.3,0.8
		c0,0.3,0.1,0.6,0.2,0.8c0.1,0.2,0.2,0.4,0.4,0.5h1.7c0.3,0,0.4,0.1,0.4,0.3v0.8c0,0.2-0.1,0.3-0.4,0.3H201.3z M198.8,101.5
		c0-0.1,0-0.3,0.1-0.4c0.1-0.1,0.2-0.1,0.3-0.1h9.2c0.4,0,0.7,0,0.8-0.1c0.1-0.1,0.2-0.3,0.2-0.8V84.2c0-0.1,0-0.3,0.2-0.4
		c0.1-0.1,0.2-0.2,0.3-0.2h2.3c0.1,0,0.2,0.1,0.3,0.2c0.1,0.1,0.1,0.2,0.1,0.4v16c0,0.7,0,1.3,0,1.8c0,0.5-0.1,1-0.1,1.5
		c0,0.2-0.1,0.3-0.1,0.5c-0.1,0.1-0.2,0.2-0.4,0.3c-0.2,0.1-0.4,0.1-0.8,0.1c-0.3,0-0.7,0.1-1.1,0.1c-0.4,0-0.8,0-1.3,0.1
		c-0.4,0-0.8,0-1.2,0h-8.4c-0.1,0-0.2,0-0.3-0.1c-0.1-0.1-0.1-0.2-0.1-0.4V101.5z"/>
	<path class="st1" d="M216.6,84.2c0-0.1,0-0.3,0.1-0.4c0.1-0.1,0.2-0.2,0.4-0.2h2.2c0.2,0,0.3,0.1,0.4,0.2c0.1,0.1,0.1,0.2,0.1,0.4
		v19.8c0,0.1,0,0.3-0.1,0.4c-0.1,0.1-0.2,0.2-0.4,0.2h-2.2c-0.2,0-0.3-0.1-0.4-0.2c-0.1-0.1-0.1-0.2-0.1-0.4V84.2z"/>
	<path class="st1" d="M236.3,81.9c0.3,0,0.6-0.1,0.7-0.2c0.1-0.2,0.2-0.4,0.2-0.6c0-0.3-0.1-0.4-0.2-0.6c-0.1-0.1-0.3-0.2-0.5-0.2
		c-0.2,0-0.4,0.1-0.5,0.2c-0.1,0.1-0.2,0.4-0.2,0.7c0,0.3,0,0.5,0.1,0.7H236.3z M232.3,82.2c0-0.1,0-0.2,0.1-0.2c0.1,0,0.2,0,0.3,0
		h2c0-0.1,0-0.3,0-0.4v-0.4c0-0.6,0.2-1,0.5-1.4c0.3-0.3,0.8-0.5,1.3-0.5c0.6,0,1,0.2,1.4,0.5c0.3,0.3,0.5,0.8,0.5,1.3
		c0,0.6-0.2,1.1-0.5,1.4c-0.3,0.3-0.9,0.5-1.8,0.5h-3.3c-0.3,0-0.4-0.1-0.4-0.3V82.2z"/>
	<path class="st1" d="M235.9,85.7c0-0.2,0.1-0.3,0.2-0.5c0.1-0.1,0.3-0.2,0.4-0.2h1.7c0.2,0,0.3,0.1,0.4,0.2
		c0.1,0.1,0.2,0.3,0.2,0.5v2.1c0,0.2-0.1,0.3-0.2,0.4c-0.1,0.1-0.2,0.2-0.4,0.2h-1.7c-0.2,0-0.3-0.1-0.4-0.2
		c-0.1-0.1-0.2-0.3-0.2-0.4V85.7z M232.6,97.8c0,1,0.2,1.8,0.5,2.2c0.4,0.4,0.9,0.7,1.7,0.7h0.4c0.6,0,1-0.1,1.3-0.3
		c0.3-0.2,0.5-0.5,0.5-0.9v-5.1c-0.1,0-0.3,0-0.6,0c-0.3,0-0.5,0-0.6,0c-1,0-1.8,0.3-2.4,0.8c-0.6,0.5-0.8,1.3-0.8,2.4V97.8z
		 M231.3,85.7c0-0.2,0.1-0.3,0.2-0.5c0.1-0.1,0.3-0.2,0.4-0.2h1.7c0.2,0,0.3,0.1,0.4,0.2c0.1,0.1,0.2,0.3,0.2,0.5v2.1
		c0,0.2-0.1,0.3-0.2,0.4c-0.1,0.1-0.3,0.2-0.4,0.2h-1.7c-0.2,0-0.3-0.1-0.4-0.2c-0.1-0.1-0.2-0.3-0.2-0.4V85.7z M229.4,97.9
		c0-2.2,0.6-3.8,1.7-5c1.1-1.2,2.8-1.8,5-1.8c0.6,0,1.3,0,2,0.1c0.7,0.1,1.2,0.2,1.6,0.3c0.2,0.1,0.3,0.1,0.3,0.2
		c0.1,0.1,0.1,0.2,0.1,0.3v7.5c0,0.6,0.1,1,0.4,1.2c0.3,0.2,0.6,0.3,1.2,0.3h0.7v3.5h-1.1c-0.9,0-1.6-0.1-2.1-0.4
		c-0.5-0.2-1-0.6-1.2-1.2c-0.3,0.4-0.8,0.6-1.3,0.8c-0.6,0.2-1.1,0.3-1.7,0.3h-0.3c-0.7,0-1.4-0.1-2-0.3c-0.6-0.2-1.2-0.5-1.6-1
		c-0.5-0.5-0.8-1-1.1-1.8c-0.3-0.7-0.4-1.6-0.4-2.6V97.9z"/>
	<path class="st1" d="M247.6,98.7c0,0.4,0,0.8,0.1,1.2c0.1,0.7,0.4,1.1,0.8,1.4c0.4,0.2,0.9,0.4,1.5,0.4c0.8,0,1.5-0.2,1.8-0.7
		c0.4-0.5,0.5-1.3,0.5-2.4v-1c0-1.1-0.2-1.9-0.5-2.4c-0.4-0.5-1-0.8-1.8-0.8c-0.8,0-1.5,0.3-1.8,0.8c-0.4,0.5-0.6,1.3-0.6,2.4V98.7z
		 M241.4,101.3c0-0.1,0.1-0.2,0.3-0.2c0.2-0.1,0.4-0.1,0.5-0.1h0.7c0.1,0,0.2,0,0.4,0c0.1,0,0.3-0.1,0.4-0.1
		c0.1-0.1,0.3-0.1,0.4-0.2c0.1-0.1,0.2-0.2,0.2-0.4c0-0.2,0.1-0.4,0.1-0.6v-2.3c0-2,0.5-3.5,1.5-4.5c1-1,2.4-1.6,4.1-1.6
		c1.7,0,3,0.5,4,1.5c1,1,1.5,2.5,1.5,4.5v1.6c0,2.1-0.5,3.6-1.4,4.6c-1,1-2.3,1.5-4.1,1.5c-0.8,0-1.7-0.1-2.5-0.3
		c-0.8-0.2-1.4-0.6-1.8-1.1c-0.3,0.4-0.8,0.7-1.3,0.9c-0.5,0.2-1.2,0.2-1.9,0.2h-0.4c-0.2,0-0.4,0-0.5-0.1c-0.2-0.1-0.3-0.1-0.3-0.2
		V101.3z"/>
	<path class="st1" d="M258.9,84.2c0-0.1,0-0.3,0.1-0.4c0.1-0.1,0.2-0.2,0.4-0.2h2.2c0.2,0,0.3,0.1,0.4,0.2c0.1,0.1,0.1,0.2,0.1,0.4
		v19.8c0,0.1,0,0.3-0.1,0.4c-0.1,0.1-0.2,0.2-0.4,0.2h-2.2c-0.2,0-0.3-0.1-0.4-0.2c-0.1-0.1-0.1-0.2-0.1-0.4V84.2z"/>
	<path class="st1" d="M263.8,108.4c0-0.3,0.2-0.4,0.5-0.4h0.5c0.3,0,0.7,0,0.9-0.1c0.3,0,0.5-0.2,0.7-0.3c0.2-0.2,0.3-0.4,0.4-0.7
		c0.1-0.3,0.1-0.8,0.1-1.3V93.2c0-0.1,0.1-0.3,0.2-0.4c0.1-0.1,0.2-0.2,0.3-0.2h2.2c0.1,0,0.2,0.1,0.3,0.2c0.1,0.1,0.1,0.2,0.1,0.4
		v7.8h2.2v3.5h-2.3v1.3c0,0.6,0,1.2-0.1,1.7c-0.1,0.5-0.2,1-0.4,1.4c-0.3,0.8-0.8,1.3-1.5,1.6c-0.6,0.3-1.4,0.5-2.4,0.5
		c-0.1,0-0.3,0-0.6,0c-0.3,0-0.5,0-0.7-0.1c-0.3-0.1-0.4-0.2-0.4-0.5V108.4z"/>
	<path class="st1" d="M271.2,101.5c0-0.1,0.1-0.3,0.2-0.4c0.2-0.1,0.4-0.1,0.6-0.1h9.4h0.6h1c0.4,0,0.7,0,1,0c0.3,0,0.5,0,0.7,0
		c0-0.3,0-0.6,0-1c0-0.3,0-0.7,0-0.9c0-0.8-0.1-1.5-0.3-2c-0.2-0.5-0.5-1-1-1.3c-0.4-0.3-0.9-0.6-1.5-0.7c-0.6-0.1-1.3-0.2-2.1-0.2
		h-5.3c-0.4,0-0.6-0.1-0.6-0.4c0,0,0-0.1,0-0.2c0-0.1,0-0.2,0-0.3c0-0.1,0-0.2,0-0.3v-0.2c0-0.5,0-0.9,0.1-1.3
		c0.1-0.4,0.2-0.8,0.3-1.3c0.1-0.4,0.3-0.9,0.5-1.3c0.2-0.5,0.4-1,0.7-1.5l1.9-3.8c0.1-0.1,0.2-0.3,0.3-0.4c0.1-0.1,0.2-0.2,0.4-0.2
		h2.2c0.1,0,0.2,0,0.3,0.1c0.1,0.1,0.1,0.1,0.1,0.2c0,0.1,0,0.2-0.1,0.3l-2.3,4.9c-0.1,0.2-0.2,0.4-0.3,0.7
		c-0.1,0.2-0.2,0.5-0.3,0.7c-0.1,0.2-0.2,0.4-0.2,0.6c-0.1,0.2-0.1,0.3-0.1,0.4c0.7,0,1.3-0.1,1.7-0.1c0.4,0,0.8,0,1.2,0
		c1.4,0,2.6,0.2,3.6,0.5c1,0.3,1.8,0.9,2.4,1.5c0.6,0.7,1.1,1.5,1.3,2.5c0.3,1,0.4,2.2,0.4,3.5v0.7c0,0.2,0,0.5,0,0.8
		c0,0.3,0,0.7,0,1c0,0.4,0,0.7-0.1,1c0,0.3,0,0.6-0.1,0.8c-0.1,0.3-0.2,0.5-0.6,0.5c-0.3,0-0.6,0.1-1.1,0.1c-0.4,0-0.9,0-1.4,0
		c-0.5,0-1,0-1.6,0h-1.5H272c-0.2,0-0.4,0-0.6-0.1c-0.2-0.1-0.2-0.2-0.2-0.4V101.5z"/>
	<path class="st1" d="M301.5,89.6c0-0.2,0.1-0.3,0.2-0.4c0.1-0.1,0.2-0.2,0.4-0.2h1.1c0.1,0,0.3,0.1,0.4,0.2
		c0.1,0.1,0.2,0.3,0.2,0.4v1.5c0,0.2-0.1,0.3-0.2,0.4c-0.1,0.1-0.2,0.2-0.4,0.2h-1.1c-0.2,0-0.3-0.1-0.4-0.2
		c-0.1-0.1-0.2-0.2-0.2-0.4V89.6z M298.2,96.9c0.3,0,0.4,0.2,0.4,0.5c0,0.2,0,0.5-0.1,0.7c0,0.2,0,0.5-0.1,0.7c0,0.2,0,0.5,0,0.7
		c0,0.2,0,0.4,0,0.5c0,1,0.1,1.8,0.2,2.6c0.1,0.8,0.4,1.5,0.8,2.1c0.4,0.6,1,1.1,1.7,1.4c0.8,0.3,1.8,0.5,3,0.5c0.4,0,0.8,0,1.2,0
		c0.4,0,0.7-0.1,1.2-0.2c0-0.5,0-0.9,0-1.3c0-0.4,0-0.8,0-1.1v-1v-1.1v-8.2c0-0.1,0-0.3,0.1-0.4c0.1-0.1,0.2-0.2,0.3-0.2h1.2
		c0.1,0,0.2,0,0.3,0.2c0.1,0.1,0.1,0.2,0.1,0.4v10.4v0.9c0,0.3,0,0.7,0,1c0,0.4,0,0.7,0,1c0,0.3,0,0.6,0,0.9c0,0.2,0,0.3-0.1,0.4
		c-0.1,0.1-0.2,0.2-0.4,0.2c-0.6,0.1-1.3,0.3-1.9,0.3c-0.7,0.1-1.3,0.1-2,0.1c-1.4,0-2.7-0.2-3.7-0.5c-1-0.4-1.8-0.9-2.4-1.6
		c-0.6-0.7-1-1.5-1.3-2.6c-0.3-1-0.4-2.2-0.4-3.5c0-0.2,0-0.4,0-0.7c0-0.3,0-0.6,0.1-1c0-0.3,0.1-0.7,0.1-1c0-0.3,0.1-0.6,0.1-0.9
		c0-0.2,0.1-0.3,0.2-0.4c0.1-0.1,0.2-0.1,0.3-0.1H298.2z"/>
	<path class="st1" d="M312.9,84.4c0-0.1,0-0.3,0.1-0.4c0.1-0.1,0.2-0.2,0.3-0.2h1.2c0.1,0,0.2,0.1,0.3,0.2c0.1,0.1,0.1,0.2,0.1,0.4
		v19.5c0,0.1,0,0.3-0.1,0.4c-0.1,0.1-0.2,0.2-0.3,0.2h-1.2c-0.1,0-0.2-0.1-0.3-0.2c-0.1-0.1-0.1-0.2-0.1-0.4V84.4z"/>
	<path class="st1" d="M318.4,102.6c0-0.1,0.1-0.3,0.2-0.4c0.1-0.1,0.2-0.1,0.3-0.1h6.8l0-3.4c0-1.6-0.4-2.8-1.1-3.6
		c-0.7-0.8-1.8-1.2-3.4-1.2c-0.2,0-0.4,0-0.8,0c-0.3,0-0.6,0-0.9,0.1c-0.3,0-0.5-0.1-0.5-0.4v-1.1c0-0.1,0-0.3,0.1-0.4
		c0.1-0.1,0.2-0.1,0.4-0.2c0.4-0.1,0.8-0.1,1.2-0.1c0.4,0,0.7,0,0.9,0c1.1,0,2.1,0.2,2.8,0.5c0.8,0.3,1.4,0.8,1.9,1.4
		c0.5,0.6,0.8,1.3,1.1,2.1c0.2,0.8,0.4,1.7,0.4,2.7l0,3.5h1.6v2.4h-10.6c-0.1,0-0.2,0-0.3-0.1c-0.1-0.1-0.2-0.2-0.2-0.3V102.6z"/>
	<path class="st1" d="M328.5,102.5c0-0.1,0.1-0.2,0.2-0.3c0.2-0.1,0.4-0.1,0.6-0.1h1.3c0.2,0,0.3,0,0.5,0c0.2,0,0.4-0.1,0.6-0.1
		c0.2-0.1,0.3-0.2,0.5-0.3c0.1-0.1,0.2-0.3,0.2-0.6V84.4c0-0.1,0-0.3,0.1-0.4c0.1-0.1,0.2-0.2,0.3-0.2h1.2c0.1,0,0.2,0.1,0.3,0.2
		c0.1,0.1,0.1,0.2,0.1,0.4v17.1c0.1,0.1,0.2,0.3,0.3,0.3c0.2,0.1,0.3,0.1,0.5,0.2c0.2,0,0.4,0.1,0.6,0.1c0.2,0,0.4,0,0.5,0h0.3v2.4
		h-0.3c-0.2,0-0.5,0-0.8,0c-0.3,0-0.6-0.1-0.8-0.1c-0.3-0.1-0.5-0.2-0.8-0.3c-0.3-0.1-0.5-0.3-0.7-0.5c-0.4,0.4-0.9,0.6-1.5,0.7
		c-0.6,0.1-1.1,0.2-1.6,0.2h-1.1c-0.2,0-0.4,0-0.6-0.1c-0.2-0.1-0.2-0.2-0.2-0.3V102.5z"/>
	<path class="st1" d="M339.4,107.6c0-0.2,0.1-0.3,0.2-0.4c0.1-0.1,0.2-0.2,0.4-0.2h1.1c0.1,0,0.3,0.1,0.4,0.2
		c0.1,0.1,0.2,0.3,0.2,0.4v1.5c0,0.1-0.1,0.3-0.2,0.4c-0.1,0.1-0.2,0.2-0.4,0.2H340c-0.1,0-0.3-0.1-0.4-0.2
		c-0.1-0.1-0.2-0.3-0.2-0.4V107.6z M335.8,102.5c0-0.1,0.1-0.2,0.2-0.3c0.2-0.1,0.4-0.1,0.6-0.1h1.1c0.2,0,0.3,0,0.5,0
		c0.2,0,0.4-0.1,0.6-0.1c0.2-0.1,0.3-0.2,0.5-0.3c0.1-0.1,0.2-0.3,0.2-0.6v-7.2c0-0.1,0-0.3,0.1-0.4c0.1-0.1,0.2-0.2,0.3-0.2h1.1
		c0.1,0,0.2,0.1,0.3,0.2c0.1,0.1,0.1,0.2,0.1,0.4v7.5c0.1,0.1,0.2,0.3,0.3,0.3c0.2,0.1,0.3,0.1,0.5,0.2c0.2,0,0.4,0.1,0.6,0.1
		c0.2,0,0.4,0,0.5,0h0.3v2.4h-0.3c-0.5,0-1.1-0.1-1.7-0.2c-0.6-0.1-1.1-0.4-1.5-0.7c-0.4,0.4-0.9,0.6-1.5,0.7
		c-0.6,0.1-1.1,0.2-1.6,0.2h-0.8c-0.2,0-0.4,0-0.6-0.1c-0.2-0.1-0.2-0.2-0.2-0.3V102.5z"/>
	<path class="st1" d="M343,102.5c0-0.1,0.1-0.2,0.2-0.3c0.2-0.1,0.4-0.1,0.6-0.1h2c0.5,0,0.8,0,0.9-0.1c0.1-0.1,0.2-0.4,0.2-0.8
		V84.4c0-0.1,0-0.3,0.1-0.4c0.1-0.1,0.2-0.2,0.3-0.2h1.2c0.1,0,0.2,0.1,0.3,0.2c0.1,0.1,0.1,0.2,0.1,0.4v15.8v0.7c0,0.3,0,0.6,0,0.8
		c0,0.3,0,0.6,0,0.8c0,0.3,0,0.5-0.1,0.7c0,0.2-0.1,0.3-0.2,0.5c-0.1,0.1-0.2,0.2-0.4,0.3c-0.1,0.1-0.3,0.1-0.6,0.1
		c-0.2,0-0.5,0.1-0.8,0.1c-0.3,0-0.6,0-0.9,0.1c-0.3,0-0.6,0-0.9,0h-1.3c-0.2,0-0.4,0-0.6-0.1c-0.2-0.1-0.2-0.2-0.2-0.3V102.5z"/>
	<path class="st1" d="M353.3,84.4c0-0.1,0-0.3,0.1-0.4c0.1-0.1,0.2-0.2,0.3-0.2h1.2c0.1,0,0.2,0.1,0.3,0.2c0.1,0.1,0.1,0.2,0.1,0.4
		v19.5c0,0.1,0,0.3-0.1,0.4c-0.1,0.1-0.2,0.2-0.3,0.2h-1.2c-0.1,0-0.2-0.1-0.3-0.2c-0.1-0.1-0.1-0.2-0.1-0.4V84.4z"/>
	<path class="st1" d="M368.8,85.7c0.4,0,0.6-0.1,0.8-0.2c0.2-0.2,0.2-0.4,0.2-0.6c0-0.3-0.1-0.5-0.2-0.6c-0.2-0.1-0.3-0.2-0.5-0.2
		c-0.2,0-0.4,0.1-0.6,0.2c-0.2,0.1-0.2,0.4-0.2,0.8c0,0.3,0,0.5,0.1,0.7H368.8z M364.9,86c0-0.1,0-0.2,0.1-0.3c0.1,0,0.2,0,0.3,0
		h1.9c0-0.1-0.1-0.3-0.1-0.4V85c0-0.5,0.2-1,0.5-1.3c0.3-0.3,0.7-0.5,1.3-0.5c0.5,0,1,0.2,1.3,0.5c0.3,0.3,0.5,0.7,0.5,1.2
		c0,0.6-0.2,1-0.5,1.3c-0.3,0.3-0.9,0.5-1.7,0.5h-3.2c-0.3,0-0.5-0.1-0.5-0.3V86z"/>
	<path class="st1" d="M363,109.2c0-0.3,0.1-0.4,0.4-0.4h0.5c0.5,0,1,0,1.3-0.1c0.3-0.1,0.6-0.2,0.8-0.4c0.2-0.2,0.4-0.5,0.5-0.8
		c0.1-0.4,0.1-0.8,0.1-1.4V93.9c0-0.1,0-0.3,0.1-0.4c0.1-0.1,0.2-0.2,0.3-0.2h1.2c0.1,0,0.2,0.1,0.3,0.2c0.1,0.1,0.1,0.2,0.1,0.4v12
		c0,0.6,0,1.2-0.1,1.8c-0.1,0.5-0.2,1-0.4,1.5c-0.3,0.6-0.8,1.1-1.4,1.3c-0.6,0.3-1.4,0.4-2.3,0.4c-0.1,0-0.3,0-0.5,0
		c-0.3,0-0.5,0-0.7-0.1c-0.2,0-0.3-0.1-0.3-0.2c0-0.1-0.1-0.2-0.1-0.3V109.2z"/>
	<path class="st1" d="M373,84.4c0-0.1,0-0.3,0.1-0.4c0.1-0.1,0.2-0.2,0.3-0.2h1.2c0.1,0,0.2,0.1,0.3,0.2c0.1,0.1,0.1,0.2,0.1,0.4
		v16.1c0,0.4,0,0.7,0.1,0.9c0.1,0.2,0.2,0.4,0.3,0.5c0.1,0.1,0.3,0.2,0.5,0.2c0.2,0,0.4,0.1,0.7,0.1h0.6v2.4h-1.2
		c-0.5,0-1,0-1.4-0.2c-0.4-0.1-0.7-0.3-1-0.5c-0.3-0.3-0.5-0.6-0.6-1.1c-0.1-0.4-0.2-1-0.2-1.7V84.4z"/>
	<path class="st1" d="M377.3,104.5c-0.2,0-0.4,0-0.6-0.1c-0.2-0.1-0.2-0.2-0.2-0.3v-1.6c0-0.1,0.1-0.2,0.2-0.3
		c0.2-0.1,0.4-0.1,0.6-0.1h5.5v2.4H377.3z"/>
	<path class="st1" d="M386.8,99.4c0,0.9,0.2,1.6,0.5,2.1c0.3,0.5,0.9,0.8,1.8,0.8c0.9,0,1.5-0.3,1.9-0.8c0.4-0.5,0.5-1.2,0.5-2.1
		v-0.9c0-0.9-0.2-1.6-0.5-2.1c-0.3-0.5-0.9-0.8-1.8-0.8c-0.9,0-1.5,0.3-1.9,0.8c-0.3,0.5-0.5,1.2-0.5,2.1V99.4z M381.8,102.6
		c0-0.1,0.1-0.3,0.2-0.3c0.2-0.1,0.4-0.1,0.6-0.1h3c-0.3-0.3-0.5-0.7-0.6-1.2c-0.1-0.5-0.2-1.1-0.2-1.7v-0.9c0-1.5,0.4-2.6,1.1-3.4
		c0.8-0.8,1.8-1.2,3.3-1.2s2.5,0.4,3.2,1.2c0.7,0.8,1.1,2,1.1,3.5v0.9c0,0.6-0.1,1.2-0.2,1.7c-0.1,0.5-0.4,0.9-0.7,1.3h3.4
		c0.1,0,0.2,0,0.3-0.1c0.1,0,0.2-0.2,0.2-0.3c0-0.2,0.1-0.4,0.1-0.7c0-0.3,0-0.7,0-1.2v-1.4c0-1.1-0.1-1.9-0.4-2.6
		c-0.3-0.7-0.7-1.3-1.2-1.7c-0.5-0.4-1.1-0.7-1.8-0.9c-0.7-0.2-1.4-0.3-2.3-0.3h-1c-0.4,0-0.7,0-1,0c-0.3,0-0.5-0.1-0.5-0.4v-1.2
		c0-0.3,0.2-0.5,0.5-0.5c0.4-0.1,0.8-0.1,1.2-0.1c0.4,0,0.7,0,0.8,0c1,0,2,0.1,2.9,0.3c0.9,0.2,1.8,0.6,2.5,1.2
		c0.7,0.6,1.3,1.3,1.7,2.3c0.4,1,0.6,2.1,0.6,3.6v1.4c0,0.6,0,1.2-0.1,2c0,0.7-0.1,1.4-0.2,2c0,0.2-0.1,0.4-0.2,0.5
		c-0.1,0.2-0.3,0.3-0.6,0.3c-0.2,0-0.6,0.1-1,0.1c-0.4,0-0.9,0-1.4,0c-0.5,0-1,0-1.4,0h-1.2h-9.8c-0.2,0-0.4,0-0.6-0.1
		c-0.2-0.1-0.2-0.2-0.2-0.3V102.6z"/>
	<path class="st1" d="M401.5,102.6c0-0.1,0.1-0.3,0.2-0.4c0.1-0.1,0.2-0.1,0.3-0.1h6.8l0-3.4c0-1.6-0.4-2.8-1.1-3.6
		c-0.7-0.8-1.8-1.2-3.4-1.2c-0.2,0-0.4,0-0.8,0c-0.3,0-0.6,0-0.9,0.1c-0.3,0-0.5-0.1-0.5-0.4v-1.1c0-0.1,0-0.3,0.1-0.4
		c0.1-0.1,0.2-0.1,0.4-0.2c0.4-0.1,0.8-0.1,1.2-0.1c0.4,0,0.7,0,0.9,0c1.1,0,2.1,0.2,2.9,0.5c0.8,0.3,1.4,0.8,1.9,1.4
		c0.5,0.6,0.8,1.3,1,2.1c0.2,0.8,0.3,1.7,0.4,2.7c0,0.1,0,0.3,0,0.5c0,0.3,0,0.6,0,1c0,0.3,0,0.7,0,1v0.6v0.5c0,0.2,0,0.4,0,0.6
		c0,0.2,0,0.4,0,0.6c0,0.2,0,0.4,0,0.5c0,0.4-0.2,0.5-0.5,0.5H402c-0.1,0-0.2,0-0.3-0.1c-0.1-0.1-0.2-0.2-0.2-0.3V102.6z"/>
	<path class="st1" d="M415.3,87.8c0-0.2,0.1-0.3,0.2-0.4c0.1-0.1,0.2-0.2,0.4-0.2h1.1c0.2,0,0.3,0.1,0.4,0.2
		c0.1,0.1,0.2,0.3,0.2,0.4v1.5c0,0.2-0.1,0.3-0.2,0.4c-0.1,0.1-0.2,0.2-0.4,0.2h-1.1c-0.2,0-0.3-0.1-0.4-0.2
		c-0.1-0.1-0.2-0.2-0.2-0.4V87.8z M411.6,109.2c0-0.3,0.1-0.4,0.4-0.4h0.5c0.5,0,1,0,1.3-0.1c0.3-0.1,0.6-0.2,0.8-0.4
		c0.2-0.2,0.4-0.5,0.5-0.8c0.1-0.4,0.1-0.8,0.1-1.4V93.9c0-0.1,0-0.3,0.1-0.4c0.1-0.1,0.2-0.2,0.3-0.2h1.2c0.1,0,0.2,0.1,0.3,0.2
		c0.1,0.1,0.1,0.2,0.1,0.4v12c0,0.6,0,1.2-0.1,1.8c-0.1,0.5-0.2,1-0.4,1.5c-0.3,0.6-0.8,1.1-1.4,1.3c-0.6,0.3-1.4,0.4-2.3,0.4
		c-0.1,0-0.3,0-0.5,0c-0.3,0-0.5,0-0.7-0.1c-0.2,0-0.3-0.1-0.3-0.2c0-0.1-0.1-0.2-0.1-0.3V109.2z"/>
	<path class="st1" d="M421.7,84.4c0-0.1,0-0.3,0.1-0.4c0.1-0.1,0.2-0.2,0.3-0.2h1.2c0.1,0,0.2,0.1,0.3,0.2c0.1,0.1,0.1,0.2,0.1,0.4
		v19.5c0,0.1,0,0.3-0.1,0.4c-0.1,0.1-0.2,0.2-0.3,0.2h-1.2c-0.1,0-0.2-0.1-0.3-0.2c-0.1-0.1-0.1-0.2-0.1-0.4V84.4z"/>
	<path class="st1" d="M460.6,107.3c0-0.2,0.1-0.4,0.3-0.6c0.2-0.2,0.4-0.3,0.6-0.3s0.4,0.1,0.6,0.3c0.2,0.2,0.3,0.4,0.3,0.6
		c0,0.2-0.1,0.4-0.3,0.6c-0.2,0.2-0.4,0.3-0.6,0.3s-0.4-0.1-0.6-0.3C460.7,107.8,460.6,107.6,460.6,107.3 M460.5,111.2
		c-0.3,0-0.5,0.1-0.8,0.2c-0.2,0.1-0.4,0.3-0.6,0.5c-0.2,0.2-0.3,0.4-0.4,0.7c-0.1,0.3-0.1,0.6-0.1,0.9c0,0.3,0,0.5,0.1,0.8
		c0.1,0.2,0.2,0.4,0.4,0.5c0.2,0.1,0.4,0.2,0.6,0.3c0.2,0.1,0.5,0.1,0.7,0.1c0.2,0,0.5,0,0.7-0.1c0.2-0.1,0.4-0.1,0.6-0.3
		c0.2-0.1,0.3-0.3,0.4-0.5c0.1-0.2,0.2-0.5,0.2-0.8c0-0.4-0.1-0.7-0.2-1c-0.1-0.3-0.2-0.5-0.4-0.7c-0.2-0.2-0.4-0.4-0.6-0.5
		C461,111.2,460.7,111.2,460.5,111.2 M458.5,107.3c0-0.2,0.1-0.4,0.3-0.6c0.2-0.2,0.4-0.3,0.6-0.3c0.2,0,0.4,0.1,0.6,0.3
		c0.2,0.2,0.3,0.4,0.3,0.6c0,0.2-0.1,0.4-0.3,0.6c-0.2,0.2-0.4,0.3-0.6,0.3c-0.2,0-0.4-0.1-0.6-0.3
		C458.5,107.8,458.5,107.6,458.5,107.3 M457.4,113.6c0-0.4,0.1-0.9,0.2-1.3c0.1-0.4,0.3-0.8,0.6-1.2c0.3-0.4,0.6-0.7,1-0.9
		c0.4-0.2,0.8-0.3,1.3-0.3c0.4,0,0.8,0.1,1.2,0.3c0.4,0.2,0.7,0.4,1,0.7c0.3,0.3,0.5,0.7,0.7,1.2c0.2,0.5,0.2,1,0.2,1.6
		c0,0.4-0.1,0.7-0.2,1.1c-0.1,0.3-0.3,0.6-0.6,0.9c-0.3,0.3-0.6,0.5-1,0.7c-0.4,0.2-0.9,0.3-1.4,0.3c-0.5,0-0.9-0.1-1.2-0.2
		c-0.4-0.1-0.7-0.3-1-0.5c-0.3-0.2-0.5-0.5-0.6-0.9C457.5,114.5,457.4,114,457.4,113.6"/>
	<path class="st1" d="M471.9,116.3c-0.4,0-0.8-0.1-1.1-0.3c-0.3-0.2-0.6-0.5-0.9-1c-0.1,0.3-0.3,0.5-0.5,0.7
		c-0.2,0.2-0.4,0.3-0.6,0.4c-0.2,0.1-0.5,0.1-0.7,0.2c-0.3,0-0.5,0-0.8,0h-2.5V115h2.9c0.5,0,0.8-0.1,1.1-0.2
		c0.2-0.1,0.4-0.3,0.4-0.5c0-0.2-0.1-0.4-0.2-0.6c-0.1-0.2-0.2-0.4-0.4-0.7l-1.7-2.6l1.3-0.8l2,3.2c0.2,0.4,0.4,0.7,0.6,0.9
		c0.2,0.3,0.3,0.5,0.5,0.6c0.1,0.2,0.3,0.3,0.4,0.4c0.1,0.1,0.3,0.1,0.4,0.1c0.4,0,0.7,0.2,0.7,0.7c0,0.3-0.1,0.5-0.2,0.6
		C472.3,116.3,472.1,116.3,471.9,116.3"/>
	<path class="st1" d="M471.9,116.3c-0.4,0-0.7-0.2-0.7-0.7c0-0.3,0.1-0.5,0.2-0.6c0.1-0.1,0.3-0.2,0.5-0.2h2.4
		c0.4,0,0.7,0.2,0.7,0.7c0,0.3-0.1,0.5-0.2,0.6c-0.1,0.1-0.3,0.2-0.5,0.2H471.9z"/>
	<path class="st1" d="M474.3,116.3c-0.4,0-0.7-0.2-0.7-0.7c0-0.3,0.1-0.5,0.2-0.6c0.1-0.1,0.3-0.2,0.5-0.2h2.4
		c0.4,0,0.7,0.2,0.7,0.7c0,0.3-0.1,0.5-0.2,0.6c-0.1,0.1-0.3,0.2-0.5,0.2H474.3z"/>
	<path class="st1" d="M476.7,116.3c-0.4,0-0.7-0.2-0.7-0.7c0-0.3,0.1-0.5,0.2-0.6c0.1-0.1,0.3-0.2,0.5-0.2h2.4
		c0.4,0,0.7,0.2,0.7,0.7c0,0.3-0.1,0.5-0.2,0.6c-0.1,0.1-0.3,0.2-0.5,0.2H476.7z"/>
	<path class="st1" d="M479.1,116.3c-0.4,0-0.7-0.2-0.7-0.7c0-0.3,0.1-0.5,0.2-0.6c0.1-0.1,0.3-0.2,0.5-0.2h2.4
		c0.4,0,0.7,0.2,0.7,0.7c0,0.3-0.1,0.5-0.2,0.6c-0.1,0.1-0.3,0.2-0.5,0.2H479.1z"/>
	<path class="st1" d="M481.5,116.3c-0.4,0-0.7-0.2-0.7-0.7c0-0.3,0.1-0.5,0.2-0.6c0.1-0.1,0.3-0.2,0.5-0.2h2.4
		c0.4,0,0.7,0.2,0.7,0.7c0,0.3-0.1,0.5-0.2,0.6c-0.1,0.1-0.3,0.2-0.5,0.2H481.5z"/>
	<path class="st1" d="M483.9,116.3c-0.4,0-0.7-0.2-0.7-0.7c0-0.3,0.1-0.5,0.2-0.6c0.1-0.1,0.3-0.2,0.5-0.2h6.5
		c0-0.7-0.1-1.3-0.3-1.8c-0.2-0.5-0.4-0.9-0.8-1.2c-0.3-0.3-0.7-0.5-1.1-0.6c-0.4-0.1-0.9-0.2-1.3-0.2c-0.3,0-0.6,0-1,0.1
		c-0.4,0.1-0.6,0.1-0.9,0.2v-1.3c0.2-0.1,0.5-0.1,0.9-0.2c0.4-0.1,0.8-0.1,1.2-0.1c0.8,0,1.5,0.1,2.1,0.4c0.6,0.3,1.1,0.6,1.5,1.1
		c0.4,0.5,0.7,1,0.9,1.6c0.2,0.6,0.3,1.3,0.3,2h1c0.4,0,0.7,0.2,0.7,0.7c0,0.3-0.1,0.5-0.2,0.6c-0.1,0.1-0.3,0.2-0.5,0.2H483.9z"/>
	<path class="st1" d="M496.3,107.3c0-0.2,0.1-0.4,0.3-0.6c0.2-0.2,0.4-0.2,0.6-0.2s0.4,0.1,0.6,0.2c0.2,0.2,0.3,0.4,0.3,0.6
		c0,0.2-0.1,0.4-0.3,0.6c-0.2,0.2-0.4,0.2-0.6,0.2s-0.4-0.1-0.6-0.2C496.4,107.8,496.3,107.6,496.3,107.3 M494.2,107.3
		c0-0.2,0.1-0.4,0.3-0.6c0.2-0.2,0.4-0.2,0.6-0.2c0.2,0,0.4,0.1,0.6,0.2c0.2,0.2,0.3,0.4,0.3,0.6c0,0.2-0.1,0.4-0.3,0.6
		c-0.2,0.2-0.4,0.2-0.6,0.2c-0.2,0-0.4-0.1-0.6-0.2C494.3,107.8,494.2,107.6,494.2,107.3 M492.9,116.3c-0.4,0-0.7-0.2-0.7-0.7
		c0-0.3,0.1-0.5,0.2-0.6c0.1-0.1,0.3-0.2,0.5-0.2h1.1c0.3,0,0.5,0,0.7,0c0.2,0,0.3-0.1,0.5-0.2c0.1-0.1,0.2-0.2,0.3-0.4
		c0.1-0.2,0.1-0.4,0.1-0.6v-3.7h1.3v3.1c0,0.3,0,0.5,0.1,0.7c0,0.2,0.1,0.4,0.2,0.6c0.1,0.1,0.3,0.3,0.4,0.4
		c0.2,0.1,0.4,0.1,0.7,0.1c0.4,0,0.7,0.2,0.7,0.7c0,0.3-0.1,0.5-0.2,0.6c-0.1,0.1-0.3,0.2-0.5,0.2c-0.4,0-0.8-0.1-1-0.3
		c-0.3-0.2-0.4-0.5-0.5-0.8c-0.2,0.4-0.5,0.7-0.9,0.9c-0.4,0.1-0.9,0.2-1.5,0.2H492.9z"/>
	<path class="st1" d="M505.5,113.5c0-0.2,0-0.5-0.1-0.7c-0.1-0.2-0.2-0.4-0.3-0.6c-0.1-0.2-0.3-0.3-0.5-0.4
		c-0.2-0.1-0.4-0.2-0.7-0.2c-0.5,0-0.9,0.2-1.3,0.6c-0.4,0.4-0.7,1.1-1.1,2.1c0.4,0.3,0.8,0.5,1.2,0.6c0.4,0.2,0.8,0.2,1.2,0.2
		c0.5,0,0.8-0.1,1.1-0.4C505.4,114.5,505.5,114.1,505.5,113.5 M508.3,116.3c-0.4,0-0.8-0.1-1.1-0.2c-0.3-0.2-0.6-0.4-0.7-0.8v0
		c-0.2,0.4-0.5,0.7-0.9,1c-0.4,0.2-0.9,0.3-1.5,0.3c-0.5,0-1-0.1-1.5-0.3c-0.5-0.2-1.1-0.5-1.6-0.9c-0.1,0.2-0.3,0.4-0.4,0.5
		c-0.1,0.1-0.3,0.2-0.5,0.3c-0.2,0.1-0.3,0.1-0.5,0.1c-0.2,0-0.4,0-0.6,0h-0.7c-0.4,0-0.7-0.2-0.7-0.7c0-0.3,0.1-0.5,0.2-0.6
		c0.1-0.1,0.3-0.1,0.5-0.1h0.7c0.1,0,0.3,0,0.4,0c0.1,0,0.3-0.1,0.4-0.2c0.1-0.1,0.3-0.3,0.4-0.5c0.1-0.2,0.3-0.4,0.4-0.8
		c0.3-0.7,0.5-1.3,0.8-1.7c0.3-0.4,0.6-0.8,0.8-1c0.3-0.2,0.6-0.4,0.9-0.5c0.3-0.1,0.6-0.1,0.9-0.1c0.4,0,0.8,0.1,1.1,0.2
		c0.3,0.2,0.6,0.4,0.9,0.7c0.3,0.3,0.5,0.6,0.6,1c0.1,0.4,0.2,0.8,0.2,1.3c0,0.1,0,0.2,0,0.2c0,0.1,0,0.1,0,0.2
		c0.1,0.4,0.3,0.6,0.5,0.8c0.2,0.2,0.5,0.3,1,0.3c0.4,0,0.7,0.2,0.7,0.7c0,0.3-0.1,0.5-0.2,0.6C508.7,116.3,508.5,116.3,508.3,116.3
		"/>
	<path class="st1" d="M508.3,116.3c-0.4,0-0.7-0.2-0.7-0.7c0-0.3,0.1-0.5,0.2-0.6c0.1-0.1,0.3-0.2,0.5-0.2h2.5v-10.3h1.3v11.6H508.3
		z"/>
</g>
<rect x="514.3" y="104.7" class="st1" width="1.3" height="11.6"/>
<g>
	<path class="st1" d="M525.8,113.5c0-0.2,0-0.5-0.1-0.7c-0.1-0.2-0.2-0.4-0.3-0.6c-0.1-0.2-0.3-0.3-0.5-0.4
		c-0.2-0.1-0.4-0.2-0.7-0.2c-0.5,0-0.9,0.2-1.3,0.6c-0.4,0.4-0.8,1.1-1,2.1c0.4,0.3,0.8,0.5,1.2,0.6c0.4,0.2,0.8,0.2,1.2,0.2
		c0.5,0,0.8-0.1,1.1-0.4C525.6,114.5,525.8,114.1,525.8,113.5 M528.6,116.3c-0.4,0-0.8-0.1-1.1-0.2c-0.3-0.2-0.5-0.4-0.7-0.8v0
		c-0.2,0.4-0.5,0.7-0.9,1c-0.4,0.2-0.9,0.3-1.5,0.3c-0.5,0-1-0.1-1.6-0.3c-0.5-0.2-1.1-0.5-1.6-0.9c-0.3,0.1-0.5,0.2-0.7,0.3
		c-0.2,0.1-0.3,0.3-0.4,0.5c-0.1,0.2-0.1,0.4-0.2,0.7c0,0.3,0,0.6,0,1.1v5h-1.4v-5c0-0.5,0-1,0.1-1.4c0.1-0.4,0.2-0.8,0.3-1.1
		c0.2-0.3,0.4-0.6,0.7-0.8c0.3-0.2,0.7-0.4,1.1-0.6c0.1-0.7,0.3-1.3,0.6-1.8c0.3-0.5,0.6-0.8,0.9-1.1c0.3-0.3,0.7-0.5,1-0.6
		c0.4-0.1,0.7-0.2,1-0.2c0.4,0,0.8,0.1,1.1,0.2c0.4,0.2,0.7,0.4,0.9,0.7c0.3,0.3,0.5,0.6,0.6,1c0.1,0.4,0.2,0.8,0.2,1.3
		c0,0.1,0,0.2,0,0.2c0,0.1,0,0.1,0,0.2c0.1,0.4,0.3,0.6,0.5,0.8c0.2,0.2,0.5,0.3,1,0.3c0.4,0,0.7,0.2,0.7,0.7c0,0.3-0.1,0.5-0.2,0.6
		C529,116.3,528.8,116.3,528.6,116.3"/>
	<path class="st1" d="M528.6,116.3c-0.4,0-0.7-0.2-0.7-0.7c0-0.3,0.1-0.5,0.2-0.6c0.1-0.1,0.3-0.2,0.5-0.2h2.4
		c0.4,0,0.7,0.2,0.7,0.7c0,0.3-0.1,0.5-0.2,0.6c-0.1,0.1-0.3,0.2-0.5,0.2H528.6z"/>
	<path class="st1" d="M531,116.3c-0.4,0-0.7-0.2-0.7-0.7c0-0.3,0.1-0.5,0.2-0.6c0.1-0.1,0.3-0.2,0.5-0.2h2.4c0.4,0,0.7,0.2,0.7,0.7
		c0,0.3-0.1,0.5-0.2,0.6c-0.1,0.1-0.3,0.2-0.5,0.2H531z"/>
	<path class="st1" d="M533.4,116.3c-0.4,0-0.7-0.2-0.7-0.7c0-0.3,0.1-0.5,0.2-0.6c0.1-0.1,0.3-0.2,0.5-0.2h2.4
		c0.4,0,0.7,0.2,0.7,0.7c0,0.3-0.1,0.5-0.2,0.6c-0.1,0.1-0.3,0.2-0.5,0.2H533.4z"/>
	<path class="st1" d="M535.8,116.3c-0.4,0-0.7-0.2-0.7-0.7c0-0.3,0.1-0.5,0.2-0.6c0.1-0.1,0.3-0.2,0.5-0.2h2.4
		c0.4,0,0.7,0.2,0.7,0.7c0,0.3-0.1,0.5-0.2,0.6c-0.1,0.1-0.3,0.2-0.5,0.2H535.8z"/>
	<path class="st1" d="M538.2,116.3c-0.4,0-0.7-0.2-0.7-0.7c0-0.3,0.1-0.5,0.2-0.6c0.1-0.1,0.3-0.2,0.5-0.2h2.4
		c0.4,0,0.7,0.2,0.7,0.7c0,0.3-0.1,0.5-0.2,0.6c-0.1,0.1-0.3,0.2-0.5,0.2H538.2z"/>
	<path class="st1" d="M547.9,113.5c0-0.2,0-0.5-0.1-0.7c-0.1-0.2-0.2-0.4-0.3-0.6c-0.1-0.2-0.3-0.3-0.5-0.4
		c-0.2-0.1-0.4-0.2-0.7-0.2c-0.5,0-0.9,0.2-1.3,0.6c-0.4,0.4-0.7,1.1-1.1,2.1c0.4,0.3,0.8,0.5,1.2,0.6c0.4,0.2,0.8,0.2,1.2,0.2
		c0.5,0,0.8-0.1,1.1-0.4C547.7,114.5,547.9,114.1,547.9,113.5 M540.6,116.3c-0.4,0-0.7-0.2-0.7-0.7c0-0.3,0.1-0.5,0.2-0.6
		c0.1-0.1,0.3-0.1,0.5-0.1h0.7c0.1,0,0.3,0,0.4,0c0.1,0,0.3-0.1,0.4-0.2c0.1-0.1,0.3-0.3,0.4-0.5c0.1-0.2,0.3-0.4,0.4-0.8
		c0.2-0.7,0.5-1.3,0.8-1.7c0.3-0.4,0.6-0.8,0.8-1c0.3-0.2,0.6-0.4,0.9-0.5c0.3-0.1,0.6-0.1,0.9-0.1c0.4,0,0.8,0.1,1.1,0.2
		c0.4,0.2,0.7,0.4,0.9,0.7c0.3,0.3,0.5,0.6,0.6,1c0.1,0.4,0.2,0.8,0.2,1.3c0,0.9-0.2,1.7-0.7,2.2c-0.5,0.5-1.1,0.8-2.1,0.8
		c-0.5,0-1-0.1-1.5-0.3c-0.5-0.2-1.1-0.5-1.6-0.9c-0.1,0.2-0.3,0.4-0.4,0.5c-0.1,0.1-0.3,0.2-0.5,0.3c-0.2,0.1-0.3,0.1-0.5,0.1
		c-0.2,0-0.4,0-0.6,0H540.6z"/>
	<path class="st1" d="M556.1,106.4h-3v-0.7h0.7c-0.2-0.2-0.2-0.5-0.2-0.8c0-0.2,0-0.4,0.1-0.6c0.1-0.2,0.2-0.3,0.3-0.5
		c0.1-0.1,0.3-0.2,0.5-0.3c0.2-0.1,0.3-0.1,0.5-0.1c0.2,0,0.3,0,0.5,0c0.1,0,0.2,0.1,0.3,0.1v0.8c-0.2-0.1-0.4-0.1-0.7-0.1
		c-0.3,0-0.5,0.1-0.6,0.2c-0.1,0.2-0.2,0.3-0.2,0.5c0,0.2,0.1,0.4,0.2,0.6c0.1,0.2,0.4,0.2,0.6,0.2h0.9V106.4z M559.8,104.7v11.6
		h-9.3V115h3.7v-7.9h1.3v7.9h2.9v-10.3H559.8z"/>
</g>
<rect x="561.9" y="104.7" class="st1" width="1.3" height="11.6"/>
<g>
	<path class="st1" d="M482.5,8.6c-2.8,2.4-4.6,5.5-6.7,8.3c-1.8,2.3-4.2,3.8-6.3,5.7c1.1-2.3,1.3-5,2.7-7.2
		C474.7,11.6,478.7,10.1,482.5,8.6 M467.4,17.1c1.4-1.6,3-2.8,5-3.3c-3.7,2.6-3.5,7.1-4.6,10.9c-0.4,1.4-1,2.7-1.4,4.1l0.1,0.1
		c0.6-1.6,1.7-3.2,3.1-4.5c2.6-2.5,6.5-4,7.8-7.6c-0.1,5-4.3,8.8-8.2,11.8c-1.7,1.3-3.2,3.1-4.1,5c0.2-1.4,0.2-2.5,0.1-3.9
		C464.7,25.3,464.4,20.4,467.4,17.1 M459.9,32c0-4.4,1.7-8,4.3-11.3c0.1,0,0.1-0.1,0.2-0.1c-2.8,4.3-0.3,9.8-0.6,14.7l-0.4,5
		c0.1,0,0.1,0.2,0.2,0.1c0.2-0.6,0.2-1.2,0.3-1.7c0.7-4.1,4.3-6.9,7.3-9.8c0.7-0.7,1.2-1.5,1.6-2.3c-0.3,2-0.8,4.1-1.7,5.9
		c-2.3,4.7-6.8,8.5-7.6,13.9C463,41.3,459.9,37.5,459.9,32 M457.7,38.3c0.3-1.4,0.6-2.8,1.2-4.1c-1.1,5.9,2.8,10.1,4.1,15.2
		c0.5,1.9,0.7,3.9,1.4,5.7c0.1,0,0.1,0,0.2-0.1c-1.9-5.4,0.9-10.4,3.6-14.6c0.7-1.1,1.1-2.4,1.4-3.7c0.3,2.4-0.2,5.3-0.7,7.8
		c-0.6,3.2-1.7,6.3-2.6,9.4c-0.6,2-0.4,4.2-0.1,6.2l-0.3-0.2c-2-3.8-6.1-6.7-7.3-10.8C457.7,45.7,457.1,41.9,457.7,38.3 M457.5,49.7
		c0.4,6.2,7.1,9.5,10.2,14.6c0.7,1.1,1.4,2.2,2.3,3.1c-0.2-0.7-0.7-1.2-1-1.9c-1-2.2-1.5-4.7-1.2-7.3c0.3-3.2,1.6-6.1,1.1-9.4
		c2.7,5.9,1.8,13.2,3.4,19.5c0.3,1.4,1.2,2.6,1.7,4c-2.7-2-6.2-3.8-9.1-6.1c-2.8-2.2-5.3-4.9-6.6-8.3
		C457.6,55.4,457.3,52.5,457.5,49.7 M460.9,64c3.1,7,10.9,7.6,16.1,11.9c1,0.8,2,1.6,3.1,2.1l0.1-0.1c-1.2-1.1-2.5-2.4-3.4-3.7
		c-3-4.3-2-10.2-4.3-14.8c2.1,2.5,4,5.1,5.2,7.9c1.9,4.6,2.6,9.8,6.9,13.3c-4.7-1.5-10.1-1.2-14.3-4C465.8,73.7,461.7,69.2,460.9,64
		 M468.9,77.1c5,5.7,13.1,3.9,19.8,5.3c0.9,0.2,1.8,0.5,2.8,0.4c-0.8-0.5-1.8-0.6-2.8-0.9c-5.2-1.9-6-7.5-8.8-11.3
		c3.6,2.4,6.6,5.7,10,8.8c2.4,2.2,5.3,3.1,8.3,3.7c-0.7,0.3-1.7,0.2-2.5,0.4c-5.5,1.4-11.5,3.5-17.3,1.6
		C474.7,83.8,470.8,80.8,468.9,77.1 M524.6,92.8c-0.6,0.7-1.4,1.3-2.1,2c-4.8-5-10.5-10.5-15.8-10.5c-3.3,0-5.7,2.5-8.5,4.3
		c-3.9,2.5-9.2,3.9-13.8,2.1c-2.5-0.9-4.8-2.3-6.6-4.5c3.6,2.5,9,2.8,13,1.1c4.5-1.9,9-4.3,14.2-4.3C512.4,82.9,519.5,88,524.6,92.8
		"/>
	<path class="st1" d="M538.2,8.6c2.8,2.4,4.6,5.5,6.7,8.3c1.8,2.3,4.2,3.8,6.3,5.7c-1.1-2.3-1.3-5-2.8-7.2
		C546,11.6,541.9,10.1,538.2,8.6 M553.3,17.1c-1.4-1.6-3-2.8-5-3.3c3.7,2.6,3.5,7.1,4.6,10.9c0.4,1.4,1,2.7,1.4,4.1l-0.1,0.1
		c-0.6-1.6-1.7-3.2-3.1-4.5c-2.6-2.5-6.5-4-7.8-7.6c0.1,5,4.3,8.8,8.2,11.8c1.8,1.3,3.2,3.1,4.1,5c-0.2-1.4-0.2-2.5-0.1-3.9
		C556,25.3,556.3,20.4,553.3,17.1 M560.8,32c0-4.4-1.7-8-4.3-11.3c-0.1,0-0.1-0.1-0.2-0.1c2.8,4.3,0.3,9.8,0.6,14.7l0.4,5
		c-0.1,0-0.1,0.2-0.2,0.1c-0.2-0.6-0.2-1.2-0.3-1.7c-0.7-4.1-4.3-6.9-7.3-9.8c-0.7-0.7-1.2-1.5-1.6-2.3c0.2,2,0.8,4.1,1.7,5.9
		c2.3,4.7,6.8,8.5,7.6,13.9C557.6,41.3,560.8,37.5,560.8,32 M562.9,38.3c-0.3-1.4-0.6-2.8-1.2-4.1c1.1,5.9-2.8,10.1-4.1,15.2
		c-0.5,1.9-0.7,3.9-1.4,5.7c-0.1,0-0.1,0-0.2-0.1c1.9-5.4-0.9-10.4-3.6-14.6c-0.7-1.1-1.1-2.4-1.4-3.7c-0.3,2.4,0.2,5.3,0.7,7.8
		c0.6,3.2,1.7,6.3,2.6,9.4c0.6,2,0.4,4.2,0.1,6.2l0.3-0.2c2-3.8,6.1-6.7,7.3-10.8C562.9,45.7,563.6,41.9,562.9,38.3 M563.1,49.7
		c-0.4,6.2-7.1,9.5-10.2,14.6c-0.7,1.1-1.4,2.2-2.3,3.1c0.2-0.7,0.7-1.2,1-1.9c1-2.2,1.5-4.7,1.2-7.3c-0.3-3.2-1.6-6.1-1.1-9.4
		c-2.7,5.9-1.8,13.2-3.4,19.5c-0.3,1.4-1.2,2.6-1.7,4c2.7-2,6.2-3.8,9.1-6.1c2.8-2.2,5.3-4.9,6.6-8.3
		C563.1,55.4,563.3,52.5,563.1,49.7 M559.8,64c-3.1,7-10.9,7.6-16.1,11.9c-1,0.8-2,1.6-3.1,2.1l-0.1-0.1c1.2-1.1,2.5-2.4,3.4-3.7
		c3-4.3,2-10.2,4.3-14.8c-2.1,2.5-4,5.1-5.2,7.9c-1.9,4.6-2.6,9.8-6.9,13.3c4.7-1.5,10.1-1.2,14.3-4C554.8,73.7,558.9,69.2,559.8,64
		 M551.8,77.1c-5,5.7-13.1,3.9-19.8,5.3c-0.9,0.2-1.8,0.5-2.8,0.4c0.8-0.5,1.8-0.6,2.8-0.9c5.2-1.9,6-7.5,8.8-11.3
		c-3.6,2.4-6.6,5.7-10,8.8c-2.3,2.2-5.3,3.1-8.3,3.7c0.7,0.3,1.7,0.2,2.5,0.4c5.5,1.4,11.5,3.5,17.3,1.6
		C546,83.8,549.9,80.8,551.8,77.1 M496.1,92.8c0.6,0.7,1.4,1.3,2.1,2c4.8-5,10.5-10.5,15.8-10.5c3.3,0,5.7,2.5,8.5,4.3
		c3.9,2.5,9.2,3.9,13.8,2.1c2.5-0.9,4.8-2.3,6.6-4.5c-3.6,2.5-9,2.8-13,1.1c-4.5-1.9-9.1-4.3-14.2-4.3
		C508.3,82.9,501.1,88,496.1,92.8"/>
	<path class="st1" d="M544,58.7l-0.8-0.4c-1.7,3.6-4,6.8-6.7,9.6l-4.8-4.8c2.3-2.4,4.2-5.1,5.6-8.1l-0.8-0.4
		c-1.4,2.9-3.2,5.6-5.4,7.9l-4.3-4.3c1.8-1.9,3.3-4.1,4.4-6.5l-0.8-0.4c-1,2.3-2.5,4.5-4.2,6.3l-4.8-4.8c1.3-1.4,2.3-3,3-4.8
		l-0.8-0.4c-0.7,1.7-1.6,3.2-2.9,4.6l-4.3-4.3c1.2-1.4,1.9-3.1,2-4.9h6.1c-0.1,1.7-0.4,3.2-1,4.7l0.8,0.4c0.6-1.6,1-3.4,1.1-5.1h6.7
		c-0.1,3-0.7,5.8-1.9,8.4l0.8,0.4c1.2-2.7,1.9-5.7,2-8.8h6.1c-0.1,4.2-1,8.2-2.7,11.7l0.8,0.4c1.8-3.8,2.7-7.9,2.8-12.2h6.7
		c-0.1,5.5-1.4,10.7-3.6,15.4L544,58.7c2.4-5,3.7-10.6,3.7-16.3c0-4.9-0.9-9.6-2.7-14l-0.8,0.4c1.7,4.1,2.6,8.6,2.6,13.2H540
		c-0.1-3.7-0.8-7.2-2.1-10.5l-0.8,0.4c1.3,3.2,2,6.6,2,10.2H533c-0.1-2.7-0.6-5.3-1.5-7.8l-0.8,0.4c0.9,2.3,1.4,4.8,1.5,7.4h-6.7
		c0-1.6-0.4-3.2-0.9-4.8l-0.8,0.4c0.5,1.4,0.8,2.9,0.8,4.4h-6.1c-0.1-1.8-0.8-3.6-2-4.9l4.3-4.3c1.3,1.4,2.3,3.1,3,4.9l0.8-0.4
		c-0.7-1.9-1.8-3.6-3.2-5.1l4.8-4.8c2,2.1,3.6,4.6,4.6,7.2l0.8-0.4c-1.1-2.8-2.7-5.3-4.8-7.5l4.3-4.3c2.7,2.8,4.7,6,6.1,9.4l0.8-0.4
		c-1.4-3.6-3.5-6.9-6.3-9.7l4.8-4.8c3.4,3.5,6,7.5,7.7,11.8l0.8-0.4c-1.9-4.6-4.6-8.8-8.2-12.4c-3.6-3.6-7.9-6.4-12.5-8.3L524,8.5
		c4.4,1.8,8.4,4.4,11.8,7.7L531,21c-2.8-2.7-6-4.8-9.5-6.2l-0.3,0.8c3.4,1.4,6.5,3.4,9.2,6l-4.3,4.3c-2.1-2-4.5-3.6-7.1-4.7
		l-0.3,0.8c2.5,1,4.8,2.5,6.8,4.5l-4.8,4.8c-1.3-1.3-2.9-2.3-4.5-2.9l-0.3,0.8c1.5,0.6,3,1.6,4.2,2.7l-4.3,4.3
		c-1.4-1.2-3.1-1.9-4.9-2v-6.1c1.8,0.1,3.5,0.4,5,1.1l0.3-0.8c-1.7-0.7-3.5-1.1-5.4-1.2v-6.7c2.7,0.1,5.4,0.6,7.8,1.6l0.3-0.8
		c-2.6-1.1-5.3-1.6-8.2-1.7v-6.1c3.6,0.1,7.1,0.8,10.4,2.1l0.3-0.8c-3.4-1.4-7-2.1-10.7-2.2V5.9c4.6,0.1,9,1,13.2,2.6l0.3-0.8
		c-4.4-1.8-9.1-2.7-14-2.7c-6,0-11.7,1.4-16.7,4l0.4,0.8c4.9-2.4,10.3-3.8,15.9-3.8v6.7c-4.6,0.1-8.9,1.2-12.7,3.1l0.4,0.8
		c3.8-1.9,8-2.9,12.3-3v6.1c-3.4,0.1-6.6,0.9-9.5,2.3l0.4,0.8c2.8-1.4,5.9-2.1,9.1-2.2v6.7c-2.1,0.1-4.1,0.6-5.9,1.4l0.4,0.8
		c1.7-0.8,3.6-1.2,5.5-1.3v6.1c-0.9,0.1-1.9,0.3-2.7,0.6l0.4,0.8c0.9-0.3,1.8-0.5,2.7-0.5c1.9,0,3.7,0.7,5.1,2.1
		c1.4,1.4,2.1,3.2,2.1,5.1c0,4-3.2,7.2-7.2,7.2c-1.9,0-3.7-0.7-5.1-2.1c-1.4-1.4-2.1-3.2-2.1-5.1c0-1.9,0.7-3.7,2.1-5.1
		c0.7-0.7,1.5-1.2,2.4-1.6l-0.4-0.8c-0.8,0.3-1.6,0.8-2.2,1.4l-4.3-4.3c1.1-1.1,2.4-1.9,3.7-2.5l-0.4-0.8c-1.5,0.7-2.8,1.6-4,2.7
		l-4.8-4.8c1.7-1.6,3.6-2.9,5.6-3.9l-0.4-0.8c-2.1,1-4.1,2.4-5.8,4.1l-4.3-4.3c2.2-2.1,4.6-3.8,7.3-5.2l-0.4-0.8
		c-2.8,1.4-5.3,3.2-7.5,5.3l-4.8-4.8c2.7-2.7,5.8-4.9,9.2-6.5L493.6,9c-7.3,3.7-13.2,9.6-16.8,16.9l0.8,0.4c1.7-3.4,3.9-6.6,6.6-9.4
		l4.8,4.8c-2.2,2.3-4.1,4.9-5.5,7.8l0.8,0.4c1.3-2.8,3.1-5.4,5.3-7.6l4.3,4.3c-1.7,1.8-3.2,3.9-4.3,6.2l0.8,0.4c1-2.2,2.4-4.2,4.1-6
		l4.8,4.8c-1.2,1.3-2.2,2.8-2.9,4.5l0.8,0.4c0.6-1.6,1.6-3,2.8-4.3l4.3,4.3c-1.2,1.3-1.9,3-2,4.9h-6.1c0.1-1.7,0.4-3.4,1.1-5
		l-0.8-0.4c-0.7,1.7-1.1,3.5-1.2,5.4h-6.7c0.1-3,0.7-6,2-8.6l-0.8-0.4c-1.3,2.8-2,5.8-2.1,9.1h-6.1c0.1-4.2,1-8.3,2.8-12l-0.8-0.4
		c-1.8,3.8-2.9,8-2.9,12.4h-6.7c0.1-5.5,1.4-10.8,3.7-15.6l-0.8-0.4c-2.5,5-3.8,10.6-3.8,16.5c0,3.6,0.5,7.2,1.5,10.5l0.9-0.2
		c-0.9-3.2-1.4-6.5-1.5-9.9h6.7c0,2.8,0.5,5.6,1.3,8.2l0.9-0.2c-0.8-2.6-1.2-5.2-1.2-8h6.1c0,2.2,0.4,4.4,1.1,6.5l0.9-0.2
		c-0.7-2-1-4.1-1.1-6.3h6.7c0,1.6,0.3,3.2,0.9,4.6l0.9-0.2c-0.5-1.4-0.8-2.9-0.8-4.4h6.1c0.1,1.8,0.8,3.6,2,4.9l-4.3,4.3
		c-1.3-1.4-2.3-3.1-3-4.9l-0.9,0.2c0.7,1.9,1.8,3.7,3.2,5.3l-4.8,4.8c-2.3-2.4-4-5.3-5-8.4l-0.9,0.2c1,3.3,2.8,6.3,5.3,8.8l-4.3,4.3
		c-3.2-3.3-5.6-7.3-6.9-11.6l-0.9,0.2c1.4,4.5,3.8,8.6,7.1,12l-4.8,4.8c-4.2-4.3-7.2-9.5-8.9-15.2l-0.9,0.2
		c1.7,5.9,4.9,11.4,9.4,15.9c3,3,6.5,5.5,10.3,7.3l0.4-0.8c-3.6-1.7-6.9-4-9.8-6.8l4.8-4.8c2.5,2.4,5.3,4.3,8.4,5.7l0.4-0.8
		c-3-1.4-5.7-3.2-8.2-5.6l4.3-4.3c2,1.9,4.3,3.5,6.9,4.5l0.4-0.8c-2.4-1-4.7-2.5-6.7-4.4l4.8-4.8c1.5,1.4,3.3,2.5,5.3,3.2l0.5-0.8
		c-1.9-0.6-3.6-1.7-5.1-3.1l4.3-4.3c1.4,1.2,3.1,1.9,4.9,2v6.1c-1.4,0-2.9-0.3-4.2-0.8l-0.5,0.8c1.5,0.5,3,0.8,4.6,0.9v6.7
		c-2.8-0.1-5.5-0.6-8-1.7l-0.4,0.8c2.6,1.1,5.5,1.7,8.4,1.8v6.1c-4-0.1-7.9-0.9-11.4-2.6l-0.4,0.8c3.7,1.7,7.7,2.6,11.9,2.7v6.7
		c-5.4-0.1-10.5-1.3-15.2-3.5l-0.4,0.8c5,2.4,10.4,3.6,16.1,3.6c6,0,11.7-1.4,16.8-4l-0.4-0.8c-4.8,2.4-10.2,3.8-16,3.9v-6.7
		c4.6-0.1,8.9-1.2,12.9-3.1l-0.4-0.8c-3.8,1.9-8,3-12.5,3.1v-6.1c3.4-0.1,6.7-0.9,9.7-2.4l-0.4-0.8c-2.8,1.4-5.9,2.2-9.3,2.3v-6.7
		c2.2-0.1,4.3-0.6,6.2-1.5l-0.4-0.8c-1.8,0.9-3.7,1.4-5.8,1.4v-6.1c1.8-0.1,3.6-0.8,4.9-2l4.3,4.3c-1,1-2.2,1.8-3.5,2.4l0.4,0.8
		c1.4-0.7,2.6-1.5,3.7-2.6l4.8,4.8c-1.6,1.5-3.4,2.8-5.4,3.8l0.4,0.8c2-1,3.9-2.3,5.6-4l4.3,4.3c-2.1,2-4.5,3.7-7.1,5.1l0.4,0.8
		c2.7-1.3,5.2-3.1,7.4-5.2l4.8,4.8c-2.7,2.6-5.7,4.8-9,6.5l0.4,0.8c3.5-1.8,6.7-4.1,9.6-6.9C539.8,65.8,542.2,62.4,544,58.7
		L544,58.7z"/>
</g>
<polygon class="st1" points="512.2,33.7 512.2,34 512.5,34 512.5,33.7 "/>
<rect x="511.9" y="33.4" class="st1" width="0.3" height="0.2"/>
<polygon class="st1" points="511.4,33.3 511.6,33.3 511.7,33.1 511.4,33.1 "/>
<polygon class="st1" points="510.9,33.2 511.1,33.2 511.2,33 510.9,33 "/>
<rect x="509" y="32.9" class="st1" width="0.3" height="0.2"/>
<polygon class="st1" points="508.3,33.4 508.6,33.4 508.6,33.2 508.3,33.1 "/>
<polygon class="st1" points="508,33.6 508.3,33.7 508.4,33.5 508.1,33.4 "/>
<polygon class="st1" points="507.8,33.8 507.8,34 508,34 508,33.7 "/>
<polygon class="st1" points="477.9,57.1 477.9,57.5 478.2,57.5 478.2,58 478.4,58 478.4,57.4 478.1,57.3 478.1,57.1 "/>
<polygon class="st1" points="480.1,59.5 480.2,59.9 480.5,60.3 480.9,60.7 481.1,60.4 480.8,59.9 480.5,59.7 480.4,59.1 479.8,58.9 
	"/>
<polygon class="st1" points="488.7,70.6 488.7,70.9 489.1,71.1 489.2,71.3 489.5,71.1 489.3,70.6 488.8,70.2 488.4,70.1 "/>
<g>
	<path class="st1" d="M509.2,36.2h-0.4l-0.1-0.8l0.2-0.2v-0.4h-1.3l0-0.4l0.2-0.1l-0.3-0.1l-0.2,0.3l-0.1,0.3l-0.4,0.1v0.2h-0.3v0.5
		l-1.1,0.9l-2.1-0.1c-0.2,0.3-0.5,0-0.5,0c-0.1-0.2-0.6,0-0.6,0c0,0.4-0.7-0.2-0.7-0.2l-1.3-1c-0.8-0.7-1.9,0.2-1.9,0.4
		c0,0.5-0.9,0.1-0.9,0.1s-0.8-0.2-0.9,0.1c-0.1,0.3-0.6,0.2-0.6,0.2l-0.1,0.2l-0.4,0.1l-0.1,0.2l-0.5,0.1l1.1,0
		c0.3,0-0.1,0.7-0.3,0.6l-0.5,0l-0.2,0.2h-0.5l-0.2,0.3l-0.7,0c0,0-0.4,0.3-0.4,0.5c0,0.1-0.1,0.5-0.2,0.5c-0.1,0-0.3,0.3-0.3,0.5
		c0.1,0.1-0.2,0.5-0.2,0.5l-0.1,0.4l-0.2,0.1v1l-0.5,0.3v0.5l-0.7,0.7l0.1,0.6l-0.6,0.6l0.1,0.6l-0.3,0.1l-0.1,0.3l-0.1,0.8l0.4,0
		c0.2-0.1,0.2,0.5,0,0.6c-0.2,0.1-0.6,0.2-0.3,0.4c0.2,0.2-0.6,0.1-0.6-0.1s-0.5-0.4-0.6-0.3c-0.1,0.1-0.3-0.3-0.3-0.3
		c-0.4-0.4-1.7,0-1.7,0l-0.2,0.6c-0.4,0.1-0.7,0.8-0.7,0.8c-0.3,0.1-0.6,0.5-0.5,0.7c0.1,0.1-0.2,0.2-0.2,0.2v0.8l-0.2,0.3l0,0.9
		c0.2,0,0.2,0.4,0.2,0.4c-0.4,0-0.3,0.5-0.3,0.5l-0.8,0.3l-0.1,0.2l-1,0l-0.3,0.3l-0.3-0.3h-1.9l-0.1-0.2l-0.4-0.1l0-0.4l-0.6,0
		l-0.1,0.2l-0.6,0c0,0.4-0.6,1-0.7,0.8c-0.1-0.2-0.5-0.6-0.3-0.7c0.2-0.1,0.7-0.2,0.7-0.2v-0.3l-1.4,0l-0.2,0.2l-0.6,0v0.6l-0.3,0.1
		c-0.2,0.1,0,0.5,0,0.5c0.3,0.3,0,0.7,0,0.7c-0.2,0.2,0.2,0.7,0.2,0.7c0.3,0.1-0.2,0.3-0.2,0.3c0.1,0.4,0.3,0.5,0.3,0.5
		c-0.2,0.4,0.2,0.6,0.2,0.6l0,0.6l0.3,0.2v0.4l0.2,0.3h0.6l0-1c-0.5-0.6,0.5-0.8,0.5-0.5c0,0.2,0.5,0.3,0.5,0.3
		c0.1,0.6,0.7,0.9,0.9,0.3c0.2-0.6,0.3-0.2,0.5,0c0.1,0.3,0.8,0.9,0.8,0.9h0.6l0.1,0.5c0.6,0,0.8,0,1.1,0.9c0.3,0.9,1,1.1,1,1.1
		l0.5,0c0-0.5,0.5,0.1,0.5,0.3c0,0.2,1,1.1,1,1.1l1,0.2l0.9,0.8l0.7-0.1h0.3c0.2-0.7,1.1,0,1.2,0.3c0.1,0.2,0.7,0.6,0.8,0.4
		c0.1-0.2,0.5-0.1,0.6,0.5c0.1,0.6,0.3,0.5,0.3,0.5l2.1,0l0.8-0.7l1.9,0c1,0,0.4-1.4,0.2-1.4c-0.3-0.3,0.1-1.4,0.1-1.4l-2.8-2.6
		c-0.6,0-0.1-0.9-0.1-0.9c0.5-0.3-0.1-0.8-0.1-0.8c0.1-0.5-0.3-1-0.3-1c-0.7-0.5-0.5-1.3-0.5-1.3v-0.6c-0.6-0.5,0.2-0.6,0.2-0.6
		c0.3-0.5-0.2-0.8-0.2-0.8l0-0.5l-0.6-0.1l-0.1-1.8l-1.4-2c-0.3-0.1-0.1-0.5-0.1-0.5c0.3-0.2-0.1-0.7-0.1-0.7l0-0.8l0.8-0.1l0.2-0.3
		h0.4l0-1c0.2-0.5,0.6-0.2,0.6-0.2l0.5,0l0.3-0.6l0.1-0.5l-0.4,0c-0.5-0.3-0.2-1.3-0.2-1.3c0.7-1.1,1.5-0.5,1.5-0.5l0.5,0
		c0.8,0.5,0.1,1.5,0.1,1.5c-0.2,0.2-0.1,1-0.1,1l0.2,1.2l-0.5,0.4c-0.4,0.2-0.4,0.8,0,0.9c0.3,0,0.2,0.8-0.3,0.3
		c-0.7,0,0.4,0.6,0.1,0.5c0.7,0.3,0.5-0.3,0.5-0.3l0.9-0.7c0.3-0.3,0.9,0.6,0.9,0.7c0,0.1,1.5,0,1.5,0c0.4,0.3,0.6,1,0.6,1
		c0.4-0.5,1.3,0,0.6,0.3c0.6,0.4,0.6,0.7,0.6,0.7c0.5-0.2,0.5,0.2,0.5,0.3c0,0.1,0.2-0.6,0.2-0.6c-0.6-0.4,0.8-0.6,0.4,0.2l-0.2,0.3
		l0.4,0.3l0,0.9c0.8-0.1,0.6-1.1,0.6-1.1l0.4-0.1c0-0.3,0.3-0.2,0.3-0.2c-0.3-1.3,0.6-1.5,0.6-1.5c0.5-0.1,0.5-1.1,0.5-1.1
		c-0.3-0.2-0.2-0.7,0.2-0.2c0.4,0.5-0.2-0.9-0.2-0.9l-0.3-0.3l-0.4,0l0-0.4h-0.7l-0.1,0.5l-0.3,0.1l-0.1-0.2l-0.1,0.4h-0.7l0-0.5
		l0.4-0.1l0.2-0.2l0.1-0.6h0.5l0.6-0.2c0-0.7,0.4-0.5,0.4-0.5l0.2,0.2l0.3,0.3l0,0.2l-0.2,0.1l0,0.3l0.1,0.4h0.3
		c0.1-0.6,0.9-0.6,1.1-0.2l0.2-0.5c-0.5-0.3,0-0.7,0.1-0.5c0.2,0.2,0.5-0.5,0.5-0.5s0.3,0.3,0-0.1c-0.3-0.5,0.2-0.7,0.2-0.7
		c-0.1-0.5,0.5-0.4,0.5-0.4l0-0.6l-0.5,0c-0.1,0.5-0.6,0.1-0.3,0c0.2-0.1,0.5-0.3,0.5-0.3V39l0.2-0.1l0-0.4h0.6l0.5-0.2l0.1-0.2
		l0.5,0l0.8-0.7l-0.1-0.3c-0.5,0,0-0.3,0-0.3L509.2,36.2z"/>
	<path class="st1" d="M494,43.8l-0.7-0.1l0,0.3h0.2c0.3,0.5,0,1.8,0,1.8s-0.4,0-0.5-0.2c-0.1-0.2-0.3,0.5-0.1,0.6
		c0.2,0.1,0.7,0,0.7,0.4c0,0.4,0.3-0.3,0.3-0.3V43.8z"/>
</g>
<polygon class="st1" points="493.7,47.1 493.3,46.9 493.3,47.8 493.9,48.6 494.1,48.1 494.2,47.7 493.9,47.6 494,47 494.2,47 
	494.2,46.7 "/>
<polygon class="st1" points="494,49.1 494,49.4 494.3,49.4 494.3,49.1 "/>
<polygon class="st1" points="493.6,51.1 493.6,51.3 493.9,51.3 493.9,51 "/>
<g>
	<path class="st1" d="M494.4,50.1c0.1,0,0.2-0.1,0.2-0.2c0-0.1-0.1-0.2-0.2-0.2c-0.1,0-0.2,0.1-0.2,0.2
		C494.2,50,494.3,50.1,494.4,50.1"/>
	<path class="st1" d="M494.6,50.6c0.1,0,0.2,0.1,0.2,0.2c0,0.1-0.1,0.2-0.2,0.2c-0.1,0-0.2-0.1-0.2-0.2
		C494.5,50.7,494.5,50.6,494.6,50.6"/>
	<path class="st1" d="M494.6,46.2c0.1,0,0.2,0.1,0.2,0.2c0,0.1-0.1,0.2-0.2,0.2c-0.1,0-0.2-0.1-0.2-0.2
		C494.5,46.3,494.5,46.2,494.6,46.2"/>
</g>
<polygon class="st1" points="507,42.9 507.1,42.5 507.1,42.1 507.3,41.9 507.7,41.7 507.7,41 507.5,41 507.5,40.7 507,40.7 
	507,40.9 506.8,40.9 506.7,41.2 507,41.2 507,41.4 506.9,41.6 506.8,41.8 506.5,41.8 505.8,42.5 505.8,42.8 505.6,43.1 505.3,43.6 
	504.6,43.7 504.4,44.4 504.5,44.9 505.2,45.2 505.3,44.8 505.5,44.7 505.5,44.3 505.7,44.1 505.9,43.8 506,43.5 506.4,43.2 
	506.8,43.2 "/>
<g>
	<path class="st1" d="M508.5,43.3v-0.5l-0.1-0.5l-0.6-0.3l-0.4,0.4l-0.1,0.5v0.3l-0.4,0.1l-0.1,1l-0.3,0.1l0,0.4l-0.4,0.1l-0.4,0.1
		l-0.1,0.5l-0.3,0.2l-0.2,0.5l-0.2,1.1c0,0,0.3,0.7,0.5,0.3c0.2-0.3,0.5-0.3,0.5-0.3l0.1-0.3l1,0c0.1-0.4,0.6-0.3,0.6-0.1
		c0,0.2,0.4,0,0.4,0l0.3-0.4h0.4l0-0.5l0.2-0.1v-0.7c0.6-0.2,0.5-0.8,0.5-0.8l0.2-0.2l-0.1-0.3c-0.3-0.1-0.2-0.4,0-0.3
		c0.2,0.1-0.3-0.3-0.3-0.3c-0.2,0.2-0.4-0.2-0.4-0.2H508.5z"/>
	<path class="st1" d="M509.1,48c0,0.5-0.6,0.6-0.6,0.6l-0.4-0.1l-0.2-0.2l0-0.5l0.3,0l0.1,0.2L509.1,48z"/>
	<path class="st1" d="M511.2,45.5c0.1,0.3,0.1-0.5,0.2-0.5c0.2,0,0-0.5,0-0.5l-0.7,0.5C511.1,45,511.1,45.4,511.2,45.5"/>
	<path class="st1" d="M513.1,43.5c0.2,0.3,0.1,0.8,0.7,1.2c0.2,0.1-0.1,0.4-0.3,0.3c-0.2-0.1-0.7-1-0.7-1v-0.5
		C512.9,43.2,513.1,43.4,513.1,43.5"/>
</g>
<polygon class="st1" points="513.2,55.1 513.3,55.3 513.4,55.5 513.6,55 513.4,55 "/>
<rect x="517.6" y="53.7" transform="matrix(0.8506 -0.5258 0.5258 0.8506 49.0786 280.2964)" class="st1" width="0.4" height="0.2"/>
<g>
	<path class="st1" d="M528.6,62l0.3,0.2l0,0.7c0.5,0.5,1.9,0.1,1.9,0c0-0.1-0.1-1.4-0.1-1.4l-0.2-0.2l0-1c0.2-0.5-0.7-1.2-0.8-1.1
		c-0.1,0.2-0.6,0-0.6,0.2c0,0.2-0.3,0.9-0.2,1.2c0.2,0.3-0.1,0.3-0.1,0.5C528.9,61.3,528.5,61.7,528.6,62"/>
	<path class="st1" d="M527.7,60.4c-0.1,0.3-0.3,0.5-0.5,0.3c-0.2-0.1,0.2,0.2,0.3,0.3s0.3,0.2,0.4,0c0.1-0.2,0-0.5,0.1-0.7
		C528.1,60.3,527.8,60.3,527.7,60.4"/>
</g>
<rect x="526" y="53.4" class="st1" width="0.3" height="0.7"/>
<g>
	<path class="st1" d="M529.9,46c-0.2-0.2,0.8-0.6,0.9-0.2c0.2,0.5,0,0.4-0.1,0.3C530.5,46.2,530.1,46.3,529.9,46"/>
</g>
<polygon class="st1" points="530.7,41.1 531.1,41.2 531.1,41 530.7,40.9 "/>
<polygon class="st1" points="529.6,41.3 529.4,41.5 529.1,41.3 529,41.5 529.3,41.7 529.4,41.7 529.4,41.7 529.6,41.6 529.7,41.6 
	529.9,41.6 529.8,41.4 529.8,41.3 "/>
<g>
	<path class="st1" d="M531.1,32.3h-0.6c0,0,0.2,0.1-0.3-0.4c-0.5-0.5-0.9,0.1-0.9,0.1l-0.6,0.1v0.6l-0.3,0.1l0,0.4l0.4,0
		c0,0,0,0.5,0.1,0.3c0.1-0.2,1.1,0,1,0.5c0,0.2,0.9,0.7,0.8,1.3c0.5,0.1,0.4,0.6,0.4,0.6l0.6,0.1l0.2-0.4l0.2,0v-0.2l-0.4-0.1
		l-0.1-1.2l-0.3-0.2l0.1-0.3l-0.3-0.1l0.2-0.5L531.1,32.3z"/>
	<path class="st1" d="M532.7,36.2l-0.3,0l-0.7,0.1l-0.4,0.7c0,0,0.2,0.1,0.3,0.4c0.2,0.3,0.2,1.8-0.2,2.1c-0.5,0.3,0,0.1,0,0.1
		l-0.1,0.8c0.1,0.4,0.3,0.2,0.4,0c0.1-0.2,0.2-0.2,0.4-0.4c0.2-0.2,0.4-0.5,0.4-0.8c0-0.3,0.2-0.7,0.1-0.8c-0.1-0.1,0.1-0.7,0.1-0.7
		s0.2-0.3,0-0.6c-0.2-0.3,0-0.7,0.2-0.8L532.7,36.2z"/>
</g>
<rect x="533.2" y="37.5" transform="matrix(0.1339 -0.991 0.991 0.1339 424.6409 561.0612)" class="st1" width="0.3" height="0.2"/>
<polygon class="st1" points="533,38.7 533.2,38.8 533.3,38.6 533.1,38.5 "/>
<g>
	<path class="st1" d="M532.8,35.7l-0.2-0.3c0,0,0-0.3,0.1-0.5c0.1-0.2-0.2-0.3-0.3-0.3c-0.1,0-0.1-0.3-0.1-0.5
		c0-0.2-0.3-0.3-0.3-0.3s-0.1-0.6-0.1-0.7c0-0.1-0.3-0.3-0.2-0.4c0.1-0.1,0.2-0.3,0.3-0.3c0.1-0.1-0.1-0.6,0.1-0.5
		c0.2,0.1,0.2,0.3,0.3,0.5c0.1,0.2,0,0.7,0.2,0.8c0.2,0.1,0,0.5,0.3,0.5c0.3,0,0.1,0.7,0.1,0.7s-0.1,0.5,0.1,0.6c0.2,0,0.1,1,0.1,1
		L532.8,35.7z"/>
	<path class="st1" d="M530.4,29.5c0.1,0.2,0.3,0.3,0.3,0.4s-0.1,0.3,0.2,0.3c0.2,0,0.4,0,0.5,0.2c0.1,0.2,0.1,0.5,0,0.7
		c0,0.2,0,0.4,0.2,0.4c0.2,0,0.2,0,0.2,0.2c0,0.1,0.2-0.4,0.2-0.4c-0.2-0.2-0.3-0.5-0.3-0.5s-0.2-0.5-0.2-0.6s-0.3-0.2-0.4-0.2
		c-0.1,0-0.3-0.4-0.3-0.4L530.4,29.5z"/>
	<path class="st1" d="M530.8,29.2c-0.1-0.2-0.2-0.3-0.4-0.3c-0.1-0.1-0.3-0.2-0.4-0.2c-0.2,0-0.3-0.2-0.2-0.3
		c0.1-0.2-0.1-0.3-0.1-0.4s0.1-0.2,0.3,0c0.2,0.1,0.2,0.2,0.3,0.3c0.1,0.2,0.2,0.4,0.4,0.3c0.2,0,0.3,0.3,0.4,0.2
		c0.2-0.1,0.1,0.3,0.1,0.3L530.8,29.2z"/>
	<path class="st1" d="M526.3,33.5c0.2,0.2-1.1,0.2-1.1,0c0-0.2,0.1-0.7,0.5-0.6c0.3,0.1,0.4-0.7,0.4-0.7s-0.3,0,0-0.1
		c0.3-0.2,0-0.4-0.1-0.5c-0.1-0.1-0.2-0.3-0.2-0.3h0.5c0.2-0.2,0.3-0.9,0.3-0.9c0.5,0.2,0.7-0.2,0.7-0.2s0.1,0.2,0.2,0.4
		c0.2,0.2-0.4,0.3-0.2,0.4c0.2,0.1,0.3,0.5,0.2,0.6c-0.1,0.1-0.5,0-0.5-0.1c0-0.2-0.2,0.2,0,0.4c0.2,0.2-0.2,0.5-0.3,0.5
		s-0.6,0.1-0.2,0.3c0.4,0.2,0.9,0.1,0.9,0.1s0.3,0,0.5,0.2c0.1,0.2,0,0.2-0.2,0.2s-1.1-0.1-1.1-0.1S526.2,33.4,526.3,33.5"/>
	<path class="st1" d="M523.9,33.9c0.2,0,0.6-0.1,0.7,0c0.1,0.1-0.3,0.3-0.3,0.3l-0.5,0.1C523.8,34.1,523.7,33.9,523.9,33.9"/>
	<path class="st1" d="M528.8,30.7c0.3-0.2,0.9-0.2,0.9-0.4c0-0.2,0.4-0.3,0.4-0.3l0.1,0.5l0.3,0.2l0,0.4c0,0,0.1-0.1-0.3,0
		c-0.4,0.1-0.2,0.3-0.2,0.3l-0.9,0l-0.1-0.4L528.8,30.7z"/>
	<path class="st1" d="M527.3,28.6c0.2,0-0.1,0.9,0.5,0.8c0.6-0.1,0,0.3,0.5,0.3c0.5,0,0.3-0.3,0.5-0.6c0.2-0.3,0.1-0.4-0.2-0.5
		c-0.3-0.1-0.3-0.1-0.3-0.4c-0.1-0.3-0.4-0.4-0.4-0.4l-0.1-0.5l-0.5,0.3l-0.5,0.6C526.8,28.8,527.1,28.6,527.3,28.6"/>
</g>
<rect x="528.4" y="31.7" transform="matrix(0.4519 -0.8921 0.8921 0.4519 261.327 488.8544)" class="st1" width="0.3" height="0.2"/>
<rect x="527.9" y="31.5" class="st1" width="0.2" height="0.3"/>
<polygon class="st1" points="527.9,26.4 527.9,26.7 528.2,26.7 528.1,26.4 "/>
<rect x="527.5" y="29.9" class="st1" width="0.2" height="0.2"/>
<polygon class="st1" points="526.9,29.7 526.9,29.9 527.3,29.9 527.2,29.7 "/>
<polygon class="st1" points="523.6,33.5 523.8,33.6 523.9,33.3 523.7,33.2 "/>
<polygon class="st1" points="522.6,32.7 522.6,32.9 523,32.9 522.9,32.6 "/>
<polygon class="st1" points="515.2,32.9 515.2,33.1 516.1,33.1 516,32.8 "/>
<polygon class="st1" points="514.6,32.8 514.7,33.2 514.9,33.1 514.8,32.8 "/>
<polygon class="st1" points="514.4,33.2 514.5,33.4 514.6,33.4 514.5,33.2 "/>
<g>
	<path class="st1" d="M516.4,32.8l0,0.3l0.4,0c0,0,0.2,0.2,0.2,0.3c0,0.1,0.3,0.2,0.4,0.2c0.1,0,0.6-0.3,0.6-0.3s0.2-0.5,0-0.5
		c-0.1,0-0.5,0.3-0.5,0c0-0.2-0.5-0.1-0.5-0.1L516.4,32.8z"/>
	<path class="st1" d="M518.3,32.3c0,0.1-0.1,0.3,0.2,0.3c0.2,0,0.6-0.2,0.7,0.1c0,0.2,0,0.4,0.3,0.5c0.3,0.1,0.5,0.2,0.7,0.2
		c0.2,0,0.7-0.1,0.7-0.1s0.5,0.1,0.6,0.2c0.4,0.4,0.7,0.5,0.8,0.3c0.1-0.2,0-0.6-0.1-0.8c0-0.2-0.6-0.9-0.8-0.7
		c-0.2,0.2-0.2,0-0.6,0.1c-0.3,0.1-1.1,0-1.1-0.1c0-0.2-0.6-0.2-0.6-0.4c0-0.2-0.4-0.3-0.3-0.1c0,0.2-0.3,0.3-0.3,0.3
		C518.5,32,518.3,32.3,518.3,32.3"/>
	<path class="st1" d="M526.9,27.4l0.3-0.8c-0.4-0.1-0.3-0.5-0.3-0.5c0-0.3-0.6-0.7-0.8-0.6c-0.2,0.1-0.1-0.8-0.1-0.8
		s0.3-0.2,0.5-0.1c0.2,0.1-1.3-1.9-1.6-1.7c-0.3,0.2-1-0.2-0.9-0.5c0-0.3-1.4-1.5-1.4-1.5s-0.5-0.3-0.5-0.1s-0.2,0.4,0,0.5
		c0.2,0.1,0.2-0.2,0.5,0.1c0.3,0.3,0.8,0.6,0.6,0.8c-0.2,0.2-0.4,0.3-0.4,0.3l0.3,0.3h0.4l0.1,0.7c0,0,0.5,0.2,0.6,0.5
		c0.1,0.3,0.1,0.4,0,0.6c-0.1,0.2-0.3,0.4-0.3,0.7c0,0.3,0.3,0.4,0.3,0.4l0.3,0l0.2,0.1v0.5c0.3-0.1,0.8,0.3,0.8,0.6
		c0,0.3,0.1,0.1,0.5,0.4c0.4,0.3,0.3,0.3,0.5,0.5C526.6,27.9,526.8,27.8,526.9,27.4"/>
	<path class="st1" d="M520.7,22.2c0-0.2-0.1-0.7,0.1-0.7c0.2,0,0.1,0,0.3,0.1c0.3,0.1,0.3-0.2,0.3-0.2h0.4l0.5,0.4l-0.1,0.3l-0.4,0
		c-0.2-0.3-0.6-0.2-0.5,0.1c0.1,0.3-0.2,0.8-0.3,0.8c-0.2,0-0.6,0-0.6-0.2C520.6,22.8,520.7,22.2,520.7,22.2"/>
	<path class="st1" d="M520.4,21.2v-0.3c0,0,0-0.3-0.2-0.3c-0.2,0-0.5-0.2-0.5-0.4c0.1-0.2-0.6-0.3-0.6-0.3s-0.6-0.6-0.4-0.5
		c0.2,0.1,0.1-0.3,0.1-0.3s-0.5,0.1-0.6,0c-0.1,0-0.1-0.4-0.1-0.4s-0.5-0.1-0.5,0c0,0.1,0.2,0.1,0.2,0.3c0.1,0.2,0,0.6,0.4,0.7
		c0.3,0.1,0.4,0.2,0.5,0.3c0,0.2,0.5,0.2,0.5,0.2l0.3,0.2L520.4,21.2z"/>
</g>
<polygon class="st1" points="515.9,17.3 516.4,17.3 516.2,17 515.9,16.9 "/>
<g>
	<path class="st1" d="M516.2,15.7c-0.4-0.3,0.5,0.2,0.5,0.2c0.3,0,0.5,0.2,0.5,0.3c0,0.1,0.4,0.1,0.4,0.1l0-0.3l-0.3-0.4l-0.3-0.2
		c0,0-0.4,0-0.4-0.2C516.7,15.2,516.4,15.8,516.2,15.7"/>
	<path class="st1" d="M523.2,15.9c-0.1,0.3-0.2,0.8-0.3,0.8c-0.2,0-0.1,0.5-0.1,0.5s0.5,0,0.6,0c0.2,0,0.2,0.4,0.2,0.4
		c0.6,0,0.8,0.7,0.7,0.9c-0.1,0.2,0.2,0.2,0.2,0.2s0,0.6-0.1,0.8c-0.1,0.2,0.5,0.3,0.6,0.5c0.2,0.2-0.1,1-0.2,1
		c-0.1,0,0.3,0.2,0.3,0.3c0,0.2,0.1,0,0.1,0.3c0,0.3,0.1,1,0.1,1l0.5,0c0.1-0.5,1-0.5,1.2-0.5c0.6,0.2,1.1,1.2,1.1,1.5
		c0,0.2-0.4,0.3-0.4,0.3l0.1,1.1c0.6,0.2,1.2,1.1,1.1,1.3c-0.1,0.2,0.5,0.1,0.5,0.1c0.1-0.7,0.7-0.5,0.8-0.2c0,0.2,0.1,0.7,0.1,0.7
		l0.2,0.3l0.3,0.3l0.4,0l0.1,0.2l0.5,0.1c0,0,0.4,0.5,0.5,0.6c0,0.1,0.6,0.1,0.8,0.1c0.2,0,0.4,0.2,0.4,0.3c0,0.2,0.3,0.5,0.3,0.5
		s0.5,0.1,0.5,0.3c0,0.2,0.2,0.5,0.2,0.5l0.4,0.3l0,0.3l0.4,0l0.1,0.5l0.7,0l0.4-0.3c0.5-0.3,0.8-0.6,0.9-0.8c0-0.1,0.1-0.7,0.5-0.6
		c0.4,0.1,0.1-0.8,0.1-0.8s-0.5-0.4-0.5-0.6c0-0.2-0.5-0.6-0.5-0.7c0-0.2-0.5-0.5-0.5-0.6c0-0.2-0.3-0.6-0.3-0.6l-0.6-0.5l-0.1-0.3
		l-0.5,0l-0.9-1.1l0-0.3l-0.3,0v-0.4l-0.3-0.2l-0.4,0l-0.8-0.9l-0.1-0.4H532l0.1-0.8c0.3-0.3,0.1-1,0.1-1s-0.5,0.3-0.8,0.2
		c-0.3-0.1,0.1-0.4,0.1-0.4v-0.3l-0.2-0.2c0,0-0.6,0.1-0.7,0c0-0.1-0.2-0.6-0.2-0.6l0-0.7l-0.3-0.1l0-0.2l-0.4,0v-0.5l-0.2-0.1
		l-0.2-0.1l0-0.5l-0.8,0l-0.3-0.4l-0.3-0.5l-0.9-0.1l-0.2-0.2l-0.4-0.1l-0.3-0.1l-0.1,0.2l-0.7,0l0,0.2
		C524.7,16,523.2,15.8,523.2,15.9"/>
	<path class="st1" d="M527.1,14.9c-0.1-0.3,0.8-0.6,0.9-0.3c0.2,0.2,0.7,0.3,0.8,1.4c0,0.4-0.7-0.4-0.7-0.4l-0.6-0.2
		C527.3,15.3,527.2,15.1,527.1,14.9"/>
</g>
<polygon class="st1" points="515.9,15.3 516.1,15.4 516.2,15.1 516,15 "/>
<g>
	<path class="st1" d="M514.1,11.6l-0.5-0.5v-0.4l-0.2-0.2l-0.2-0.5l-0.5-0.2l-0.5,0.2l-0.5,0.3l-0.6,0.1l-0.3,0.3l1.2,0.1l0.2,0.4
		l0.9,0.1l0.6,0.6C514.3,12.1,514.4,11.9,514.1,11.6"/>
	<path class="st1" d="M514.1,9.8c-0.1-0.3-0.6,0.4-0.1,0.6c0.5,0.2,1,0,1,0l0.1-0.2l1.9,0c0.2-0.2,0.2-0.4,0.2-0.4s0.5-0.2,0.6-0.1
		c0.2,0.1,0-0.5-0.2-0.5c-0.2,0.1-0.6,0-0.6,0h-0.7c0-0.3-0.6-0.2-0.7,0c0,0.2-0.3,0.2-0.3,0.2l-0.9,0.1
		C514.5,9.8,514.1,9.9,514.1,9.8"/>
	<path class="st1" d="M510.3,16.2c0.6,0.2,0.8,0,0.8-0.1c0-0.2,0.1-0.2,0.3-0.2c0.2,0,0-0.5-0.3-0.5c-0.2,0-0.5-0.1-0.5-0.3
		c0-0.2-0.4-0.7-0.5-0.3c0,0.4-0.3,0.4-0.2,0.7C510.1,15.8,510.2,16.2,510.3,16.2"/>
	<path class="st1" d="M506,16.7c0-0.1,0.8-0.2,0.9,0c0.1,0.1,0,0.3,0.4,0.3c0.3,0,0.2,0.2,0.1,0.3c0,0.1-0.4,0.1-0.5,0
		c0-0.1-0.6-0.2-0.6-0.2S506,16.8,506,16.7"/>
</g>
<polygon class="st1" points="518.5,8.7 518.3,8.5 518.2,8.7 518.4,8.9 518.5,9 518.6,8.9 519,8.6 518.8,8.5 "/>
<polygon class="st1" points="516.7,7.8 516.5,7.6 516.4,7.8 516.7,8 516.7,8 516.8,8 517.2,7.7 517.1,7.5 "/>
<polygon class="st1" points="515.1,15.8 515.4,15.8 515.6,16.2 515.8,16.1 515.5,15.7 515.5,15.6 515.5,15.6 515.1,15.6 "/>
<g>
	<path class="st1" d="M503,26.3l0,0.4h0.6c0.2,0-0.2-0.3-0.2-0.3S503,26.5,503,26.3"/>
</g>
<polygon class="st1" points="503.8,26.3 504,26.5 504.1,26.3 503.9,26.1 "/>
<polygon class="st1" points="496.9,19.2 497.1,19.4 497.3,19.2 497.1,19 "/>
<polygon class="st1" points="507.4,68.4 507.6,68.5 507.5,68.6 507.7,68.8 507.9,68.6 508,68.5 507.8,68.4 507.5,68.2 "/>
<polygon class="st1" points="504.6,65.7 504.4,65.8 504.6,65.8 504.8,66 505,65.8 504.8,65.7 504.9,65.6 504.8,65.5 "/>
<g>
	<path class="st1" d="M533,58.4c0-0.2-0.3-0.3-0.3-0.3l-0.1,0.2v0c0,0,0,0,0.1,0l0,0.2c0,0,0,0.1,0,0.1l0.2,0.2
		C532.9,58.6,533,58.5,533,58.4"/>
</g>
<polygon class="st1" points="532.9,57.6 533.3,57.7 533.3,57.3 533,57.3 "/>
<g>
	<path class="st1" d="M542,54.7c0.2-0.1,0.4-0.3,0.3,0.1c0,0.4-0.2,0.3-0.3,0.4C541.9,55.4,541.8,54.8,542,54.7"/>
	<path class="st1" d="M544,53.1C544,53,544,53,544,53.1c0-0.1,0-0.2-0.1-0.3l-0.2,0.1c0,0.1,0,0.1,0,0.2c0,0.1,0,0.1,0.1,0.2
		c0,0,0.1,0,0.2,0L544,53.1C543.9,53,544,53,544,53.1"/>
	<path class="st1" d="M543.5,53.2c0.1,0.2,0.1,0.5,0.1,0.5l0.2-0.1c0,0-0.1-0.2-0.1-0.4L543.5,53.2z"/>
	<path class="st1" d="M542.6,54.1l-0.2,0c0,0.2,0,0.4,0.2,0.4l0-0.2c0,0,0,0,0,0C542.7,54.3,542.6,54.2,542.6,54.1"/>
	<path class="st1" d="M541.6,49.6c0-0.1-0.1-0.1-0.1-0.2c-0.2-0.1-0.5,0-0.6,0.1l0.1,0.2c0.1-0.1,0.3-0.1,0.4-0.1c0,0,0,0,0,0
		L541.6,49.6z"/>
	<path class="st1" d="M531.2,37.4c-0.2,0.2-0.5,0.2-0.5,0.2l-0.1,0.4l-0.2,0.2c0,0,0,0.1,0,0.4c0,0.3-0.4,0.4-0.4,0.4l-0.2,0.2
		c0,0-0.9,0-1,0c-0.3-0.2-0.1-0.6,0.1-0.6c0.2,0,0-0.7,0-0.7l0.3,0c0,0,0-0.7,0.2-0.7c0.1,0,0-0.2-0.2-0.3c-0.2-0.1-0.3-0.5-0.5-0.5
		c-0.1,0-0.8,0-0.8,0l-0.1,0.2l-0.4,0.1c0,0,0,0.3,0,0.4c-0.2,0.3-1.1,0.8-0.7-0.1l0.1-0.2v-0.3l-0.7,0c0,0-0.3-0.1-0.3-0.3
		c0-0.2,0-0.3,0-0.3l-0.8-0.9l-0.9-0.1l-0.1-0.2l-0.6-0.1c-0.7-0.3-1.3,0-1.2,0.5c0.1,0.6,0.3,0.8-0.1,0.8c-0.4,0-0.5-0.3-0.5-0.3
		s-0.3-0.1-0.3,0c0,0.2-0.1,0.5,0,0.6c0.1,0.2-0.2,0.4-0.3,0.3c-0.1-0.1-0.4-0.5-0.3-0.6c0.1-0.1-0.5-0.8,0.1-1
		c0.6-0.1,0-0.5,0.2-0.5l0.3-0.2h0.3l0.2-0.2l-0.5-0.1l-0.3,0l-0.6,0c-0.6,0.4-0.7,0.8-0.7,0.8c-0.3,0.6-1-0.2-0.8-0.5
		c0.3-0.3-0.8,0-1,0.1c-0.2,0.2-0.8,0.1-0.8,0.1c-0.1,0.3-0.6,0-0.5-0.3c0.2-0.2,0.2-0.4,0.2-0.4l-0.2,0l-0.2,0.4
		c-0.5,0-0.7,0.3-0.6,0.5c0.1,0.2-0.2,0-0.2,0.2c-0.1,0.3,0,0.3,0.3,0.4c0.2,0.1-0.1,0.1,0,0.3c0.2,0.2,0.6,0,0.3,0.3
		c-0.3,0.3-0.8,0.2-0.8,0.2c0,0.3-0.8,0.3-0.8,0.2c-0.1-0.1-0.6-0.8-0.6-0.8l-0.7,0c-0.1-0.5,0.3-0.3,0.5-0.7
		c0.2-0.4,0.2-1.1,0.2-1.1s-0.6,0-0.6,0.2c0,0.2-0.4,0.3-0.4,0.3s-0.3,0.1-0.2,0.3c0.1,0.2-0.2,0.2-0.2,0.2s0.1,0.2,0,0.3
		c-0.3,0.3-1.1,0-1.2-0.1l-0.5-0.2l-0.5-0.3l-0.5,0.2l-0.2,0.2h-0.6l0,0.5l1,0.1l0.1,0.9l-0.4-0.1h-0.3l-0.1-0.2l-0.2,0v0.8l0.2,0.2
		l0.2,0.2l0.4,0l0.1,0.5l0.9,0l0.1,0.2l0.6,0l1.1,1.1l-0.1,0.3l-0.2,0.1c0.1,0.3-0.5,0.1-0.5,0.1v0.2l0.3,0l0.3,0.2l0.4-0.7
		c0.4-0.3,0.6,0.1,0.6,0.3c0,0.2-0.2,0.2-0.2,0.2v0.5l0.2,0.1c0.4,0.5-0.1,0.7-0.1,0.7l-0.1,0.4c-0.1,0.3-0.5,0.3-0.5,0.3l-0.2,0.2
		l-0.5,0.1l0.9,0.1c0.1-0.3,0.3-0.4,0.4-0.2c0.1,0.2,0.1,0.4,0.1,0.4l0.2,0l0,0.4l0.2,0.1v1.2l0.3,0.3c0.5-0.2,0.5,0.1,0.2,0.3
		c-0.2,0.2-0.1,0.8-0.1,0.8l-0.2,0.2V46l-0.2,0.2v0.4c-0.4-0.2-0.8-0.1-0.9,0c-0.3-0.2-1.1-0.2-1.1,0c0.2,0.3-0.3,0.4-0.3,0.4
		l-0.3,0.3c0.2,0.4-0.2,0.4-0.2,0.4v0.7l-0.5,0.4l0,1c0,0.3,0.6,0.3,0.7,0.2c0.1-0.2,0.6,0.3,0.6,0.3h0.3l0.1-0.7l-0.2-0.1v-1.1
		l0.4-0.4c0.5-0.2,0.3,1,0.3,1.1c0,0.4,0.2,0.4,0.4,0.3c0.4-0.2,0.1,0.4-0.2,0.4c-0.3,0-0.1,0.4-0.1,0.4l0.2,0.1l-0.3,0.3l-0.3,0.3
		l-0.4-0.1l-0.5,0l-0.2-0.3l-0.3,0l0,0.5l-0.2,0.2l-0.5,0.5c0.6,0-0.1,0.4-0.2,0.4c0.3,0.1,0,0.5-0.9,0.2v0.3l-0.3,0l0.3,0.3l0.3,0
		l-0.1,0.6c0,0.5-1.2,0.2-1.4,0l0,0.7l-0.2,0l0,0.5l0,0.7l0.4-0.1v0.3l1,0l1.5-1.6l0.9-0.2c0.1-0.4,0.5,0.1,0.5,0.1
		c0.4,0,0.5,0.2,0.5,0.2l0.5,0.1c0.4,0.1,0.2,0.2,0.2,0.3c0,0.2,0.2,0.2,0.2,0.2l0.1-0.5l0.2,0l-0.2-0.3l-0.4-0.2l-0.5-0.2
		c-0.3-0.4,0.1-0.3,0.4-0.3h0.5c0,0,0.6,0.8,0.6,1c0,0.2,0.3,0.2,0.3,0.2l0.3,0l0.1,0.3h0.3l0.1,0.2h0.7l0-0.3l-0.6-0.1l0-0.4
		l-0.5-0.1c-0.2-0.6,0.1-0.8,0.3-0.5l0.2,0l-0.1-0.6l0.3-0.1l-0.1-0.8l-0.2-0.1v-0.3l0.9,0c-0.1-0.5,0-0.7,0-0.7h0.3l0,0.2l1.2,0.1
		l0.8-0.9c0-0.1,0.1-0.1,0-0.2c-0.1-0.1-0.3,0-0.5-0.1c-0.2-0.1,0-0.8,0-0.9c0-0.2,0.6-0.4,0.5,0c-0.1,0.3,0,0.5,0,0.5
		c0.5-0.5,0.9,0,0.9,0.2c0,0.1,0.3,0.2,0.4,0.1c0.2-0.1,0.4,0.3,0.3,0.6c-0.1,0.2-0.8,0.2-0.8,0c0-0.2-0.2-0.2-0.2,0
		c-0.1,0.1-0.4,0.2-0.6,0.1c0,0-0.1,0-0.1-0.1l-0.8,0.9l0.1,0c0.5,0.3,0.2,0.6,0.1,0.7c-0.1,0.1-0.4,0.1-0.4,0.1l-0.1,0.2l-1,0.1
		l-0.1,0.4c-0.5-0.1-0.7,0.5-0.6,0.7c0.1,0.3,0,0.5,0,0.5l0.4,0.2L517,54c0.1-0.4,0.4-0.5,0.7-0.7c0.3-0.2,0.8,0.4,0.6,0.7
		c-0.2,0.3-0.2,0.4-0.2,0.4l0,0.3l-0.4,0.2l-0.3,0.2l0,0.2h-1l-0.2,0.2l-0.5,0l-0.2,0.2l-0.3,0c0,0-0.6,0.3-0.3,0.6
		c0.2,0.3-0.9,0.3-1.2-0.2c-0.1,0.4-0.5,0-0.5,0l-0.4-0.1l0-0.6c-0.1-0.4-0.8-0.4-0.8-0.1c0,0.3-1.4,0.1-1.4,0.1l-0.5,0.2l-0.4,0.2
		l0,0.2l-0.7,0.1l-0.3,0.2l-0.1-0.2h-0.3l-0.3,0.4c-0.8,0-1.5,0.5-1.5,0.7c0.1,0.2-0.3,0.4-0.3,0.4l-0.3,0.1l-0.2,0.3l-0.5,0.2
		l-0.1,0.8l-0.2,0.2v0.3l-0.3,0.1v0.2l-0.4,0l0.2,0.6l0.3,0.1c0.5,0.1,0.3,0.7,0.3,0.7l0.3,0l0.2,0.4l0.3,0.6
		c0.1,0.5,0.5,0.3,0.6,0.3c0.2,0,0.3,0.5,0.3,0.5l1.5,0c0,0-0.1,0.2,0.2,0.2c0.3,0.1,2,0.2,2.1,0c-0.1-0.3,0.9-0.4,1.4-0.1
		c0.4,0.3,1,0.1,1,0.1l0.6,0.7L514,65l0.6,0.2l0.5,0.1l0.2,0.6l0.3,0l0.1,0.4c0.4,0.3-0.1,1-0.1,1v0.8l0.3,0.2l0,0.3l0.5,0.5l0.6,0
		l1.4,1.5l1.1,0.3l0.2,0.6l0.3,0l0.2-0.2l0.9,0l0.5-0.4l0.5-0.1l4.2-3.6l-0.4-0.2v-0.8c0.7-0.5,0.7-1.4,0.1-1.5
		c-0.5-0.1-0.3-0.6,0.2-0.7l0.3-0.1v-0.3l0.9-0.8v-0.6l-1.9-1.6c-0.8-0.3,0-2.1,0.6-2.1c0.6,0,0-2.8,0-2.8l-0.3-0.2l0.1-0.9h-0.4
		l-0.7,0.9l-0.2,0.6c-0.1,0.8-2.4,0.6-2.5,0.5c-0.1-0.1-0.9-0.5-0.9-0.5s-0.6-0.5-0.7-0.3c-0.1,0.2-0.6-0.2-0.6-0.1
		c0,0.1-0.5-0.3-0.5-0.3l-0.8-0.3l0.6-0.1l-0.1-0.5l1,0.5c0.1,0.2,0.6,0.1,0.6,0.1l0.2,0.2c0,0,0.3,0,0.5,0.2c0.2,0.2,1.2,0,1.2,0
		l0.3,0.2l0.4,0.2l1.2,0l0-0.7l0.2-0.2l0-0.5l0.3-0.2v-0.4l0.2-0.1l0-0.8l0.2,0v-1.8l-0.6-0.5c0,0.2-0.6,0.2-0.6,0.2
		s-0.2,0.3-0.3,0.3c-0.1,0,0.2,0.3,0.1,0.6c-0.1,0.2-0.4,0.2-0.4,0.2l-0.6,0.2l-0.1,0.2h-0.6l-0.1-0.5l0.7-0.2l0.4-0.2l0.2-0.4
		c0-0.4,0.5-0.3,0.5-0.3s0.9-0.7,0.9-1.1c0-0.3,0.3-1.3,0.9-1.3h1c0.4-0.2,0.3-0.7,0.3-0.7l0.5-0.1l0.1,0.3c0,0,0.7,0.1,0.8,0
		c0.1-0.1,0.2-0.4,0.4-0.3c0.2,0.1,0.8-0.3,0.8-0.3c0-0.3,1-0.2,1-0.2l0.1-0.3c0,0-0.6-0.9-0.8-0.9c-0.1,0-0.7-0.5-0.8-0.3
		c-0.6-0.2-0.6-1-0.6-1l-0.2-0.5c0-0.3-0.6-1-0.7-0.9c-0.6-0.4-0.2-0.9,0-1c0.2,0,0.5-0.6,0.5-0.6l0.2-0.5l0.6-0.2l0.1-0.5l-0.3,0
		c0,0,0.4-0.7,0.6-0.7c0.2,0,1.4,0,1.5-0.1c0.1-0.1,0.3-0.7,0.3-0.8c0-0.1,0.3-0.2,0.4-0.2c0.1,0,0.4-0.3,0.5-0.5
		C531.6,38.2,531.4,37.2,531.2,37.4"/>
	<path class="st1" d="M510.3,51.1c0.1-0.1,0.1,0.2,0.2,0.1c0.1,0,0.2,0.2,0.1,0.2c-0.1,0-0.1,0.1-0.1,0.2c0,0.1,0,0.2-0.1,0.3
		c-0.1,0.1-0.2,0-0.3,0c-0.1-0.1-0.2-0.1-0.3-0.1s0,0.2,0,0.2s-0.6,0-0.5-0.1c0.1-0.1,0.2-0.1,0.1-0.2c-0.1-0.1,0-0.1,0-0.2
		c0-0.1,0.3-0.1,0.2-0.1c-0.1-0.1,0-0.4,0.1-0.2l0.1-0.2c-0.1-0.1,0-0.1-0.2-0.2c-0.2-0.1,0-0.4,0-0.4l0-0.2
		c0.1-0.3,0.6-0.3,0.7-0.1c0,0.3,0,0.4,0,0.4l0.2,0.1c0,0,0,0.2-0.2,0.2c-0.1,0,0,0.1-0.1,0.2L510.3,51.1z"/>
	<path class="st1" d="M508.5,51.4c0.1-0.2,0.3-0.9,0.5-0.7s0.4,0,0.4,0s0.1,0.1,0.1,0.3c-0.1,0.2-0.1,0.5-0.3,0.5
		c-0.1,0-0.3,0.1-0.4,0.1C508.5,51.8,508.5,51.4,508.5,51.4"/>
</g>
<rect x="538.5" y="129.5" class="st1" width="3.9" height="19.6"/>
<rect x="474.6" y="129.5" class="st1" width="3.9" height="19.6"/>
<polygon class="st1" points="532.2,145.1 529.4,145.1 529.4,133.4 525.5,133.4 525.5,145.1 522.6,145.1 522.6,149.1 525.5,149.1 
	529.4,149.1 532.2,149.1 536.1,149.1 536.1,145.1 536.1,129.5 532.2,129.5 "/>
<path class="st1" d="M487,145.1h-2v-7.8h2V145.1z M495.7,129.5v3.9v11.7h-4.8v-7.8v-3.9H487h-2h-3.9v3.9v7.8v3.9h3.9h2v6.1h3.9v-6.1
	h4.8h3.9h4.8h3.9h2h3.9h2h3.9v-3.9v-7.8h-3.9v7.8h-2v-7.8h-3.9v7.8h-2v-7.8h-3.9v7.8h-4.8v-11.7H520v-3.9h-20.4H495.7z"/>
<polygon class="st1" points="474.6,161.7 484.3,161.7 484.3,165.5 478.7,165.5 478.7,171.7 483.5,171.7 483.5,175.5 478.7,175.5 
	478.7,182.3 484.6,182.3 484.6,186.1 474.6,186.1 "/>
<g>
	<path class="st1" d="M492.7,170.6l2.5,3c2.2,2,3.1,4.4,3.1,7.2c0,2.7-1.5,5.8-5.9,5.8c-3,0-5.8-1.8-5.8-5.3v-3h4v2.5
		c0,0.9,0.2,2.4,1.8,2.4c1.2,0,1.8-0.9,1.8-2.3c0-1.7-0.7-3-2-4.3l-2.9-3.3c-1.4-1.3-2.6-3-2.6-6.2c0-3.7,2.1-5.6,5.6-5.6
		c2.7,0,5.7,1,5.7,5.4v2.8h-3.9v-2.2c0-1.6-0.5-2.6-1.8-2.6c-1.2,0-1.8,0.7-1.8,1.9C490.7,167.6,490.9,168.9,492.7,170.6"/>
	<path class="st1" d="M511.9,180.6c0,3.7-2.1,5.8-5.7,5.8c-3.5,0-5.7-2.2-5.7-5.8v-13.5c0-3.7,2.2-5.8,5.6-5.8
		c3.6,0,5.7,2.2,5.7,5.8v3.5h-4.1v-4c0-1.1-0.5-1.8-1.6-1.8c-1.1,0-1.6,0.7-1.6,1.8v14.6c0,1.1,0.5,1.8,1.6,1.8
		c1.1,0,1.6-0.7,1.6-1.8v-4.8h4.1V180.6z"/>
</g>
<polygon class="st1" points="513.7,161.7 517.8,161.7 519.8,179.7 519.9,179.7 521.7,161.7 525.6,161.7 527.4,179.7 527.5,179.7 
	529.5,161.7 533.6,161.7 529.8,186.1 525.4,186.1 523.6,169.6 523.6,169.6 521.7,186.1 517.3,186.1 "/>
<path class="st1" d="M540.9,177.8l-1.3-12.9h-0.1l-1.4,12.9H540.9z M537.1,186.1h-4.1l3.8-24.3h5.5l3.8,24.3h-4.3l-0.5-4.8h-3.7
	L537.1,186.1z"/>
<g>
	<path class="st2" d="M141.5,81.5h2.7c0.5,0,1-0.4,1-1v-2.7c0-0.5-0.4-1-1-1h-2.7c-0.5,0-1,0.4-1,1v2.7
		C140.5,81.1,141,81.5,141.5,81.5"/>
	<path class="st3" d="M130.2,65.5h3.6c0.5,0,1-0.4,1-1V61c0-0.5-0.4-1-1-1h-3.6c-0.5,0-1,0.4-1,1v3.6
		C129.2,65.1,129.6,65.5,130.2,65.5"/>
	<path class="st4" d="M114.7,53.5h3.9c0.5,0,1-0.4,1-1v-3.9c0-0.5-0.4-1-1-1h-3.9c-0.5,0-1,0.4-1,1v3.9
		C113.7,53.1,114.1,53.5,114.7,53.5"/>
	<path class="st5" d="M95.5,48h4.2c0.5,0,1-0.4,1-1v-4.2c0-0.5-0.4-1-1-1h-4.2c-0.5,0-1,0.4-1,1V47C94.5,47.5,94.9,48,95.5,48"/>
	<path class="st6" d="M77.1,49.5h4.9c0.5,0,1-0.4,1-1v-4.9c0-0.5-0.4-1-1-1h-4.9c-0.5,0-1,0.4-1,1v4.9
		C76.1,49.1,76.5,49.5,77.1,49.5"/>
	<path class="st7" d="M60.3,57.7h5.6c0.5,0,1-0.4,1-1v-5.6c0-0.5-0.4-1-1-1h-5.6c-0.5,0-1,0.4-1,1v5.6
		C59.3,57.2,59.8,57.7,60.3,57.7"/>
	<path class="st8" d="M47.3,71h6.8c0.6,0,1-0.4,1-1v-6.8c0-0.6-0.4-1-1-1h-6.8c-0.5,0-1,0.4-1,1V70C46.3,70.6,46.8,71,47.3,71"/>
	<path class="st9" d="M39.9,85.6h7.7c0.6,0,1-0.4,1-1v-7.7c0-0.6-0.4-1-1-1h-7.7c-0.6,0-1,0.5-1,1v7.7
		C38.9,85.1,39.3,85.6,39.9,85.6"/>
	<path class="st10" d="M35.4,102.7h7.7c0.6,0,1-0.4,1-1V94c0-0.6-0.4-1-1-1h-7.7c-0.6,0-1,0.4-1,1v7.7
		C34.4,102.3,34.9,102.7,35.4,102.7"/>
	<path class="st11" d="M39.5,119.5h7.7c0.6,0,1-0.4,1-1v-7.7c0-0.6-0.4-1-1-1h-7.7c-0.6,0-1,0.5-1,1v7.7
		C38.5,119.1,38.9,119.5,39.5,119.5"/>
	<path class="st12" d="M46.9,133h6.8c0.6,0,1-0.4,1-1v-6.8c0-0.6-0.4-1-1-1h-6.8c-0.5,0-1,0.4-1,1v6.8C45.9,132.5,46.3,133,46.9,133
		"/>
	<path class="st13" d="M59.9,145.2h5.6c0.5,0,1-0.4,1-1v-5.6c0-0.5-0.4-1-1-1h-5.6c-0.5,0-1,0.4-1,1v5.6
		C58.9,144.8,59.3,145.2,59.9,145.2"/>
	<path class="st14" d="M76.7,153.4h4.9c0.5,0,1-0.4,1-1v-4.9c0-0.5-0.4-1-1-1h-4.9c-0.5,0-1,0.4-1,1v4.9
		C75.7,153,76.1,153.4,76.7,153.4"/>
	<path class="st15" d="M96.2,154.6h4.2c0.5,0,1-0.4,1-1v-4.2c0-0.5-0.4-1-1-1h-4.2c-0.5,0-1,0.4-1,1v4.2
		C95.3,154.1,95.7,154.6,96.2,154.6"/>
	<path class="st16" d="M114.8,148.6h3.9c0.5,0,1-0.4,1-1v-3.9c0-0.5-0.4-1-1-1h-3.9c-0.5,0-1,0.4-1,1v3.9
		C113.8,148.2,114.2,148.6,114.8,148.6"/>
	<path class="st17" d="M130.2,136.7h3.6c0.5,0,1-0.4,1-1v-3.6c0-0.5-0.4-1-1-1h-3.6c-0.5,0-1,0.4-1,1v3.6
		C129.2,136.2,129.6,136.7,130.2,136.7"/>
	<path class="st18" d="M141.1,119.7h2.7c0.5,0,1-0.4,1-1V116c0-0.5-0.4-1-1-1h-2.7c-0.5,0-1,0.4-1,1v2.7
		C140.1,119.3,140.6,119.7,141.1,119.7"/>
	<path class="st2" d="M157.4,76.5h3.9c0.8,0,1.4-0.6,1.4-1.4v-3.9c0-0.8-0.6-1.4-1.4-1.4h-3.9c-0.8,0-1.4,0.6-1.4,1.4V75
		C156,75.8,156.7,76.5,157.4,76.5"/>
	<path class="st3" d="M142.9,54.4h5.2c0.8,0,1.4-0.6,1.4-1.4v-5.2c0-0.8-0.6-1.4-1.4-1.4h-5.2c-0.8,0-1.4,0.6-1.4,1.4v5.2
		C141.4,53.7,142.1,54.4,142.9,54.4"/>
	<path class="st4" d="M122.7,37.4h5.6c0.8,0,1.4-0.6,1.4-1.4v-5.6c0-0.8-0.6-1.4-1.4-1.4h-5.6c-0.8,0-1.4,0.6-1.4,1.4V36
		C121.2,36.8,121.9,37.4,122.7,37.4"/>
	<path class="st5" d="M96.9,28.2h6.1c0.8,0,1.5-0.7,1.5-1.5v-6.1c0-0.8-0.7-1.5-1.5-1.5h-6.1c-0.8,0-1.5,0.7-1.5,1.5v6.1
		C95.4,27.6,96.1,28.2,96.9,28.2"/>
	<path class="st6" d="M70.8,29.2h7.1c0.8,0,1.5-0.7,1.5-1.5v-7.1c0-0.8-0.7-1.5-1.5-1.5h-7.1c-0.8,0-1.5,0.7-1.5,1.5v7.1
		C69.3,28.5,70,29.2,70.8,29.2"/>
	<path class="st7" d="M46.7,40h8.1c0.8,0,1.5-0.7,1.5-1.5v-8.1c0-0.8-0.7-1.5-1.5-1.5h-8.1c-0.8,0-1.5,0.7-1.5,1.5v8.1
		C45.2,39.3,45.9,40,46.7,40"/>
	<path class="st8" d="M26.8,58.4h9.9c0.8,0,1.5-0.7,1.5-1.5V47c0-0.8-0.7-1.5-1.5-1.5h-9.9c-0.8,0-1.5,0.7-1.5,1.5V57
		C25.3,57.8,26,58.4,26.8,58.4"/>
	<path class="st9" d="M14.8,79.8h11.3c0.8,0,1.5-0.7,1.5-1.5V67.1c0-0.8-0.7-1.5-1.5-1.5H14.8c-0.8,0-1.5,0.7-1.5,1.5v11.2
		C13.4,79.1,14,79.8,14.8,79.8"/>
	<path class="st10" d="M8.4,104.9h11.3c0.8,0,1.5-0.7,1.5-1.5V92.1c0-0.8-0.7-1.5-1.5-1.5H8.4c-0.8,0-1.5,0.7-1.5,1.5v11.2
		C6.9,104.2,7.5,104.9,8.4,104.9"/>
	<path class="st11" d="M13.7,130H25c0.8,0,1.5-0.7,1.5-1.5v-11.3c0-0.8-0.7-1.5-1.5-1.5H13.7c-0.8,0-1.5,0.7-1.5,1.5v11.3
		C12.2,129.4,12.9,130,13.7,130"/>
	<path class="st12" d="M25.9,149.2h9.9c0.8,0,1.5-0.7,1.5-1.5v-9.9c0-0.8-0.7-1.5-1.5-1.5h-9.9c-0.8,0-1.5,0.7-1.5,1.5v9.9
		C24.5,148.6,25.1,149.2,25.9,149.2"/>
	<path class="st13" d="M45.5,167.1h8.1c0.8,0,1.5-0.7,1.5-1.5v-8.1c0-0.8-0.7-1.5-1.5-1.5h-8.1c-0.8,0-1.5,0.7-1.5,1.5v8.1
		C44.1,166.5,44.7,167.1,45.5,167.1"/>
	<path class="st14" d="M70.2,176.9h7.1c0.8,0,1.5-0.7,1.5-1.5v-7.1c0-0.8-0.7-1.5-1.5-1.5h-7.1c-0.8,0-1.5,0.7-1.5,1.5v7.1
		C68.8,176.3,69.4,176.9,70.2,176.9"/>
	<path class="st15" d="M97.9,176.9h6.1c0.8,0,1.5-0.7,1.5-1.5v-6.1c0-0.8-0.7-1.5-1.5-1.5h-6.1c-0.8,0-1.5,0.7-1.5,1.5v6.1
		C96.4,176.3,97.1,176.9,97.9,176.9"/>
	<path class="st16" d="M122.7,167.1h5.6c0.8,0,1.4-0.6,1.4-1.4V160c0-0.8-0.6-1.4-1.4-1.4h-5.6c-0.8,0-1.4,0.6-1.4,1.4v5.6
		C121.3,166.4,121.9,167.1,122.7,167.1"/>
	<path class="st17" d="M142.7,149.8h5.2c0.8,0,1.4-0.6,1.4-1.4v-5.2c0-0.8-0.6-1.4-1.4-1.4h-5.2c-0.8,0-1.4,0.6-1.4,1.4v5.2
		C141.3,149.2,141.9,149.8,142.7,149.8"/>
	<path class="st18" d="M157.4,127.3h3.9c0.8,0,1.4-0.6,1.4-1.4v-3.9c0-0.8-0.6-1.4-1.4-1.4h-3.9c-0.8,0-1.4,0.6-1.4,1.4v3.9
		C156,126.6,156.7,127.3,157.4,127.3"/>
	<path class="st8" d="M77.5,87.8c0.9-1.5,1.9-2.8,3.1-4L70.3,72.5c-2.6,2.5-4.8,5.3-6.5,8.5L77.5,87.8z"/>
	<path class="st4" d="M103.5,79.6c1.6,0.7,3,1.6,4.3,2.7L118.2,71c-2.7-2.3-5.8-4.3-9.1-5.7L103.5,79.6z"/>
	<path class="st2" d="M127.5,83.3l-13.7,6.9c0.7,1.5,1.1,3.1,1.4,4.8l15.3-1.5C130,89.9,129,86.4,127.5,83.3"/>
	<path class="st3" d="M112.7,88l13.7-6.9c-1.7-3.2-3.9-6-6.4-8.5L109.6,84C110.8,85.2,111.9,86.5,112.7,88"/>
	<path class="st10" d="M74.7,98.2c0-0.3,0-0.6,0-0.9L59.4,96c0,0.8-0.1,1.5-0.1,2.3c0,2.9,0.4,5.7,1.1,8.4l14.8-4.2
		C74.9,101.1,74.7,99.7,74.7,98.2"/>
	<path class="st16" d="M110.8,111.1c-1.1,1.3-2.3,2.5-3.7,3.5l8.1,13c3-2,5.6-4.5,7.9-7.3L110.8,111.1z"/>
	<path class="st18" d="M115.4,98.2c0,1.4-0.2,2.8-0.4,4.2l14.8,4.2c0.7-2.7,1-5.5,1-8.4c0-0.7,0-1.4-0.1-2.1l-15.3,1.5
		C115.4,97.7,115.4,97.9,115.4,98.2"/>
	<path class="st12" d="M79.6,111.3l-12.2,9.3c2.3,2.8,5,5.2,8,7.2l8-13.1C82,113.8,80.7,112.6,79.6,111.3"/>
	<path class="st9" d="M74.9,94.8c0.3-1.7,0.8-3.4,1.5-4.9l-13.7-6.8c-1.5,3.2-2.5,6.7-3,10.3L74.9,94.8z"/>
	<path class="st15" d="M113.1,128.9l-8.1-13c-1.5,0.8-3,1.5-4.7,1.9l2.9,15.1C106.7,132,110.1,130.7,113.1,128.9"/>
	<path class="st17" d="M114.3,104.7c-0.5,1.6-1.2,3-2.1,4.4l12.3,9.2c2-2.8,3.5-6,4.6-9.4L114.3,104.7z"/>
	<path class="st14" d="M97.9,118.2c-0.9,0.1-1.9,0.2-2.8,0.2c-0.8,0-1.5,0-2.3-0.1L90,133.4c1.7,0.2,3.4,0.4,5.1,0.4
		c1.9,0,3.8-0.2,5.6-0.5L97.9,118.2z"/>
	<path class="st5" d="M96.4,77.8c1.7,0.1,3.3,0.4,4.9,0.9l5.4-14.3c-3.2-1.2-6.7-1.8-10.3-2L96.4,77.8z"/>
	<path class="st13" d="M90.3,117.9c-1.7-0.4-3.3-1-4.8-1.8l-8,13.1c3.1,1.8,6.5,3.1,10,3.8L90.3,117.9z"/>
	<path class="st6" d="M88.9,78.7c1.6-0.5,3.2-0.8,5-0.9l0-15.4c-3.7,0.1-7.2,0.8-10.5,1.9L88.9,78.7z"/>
	<path class="st11" d="M78.1,109.5c-1-1.4-1.8-3-2.3-4.7l-14.7,4.2c1.1,3.5,2.8,6.8,4.9,9.7L78.1,109.5z"/>
	<path class="st7" d="M82.4,82.1c1.3-1,2.7-1.9,4.2-2.6l-5.5-14.3c-3.3,1.4-6.3,3.3-9,5.5L82.4,82.1z"/>
</g>
</svg>
