<?xml version="1.0" encoding="utf-8"?>
<!-- Generator: Adobe Illustrator 24.2.1, SVG Export Plug-In . SVG Version: 6.00 Build 0)  -->
<svg version="1.1" id="Layer_1" xmlns="http://www.w3.org/2000/svg" xmlns:xlink="http://www.w3.org/1999/xlink" x="0px" y="0px"
	 viewBox="0 0 512 512" style="enable-background:new 0 0 512 512;" xml:space="preserve">
<style type="text/css">
	.st0{fill:#FFFFFF;}
</style>
<path class="st0" d="M512,454.1L375.6,317.7c21.5-32.4,33.9-71.2,33.9-112.9C409.6,91.7,317.9,0,204.8,0C91.7,0,0,91.7,0,204.8
	c0,113.1,91.7,204.8,204.8,204.8c41.7,0,80.6-12.5,112.9-34L454.1,512L512,454.1z M58,204.8c0-81.1,65.7-146.7,146.8-146.7
	c81.1,0,146.8,65.7,146.8,146.7c0,81.1-65.7,146.8-146.8,146.8C123.8,351.6,58,285.9,58,204.8z"/>
</svg>
