<svg id="Layer_1" data-name="Layer 1" xmlns="http://www.w3.org/2000/svg" viewBox="0 0 385.17 382.67"><defs><style>.cls-1{fill:#eff0f1;}.cls-11,.cls-15,.cls-2{fill:none;stroke-miterlimit:10;}.cls-2{stroke:#bcbcbc;stroke-width:1.05px;}.cls-3{fill:#f3b958;}.cls-4{fill:#2780ba;}.cls-5{fill:#3996d3;}.cls-6{fill:#e8ae56;}.cls-7{fill:#92c4b6;}.cls-8{fill:#f6f5ee;}.cls-9{fill:#e74d38;}.cls-10{fill:#fdc786;}.cls-11{stroke:#262c6b;stroke-width:1.59px;}.cls-12{fill:#77b8b4;}.cls-13{fill:#e7625b;}.cls-14{fill:#3d90a8;}.cls-15{stroke:#34556e;stroke-width:1.23px;}.cls-16{fill:#35556b;}.cls-17{fill:#ca372f;}.cls-18{fill:#1c1919;}.cls-19{fill:#fff;}.cls-20{fill:#2d7f94;}.cls-21{fill:#010101;}.cls-22{fill:#e5a549;}.cls-23{fill:#52a49b;}</style></defs><title>econonmic-s-01</title><circle class="cls-1" cx="192.93" cy="189.43" r="178.5"/><line class="cls-2" x1="284.97" y1="102.26" x2="120.01" y2="102.26"/><line class="cls-2" x1="273.08" y1="253.54" x2="273.08" y2="88.59"/><line class="cls-2" x1="250.87" y1="254.03" x2="250.87" y2="89.07"/><line class="cls-2" x1="228.66" y1="253.54" x2="228.66" y2="88.59"/><line class="cls-2" x1="205.28" y1="254.03" x2="205.28" y2="89.07"/><line class="cls-2" x1="182.42" y1="254.03" x2="182.42" y2="89.07"/><line class="cls-2" x1="161.45" y1="254.03" x2="161.45" y2="89.07"/><line class="cls-2" x1="136.78" y1="254.03" x2="136.78" y2="89.07"/><line class="cls-2" x1="284.97" y1="125.33" x2="120.01" y2="125.33"/><line class="cls-2" x1="284.97" y1="148" x2="120.01" y2="148"/><line class="cls-2" x1="284.97" y1="171.07" x2="120.01" y2="171.07"/><line class="cls-2" x1="287.76" y1="191.64" x2="122.81" y2="191.64"/><line class="cls-2" x1="287.76" y1="214.56" x2="122.81" y2="214.56"/><line class="cls-2" x1="284.97" y1="236.81" x2="120.01" y2="236.81"/><path class="cls-3" d="M161.4,256.13a.73.73,0,0,0,.69.34.62.62,0,0,0,.67.36.75.75,0,0,0,.68.33,8.64,8.64,0,0,0,3.34,1.54.5.5,0,0,0,.57.25,2.32,2.32,0,0,0,1.52.65l.7.3a33.16,33.16,0,0,0,7.85,2.7l.32.15a1.3,1.3,0,0,0,1.44.44l.12,0c0,.19,0,.2.07,0l.76.17a4.22,4.22,0,0,1,.93.67c1.18,1.46,2.2,1.62,3.82.51l1.39.15c.66.34-1,1.6.63,1.56,1.19,0,.31-.8.43-1.2l.89-.13,1.11.29.36,0,1.38.05a66.32,66.32,0,0,0,15.27.61,98.55,98.55,0,0,0,15.73-2.2c0,1.58,1.5,1.09,2.42,1.45-.72,1.07-1.54.06-2.23.36,1.36,1.19,2.87.88,3.17-.66a3.79,3.79,0,0,0-.09-2,1.21,1.21,0,0,1,.91-.33c0,2.28.8,3,2.52,2.25-.58-.35-1.55,0-1.72-1,2.88-.69,2.88-.69,1.88-2.23v-.1l.53-.21.52-.15a.29.29,0,0,0,.4-.19v0a1.15,1.15,0,0,0,1-.37l.69-.21a.23.23,0,0,0,.35-.17h0a5.4,5.4,0,0,0,2.4-1,5.48,5.48,0,0,0,2-.86l.41-.22a.24.24,0,0,0,.27-.1l.4-.22,0,0a2.11,2.11,0,0,0,1.36-.63,14.9,14.9,0,0,0,3.79-2l1.32-.69,1.73-1.07a1.81,1.81,0,0,0,1.17-.75l1.86-1.07a4.64,4.64,0,0,0,2-1.42l.42-.3a7.57,7.57,0,0,0,2.75-2.05h0a14.35,14.35,0,0,0,3.76-3.08h0a3.28,3.28,0,0,0,1.63-1.41,34.58,34.58,0,0,0,3.84-3.57,35.68,35.68,0,0,0,6.63-6.41c1.17-1.33,2.63-2.49,3.23-4.27l.43-.49a1.69,1.69,0,0,0,1.14-1.58.26.26,0,0,0,.16-.18c.56,0,.59-.4.58-.82a.25.25,0,0,0,.14-.17c.19,0,.22-.06.16-.22a.2.2,0,0,0,.12-.17c.35,0,.58-.09.39-.5l.32-.51c.37,0,.58-.11.42-.53l.28-.49c.36,0,.56-.12.41-.52l.27-.51c.53,0,.63-.34.53-.79a.44.44,0,0,0,.15-.26c.39,0,.55-.11.37-.51l.28-.54c.35,0,.59-.07.37-.49l.68-1.17a1,1,0,0,0,.76-1.22l.24-.51c.85-.34,1-1.09,1.09-1.87l.63-1.2a6.64,6.64,0,0,0,2-3.93,7.85,7.85,0,0,0,1.11-2.53c.58,0,.56-.58.79-.91.37-.53.46-.09.62.16a98.71,98.71,0,0,1-21.56,45.57,98.14,98.14,0,0,1-87.27,34.91,99.77,99.77,0,0,1-24.24-6,26.69,26.69,0,0,0-2.95-.77c.42-.74-.36-.52-.57-.62a114.62,114.62,0,0,1-10.4-5.59A103.65,103.65,0,0,1,129.25,266,84.15,84.15,0,0,1,115,251.38c.77-1.31,2.42-1.81,3.14-3.26-1.73-.26-3.32-.25-4.68.92-1.11-.27-1.17-1.48-1.88-2.11a3.58,3.58,0,0,1-.05-.67c.18-1.7,0-3.07-2.29-2.69-.26,0-.57-.29-.86-.46l-.17-.34a1,1,0,0,0-.55-1c-.29-.77-1.12-1.22-1.22-2.1-.31-1.65-1.44-2.9-2.18-4.33a102.12,102.12,0,0,1-6.59-15.53,90,90,0,0,1-3.51-13.88c-.55-3.51-1-7-1.4-10.55-.28-2.64-.11-5.27-.35-7.89a32.73,32.73,0,0,0-.12-5.76c.17-.36.5-.73.47-1.07-.22-2.56.44-5,.72-7.53a96.33,96.33,0,0,1,5-20.68,112.25,112.25,0,0,1,8.87-18.93c.26-.46.75-.93.26-1.54,2.25-2.35,4-5.11,6-7.63a11.58,11.58,0,0,0,1,.65c.36.19,1.09.14.84.77s-.72.24-1.09,0c-.18-.14-.41-.26-.57,0s-.09.39,0,.46a1.86,1.86,0,0,0,1.55.46c.46-.07,1.06-.6.86-.87-.69-.95.2-2.34-1-3.08,4.94-6.5,11.14-11.67,17.5-16.68l.45-.33a.22.22,0,0,0,.24-.13l.32-.25h0a1.11,1.11,0,0,0,.86-.61.12.12,0,0,0,.17-.1,4.55,4.55,0,0,0,2-1.35h0a4.87,4.87,0,0,0,2.06-1.34h0a4.84,4.84,0,0,0,2.19-1.31.15.15,0,0,0,.2-.1l.42-.27a1.28,1.28,0,0,0,1-.5l.32-.21a2.41,2.41,0,0,0,1.36-.71,6.51,6.51,0,0,0,2.48-1.3.22.22,0,0,0,.25-.12,1.73,1.73,0,0,0,1.3-.63.84.84,0,0,0,.75-.35.63.63,0,0,0,.66-.31l.71-.32a5.81,5.81,0,0,0,2.4-1l.32-.09,9.47-3.37.17,0,0-.16c.25.26.46.14.65-.07a.19.19,0,0,0,.25-.05,56.77,56.77,0,0,0,6.83-1.68l.69-.1a1,1,0,0,0,1-.24l.67-.1a1.68,1.68,0,0,0,1.37-.26l1-.13a14.17,14.17,0,0,0,3.76-.55l1.38-.1a4.47,4.47,0,0,0,2.37-.26l1-.05,13,0,1,.05a4.37,4.37,0,0,0,2.39.26l1.36.1,7.85,1.26,1,.15a.58.58,0,0,0,.7.17,1.72,1.72,0,0,0,1.16.2,5.32,5.32,0,0,0,2.59.67.25.25,0,0,0,.28.11c2,.27,2.51,1.48,2.17,3.27l0,0-2.74-.28-1-.11a3.1,3.1,0,0,0-2-.27l-1-.1a5.6,5.6,0,0,0-2.74-.27l-1.36-.05a38.66,38.66,0,0,0-10.23,0l-2,.11a52.18,52.18,0,0,0-12.29,1.95l-.68.11a7.17,7.17,0,0,0-2.92.84l-.84.16a3,3,0,0,0-1.73.57h0a54,54,0,0,0-13.41,5.43.18.18,0,0,0-.23.11,3.73,3.73,0,0,0-2.21,1.23l-.55.28a2.69,2.69,0,0,0-1.8,1h0a2.89,2.89,0,0,0-1.77,1.09l-.1,0-.06.08a2.29,2.29,0,0,0-1.52,1,.14.14,0,0,0-.18.11A3.36,3.36,0,0,0,152,108a.18.18,0,0,0-.21.11l-.36.27h0a1.28,1.28,0,0,0-1,.71h0a3.86,3.86,0,0,0-1.73,1.31.76.76,0,0,0-.65.49l-.31.25-.4.31a3.48,3.48,0,0,0-1.69,1.39h0a8,8,0,0,0-2.71,2.39l-.36.33a22.19,22.19,0,0,0-4.79,4.77h0a8.6,8.6,0,0,0-2.41,2.72h0a2.67,2.67,0,0,0-1.15,1.34l-.56.69a3.91,3.91,0,0,0-1.36,1.74h0a2.25,2.25,0,0,0-1,1.38h0l-.26.33-.44.64-.28.39a7.93,7.93,0,0,0-1.78,2.73,6.63,6.63,0,0,0-1.72,2.72.6.6,0,0,0-.34.59,7.28,7.28,0,0,0-1.62,2.84.14.14,0,0,0-.09.2l-.27.49a2.32,2.32,0,0,0-.7,1.38,1.76,1.76,0,0,0-.67,1.35.16.16,0,0,0-.08.21,3.85,3.85,0,0,0-1,2.17l-.07.07,0,.09a2.21,2.21,0,0,0-.69,1.51l0,0-.22.4a.29.29,0,0,0-.09.3l-.17.36-.2.58a2.9,2.9,0,0,0-.68,1.8h0a2.66,2.66,0,0,0-.64,1.75.14.14,0,0,0-.06.2A12.32,12.32,0,0,0,118,155.5a.12.12,0,0,0-.05.2,14.9,14.9,0,0,0-1.22,4.59l-.14.89-.15.45-.11.72a7.26,7.26,0,0,0-.59,3l-.11,1.05a15.7,15.7,0,0,0-.62,4.78l-.08,1.36a11.06,11.06,0,0,0-.25,4.1,29.7,29.7,0,0,0,0,5.45,11.16,11.16,0,0,0,.26,4.09l.06,1a3.23,3.23,0,0,0,.26,2.05l.08,1a2.51,2.51,0,0,0,.27,1.71l.07.68a13.1,13.1,0,0,0,.62,3.85c.91,4.21,1.8,8.43,3.68,12.36l.13.51a.64.64,0,0,0,.27.69,1.55,1.55,0,0,0,.4,1,.63.63,0,0,0,.29.66l.1.34a7,7,0,0,0,1.25,2.76h0a9,9,0,0,0,1.68,3.45h0a34.79,34.79,0,0,0,4.49,7.81h0a1.27,1.27,0,0,0,.67,1h0a1.36,1.36,0,0,0,.7,1h0a1.27,1.27,0,0,0,.69,1h0a2.33,2.33,0,0,0,1,1.38h0a2.16,2.16,0,0,0,1,1.34,2.74,2.74,0,0,0,1.05,1.37l.3.37h0a14.5,14.5,0,0,0,3.13,3.64l.07.08.25.29a2.36,2.36,0,0,0,1,1.09l.31.36.34.33.35.35a2,2,0,0,0,1,1,3.09,3.09,0,0,0,1.38,1.35l0,.09h.1a9.36,9.36,0,0,0,2.93,2.66,1.17,1.17,0,0,0,.72.66l.33.27.06,0a8.06,8.06,0,0,0,2.65,2.09l.39.32a1.27,1.27,0,0,0,1,.72h0l.36.29a.12.12,0,0,0,.17.11,1.14,1.14,0,0,0,.86.61h0a12.71,12.71,0,0,0,3.71,2.49l1,.63A7.86,7.86,0,0,0,159,254.8a.77.77,0,0,0,.67.37A2.93,2.93,0,0,0,161.4,256.13Zm69.69,6.57c.24-.85,1.07.39,1.19-.55,0-.26-.15-.41-.41-.44-.57-.08-1.19-.16-1.46.51s.18,1.13.82,1.39c.36.15.86.33.63.81s-.65.25-1,0-.59-.46-.77.07c-.09.26-.1.65.21.75a1.73,1.73,0,0,0,2.13-.52c.47-.69,0-1.14-.55-1.51C231.62,263,231.18,263.11,231.1,262.7Zm-1.78,1.63.13-.09-.11-.12-.17.16Z"/><path class="cls-4" d="M305.09,125.79c4,7.75,11,10.55,19.18,11.24a1.48,1.48,0,0,1,1.5,1.05,128.52,128.52,0,0,1,7.41,27.59,1.46,1.46,0,0,1-.77,1.66,28.33,28.33,0,0,0-7.58,7.27c-4.78,6.93-4.46,15,.86,21.47a27,27,0,0,0,6.27,5.72,2.22,2.22,0,0,1,1.18,2.6,132.53,132.53,0,0,1-7.19,26.77,2,2,0,0,1-2.07,1.33,27.39,27.39,0,0,0-9.24,2.2,17.41,17.41,0,0,0-9.3,8.82c-1.82.52-3.37,1.35-3.66,3.46-.25,1.81.69,3,2.17,3.83l.2,2.67.07.67.15.73a3.79,3.79,0,0,1-.77-.33c-1.18-.84-1.66.26-2.14.88-.73.94.43,1.07.86,1.4a5.81,5.81,0,0,0,2.8,1.09,21.86,21.86,0,0,0,1.46,3.63c1,1.57.49,2.6-.58,3.88a141,141,0,0,1-18.46,18.37,3,3,0,0,1-3.74.53c-4.66-2.21-9.58-3.32-14.74-2.17-6.48,1.44-10.39,5.74-12.63,11.76a26.37,26.37,0,0,0-1.61,7.65,2.08,2.08,0,0,1-1.64,2,132.5,132.5,0,0,1-27.16,7.08,1.76,1.76,0,0,1-1.94-.94c-3-4.28-6.64-7.82-11.7-9.51-6.72-2.24-12.5-.26-17.66,4.2a21.68,21.68,0,0,0-4.18,4.7,2.64,2.64,0,0,1-3.14,1.24,132.05,132.05,0,0,1-22.08-5.7c-1.6-.58-3.18-1.23-4.79-1.78-.86-.29-1.27-.83-1-1.66,1.42-3.86-.06-6.34-3.47-8.27a19.58,19.58,0,0,1-4.85-4.38l5.49,1.81c.08.47.23.75.68.25l.34.06c.39.87,1.27,1,2,1.32a111.39,111.39,0,0,0,16.66,4.38,94.16,94.16,0,0,0,15.76,2c4.11.1,8.2.64,12.38.17s8.23-.27,12.36-.69a114.31,114.31,0,0,0,20.49-4.21A108.31,108.31,0,0,0,256.23,286a115.12,115.12,0,0,0,26.42-18.8,98.67,98.67,0,0,0,9.32-10.1c2.09-2.6,4.69-4.92,5.54-8.36,0,2.66.09,5.33,0,8,0,1.08.54,1.16,1.38,1.17s1.39-.14,1.36-1.19a62,62,0,0,1,0-6.63c.13-1.68-.49-2.25-2-2.11.22-.32.69-.45.69-.92,1.55-.32,1.82-1.39,1.6-2.75a1,1,0,0,0,.89-.42,124.39,124.39,0,0,0,6.42-12.43c1.4-3.3,2.85-6.58,3.95-10A103,103,0,0,0,316,204.87c.37-2.57.23-2.58,2.89-2.61a2.72,2.72,0,0,0,1.5-.13L317,195.8a10.3,10.3,0,0,0,.62-4.49c.06-4.92.24-9.84-.18-14.77a135.16,135.16,0,0,0-2.68-17.68,109.44,109.44,0,0,0-7.79-22.43c-1.35-2.91-2.84-5.75-4.27-8.62.72,0,1.41.16,1.27-1.06a1.28,1.28,0,0,1,1.06-1.59v0Zm-3.43,136.53c-.89-.94-2.54-.32-3.3-1.63-.12-.21-.76,0-.59.6a5.67,5.67,0,0,1-.08,3.34c-.14.42.09.58.51.64,2.48.34,3.23-.18,3.78-2.62.65,1,1.51,1.86.67,3.13-.25.37,0,.53.29.55s1,.17,1-.35c-.12-1.59,1-2.75,1.38-4.46C304,262.2,302.61,260.83,301.66,262.32Z"/><path class="cls-5" d="M302.68,127.8c1.43,2.87,2.92,5.71,4.27,8.62a109.44,109.44,0,0,1,7.79,22.43,135.16,135.16,0,0,1,2.68,17.68c.42,4.93.24,9.85.18,14.77a10.3,10.3,0,0,1-.62,4.49c-2.47-4.19-5-8.37-7.41-12.58-3.72-6.43-7.4-12.88-11.11-19.32-.24-.42-.39-1.09-.93-1.11s-.67.68-.91,1.1c-3,5.2-6,10.41-9,15.61-.39.68-.86,1.31-1.29,2-.79-1.12-.27-2.38-.36-3.57-.11-1.37.42-3-1.86-3.1-.06,0-.11-.3-.16-.46,2-3.55,4-7.11,6.1-10.63a3.16,3.16,0,0,0,.37-2.57,102.08,102.08,0,0,0-21.15-42,4.19,4.19,0,0,1-1-2.93c0-6.87,0-13.74,0-20.61,0-1.41-.13-2.82-.2-4.23a3.5,3.5,0,0,1,1.84.78c4.71,3,8.7,6.82,12.81,10.51a111.57,111.57,0,0,1,12.19,13.62c1.38,1.73,2.95,3.46,3.43,5.77-.18.11-.54.25-.52.34a7.87,7.87,0,0,1-.08,3.82.39.39,0,0,0,.43.55c1-.3,2.12.35,3.11-.27l1.18.79Z"/><path class="cls-4" d="M298.29,122c-.48-2.31-2-4-3.43-5.77a111.57,111.57,0,0,0-12.19-13.62c-4.11-3.69-8.1-7.54-12.81-10.51a3.5,3.5,0,0,0-1.84-.78,7,7,0,0,0-6.34-4.5,89.36,89.36,0,0,0-17.35-8.42,100.11,100.11,0,0,0-15.69-4.66c-7.67-1.49-15.35-2.79-23.21-2.54-3.34.11-6.68.09-10,.26a95,95,0,0,0-14.76,2,108.37,108.37,0,0,0-22.52,7.33c-1.53.69-2.95,1.69-4.64,2,.1-.88.93-1.24,1.37-1.87A23.49,23.49,0,0,0,159,69.67a3.37,3.37,0,0,1,2.46-3.29,140.27,140.27,0,0,1,25.94-7,2.84,2.84,0,0,1,3.27,1.34,23.43,23.43,0,0,0,7.12,6.76c7,4.33,14.87,3.49,21.38-2.27a27.5,27.5,0,0,0,4.73-5.35,1.64,1.64,0,0,1,1.86-.78,133,133,0,0,1,27.49,7.16,2,2,0,0,1,1.46,2,26.73,26.73,0,0,0,2.86,10.28c3.77,7.06,10.77,10.4,18.75,9a25.51,25.51,0,0,0,7.6-2.42,2.15,2.15,0,0,1,2.73.3,130.22,130.22,0,0,1,19.46,19.29c-.24.42-.68.33-1,.43a4.23,4.23,0,0,0-3.36,3.17,3.41,3.41,0,0,0,2,3.9c.79.43.64,1.08.73,1.72-.59.71-.24,1.58-.43,2.36-1.24-1-2.2-.33-2.71.76s.83,1.09,1.34,1.57a4,4,0,0,0,1.23.54l.17,2,0,1v1.41c0,.53.19,1.14-.45,1.51a1,1,0,0,1-.52-1c0-.35.38-.8-.3-.88-.51-.06-1.05-.1-1.12.64C300.6,123,299.06,123.25,298.29,122Zm-.71-7.62c0,1.31,0,2.61,0,3.92,0,1.06.65,1,1.36,1s1.37,0,1.36-1q-.06-3.92,0-7.84c0-1.06-.65-1-1.36-1s-1.39,0-1.36,1C297.61,111.76,297.58,113.06,297.58,114.37Zm3.05-7.76a1.68,1.68,0,1,0-1.64,1.75A1.62,1.62,0,0,0,300.63,106.61Z"/><path class="cls-5" d="M320.34,202.14a2.72,2.72,0,0,1-1.5.13c-2.65,0-2.52,0-2.89,2.61a103,103,0,0,1-4.15,16.51c-1.1,3.44-2.55,6.72-3.95,10a124.39,124.39,0,0,1-6.42,12.43,1,1,0,0,1-.89.42c-1.64-.92-2.73-.84-3.15.32-.52,1.41.25,2.12,1.56,2.43,0,.48-.47.61-.69.92a.88.88,0,0,0-.77.78c-.85,3.44-3.45,5.76-5.54,8.36a98.67,98.67,0,0,1-9.32,10.1A115.12,115.12,0,0,1,256.23,286a108.31,108.31,0,0,1-18.91,7.73,114.31,114.31,0,0,1-20.49,4.21c-4.13.42-8.28.22-12.36.69s-8.26-.06-12.38-.17a94.16,94.16,0,0,1-15.76-2A111.39,111.39,0,0,1,159.66,292c-.75-.27-1.63-.45-2-1.32,4.43,1,8.78,2.27,13.24,3.15A116.37,116.37,0,0,0,207,295.2a115.65,115.65,0,0,0,95-73.77,106.72,106.72,0,0,0,5.11-18c.18-.93.45-1.4,1.5-1.38C312.5,202.12,316.42,202.12,320.34,202.14Z"/><path class="cls-5" d="M153.48,82.77c1.7-.3,3.12-1.3,4.64-2a108.37,108.37,0,0,1,22.52-7.33,95,95,0,0,1,14.76-2c3.35-.16,6.68-.15,10-.26,7.86-.25,15.54,1.05,23.21,2.54a100.11,100.11,0,0,1,15.69,4.66,89.36,89.36,0,0,1,17.35,8.42c-8.7,0-17.4-.11-26.09.12a103,103,0,0,1-24.76-2.65c-21.3-4.61-42-2.18-62,6.64a102.74,102.74,0,0,0-31.28,21.53,2.39,2.39,0,0,1-1.06.82l-.15-.14c-.29-.87,1-1.18.72-2,.07-.58.56-.76,1-1l.39-.33c2.82-2.06,4.75-5,7.32-7.32a131.67,131.67,0,0,1,15.16-12.13c1.39-.93,2.75-1.92,4.12-2.89l8.06-4.31.48-.36Z"/><path class="cls-6" d="M107.6,132c.49.61,0,1.08-.26,1.54a112.25,112.25,0,0,0-8.87,18.93,96.33,96.33,0,0,0-5,20.68c-.29,2.5-.95,5-.72,7.53,0,.34-.31.71-.47,1.07C91,176,87.52,171.81,83,168.37c-.59-.44-1.21-.79-1.05-1.74A112.25,112.25,0,0,1,85,152a4.56,4.56,0,0,0,.71-2.63l.25-.74a4.3,4.3,0,0,0,.79-2.66l.27-.76a2.23,2.23,0,0,0,.54-1.52l.15-.56a5,5,0,0,0,1.07-3l.3-.77a3.42,3.42,0,0,0,1-2.24,6.87,6.87,0,0,1,2.49-.37c.67.25,1.26-.15,1.9-.21l.81-.15c.23.31.43.23.6-.07l.91-.17a1,1,0,0,0,1.08-.21l.82-.23c.13.16.21.09.29-.05l.14,0h0l.94-.25c.29.31.46.13.61-.15l.73-.24a1.24,1.24,0,0,0,1.3-.43l1.55-.63a4,4,0,0,0,2.58-1.44l.24-.36-.06,0Z"/><path class="cls-6" d="M115,251.38A84.15,84.15,0,0,0,129.25,266a103.65,103.65,0,0,0,11.51,8.28,114.62,114.62,0,0,0,10.4,5.59c.21.1,1-.11.57.62a48.76,48.76,0,0,0-21.6,3.81,1.81,1.81,0,0,1-2.12-.46,127.43,127.43,0,0,1-15.93-15.33c-1-1.1-1.94-2.17-2.91-3.26a8.49,8.49,0,0,1,.27-3.57c-.91.1-1.91.36-1.61-1l1.07-2.84c3.4.74,2.36-2,2.69-3.87,2.32,1.72,3.63,4.95,7.29,3.57-1.4-1.39-2.71-2.77-4.12-4.06C113.79,252.61,113.71,252,115,251.38Zm-4.49,12.05c1.65.75,3-.65,4.36.18.33.2.88.25.62.77s-.62.3-1,0-.6-.43-.75.11c-.09.33.14.5.45.59.73.21,1.5.41,1.91-.46s-.25-1.21-.9-1.5c-.25-.11-.56-.15-.56-.5a.38.38,0,0,1,.54-.24c.29.09.67.42.72-.2,0-.38-.3-.43-.59-.44s-.79-.1-1,.07c-.73.63-1.29.45-2.09,0a1.56,1.56,0,0,0-2.26.85,1.77,1.77,0,0,0,.79,2.34c.88.53,1.48.31,2.31-.91C112.23,264.23,111.29,265.35,110.49,263.43Z"/><path class="cls-6" d="M92.38,187.5c.25,2.62.07,5.25.35,7.89.38,3.53.85,7,1.4,10.55a90,90,0,0,0,3.51,13.88,102.12,102.12,0,0,0,6.59,15.53c.74,1.43,1.87,2.68,2.18,4.33a22.25,22.25,0,0,0-13.74-6.81c-2.39-.24-3.3-1.3-4-3.39a138.09,138.09,0,0,1-6.68-26.18,1.82,1.82,0,0,1,.79-2C87.51,197.78,91,193.35,92.38,187.5Z"/><path class="cls-4" d="M145,87.44c-1.37,1-2.73,2-4.12,2.89a131.67,131.67,0,0,0-15.16,12.13c-2.57,2.33-4.5,5.26-7.32,7.32h0l-.36-.33h-.68c-.89.08-1.8-.24-2.66.21a20.79,20.79,0,0,1-3.16,2.42c0-1.55,0-2.9,0-4.26,0-1.51.28-3.09-2.07-2.87,0,0-.12-.28-.18-.44a.52.52,0,0,1,.12-.13.25.25,0,0,0,.18-.24l.09-.11.23-.31a131.76,131.76,0,0,1,18-17.8,2.46,2.46,0,0,1,3-.46A24.51,24.51,0,0,0,145,87.44Z"/><path class="cls-5" d="M279.48,220.51l-.28.54a.4.4,0,0,0-.38.51.44.44,0,0,1-.15.26.72.72,0,0,0-.53.79l-.27.51c-.34,0-.44.21-.41.52l-.28.49c-.32,0-.44.22-.42.53l-.32.51c-.3,0-.39.24-.4.5a.2.2,0,0,1-.12.17.19.19,0,0,0-.16.22.25.25,0,0,1-.14.17.82.82,0,0,0-.58.82.26.26,0,0,1-.16.18c-.49.45-1.16.76-1.14,1.58l-.43.49c-.29,0-.62.24-.83-.15l.19-.3.29-.41.39-.61a.49.49,0,0,0,.35-.53A88.47,88.47,0,0,0,282.54,210c.72-1.91.71-1.92-1.39-1.92-2.38,0-4.76,0-7.14,0a5.25,5.25,0,0,1-4.55-8.5c.78-.32.82-1.18,1.29-1.72s.59-1.44,1.53-1.42,1.16-.46.82-1.29a1,1,0,0,1,.23-1.23.52.52,0,0,1,.75.09,1.18,1.18,0,0,1,.2,1.27c-.09.29-.56.45-.23,1,1.24-.79,2.44.11,3.7.18-.77,1.39-1.51,2.79-2.32,4.16-.61,1-.54,1.5.81,1.48,3.63,0,7.27,0,10.9,0,.78,0,1.6-.07,1.18,1.15-1.11,1.25-1.42,2.87-2,4.37a7.87,7.87,0,0,1-1.11,2.53,14.45,14.45,0,0,0-2,3.93l-.63,1.2a2.93,2.93,0,0,0-1.09,1.87l-.24.51c-.58.21-.68.71-.77,1.23l-.68,1.17A.41.41,0,0,0,279.48,220.51Z"/><path class="cls-5" d="M283.39,186.27a47.51,47.51,0,0,1-3.39,6.38c-1.26.6-2.89-.51-3.94.72-.74.87-1,.44-1.44-.17a3.31,3.31,0,0,1-.77-1.27l1.81-3.08a6.25,6.25,0,0,0,5.19-.59c1.44-.9,1.43-1.25.06-2.19-.44-.3-.71-.43-1.15,0a3.94,3.94,0,0,1-2.84.84c0-1,.77-1.72,1.23-2.54,1.56-2.79,3.19-5.53,4.8-8.29.47.6.24,1.3.27,2C283.33,180.76,283,183.52,283.39,186.27Z"/><path class="cls-6" d="M115,251.38c-1.27.58-1.19,1.23-.23,2.12,1.4,1.29,2.72,2.67,4.12,4.06-3.66,1.38-5-1.85-7.29-3.57-.32,1.85.71,4.61-2.69,3.87a39.86,39.86,0,0,0,1.05-6.67,20.16,20.16,0,0,0-1.6-8.07c.29.16.61.5.86.46,2.3-.38,2.47,1,2.29,2.69a3.58,3.58,0,0,0,.05.67c0,1.21,0,2.42,0,3.74a4.16,4.16,0,0,0,1.88-1.63c1.35-1.17,2.94-1.18,4.68-.92C117.4,249.57,115.75,250.06,115,251.38Z"/><path class="cls-4" d="M109.28,104.49c.06.15.14.44.18.44,2.35-.22,2.11,1.37,2.07,2.87,0,1.36,0,2.71,0,4.26a20.8,20.8,0,0,0,3.16-2.42c.89,0,1.81.33,2.66-.21H118l.08.36a1.46,1.46,0,0,0-.1.3c-.41.25-.91.42-1,1-1.2.38-1.88,1.43-2.69,2.25s-.29,1.17.63,1.21a.31.31,0,0,1,0,.3,5.8,5.8,0,0,1-2,2.4,1.36,1.36,0,0,0-1-1.52c-.82-.17-.11,1.17-.94,1.19a63.16,63.16,0,0,1-2.46-6.61,11.42,11.42,0,0,0,0-4.92C108.64,105,108.77,104.58,109.28,104.49Z"/><path class="cls-7" d="M283.39,186.27c-.36-2.75-.06-5.51-.17-8.26,0-.66.2-1.36-.27-2a2.51,2.51,0,0,1,1-1.72c.05.16.1.46.16.46,2.28.06,1.75,1.73,1.86,3.1.09,1.19-.43,2.45.36,3.57A12.67,12.67,0,0,1,283.39,186.27Z"/><path class="cls-4" d="M304.42,113.85c-.09-.63.06-1.29-.73-1.72a3.41,3.41,0,0,1-2-3.9,4.23,4.23,0,0,1,3.36-3.17c.36-.1.81,0,1-.43,1.32,1,1.15,2.17.27,3.37-.07-.26-.09-.6-.48-.54a1.58,1.58,0,0,0-1.43,1c-.29.86.27,1.33.94,1.7Z"/><path class="cls-7" d="M273.85,191.93a3.31,3.31,0,0,0,.77,1.27c.46.61.7,1,1.44.17,1-1.23,2.68-.12,3.94-.72a5.31,5.31,0,0,1-1.79,2.84c.07-.27.16-.54.21-.82a1,1,0,0,0-.63-1.23,1,1,0,0,0-1.2.37,1.17,1.17,0,0,0,.21,1.54,1.6,1.6,0,0,0,1.24.42.54.54,0,0,1-.29.68c-1.27-.07-2.46-1-3.7-.18-.33-.57.14-.73.23-1a1.18,1.18,0,0,0-.2-1.27.52.52,0,0,0-.75-.09,1,1,0,0,0-.23,1.23c.34.83.19,1.31-.82,1.29s-1.08.89-1.53,1.42-.51,1.41-1.29,1.72A46.08,46.08,0,0,1,273.85,191.93Z"/><path class="cls-4" d="M303.85,250.8c-1.48-.85-2.43-2-2.17-3.83.3-2.11,1.84-2.94,3.66-3.46A22.28,22.28,0,0,0,303.85,250.8Z"/><path class="cls-7" d="M272.48,229.13c.22.39.54.19.83.15-.6,1.78-2.06,2.94-3.23,4.27a35.68,35.68,0,0,1-6.63,6.41Z"/><path class="cls-7" d="M276.92,186.88a3.94,3.94,0,0,0,2.84-.84c.43-.41.71-.28,1.15,0,1.37.95,1.38,1.29-.06,2.19a6.25,6.25,0,0,1-5.19.59C276,188.14,276.17,187.33,276.92,186.88Z"/><path class="cls-8" d="M162.31,101.87a54,54,0,0,1,13.41-5.43c-.31,1.13-1.46.89-2.2,1.21-3.16,1.38-6.4,2.58-9.6,3.87A2.69,2.69,0,0,1,162.31,101.87Z"/><path class="cls-4" d="M305,257.91a5.81,5.81,0,0,1-2.8-1.09c-.43-.34-1.59-.47-.86-1.4.48-.61,1-1.72,2.14-.88a3.79,3.79,0,0,0,.77.33Z"/><path class="cls-8" d="M162.67,91.29l-9.47,3.37a5.15,5.15,0,0,1,2-1.51c1.78-.79,3.73-.8,5.44-1.64.3-.15.62-.29.69-.69s0-1.32.86-1.11S162.66,90.72,162.67,91.29Z"/><path class="cls-8" d="M196.89,87.5l-13,0c.11-.61.56-.62,1-.62h10.89C196.3,86.9,196.77,86.89,196.89,87.5Z"/><path class="cls-8" d="M181.87,94.77a52.18,52.18,0,0,1,12.29-1.95c-.72,1.17-2,.52-2.92.74-2.84.65-5.8.65-8.62,1.51A.69.69,0,0,1,181.87,94.77Z"/><path class="cls-4" d="M301.66,123.77c.07-.74.61-.7,1.12-.64.68.08.32.53.3.88a1,1,0,0,0,.52,1c.64-.37.41-1,.45-1.51.89.25,1,1,1,1.71a1.28,1.28,0,0,0-1.06,1.59c.13,1.22-.56,1.07-1.27,1.06l-.28-.58c.94-1,.64-2.34-.75-3.47Z"/><path class="cls-4" d="M303.86,119.07a4,4,0,0,1-1.23-.54c-.51-.48-1.83-.52-1.34-1.57s1.47-1.73,2.71-.76Z"/><path class="cls-8" d="M196.21,92.71a38.66,38.66,0,0,1,10.23,0c-.73.64-1.62.35-2.42.31C201.41,92.9,198.78,93.44,196.21,92.71Z"/><path class="cls-9" d="M115.23,122.72c1.17.74.29,2.14,1,3.08.19.27-.4.8-.86.87a1.86,1.86,0,0,1-1.55-.46c-.08-.07-.06-.34,0-.46s.39-.15.57,0c.37.28.84.68,1.09,0s-.48-.58-.84-.77a11.58,11.58,0,0,1-1-.65A2.42,2.42,0,0,1,115.23,122.72Z"/><path class="cls-8" d="M209.52,89.18l-7.85-1.26a3.15,3.15,0,0,1,2.93-.25C206.21,88.27,208.22,87.62,209.52,89.18Z"/><path class="cls-6" d="M107.83,260.69c-.3,1.4.7,1.14,1.61,1a8.49,8.49,0,0,0-.27,3.57,17.31,17.31,0,0,1-1.49-1.77C107.08,262.59,106.81,261.59,107.83,260.69Z"/><path class="cls-4" d="M108.57,105.4a11.42,11.42,0,0,1,0,4.92C106.9,107.38,106.9,107.26,108.57,105.4Z"/><path class="cls-8" d="M137.83,120.34a22.19,22.19,0,0,1,4.79-4.77c0,.22.06.56-.06.65C140.9,117.5,139.89,119.52,137.83,120.34Z"/><path class="cls-8" d="M217.43,93.76c.33-1.79-.22-3-2.17-3.27,1-1.12,1.92-.44,2.45.45S219.25,93,217.43,93.76Z"/><path class="cls-8" d="M170.61,89.3A56.77,56.77,0,0,1,163.78,91c.06-.16.09-.43.18-.46C166.15,90,168.27,89.06,170.61,89.3Z"/><path class="cls-5" d="M278,195.77a1.6,1.6,0,0,1-1.24-.42,1.17,1.17,0,0,1-.21-1.54,1,1,0,0,1,1.2-.37,1,1,0,0,1,.63,1.23c0,.28-.14.55-.21.82A1.8,1.8,0,0,1,278,195.77Z"/><path class="cls-4" d="M111.05,116.94c.82,0,.12-1.36.94-1.19a1.36,1.36,0,0,1,1,1.52,4.78,4.78,0,0,1-1.38,1.49c-.06-.45,0-1-.44-1.25Z"/><path class="cls-4" d="M305.43,110.13c-.67-.37-1.23-.84-.94-1.7a1.58,1.58,0,0,1,1.43-1c.39-.06.4.28.48.54Z"/><path class="cls-7" d="M286.35,207.59c.56-1.5.87-3.12,2-4.37a7.62,7.62,0,0,1-.58,3.63c-.15-.26-.25-.7-.62-.17C286.91,207,286.93,207.57,286.35,207.59Z"/><path class="cls-8" d="M179.14,87.93a14.17,14.17,0,0,1-3.76.55A3.31,3.31,0,0,1,179.14,87.93Z"/><path class="cls-8" d="M126.88,135a6.63,6.63,0,0,1,1.72-2.72C128.59,133.54,128.51,134.76,126.88,135Z"/><path class="cls-8" d="M135.42,123.06a8.6,8.6,0,0,1,2.41-2.72A3.09,3.09,0,0,1,135.42,123.06Z"/><path class="cls-8" d="M143,115.23a8,8,0,0,1,2.71-2.39A3.29,3.29,0,0,1,143,115.23Z"/><path class="cls-8" d="M207.8,92.77a5.6,5.6,0,0,1,2.74.27C209.61,93.12,208.52,94.75,207.8,92.77Z"/><path class="cls-8" d="M200.3,87.81a4.37,4.37,0,0,1-2.39-.26C198.79,86.92,199.67,86.28,200.3,87.81Z"/><path class="cls-8" d="M159.87,103.22a3.73,3.73,0,0,1,2.21-1.23C161.77,103.17,161.16,103.81,159.87,103.22Z"/><path class="cls-8" d="M124.92,138.44a7.28,7.28,0,0,1,1.62-2.84A3,3,0,0,1,124.92,138.44Z"/><path class="cls-8" d="M214.65,93.51l2.74.28C216.33,95.08,215.51,94,214.65,93.51Z"/><path class="cls-9" d="M88.78,140.21a5,5,0,0,1-1.07,3A7.82,7.82,0,0,1,88.78,140.21Z"/><path class="cls-8" d="M122.47,214.9a7,7,0,0,1-1.25-2.76A2.75,2.75,0,0,1,122.47,214.9Z"/><path class="cls-8" d="M148.75,110.41a3.86,3.86,0,0,1,1.73-1.31C150.46,110.27,149.95,110.79,148.75,110.41Z"/><path class="cls-8" d="M178.28,95.72a7.17,7.17,0,0,1,2.92-.84C180.52,96.2,179.32,95.69,178.28,95.72Z"/><path class="cls-8" d="M138.87,101.92a4.87,4.87,0,0,1-2.06,1.34C136.85,101.82,137.92,102,138.87,101.92Z"/><path class="cls-8" d="M136.79,103.27a4.55,4.55,0,0,1-2,1.35C134.79,103.19,135.87,103.34,136.79,103.27Z"/><path class="cls-8" d="M146.8,97.52a6.51,6.51,0,0,1-2.48,1.3A2.36,2.36,0,0,1,146.8,97.52Z"/><path class="cls-8" d="M141.06,100.61a4.84,4.84,0,0,1-2.19,1.31C139.12,100.68,140,100.58,141.06,100.61Z"/><path class="cls-8" d="M132.37,126.82a3.91,3.91,0,0,1,1.36-1.74C133.82,126.08,133.71,126.93,132.37,126.82Z"/><path class="cls-5" d="M116.46,113.28a4.6,4.6,0,0,1-1.49,1.59.3.3,0,0,0,0-.3,1.54,1.54,0,0,1,1.34-1.42Z"/><path class="cls-9" d="M106.82,132.6a4,4,0,0,1-2.58,1.44A10.64,10.64,0,0,1,106.82,132.6Z"/><path class="cls-8" d="M211.55,93.13a3.1,3.1,0,0,1,2,.27C212.85,93.78,212.11,94.16,211.55,93.13Z"/><path class="cls-8" d="M152.87,94.76a5.81,5.81,0,0,1-2.4,1C150.85,94.45,152,94.83,152.87,94.76Z"/><path class="cls-8" d="M182.89,87.57a4.47,4.47,0,0,1-2.37.26C181.26,87.31,182,86.91,182.89,87.57Z"/><path class="cls-9" d="M86.75,146a4.3,4.3,0,0,1-.79,2.66A6.2,6.2,0,0,1,86.75,146Z"/><path class="cls-9" d="M90,137.2a3.42,3.42,0,0,1-1,2.24A3.82,3.82,0,0,1,90,137.2Z"/><path class="cls-8" d="M152,108a3.36,3.36,0,0,1,1.84-1.26C153.69,107.78,152.91,108,152,108Z"/><path class="cls-8" d="M157.52,104.52a2.69,2.69,0,0,1,1.8-1C159.18,104.64,158.42,104.7,157.52,104.52Z"/><path class="cls-8" d="M259.62,243.52a3.28,3.28,0,0,1-1.63,1.41A1.44,1.44,0,0,1,259.62,243.52Z"/><path class="cls-8" d="M215,90.37a5.32,5.32,0,0,1-2.59-.67C213.29,89.74,214.37,89.18,215,90.37Z"/><path class="cls-8" d="M145.7,112.84a3.48,3.48,0,0,1,1.69-1.39A1.44,1.44,0,0,1,145.7,112.84Z"/><path class="cls-8" d="M122.11,144.23a3.85,3.85,0,0,1,1-2.17C123.07,142.92,123.24,143.88,122.11,144.23Z"/><path class="cls-4" d="M260.33,233.69q0,.15,0,.3l-1.3,1A1.27,1.27,0,0,1,260.33,233.69Z"/><path class="cls-8" d="M155.74,105.6a2.89,2.89,0,0,1,1.77-1.09C157.5,105.81,156.44,105.41,155.74,105.6Z"/><path class="cls-9" d="M85.71,149.41A4.56,4.56,0,0,1,85,152,7.23,7.23,0,0,1,85.71,149.41Z"/><path class="cls-8" d="M134.29,124.38a2.67,2.67,0,0,1,1.15-1.34C135.52,123.89,135.45,124.61,134.29,124.38Z"/><path class="cls-8" d="M154.07,106.63a2.29,2.29,0,0,1,1.52-1C155.51,106.65,154.86,106.76,154.07,106.63Z"/><path class="cls-8" d="M119.43,151.06a2.66,2.66,0,0,1,.64-1.75C120,149.94,120.51,150.8,119.43,151.06Z"/><path class="cls-8" d="M120.05,149.33a2.9,2.9,0,0,1,.68-1.8C120.63,148.17,121.27,149.1,120.05,149.33Z"/><path class="cls-8" d="M174.36,88.61a1.68,1.68,0,0,1-1.37.26C173.3,88,173.8,88.14,174.36,88.61Z"/><path class="cls-9" d="M94.43,136.62c-.63.06-1.23.46-1.9.21A3.29,3.29,0,0,1,94.43,136.62Z"/><path class="cls-8" d="M131.36,128.19a2.25,2.25,0,0,1,1-1.38C132.43,127.56,132.25,128.14,131.36,128.19Z"/><path class="cls-8" d="M175.71,96.45a3,3,0,0,1,1.73-.57C177.12,96.84,176.31,96.34,175.71,96.45Z"/><path class="cls-7" d="M111.14,117.52c.49.29.38.8.44,1.25C110.8,118.58,111,118,111.14,117.52Z"/><path class="cls-8" d="M121.39,145.89a2.21,2.21,0,0,1,.69-1.51C122,145,122.52,145.8,121.39,145.89Z"/><path class="cls-9" d="M102.69,134.66a1.24,1.24,0,0,1-1.3.43A1.9,1.9,0,0,1,102.69,134.66Z"/><path class="cls-8" d="M258.35,236.05a.92.92,0,0,1,0-.32l.28-.3a.78.78,0,0,1,.33-.05c.07.28.45.59.08.84C258.94,236.31,258.6,236.11,258.35,236.05Z"/><path class="cls-8" d="M123.19,141.85a1.76,1.76,0,0,1,.67-1.35C123.8,141,124.08,141.72,123.19,141.85Z"/><path class="cls-8" d="M120.44,210.1a.64.64,0,0,1-.27-.69c.3.06.75-.12.79.38C121,210,120.67,210.07,120.44,210.1Z"/><path class="cls-9" d="M87.55,143.72a2.23,2.23,0,0,1-.54,1.52A2,2,0,0,1,87.55,143.72Z"/><path class="cls-8" d="M148.35,96.77a1.73,1.73,0,0,1-1.3.63C147.19,96.59,147.86,96.85,148.35,96.77Z"/><path class="cls-8" d="M150.49,109.09a1.28,1.28,0,0,1,1-.71C151.48,109.08,151,109.1,150.49,109.09Z"/><path class="cls-8" d="M172.32,89a1,1,0,0,1-1,.24C171.58,88.86,171.82,88.38,172.32,89Z"/><path class="cls-9" d="M100.65,135.33c-.15.28-.32.46-.61.15A.47.47,0,0,1,100.65,135.33Z"/><path class="cls-9" d="M97.82,136a1,1,0,0,1-1.08.21A1.15,1.15,0,0,1,97.82,136Z"/><path class="cls-8" d="M134.6,104.71a1.11,1.11,0,0,1-.86.61C133.79,104.78,134.12,104.63,134.6,104.71Z"/><path class="cls-9" d="M95.83,136.41c-.17.3-.36.37-.6.07A.43.43,0,0,1,95.83,136.41Z"/><path class="cls-5" d="M157.29,290.64c-.44.5-.6.22-.68-.25A.55.55,0,0,1,157.29,290.64Z"/><path class="cls-8" d="M211.22,89.5a.58.58,0,0,1-.7-.17C210.9,88.81,211.09,89,211.22,89.5Z"/><path class="cls-10" d="M107.63,241.77a1,1,0,0,1,.55,1A1.09,1.09,0,0,1,107.63,241.77Z"/><path class="cls-7" d="M304.06,122l0-1A.6.6,0,0,1,304.06,122Z"/><path class="cls-8" d="M261.36,93.29h-1A.62.62,0,0,1,261.36,93.29Z"/><path class="cls-7" d="M273,228.42l-.29.41C272.67,228.63,272.62,228.39,273,228.42Z"/><path class="cls-8" d="M149.76,96.11a.63.63,0,0,1-.66.31A.68.68,0,0,1,149.76,96.11Z"/><path class="cls-7" d="M273.7,227.28a.49.49,0,0,1-.35.53A.45.45,0,0,1,273.7,227.28Z"/><path class="cls-8" d="M121.13,211.8a.63.63,0,0,1-.29-.66A.67.67,0,0,1,121.13,211.8Z"/><path class="cls-7" d="M304.12,254.14l-.07-.67A.42.42,0,0,1,304.12,254.14Z"/><path class="cls-4" d="M305.09,125.79l-.07-.61C305.36,125.35,305.31,125.56,305.09,125.79Z"/><polygon class="cls-9" points="99.09 135.73 99.07 135.74 99.13 135.68 99.09 135.73"/><path class="cls-8" d="M224.52,93.29l-.33,0C224.27,93.17,224.38,93.14,224.52,93.29Z"/><path class="cls-8" d="M163.53,91c-.2.22-.4.33-.65.07Z"/><path class="cls-8" d="M124.56,139.12l.27-.49Z"/><path class="cls-8" d="M141.69,100.25l-.42.27Z"/><path class="cls-8" d="M121.19,146.27l.22-.4Z"/><path class="cls-8" d="M143,99.53l-.32.21Z"/><path class="cls-8" d="M120.93,146.94l.17-.36Z"/><path class="cls-9" d="M98.93,135.76c-.08.14-.16.21-.29.05A.21.21,0,0,1,98.93,135.76Z"/><path class="cls-4" d="M153.54,82.77l-.48.36Z"/><path class="cls-8" d="M130.38,129.55l.28-.39Z"/><path class="cls-8" d="M131.1,128.53l.26-.33Z"/><path class="cls-8" d="M147.79,111.14l.31-.25Z"/><path class="cls-7" d="M109.9,103.71l-.23.31Z"/><path class="cls-7" d="M109.58,104.12a.25.25,0,0,1-.18.24C109.33,104.19,109.39,104.11,109.58,104.12Z"/><path class="cls-8" d="M133.74,105.33l-.32.25Z"/><path class="cls-8" d="M133.18,105.71l-.45.33Z"/><path class="cls-8" d="M151.47,108.39l.36-.27Z"/><path class="cls-9" d="M107,132.27l.06,0Z"/><path class="cls-6" d="M113.44,249a4.16,4.16,0,0,1-1.88,1.63c0-1.32,0-2.53,0-3.74C112.27,247.56,112.33,248.77,113.44,249Z"/><path class="cls-7" d="M283.27,214.05a14.45,14.45,0,0,1,2-3.93A6.66,6.66,0,0,1,283.27,214.05Z"/><path class="cls-7" d="M281.54,217.12a2.93,2.93,0,0,1,1.09-1.87C282.53,216,282.39,216.78,281.54,217.12Z"/><path class="cls-7" d="M273.75,228.78c0-.82.66-1.13,1.14-1.58A1.69,1.69,0,0,1,273.75,228.78Z"/><path class="cls-7" d="M280.53,218.85c.09-.51.19-1,.77-1.23A1,1,0,0,1,280.53,218.85Z"/><path class="cls-7" d="M278.14,222.6a.72.72,0,0,1,.53-.79C278.77,222.26,278.68,222.57,278.14,222.6Z"/><path class="cls-7" d="M275.06,227a.82.82,0,0,1,.58-.82C275.64,226.63,275.61,227,275.06,227Z"/><path class="cls-7" d="M276.05,225.65c0-.27.09-.47.4-.5C276.63,225.56,276.4,225.65,276.05,225.65Z"/><path class="cls-7" d="M276.77,224.64c0-.3.1-.49.42-.53C277.35,224.53,277.13,224.64,276.77,224.64Z"/><path class="cls-7" d="M277.46,223.62c0-.3.07-.5.41-.52C278,223.51,277.83,223.63,277.46,223.62Z"/><path class="cls-7" d="M278.83,221.55a.4.4,0,0,1,.38-.51C279.38,221.44,279.21,221.57,278.83,221.55Z"/><path class="cls-7" d="M279.48,220.51a.41.41,0,0,1,.37-.49C280.07,220.44,279.84,220.52,279.48,220.51Z"/><path class="cls-7" d="M275.77,226a.19.19,0,0,1,.16-.22C276,226,276,226.07,275.77,226Z"/><path class="cls-4" d="M297.51,248.7a.88.88,0,0,1,.77-.78c1.56-.14,2.18.43,2,2.11a62,62,0,0,0,0,6.63c0,1.06-.49,1.2-1.36,1.19s-1.39-.09-1.38-1.17C297.59,254,297.53,251.37,297.51,248.7Z"/><path class="cls-4" d="M302,262.65c-.55,2.44-1.31,3-3.78,2.62-.42-.06-.66-.21-.51-.64a5.67,5.67,0,0,0,.08-3.34c-.17-.65.47-.81.59-.6.76,1.31,2.41.7,3.3,1.63h0c0,.21.11.35.35.35Zm-1,.72c-.06-.7-.41-1.08-1.1-1.06s-1,.45-1,1.11a1,1,0,0,0,1,1.15C300.59,264.59,300.92,264,301,263.37Z"/><path class="cls-7" d="M299,247c-1.3-.31-2.07-1-1.56-2.43.42-1.16,1.51-1.23,3.15-.32C300.79,245.61,300.52,246.68,299,247Z"/><path class="cls-4" d="M301.66,262.32c1-1.49,2.37-.12,3.64-.79-.34,1.7-1.5,2.87-1.38,4.46,0,.52-.6.37-1,.35s-.54-.18-.29-.55c.85-1.27,0-2.18-.67-3.13h0l-.35-.35Zm1.87,1.5c.38-.49.79-.93.26-1.48a.47.47,0,0,0-.46,0C302.78,262.89,303.36,263.3,303.53,263.82Z"/><path class="cls-4" d="M261,233a.81.81,0,0,1-.58.62A.54.54,0,0,1,261,233Z"/><path class="cls-4" d="M261.49,232.41l-.43.48C261.07,232.62,261.15,232.4,261.49,232.41Z"/><path class="cls-4" d="M258.67,235.43l-.28.3Z"/><path class="cls-7" d="M298.29,122c.77,1.25,2.31,1.05,3.37,1.77v0a4.78,4.78,0,0,1-.43,2.68c-1,.62-2.08,0-3.11.27a.39.39,0,0,1-.43-.55,7.87,7.87,0,0,0,.08-3.82C297.75,122.25,298.1,122.11,298.29,122Zm.59,3.15a.91.91,0,0,0,1,.88c.73,0,1.09-.55,1.09-1.25a.93.93,0,0,0-1.09-1C299.18,123.8,298.9,124.24,298.88,125.14Z"/><path class="cls-4" d="M301.22,126.43a4.78,4.78,0,0,0,.43-2.68c1.4,1.13,1.69,2.5.75,3.47Z"/><path class="cls-4" d="M297.58,114.37c0-1.31,0-2.61,0-3.92,0-1.05.64-1,1.36-1s1.37-.05,1.36,1q-.05,3.92,0,7.84c0,1.05-.64,1-1.36,1s-1.39.05-1.36-1C297.61,117,297.58,115.68,297.58,114.37Z"/><path class="cls-4" d="M300.63,106.61a1.62,1.62,0,0,1-1.64,1.75,1.66,1.66,0,1,1,1.64-1.75Z"/><path class="cls-4" d="M116.31,113.15a1.54,1.54,0,0,0-1.34,1.42c-.93,0-1.36-.47-.63-1.21s1.49-1.87,2.69-2.25C117.3,112,116,112.28,116.31,113.15Z"/><path class="cls-4" d="M118,110.1a1.49,1.49,0,0,1,.1-.3l.28,0h0Z"/><path class="cls-6" d="M110.49,263.43c.8,1.92,1.75.8,2.61.67-.83,1.22-1.43,1.44-2.31.91a1.77,1.77,0,0,1-.79-2.34,1.56,1.56,0,0,1,2.26-.85c.8.42,1.36.6,2.09,0,.2-.17.65-.08,1-.07s.62.06.59.44c-.06.62-.44.29-.72.2a.38.38,0,0,0-.54.24c0,.35.3.39.56.5.65.28,1.32.63.9,1.5s-1.18.67-1.91.46c-.31-.09-.54-.26-.45-.59.15-.54.49-.36.75-.11s.72.51,1,0-.29-.57-.62-.77C113.45,262.78,112.14,264.18,110.49,263.43Z"/><path class="cls-5" d="M117.35,109.43c-.85.54-1.77.22-2.66.21C115.54,109.2,116.46,109.51,117.35,109.43Z"/><path class="cls-5" d="M118.39,109.76l-.28,0-.08-.36Z"/><path class="cls-4" d="M301,263.37c-.06.67-.39,1.22-1.13,1.2a1,1,0,0,1-1-1.15c0-.66.31-1.09,1-1.11S300.92,262.67,301,263.37Z"/><path class="cls-4" d="M301.64,262.3l.35.35C301.76,262.66,301.67,262.51,301.64,262.3Z"/><path class="cls-4" d="M303.53,263.82c-.17-.53-.75-.94-.2-1.49a.47.47,0,0,1,.46,0C304.32,262.9,303.91,263.33,303.53,263.82Z"/><path class="cls-5" d="M298.88,125.14c0-.9.3-1.35,1-1.38a.93.93,0,0,1,1.09,1c0,.7-.36,1.26-1.09,1.25A.91.91,0,0,1,298.88,125.14Z"/><polyline class="cls-11" points="163.95 192.42 197.24 159.65 226.84 221.49 250.09 145.71 257.49 121.6"/><polyline class="cls-11" points="163.95 218.84 196.71 197.18 226.84 190.83 257.49 159.65"/><circle class="cls-12" cx="165.15" cy="193.02" r="5.44"/><circle class="cls-3" cx="196.86" cy="159.65" r="5.44"/><circle class="cls-13" cx="226.4" cy="218.85" r="5.44"/><circle class="cls-14" cx="257.49" cy="121.6" r="5.44"/><circle class="cls-14" cx="257.49" cy="159.65" r="5.44"/><circle class="cls-13" cx="226.4" cy="190.77" r="5.44"/><circle class="cls-3" cx="196.86" cy="196.2" r="5.44"/><circle class="cls-12" cx="165.15" cy="216.82" r="5.44"/><line class="cls-15" x1="151.91" y1="137.51" x2="151.91" y2="235.26"/><line class="cls-15" x1="257.68" y1="235.26" x2="151.91" y2="235.26"/><polygon class="cls-16" points="159.72 137.51 143.27 137.51 151.91 122.71 159.72 137.51"/><polygon class="cls-16" points="255.53 244.03 255.53 227.58 270.33 236.22 255.53 244.03"/><path class="cls-3" d="M117.33,254.74s-10.94-13.48-11.56-16.81h9.17l6.28,14.88Z"/><path class="cls-3" d="M167.36,259s11.93,5.7,23.72,6.42c0,0,21.39,5.14,48.16-8.07l4.41,9.06-32.93,9.81-36-.85-13.82-10Z"/><polygon class="cls-5" points="285.47 171.61 269.46 199.55 275.43 200.61 289.58 176.05 285.47 171.61"/><path class="cls-5" d="M295.41,117s1.45,2.06,3.14,4.55c1.84,2.71,4,5.94,4.77,7.54l-6.75.36-3.5-11.4Z"/><polygon class="cls-4" points="303.66 129.81 304.68 128.61 302.49 122 296.75 117.72 296.75 118.65 303.66 129.81"/><path class="cls-5" d="M305.11,237.19s-9.18,17-11.51,18l-.88-4.35,3.41-9.77Z"/><path class="cls-17" d="M83.4,188.49l-9.82-10.63-4,16.44-.81,3H49.3l11.46,11.46q.71,0,1.43,0A21.23,21.23,0,0,0,83.4,188.49Z"/><path class="cls-9" d="M68.78,197.31l.81-3,4-16.44,9.82,10.63q0-.45,0-.9a21.23,21.23,0,1,0-22.66,21.18L49.3,197.31Z"/><rect class="cls-18" x="65.61" y="177.86" width="7.98" height="18.37"/><rect class="cls-19" x="67.1" y="179.29" width="1.68" height="1.14"/><rect class="cls-19" x="70.41" y="179.29" width="1.68" height="1.14"/><rect class="cls-19" x="67.1" y="182.89" width="1.68" height="1.14"/><rect class="cls-19" x="70.41" y="182.89" width="1.68" height="1.14"/><rect class="cls-19" x="67.1" y="186.5" width="1.68" height="1.14"/><rect class="cls-19" x="70.41" y="186.5" width="1.68" height="1.14"/><rect class="cls-19" x="67.1" y="190.1" width="1.68" height="1.14"/><rect class="cls-19" x="70.41" y="190.1" width="1.68" height="1.14"/><polygon class="cls-18" points="59.81 186.68 57.11 190.28 55.73 190.28 55.73 184.7 54.17 184.7 54.17 190.28 53.2 190.28 53.2 184.7 51.64 184.7 51.64 190.28 50.98 190.28 50.98 196.23 64.68 196.23 64.68 186.68 59.81 186.68"/><rect class="cls-19" x="59.39" y="189.08" width="1.32" height="1.32"/><rect class="cls-19" x="62.16" y="189.08" width="1.32" height="1.32"/><rect class="cls-18" x="49.3" y="196.23" width="25.78" height="1.08"/><path class="cls-18" d="M52.08,184.26c-.14-.17,0-.29.09-.41s.23-.16.23-.37-.09-.26,0-.38.24-.13.33-.24.13-.34.28-.45.35-.16.51-.26a3,3,0,0,0,.37-.25c.12-.1.18-.2.32-.22a.33.33,0,0,1,.33.52,2.61,2.61,0,0,0-.33.38,1.3,1.3,0,0,1-.25.32.64.64,0,0,0-.14.16c0,.07,0,.15,0,.22s-.31.22-.46.29a.37.37,0,0,0-.26.33c0,.22-.12.17-.3.28a1.14,1.14,0,0,1-.69.09"/><path class="cls-18" d="M54.78,182.15c-.08-.09,0-.16,0-.22s.13-.09.12-.2,0-.14,0-.21.13-.07.18-.13.07-.18.15-.24.19-.09.28-.14l.2-.14c.06-.05.1-.11.17-.12a.18.18,0,0,1,.18.28,1.41,1.41,0,0,0-.18.2.7.7,0,0,1-.14.17.34.34,0,0,0-.07.09s0,.08,0,.12-.17.12-.25.15a.2.2,0,0,0-.14.18c0,.12-.07.09-.16.15a.62.62,0,0,1-.37.05"/><path class="cls-18" d="M57.42,182.51c-.06-.08,0-.13,0-.18s.11-.07.1-.17,0-.12,0-.17.11-.06.15-.11.06-.16.13-.2.16-.07.23-.12l.17-.12c.05,0,.08-.09.14-.1a.15.15,0,0,1,.15.24,1.18,1.18,0,0,0-.15.17.59.59,0,0,1-.12.14.29.29,0,0,0-.06.07s0,.07,0,.1-.14.1-.21.13a.17.17,0,0,0-.12.15c0,.1-.06.08-.14.13a.52.52,0,0,1-.31,0"/><path class="cls-18" d="M54.69,184.26c-.14-.17,0-.29.09-.41s.23-.16.23-.37-.09-.26,0-.38.24-.13.33-.24.13-.34.28-.45.35-.16.51-.26a3,3,0,0,0,.37-.25c.12-.1.18-.2.32-.22a.33.33,0,0,1,.33.52,2.61,2.61,0,0,0-.33.38,1.3,1.3,0,0,1-.25.32.64.64,0,0,0-.14.16c0,.07,0,.15,0,.22s-.31.22-.46.29a.37.37,0,0,0-.26.33c0,.22-.12.17-.3.28a1.14,1.14,0,0,1-.69.09"/><path class="cls-14" d="M74.86,124.71l7.08-3.93,1-15.85,19.5,18.25a21.42,21.42,0,1,0-19.89,11.51l-10-10Z"/><path class="cls-20" d="M102.42,123.17l-19.5-18.25-1,15.85-7.08,3.93H72.55l10,10,.89,0A21.42,21.42,0,0,0,102.42,123.17Z"/><path class="cls-21" d="M93.12,123.86v-6.77l-1.29-.24v-1.45l-1.89-1.07H88.46l-1.89,1.07v.48L84,115.42l-1.07-10.49h-1.6l-1,9.82L79,114.49l-1-9.57h-1.6l-.91,8.93-1.76-.32v10.33H72.55v.84H94.28v-.84Zm-15.92-4.07h-2V117.6h2Zm3,0h-2V117.6h2Zm8.63-4.09h-.5v-.5h.5Zm1.3,0h-.5v-.5h.5Z"/><path class="cls-21" d="M80.08,102a.31.31,0,0,0-.14,0,.43.43,0,0,0-.67-.07.57.57,0,0,0-.94.38.76.76,0,0,0-.53.26.95.95,0,1,0,.5,1.26h.08a.76.76,0,0,0,.74-.94.58.58,0,0,0,.29-.27.43.43,0,0,0,.48-.11.31.31,0,1,0,.18-.56Z"/><path class="cls-21" d="M84.9,102a.31.31,0,0,0-.14,0,.43.43,0,0,0-.67-.07.57.57,0,0,0-.93.38.76.76,0,0,0-.53.26.95.95,0,1,0,.5,1.26h.08A.76.76,0,0,0,84,103a.58.58,0,0,0,.29-.27.43.43,0,0,0,.48-.11.31.31,0,1,0,.18-.56Z"/><path class="cls-22" d="M155.82,310.54,142.74,299l-2.17,8.92L138.09,311l-7.43,3.15-3.47,2.7,7.66,7.66a19.16,19.16,0,0,0,21-14Z"/><path class="cls-3" d="M130.66,314.16l7.43-3.15,2.48-3.06,2.17-8.92,13.09,11.52a19.14,19.14,0,1,0-21,14l-7.66-7.66Z"/><polygon class="cls-21" points="146.02 307.32 144.19 307.32 142.74 299.02 142.24 299.02 141.75 299.02 141.25 299.02 139.79 307.32 138.93 307.32 138.93 305.15 135.77 305.15 135.77 307.32 134.91 307.32 133.45 299.02 132.95 299.02 132.46 299.02 131.96 299.02 130.5 307.32 128.68 307.32 127.19 308.93 127.19 316.86 136.73 316.86 137.97 316.86 147.5 316.86 147.5 308.93 146.02 307.32"/><path class="cls-21" d="M132.39,298.58a.68.68,0,0,1,.17-1.14,1,1,0,0,0,.38-.82s.18.81-.18,1.15A1,1,0,0,0,132.39,298.58Z"/><path class="cls-21" d="M133.3,298.23a.86.86,0,0,1,.21-1.43,1.27,1.27,0,0,0,.48-1s.23,1-.23,1.44A1.2,1.2,0,0,0,133.3,298.23Z"/><path class="cls-21" d="M133.3,296.7a.86.86,0,0,1,.21-1.43,1.27,1.27,0,0,0,.48-1s.23,1-.23,1.44A1.2,1.2,0,0,0,133.3,296.7Z"/><path class="cls-21" d="M141.43,298.58a.68.68,0,0,1,.17-1.14,1,1,0,0,0,.38-.82s.18.81-.18,1.15A1,1,0,0,0,141.43,298.58Z"/><path class="cls-21" d="M142.34,298.23a.86.86,0,0,1,.21-1.43,1.27,1.27,0,0,0,.48-1s.23,1-.23,1.44A1.2,1.2,0,0,0,142.34,298.23Z"/><path class="cls-21" d="M142.34,296.7a.86.86,0,0,1,.21-1.43,1.27,1.27,0,0,0,.48-1s.23,1-.23,1.44A1.2,1.2,0,0,0,142.34,296.7Z"/><rect class="cls-19" x="136.65" y="306.24" width="1.39" height="0.9"/><rect class="cls-19" x="129.18" y="309.15" width="1.49" height="0.77"/><rect class="cls-19" x="131.65" y="309.15" width="1.49" height="0.77"/><rect class="cls-19" x="134.13" y="309.15" width="1.49" height="0.77"/><rect class="cls-19" x="136.61" y="309.15" width="1.49" height="0.77"/><rect class="cls-19" x="139.08" y="309.15" width="1.49" height="0.77"/><rect class="cls-19" x="141.56" y="309.15" width="1.49" height="0.77"/><rect class="cls-19" x="144.04" y="309.15" width="1.49" height="0.77"/><rect class="cls-19" x="129.18" y="311.01" width="1.49" height="0.77"/><rect class="cls-19" x="131.65" y="311.01" width="1.49" height="0.77"/><rect class="cls-19" x="134.13" y="311.01" width="1.49" height="0.77"/><rect class="cls-19" x="136.61" y="311.01" width="1.49" height="0.77"/><rect class="cls-19" x="139.08" y="311.01" width="1.49" height="0.77"/><rect class="cls-19" x="141.56" y="311.01" width="1.49" height="0.77"/><rect class="cls-19" x="144.04" y="311.01" width="1.49" height="0.77"/><rect class="cls-19" x="129.18" y="312.86" width="1.49" height="0.77"/><rect class="cls-19" x="131.65" y="312.86" width="1.49" height="0.77"/><rect class="cls-19" x="134.13" y="312.86" width="1.49" height="0.77"/><rect class="cls-19" x="136.61" y="312.86" width="1.49" height="0.77"/><rect class="cls-19" x="139.08" y="312.86" width="1.49" height="0.77"/><rect class="cls-19" x="141.56" y="312.86" width="1.49" height="0.77"/><rect class="cls-19" x="144.04" y="312.86" width="1.49" height="0.77"/><path class="cls-23" d="M100.48,260.82l-12.06-12.1-1.59,1.49-1.47,6.84-2.66,4.88-12.26,2.22v.62l9.93,9.93q.69,0,1.38,0A19.56,19.56,0,0,0,100.48,260.82Z"/><path class="cls-12" d="M70.43,264.15l12.26-2.22,2.66-4.88,1.47-6.84,1.59-1.49,12.06,12.1a19.56,19.56,0,1,0-20.12,13.87l-9.93-9.93Z"/><path class="cls-21" d="M89.17,255.1H88.1v-5.16h.32v-1.23H84.86v1.23h.32v5.16H84v2.53H75.46a4,4,0,0,0-4.26,3.06v3.46H92.49v-6C92.49,255.63,89.17,255.1,89.17,255.1Z"/><rect class="cls-19" x="73.87" y="259.4" width="0.84" height="1.29"/><rect class="cls-19" x="76.53" y="259.4" width="0.84" height="1.29"/><rect class="cls-19" x="79.19" y="259.4" width="0.84" height="1.29"/><rect class="cls-19" x="81.85" y="259.4" width="0.84" height="1.29"/><rect class="cls-19" x="84.51" y="259.4" width="0.84" height="1.29"/><rect class="cls-19" x="87.17" y="259.4" width="0.84" height="1.29"/><rect class="cls-19" x="89.83" y="259.4" width="0.84" height="1.29"/><rect class="cls-19" x="86.11" y="256.43" width="2.79" height="1.24"/><rect class="cls-19" x="80.43" y="261.93" width="1.84" height="2.22"/><ellipse class="cls-21" cx="86.83" cy="247.51" rx="1.25" ry="0.74"/><ellipse class="cls-21" cx="87.63" cy="246.86" rx="1.06" ry="0.63"/><ellipse class="cls-21" cx="88.32" cy="246.18" rx="0.81" ry="0.48"/><ellipse class="cls-21" cx="89.26" cy="246.12" rx="0.58" ry="0.34"/><ellipse class="cls-21" cx="89.83" cy="245.86" rx="0.44" ry="0.26"/><rect class="cls-21" x="70.43" y="264.15" width="22.62" height="0.62"/></svg>