<svg xmlns="http://www.w3.org/2000/svg" xmlns:xlink="http://www.w3.org/1999/xlink" viewBox="0 0 385.17 382.67"><defs><style>.cls-1{fill:none;}.cls-2{isolation:isolate;}.cls-3{clip-path:url(#clip-path);}.cls-4,.cls-46{fill:#fff;}.cls-5{opacity:0.26;}.cls-6{fill:url(#linear-gradient);}.cls-7{fill:url(#linear-gradient-2);}.cls-8{fill:url(#linear-gradient-3);}.cls-9{fill:url(#linear-gradient-4);}.cls-10{fill:url(#linear-gradient-5);}.cls-11{fill:url(#linear-gradient-6);}.cls-12{fill:url(#linear-gradient-7);}.cls-13{fill:url(#linear-gradient-8);}.cls-14{fill:url(#linear-gradient-9);}.cls-15{fill:url(#linear-gradient-10);}.cls-16{fill:url(#linear-gradient-11);}.cls-17{fill:url(#linear-gradient-12);}.cls-18{fill:#174b71;}.cls-19{fill:#0e5a8e;}.cls-20{fill:#62bc49;}.cls-21{fill:#e62735;}.cls-22{fill:#1d80be;}.cls-23{fill:#cf902e;}.cls-24{fill:#4d7b42;}.cls-25{fill:#309d4a;}.cls-26{fill:#c4293b;}.cls-27{fill:#f9a12d;}.cls-28{fill:#df1c87;}.cls-29{fill:#3799d4;}.cls-30{fill:#921f40;}.cls-31{fill:#2a7d3e;}.cls-32{fill:#9edbf0;}.cls-33{opacity:0.5;}.cls-34{fill:#fbb042;}.cls-35{opacity:0.2;}.cls-36,.cls-43{fill:#8dc641;}.cls-36,.cls-46{opacity:0.6;}.cls-36,.cls-37,.cls-38,.cls-43,.cls-44,.cls-45{mix-blend-mode:multiply;}.cls-37,.cls-45{fill:#d9e026;}.cls-37,.cls-45,.cls-47{opacity:0.7;}.cls-38,.cls-44{fill:#00a99d;}.cls-38{opacity:0.4;}.cls-39{fill:#8fc640;}.cls-40{fill:#3db54a;}.cls-41{fill:#019547;}.cls-42{opacity:0.3;}.cls-43,.cls-44,.cls-45{fill-rule:evenodd;}.cls-48{fill:#11a44a;}</style><clipPath id="clip-path"><path class="cls-1" d="M354.07,183.69C362,284.18,279,362.43,187.78,362.43s-165.46-80-165.15-170.82c.3-91.21,73.94-165.15,165.15-165.15S346.78,90.76,354.07,183.69Z"/></clipPath><linearGradient id="linear-gradient" x1="19.66" y1="269.32" x2="358.41" y2="269.32" gradientUnits="userSpaceOnUse"><stop offset="0" stop-color="#8cc540"/><stop offset="0.35" stop-color="#66bd45"/><stop offset="0.8" stop-color="#38b34a"/></linearGradient><linearGradient id="linear-gradient-2" x1="94.41" y1="149.79" x2="110.17" y2="149.79" xlink:href="#linear-gradient"/><linearGradient id="linear-gradient-3" x1="99.14" y1="159.97" x2="102.4" y2="159.97" xlink:href="#linear-gradient"/><linearGradient id="linear-gradient-4" x1="103.24" y1="157.32" x2="106.5" y2="157.32" xlink:href="#linear-gradient"/><linearGradient id="linear-gradient-5" x1="97.26" y1="155.48" x2="100.52" y2="155.48" xlink:href="#linear-gradient"/><linearGradient id="linear-gradient-6" x1="97.24" y1="166.91" x2="100.5" y2="166.91" xlink:href="#linear-gradient"/><linearGradient id="linear-gradient-7" x1="168.83" y1="233.38" x2="174.82" y2="233.38" xlink:href="#linear-gradient"/><linearGradient id="linear-gradient-8" x1="163.33" y1="228.61" x2="169.32" y2="228.61" xlink:href="#linear-gradient"/><linearGradient id="linear-gradient-9" x1="166.56" y1="219.7" x2="172.55" y2="219.7" xlink:href="#linear-gradient"/><linearGradient id="linear-gradient-10" x1="343.37" y1="245.93" x2="347.82" y2="245.93" xlink:href="#linear-gradient"/><linearGradient id="linear-gradient-11" x1="338.1" y1="245.81" x2="342.55" y2="245.81" xlink:href="#linear-gradient"/><linearGradient id="linear-gradient-12" x1="335.78" y1="239.34" x2="340.23" y2="239.34" xlink:href="#linear-gradient"/></defs><title>environment</title><g class="cls-2"><g id="Layer_1" data-name="Layer 1"><g class="cls-3"><rect class="cls-4" x="19.66" y="23.68" width="338.75" height="338.75"/><g class="cls-5"><path class="cls-6" d="M351.08,252.51c-.14-.14-.28-.28-.44-.42a5.56,5.56,0,0,1-1.16-1.6l-.68-2-1.22.43-.17.06-1.22.43.68,2a5.57,5.57,0,0,1,.09,2l-.05.33,0,0a8.22,8.22,0,0,1-1.72-2.37l-1-2.89-1.81.63-.25.09-1.81.63,1,2.89a8.21,8.21,0,0,1,.13,2.92v.06l-.25-.22a5.55,5.55,0,0,1-1.16-1.6l-.68-2-1,.36-4.16-.61h0l-1.87-4.82-.32.11,1.56,5-1.28,1.19,0-.06-.19.07,0,.14L330.1,255l.22.27,1.87-1.5.72,2.31-2,1.89.13.17,2.08-1.67,1.16,3.72q-4.36,1.63-8.81,3c-.06-.24-.12-.5-.19-.77a2.78,2.78,0,0,1,.67-.69,3.4,3.4,0,0,0,.35-.29c0,.11,0,.15,0,0a7.9,7.9,0,0,0,1.22-1.49,1.56,1.56,0,0,0,.58-.24.66.66,0,0,0,.35.05.68.68,0,0,0,.57-.55.83.83,0,0,0,.33,0,.8.8,0,0,0-.15-1.6.59.59,0,0,0-.63-.37l-.07,0h-.14a.41.41,0,0,0-.45-.3h0a.8.8,0,0,0-1.56-.07h0a.51.51,0,0,0-.43.57.49.49,0,0,0,0,.12.8.8,0,0,0-.42.4l-.1.05h0a.41.41,0,0,0-.35.47.36.36,0,0,0,0,.13.82.82,0,0,0-.07.46.8.8,0,0,0,1.31.5,1.56,1.56,0,0,0,.41.23,3,3,0,0,1-.15,1,7.1,7.1,0,0,1-1.4,1c-.15-.53-.34-1.09-.56-1.68a10.86,10.86,0,0,1-.87-3.08,3.81,3.81,0,0,0,.71-.39,1.65,1.65,0,0,0,.88.11,1.67,1.67,0,0,0,1.42-1.38,2,2,0,0,0,.82.06,2,2,0,0,0-.39-4,1.48,1.48,0,0,0-1.59-.93l-.22.05H325a1,1,0,0,0-1.15-.74h0a2,2,0,0,0-3.92-.17h-.1a1.26,1.26,0,0,0-1.07,1.43,1.48,1.48,0,0,0,.08.3,2,2,0,0,0-1,1,.91.91,0,0,0-.28.15h-.08a1,1,0,0,0-.89,1.18,1,1,0,0,0,.1.32,2,2,0,0,0-.19,1.16,2,2,0,0,0,3.3,1.26,3.94,3.94,0,0,0,1.63.79c.46.78,1.18,1.65,1.77,2.61a4.38,4.38,0,0,1-1.61-.32.42.42,0,0,0,.07-.15.51.51,0,0,0,.2,0,.49.49,0,0,0-.1-1,.36.36,0,0,0-.38-.23l-.05,0h-.08a.25.25,0,0,0-.28-.18h0a.49.49,0,0,0-.95,0h0a.3.3,0,0,0-.26.35.19.19,0,0,0,0,.07.49.49,0,0,0-.26.24l-.06,0h0a.25.25,0,0,0-.22.29.28.28,0,0,0,0,.08.5.5,0,0,0,0,.28.49.49,0,0,0,.55.41.46.46,0,0,0,.24-.11.94.94,0,0,0,1.13,0,.44.44,0,0,0,.21,0,.4.4,0,0,0,.18-.08,5.63,5.63,0,0,0,1.72.47h.14a5.82,5.82,0,0,1,.69,1.7,7.1,7.1,0,0,1,.12,1.71q-4.52,1.3-9.11,2.3a25.23,25.23,0,0,1-3.41-9.94,16.39,16.39,0,0,1,.51-5.12l.37-.14a15.9,15.9,0,0,0,4.26-2.59,1.13,1.13,0,0,0,.56.06,1.14,1.14,0,0,0,.55-.24,2.59,2.59,0,0,0,1.2.11,2.65,2.65,0,0,0,1.81-1.12,1.36,1.36,0,0,0,.75.11,1.37,1.37,0,0,0,1.16-1.55,1.35,1.35,0,0,0-.34-.72.75.75,0,0,0,0-.23.71.71,0,0,0-.8-.6l-.06,0a.62.62,0,0,0-.19,0,1.37,1.37,0,0,0-.88-.46,1,1,0,0,0,0-.21.86.86,0,0,0-1-.73h-.06a1.37,1.37,0,0,0-2.52.86h0a.71.71,0,0,0-.6.7h0l-.13,0h-.19a1,1,0,0,0-.86.91,1.37,1.37,0,0,0,.51,2.69,1.34,1.34,0,0,0,.53-.19,1.12,1.12,0,0,0,.29.37,12.36,12.36,0,0,1-4.09,2.11c.82-3,2.09-5.93,2.72-8.4a10.9,10.9,0,0,0,3.78-3.41,5.65,5.65,0,0,0,6.51-9,2.81,2.81,0,0,0,0-.94,2.93,2.93,0,0,0-3.32-2.49l-.22,0a2.55,2.55,0,0,0-.84-.17,5.68,5.68,0,0,0-3.61-1.86,3.53,3.53,0,0,0-4-3.88L313,220a5.65,5.65,0,0,0-10.42,3.53h-.15a2.93,2.93,0,0,0-2.51,2.89h-.12a3.62,3.62,0,0,0-.68.17,4.08,4.08,0,0,0-.65,0,4.16,4.16,0,0,0-3.56,3.77,5.66,5.66,0,1,0,4.27,10.32,4.69,4.69,0,0,0,7.17,1.63,11,11,0,0,0,2.23.48c.27,1,.5,3.38,0,9-.14,1.76-.2,3.41-.2,4.95a19.82,19.82,0,0,1-4.51-1.54,8.33,8.33,0,0,1-1.22-2.66,4.38,4.38,0,0,0,.91-1,2.25,2.25,0,0,0,2.59-3.56,1.29,1.29,0,0,0,0-.38,1.17,1.17,0,0,0-1.32-1l-.1,0a1,1,0,0,0-.33-.07,2.25,2.25,0,0,0-1.43-.74,1.49,1.49,0,0,0,0-.34,1.41,1.41,0,0,0-1.6-1.2l-.11,0a2.25,2.25,0,0,0-4.15,1.41h-.06a1.16,1.16,0,0,0-1,1.16h-.06l-.26.06h-.27a1.65,1.65,0,0,0-1.42,1.5,2.25,2.25,0,0,0,.83,4.43,2.18,2.18,0,0,0,.87-.31,1.88,1.88,0,0,0,2,1,1.85,1.85,0,0,0,.9-.39,4.37,4.37,0,0,0,1.77.19,22,22,0,0,0,4.44,3.06c.31.4.25.29.06,0a9.22,9.22,0,0,0,1.18.52,7.9,7.9,0,0,1,2.33,1.33,55,55,0,0,0,.72,7.77h0a1.34,1.34,0,0,1-.09.88,172.18,172.18,0,0,1-19.19,2.3l0-1.32-2,.06-.26-8.29-1.11,0-.37-11.62-1.27,0-.07-2.23-6.53.21.07,2.23-1,0,.27,8.67-.64.05a2.7,2.7,0,0,0-1,.06,2.65,2.65,0,0,1,0,.47,4.37,4.37,0,0,0-.57,0,1.13,1.13,0,0,0-.08.35c.06,0,.06,0,.09,0,0,.16,0,.31,0,.47l-4.41.14.14,4.44-.69,0,.08,2.68h-.13l0-1.48-.57,0,0-1h-.32l0,1-1.89.06-.06-1.89-.47,0,.06,1.89h-.38l.07,2.17.07,2.08-3.18.1,0,.5q-3-.18-6-.43l-.22-8.31.17.08.17-.39-.36-.19-.24-8.71,8.13,3.59.29-.65-8.37-4.44v0L257,239.31h-.68l-.42,10.63-3.27,1.41v-.12h-.41v.31l-4.88,2.11.24.67,4.6-1.6-.19,4.93-5.18,2.23.14.41L252,258.5l-.39,9.83q-4.67-.5-9.32-1.15l0,0a.63.63,0,0,0,.26,0,.27.27,0,0,0,.12.07.27.27,0,0,0,.29-.13l.12.05a.32.32,0,0,0,.16-.63.24.24,0,0,0-.19-.23h0l0,0h0a.16.16,0,0,0-.13-.18h0a.32.32,0,0,0-.58-.24h0a.2.2,0,0,0-.24.16.22.22,0,0,0,0,.05.32.32,0,0,0-.22.1h-.06a.17.17,0,0,0-.2.13.16.16,0,0,0,0,.05.33.33,0,0,0-.09.17.32.32,0,0,0,.25.38.31.31,0,0,0,.18,0,.63.63,0,0,0,.12.13l-.06.14-.79-.11c0-.06,0-.12,0-.18a4.34,4.34,0,0,1,.09-1.28,1.53,1.53,0,0,0,.32,0,.65.65,0,0,0,.32.16.68.68,0,0,0,.73-.33.79.79,0,0,0,.3.14.81.81,0,0,0,.41-1.57.6.6,0,0,0-.47-.57h-.09l-.1,0h0a.42.42,0,0,0-.33-.44h0a.81.81,0,0,0-1.46-.6h0a.51.51,0,0,0-.6.39.58.58,0,0,0,0,.12.8.8,0,0,0-.54.24h-.15a.42.42,0,0,0-.5.32.39.39,0,0,0,0,.13.79.79,0,0,0-.23.41.81.81,0,0,0,1.08.93,1.58,1.58,0,0,0,.51.51c.06.36.22.79.31,1.24a1.75,1.75,0,0,1-.57-.35l.05,0,.07,0a.2.2,0,0,0,.23-.15.19.19,0,0,0-.14-.23.14.14,0,0,0-.11-.14h-.05a.1.1,0,0,0-.08-.11h0a.2.2,0,0,0-.35-.15h0a.12.12,0,0,0-.14.1.08.08,0,0,0,0,0,.2.2,0,0,0-.14.06h0a.1.1,0,0,0-.12.08.14.14,0,0,0,0,0,.2.2,0,0,0-.06.1.2.2,0,0,0,.26.22.38.38,0,0,0,.42.17l.08,0h.08a2.26,2.26,0,0,0,.59.42l.05,0c0,.1,0,.19,0,.29l-4.12-.63a8.87,8.87,0,0,1,.24-2.87,6.6,6.6,0,0,1,.9-1.87h.16a6.4,6.4,0,0,0,2-.4.44.44,0,0,0,.2.1.46.46,0,0,0,.24,0,1,1,0,0,0,.44.21,1.07,1.07,0,0,0,.84-.17.54.54,0,0,0,.27.14.55.55,0,0,0,.65-.43.54.54,0,0,0,0-.32.26.26,0,0,0,0-.09.29.29,0,0,0-.22-.34h0l-.07,0a.54.54,0,0,0-.26-.29.36.36,0,0,0,0-.08.35.35,0,0,0-.27-.41h0a.55.55,0,0,0-1.07,0h0a.29.29,0,0,0-.32.19h-.09l-.06,0a.4.4,0,0,0-.45.23.55.55,0,0,0-.18,1.09.53.53,0,0,0,.22,0,.46.46,0,0,0,.06.18,5,5,0,0,1-1.84.24c.73-1,1.61-2,2.18-2.81a4.38,4.38,0,0,0,1.89-.77,2.27,2.27,0,0,0,3.69-2.49,1.15,1.15,0,0,0,.14-.35,1.18,1.18,0,0,0-.91-1.4h-.09a1,1,0,0,0-.31-.19,2.28,2.28,0,0,0-1.1-1.2,1.39,1.39,0,0,0,.11-.33,1.43,1.43,0,0,0-1.1-1.69l-.12,0a2.27,2.27,0,0,0-4.43-.1h-.06a1.17,1.17,0,0,0-1.34.75l-.05,0a1.43,1.43,0,0,0-.28,0l-.25-.08a1.67,1.67,0,0,0-1.86.94,2.28,2.28,0,1,0,.2,4.49,1.89,1.89,0,0,0,2.49,1.6,4.44,4.44,0,0,0,.78.49,12.29,12.29,0,0,1-1.21,3.4c-.3.64-.54,1.26-.76,1.84a8,8,0,0,1-1.49-1.21,3.37,3.37,0,0,1-.09-1.18,1.75,1.75,0,0,0,.48-.23.91.91,0,0,0,1.52-.47.89.89,0,0,0,0-.53.53.53,0,0,0,.05-.14.47.47,0,0,0-.36-.56h0l-.11-.06a.91.91,0,0,0-.44-.49.6.6,0,0,0,0-.13.57.57,0,0,0-.44-.67h0a.91.91,0,0,0-1.76,0h0a.46.46,0,0,0-.53.3h-.14l-.1,0a.67.67,0,0,0-.74.37A.91.91,0,0,0,231,260a.89.89,0,0,0,.37,0,.76.76,0,0,0,.6.66.75.75,0,0,0,.39,0,1.76,1.76,0,0,0,.64.31,8.86,8.86,0,0,0,1.26,1.77c.06.19.05.14,0,0a3.64,3.64,0,0,0,.37.36,3.13,3.13,0,0,1,.7.83c-.26.79-.45,1.49-.59,2.07q-5.27-.87-10.49-1.91a1,1,0,0,1,.29-.13l.17-.07s0,0,0,0a3.14,3.14,0,0,0,.66-.39.62.62,0,0,0,.26,0,.27.27,0,0,0,.12.07.27.27,0,0,0,.29-.13l.12.05a.32.32,0,0,0,.16-.63.24.24,0,0,0-.19-.23h0l0,0h0a.16.16,0,0,0-.13-.18h0a.32.32,0,0,0-.25-.37.32.32,0,0,0-.33.13h0a.2.2,0,0,0-.24.16.21.21,0,0,0,0,.05.32.32,0,0,0-.22.1h-.06a.17.17,0,0,0-.2.13.16.16,0,0,0,0,.05.33.33,0,0,0-.09.17.32.32,0,0,0,.25.38.31.31,0,0,0,.18,0,.62.62,0,0,0,.12.13,1.19,1.19,0,0,1-.2.38,2.85,2.85,0,0,1-.67.18c0-.22,0-.45,0-.71a4.34,4.34,0,0,1,.09-1.28,1.5,1.5,0,0,0,.32,0,.66.66,0,0,0,.32.16.68.68,0,0,0,.73-.33.79.79,0,0,0,.3.14.81.81,0,0,0,.41-1.57.6.6,0,0,0-.47-.57h-.09l-.1,0h0a.42.42,0,0,0-.33-.44h0a.81.81,0,0,0-1.46-.6h0a.51.51,0,0,0-.6.39.58.58,0,0,0,0,.12.81.81,0,0,0-.54.24h-.15a.42.42,0,0,0-.5.32.39.39,0,0,0,0,.13.8.8,0,0,0-.23.41.81.81,0,0,0,1.08.93,1.58,1.58,0,0,0,.51.51c.06.36.22.79.31,1.24a1.75,1.75,0,0,1-.57-.35l.05,0,.07,0a.2.2,0,0,0,.23-.15.19.19,0,0,0-.14-.23.14.14,0,0,0-.11-.14h-.05a.1.1,0,0,0-.08-.11h0a.2.2,0,0,0-.35-.15h0a.12.12,0,0,0-.14.1.08.08,0,0,0,0,0,.2.2,0,0,0-.14.06h0a.1.1,0,0,0-.12.08.14.14,0,0,0,0,0,.2.2,0,0,0-.06.1.19.19,0,0,0,.15.23.19.19,0,0,0,.11,0,.38.38,0,0,0,.42.17l.08,0h.08a2.26,2.26,0,0,0,.59.42l.05,0a2.33,2.33,0,0,1,0,.74c0,.08,0,.16-.05.24l-4-.82a9.34,9.34,0,0,1,.2-3.36,6.6,6.6,0,0,1,.9-1.87H221a6.4,6.4,0,0,0,2-.4.44.44,0,0,0,.2.1.46.46,0,0,0,.24,0,1,1,0,0,0,.44.21,1.07,1.07,0,0,0,.84-.17.54.54,0,0,0,.27.14.55.55,0,0,0,.65-.43.54.54,0,0,0,0-.32.26.26,0,0,0,0-.09.29.29,0,0,0-.22-.34h0l-.07,0a.54.54,0,0,0-.26-.29.36.36,0,0,0,0-.08.35.35,0,0,0-.27-.41h0a.55.55,0,0,0-1.07,0h0a.29.29,0,0,0-.32.19h-.09l-.06,0a.4.4,0,0,0-.45.23.55.55,0,0,0-.18,1.09.52.52,0,0,0,.22,0,.46.46,0,0,0,.06.18,5,5,0,0,1-1.84.24c.73-1,1.61-2,2.18-2.81a4.37,4.37,0,0,0,1.89-.77,2.27,2.27,0,0,0,3.69-2.49,1.15,1.15,0,0,0,.14-.35,1.18,1.18,0,0,0-.91-1.4h-.09a1,1,0,0,0-.31-.19,2.27,2.27,0,0,0-1.1-1.2,1.39,1.39,0,0,0,.11-.33,1.43,1.43,0,0,0-1.1-1.69l-.12,0a2.27,2.27,0,0,0-4.43-.1h-.06a1.17,1.17,0,0,0-1.34.75l-.05,0a1.43,1.43,0,0,0-.28,0L219,247a1.67,1.67,0,0,0-1.86.94,2.28,2.28,0,1,0,.2,4.49,1.89,1.89,0,0,0,2.49,1.6,4.46,4.46,0,0,0,.78.49,12.3,12.3,0,0,1-1.21,3.4c-.3.64-.54,1.26-.76,1.84a8,8,0,0,1-1.49-1.21,3.37,3.37,0,0,1-.09-1.18,1.76,1.76,0,0,0,.48-.23.91.91,0,0,0,1.52-.47.89.89,0,0,0,0-.53A.53.53,0,0,0,219,256a.47.47,0,0,0-.36-.56h0l-.11-.06a.91.91,0,0,0-.44-.49.6.6,0,0,0,0-.13.57.57,0,0,0-.44-.67h0a.91.91,0,0,0-1.76,0h0a.46.46,0,0,0-.53.3h-.14l-.1,0a.67.67,0,0,0-.74.37.91.91,0,0,0-.29,1.79.87.87,0,0,0,.37,0,.76.76,0,0,0,.6.66.75.75,0,0,0,.39,0,1.76,1.76,0,0,0,.64.31,8.86,8.86,0,0,0,1.26,1.77c.06.19.05.14,0,0a3.64,3.64,0,0,0,.37.36,3.13,3.13,0,0,1,.7.83,23,23,0,0,0-.67,2.43q-5.42-1.17-10.75-2.48c0-.19.05-.39.07-.62a1.41,1.41,0,0,1,.45-.22l.22-.08s0,.06,0,0a4.05,4.05,0,0,0,.85-.51.81.81,0,0,0,.33,0,.34.34,0,0,0,.16.09.35.35,0,0,0,.37-.17.44.44,0,0,0,.16.07.42.42,0,0,0,.21-.81.31.31,0,0,0-.24-.29h0l-.06,0h0a.21.21,0,0,0-.17-.23h0A.41.41,0,0,0,209,257a.41.41,0,0,0-.42.16h0a.26.26,0,0,0-.31.2.27.27,0,0,0,0,.07.41.41,0,0,0-.27.12h-.08a.21.21,0,0,0-.25.17.21.21,0,0,0,0,.07.43.43,0,0,0-.12.21.41.41,0,0,0,.32.49.4.4,0,0,0,.23,0,.82.82,0,0,0,.16.18,1.56,1.56,0,0,1-.25.48,3.68,3.68,0,0,1-.85.23c0-.28,0-.59,0-.91a5.63,5.63,0,0,1,.12-1.65,2,2,0,0,0,.42-.06.84.84,0,0,0,.41.21.87.87,0,0,0,.94-.42,1,1,0,0,0,.39.17,1,1,0,0,0,.52-2,.77.77,0,0,0-.61-.74h-.15l-.1,0h0a.54.54,0,0,0-.43-.57h0a1,1,0,0,0-1.88-.78l-.05,0a.65.65,0,0,0-.77.51.76.76,0,0,0,0,.16,1,1,0,0,0-.69.31l-.15,0,0,0a.54.54,0,0,0-.64.42.51.51,0,0,0,0,.17,1,1,0,0,0-.3.53,1,1,0,0,0,1.39,1.2,2,2,0,0,0,.65.66c.08.46.28,1,.4,1.59a2.25,2.25,0,0,1-.73-.45.21.21,0,0,0,.06-.06l.1,0a.25.25,0,0,0,.13-.49.18.18,0,0,0-.15-.18h-.07a.14.14,0,0,0-.1-.14h0a.25.25,0,0,0-.45-.19h0a.16.16,0,0,0-.19.12.1.1,0,0,0,0,0,.25.25,0,0,0-.17.08h0a.13.13,0,0,0-.16.1.2.2,0,0,0,0,0,.25.25,0,0,0-.07.13.25.25,0,0,0,.2.3.25.25,0,0,0,.14,0,.49.49,0,0,0,.54.22.23.23,0,0,0,.1.05.2.2,0,0,0,.1,0,2.9,2.9,0,0,0,.76.54l.06,0a3,3,0,0,1,0,.95,3.74,3.74,0,0,1-.28.93q-2.47-.61-4.91-1.24a12.43,12.43,0,0,1,.2-4.77,8.47,8.47,0,0,1,1.16-2.4h.21a8.24,8.24,0,0,0,2.54-.51.58.58,0,0,0,.25.13.59.59,0,0,0,.31,0,1.34,1.34,0,0,0,.56.26,1.37,1.37,0,0,0,1.08-.23.69.69,0,0,0,.35.18.71.71,0,0,0,.84-.55.7.7,0,0,0,0-.41.34.34,0,0,0,0-.11.37.37,0,0,0-.28-.43h0l-.09-.05a.7.7,0,0,0-.34-.38.46.46,0,0,0,0-.1.45.45,0,0,0-.35-.53h0a.71.71,0,0,0-1.38,0h0a.37.37,0,0,0-.42.24h-.11l-.07,0a.52.52,0,0,0-.58.29.71.71,0,0,0-.23,1.4.68.68,0,0,0,.29,0,.58.58,0,0,0,.08.23,6.41,6.41,0,0,1-2.37.31c.94-1.33,2.08-2.52,2.81-3.61a5.64,5.64,0,0,0,2.44-1,2.93,2.93,0,0,0,4.76-3.21,1.47,1.47,0,0,0,.18-.45,1.52,1.52,0,0,0-1.17-1.8l-.12,0a1.31,1.31,0,0,0-.37-.23,2.94,2.94,0,0,0-1.43-1.54,1.83,1.83,0,0,0-1.27-2.6l-.15,0a2.93,2.93,0,0,0-5-1.41l-9.54-8.53v-.06l3.14-14.43-.93-.24-4.15,14.36-4.94.82,0-.16-.56-.14-.12.41-7.37,1.23.1,1,6.81-.63-1.92,6.65-7.81,1.3.06.6,7.6-.71-4.55,15.75q-3.13-1-6.21-1.92l.59-1.59-1.22-.45.34-.92-2.07-.77a6.81,6.81,0,0,0,.24-3.52,7.67,7.67,0,0,1,.18-2.73l1-2.67-1.68-.62-.24-.09-1.68-.62-1,2.67a7.68,7.68,0,0,1-1.64,2.18l-.35.3v-.08a11.34,11.34,0,0,1,.26-4l1.47-4-2.48-.92-.35-.13-2.48-.92-1.47,4a11.33,11.33,0,0,1-2.43,3.23l-.06.05c0-.15,0-.3-.07-.46a7.66,7.66,0,0,1,.18-2.73l1-2.67-1.42-.53L154,228.42v0l2.26-6.77-.43-.16-2.74,6.68-2.41.14,0-.08-.26-.1-.08.19-3.6.21V229l3.3.05-1.27,3.1-3.82.22v.29l3.69.06-2.52,6.15-2.81-1a.36.36,0,0,0,.24-.19.45.45,0,0,0,.16.06.42.42,0,0,0,.15-.82.31.31,0,0,0-.26-.27h0l-.06,0h0a.21.21,0,0,0-.18-.21h0a.42.42,0,0,0-.77-.26h0a.26.26,0,0,0-.29.22.25.25,0,0,0,0,.07.41.41,0,0,0-.26.14h-.08a.22.22,0,0,0-.24.19.19.19,0,0,0,0,.07.42.42,0,0,0-.1.22.41.41,0,0,0,.35.47.41.41,0,0,0,.23,0,.82.82,0,0,0,.17.17l-.13.36-.09.14a3.67,3.67,0,0,1-.83.29c0-.28,0-.59,0-.91a5.66,5.66,0,0,1,0-1.66,2,2,0,0,0,.41-.09.85.85,0,0,0,.42.18.87.87,0,0,0,.9-.49,1,1,0,1,0,.78-1.91.77.77,0,0,0-.66-.69h-.15l-.1,0h0a.54.54,0,0,0-.46-.54h0a1,1,0,0,0-1.93-.64h-.05a.65.65,0,0,0-.74.56.75.75,0,0,0,0,.16,1,1,0,0,0-.67.35l-.14,0h0a.54.54,0,0,0-.61.64,1,1,0,0,0-.26.55,1,1,0,0,0,1.47,1.1,2,2,0,0,0,.7.61c.12.46.35,1,.51,1.56a2.26,2.26,0,0,1-.76-.39.21.21,0,0,0,.06-.06l.1,0a.25.25,0,0,0,.09-.5.18.18,0,0,0-.16-.17h-.07a.13.13,0,0,0-.11-.13h0a.25.25,0,0,0-.47-.15h0a.16.16,0,0,0-.18.14.12.12,0,0,0,0,0,.26.26,0,0,0-.17.09h0a.13.13,0,0,0-.15.11.17.17,0,0,0,0,0,.26.26,0,0,0-.06.14.25.25,0,0,0,.35.27.49.49,0,0,0,.34.21.49.49,0,0,0,.22,0,.23.23,0,0,0,.1,0,.2.2,0,0,0,.1,0,2.92,2.92,0,0,0,.79.48l.07,0a3,3,0,0,1,.1.94,4.21,4.21,0,0,1-.39,1.38l-4.89-1.71a12.07,12.07,0,0,1-.06-4.38,8.5,8.5,0,0,1,1-2.48l.21,0a8.25,8.25,0,0,0,2.5-.69.58.58,0,0,0,.26.11.6.6,0,0,0,.31,0,1.33,1.33,0,0,0,.58.22,1.37,1.37,0,0,0,1.06-.3.7.7,0,0,0,.36.16.71.71,0,0,0,.8-.61.7.7,0,0,0-.07-.41.35.35,0,0,0,0-.11A.37.37,0,0,0,142,229h0l-.1,0a.7.7,0,0,0-.37-.35.46.46,0,0,0,0-.11.45.45,0,0,0-.38-.5h0a.71.71,0,0,0-1.38.07h0a.37.37,0,0,0-.4.27h-.11l-.07,0a.52.52,0,0,0-.56.33.71.71,0,0,0-.13,1.41.7.7,0,0,0,.29,0,.58.58,0,0,0,.1.22,6.41,6.41,0,0,1-2.34.48c.84-1.39,1.89-2.67,2.55-3.81a5.65,5.65,0,0,0,2.36-1.16,2.93,2.93,0,0,0,4.51-3.54,1.46,1.46,0,0,0,.15-.46,1.52,1.52,0,0,0-1.3-1.71h-.12a1.32,1.32,0,0,0-.38-.2,2.94,2.94,0,0,0-1.53-1.44,1.82,1.82,0,0,0,.12-.43,1.84,1.84,0,0,0-1.57-2.07h-.15a2.93,2.93,0,0,0-5.69.28h-.08a1.51,1.51,0,0,0-1.66,1.09l-.07,0a1.92,1.92,0,0,0-.37,0l-.32-.07a2.16,2.16,0,0,0-2.31,1.37,2.93,2.93,0,1,0,.67,5.75,2.43,2.43,0,0,0,3.34,1.83,5.72,5.72,0,0,0,1,.55,15.85,15.85,0,0,1-1.25,4.48c-.32.86-.58,1.67-.8,2.44a10.26,10.26,0,0,1-2-1.41,4.33,4.33,0,0,1-.23-1.51,2.29,2.29,0,0,0,.59-.34,1.17,1.17,0,0,0,1.91-.74,1.15,1.15,0,0,0-.11-.67.68.68,0,0,0,.06-.19.61.61,0,0,0-.52-.68h-.06a.5.5,0,0,0-.15-.07,1.17,1.17,0,0,0-.61-.58.78.78,0,0,0,0-.17.73.73,0,0,0-.63-.82h-.06a1.17,1.17,0,0,0-2.27.11h0a.6.6,0,0,0-.66.44h-.14l-.16,0a.86.86,0,0,0-.92.55,1.17,1.17,0,0,0-.21,2.32,1.14,1.14,0,0,0,.48,0,1,1,0,0,0,.83.8,1,1,0,0,0,.5-.07,2.27,2.27,0,0,0,.86.35,11.41,11.41,0,0,0,1.78,2.15c.1.24.08.18,0,0a4.71,4.71,0,0,0,.51.43,4,4,0,0,1,1,1c-.27,1-.45,2-.57,2.71l-7.26-2.53q-3.55-1.22-7.07-2.32l2.68-12.3.26.2.45-.58-.52-.46,3.17-14.54,12,9.27.74-1L125.24,202v-.07l3.82-17.54-1.13-.29-5,17.46-6,1,0-.2-.68-.17-.14.5-9,1.5.12,1.21,8.28-.77-2.33,8.09-9.49,1.58.07.73,9.24-.86-4.37,15.12q-6.18-1.68-12.17-3h0a2.78,2.78,0,0,1,.87-.4,3.23,3.23,0,0,0,.43-.15c-.07.09-.1.12,0,0a7.9,7.9,0,0,0,1.67-1,1.52,1.52,0,0,0,.63,0,.65.65,0,0,0,.31.17.68.68,0,0,0,.73-.31.84.84,0,0,0,.3.13.8.8,0,0,0,.43-1.54.59.59,0,0,0-.46-.57h-.07l-.11,0h0a.41.41,0,0,0-.32-.44h0a.8.8,0,0,0-1.43-.63h0a.51.51,0,0,0-.6.38.46.46,0,0,0,0,.13.8.8,0,0,0-.54.22h-.15a.41.41,0,0,0-.5.31.36.36,0,0,0,0,.13.81.81,0,0,0-.23.41.8.8,0,0,0,1,.94,1.55,1.55,0,0,0,.3.36,3,3,0,0,1-.51.91,7.1,7.1,0,0,1-1.66.42c0-.55.08-1.14.08-1.77a10.86,10.86,0,0,1,.3-3.18,3.8,3.8,0,0,0,.81-.1,1.65,1.65,0,0,0,.78.42,1.67,1.67,0,0,0,1.82-.78,2,2,0,0,0,.75.35,2,2,0,0,0,1.08-3.89,1.48,1.48,0,0,0-1.15-1.44l-.23,0-.24-.08h0a1,1,0,0,0-.81-1.11h0A2,2,0,0,0,96,212.52l-.1,0a1.26,1.26,0,0,0-1.51.95,1.48,1.48,0,0,0,0,.31,2,2,0,0,0-1.33.55.9.9,0,0,0-.31,0l-.07,0a1,1,0,0,0-1.28,1.12,2,2,0,0,0-.59,1,2,2,0,0,0,2.63,2.36,3.94,3.94,0,0,0,1.24,1.32c.14.9.51,2,.71,3.07a4.43,4.43,0,0,1-1.39-.88.43.43,0,0,0,.12-.12.52.52,0,0,0,.18.08.49.49,0,0,0,.26-.94.36.36,0,0,0-.28-.35h-.05l-.06,0h0a.25.25,0,0,0-.19-.27h0a.49.49,0,0,0-.87-.38h0a.3.3,0,0,0-.36.23.2.2,0,0,0,0,.08.49.49,0,0,0-.33.13h-.09a.26.26,0,0,0-.31.19.25.25,0,0,0,0,.08.5.5,0,0,0-.14.25.49.49,0,0,0,.37.58.47.47,0,0,0,.27,0,.94.94,0,0,0,1,.45.44.44,0,0,0,.19.1.4.4,0,0,0,.2,0,5.62,5.62,0,0,0,1.43,1.05l.13.06a5.84,5.84,0,0,1,0,1.84,6.24,6.24,0,0,1-.17.71q-5-1.1-9.89-2a23.59,23.59,0,0,1,.62-8.72,16.38,16.38,0,0,1,2.32-4.6h.4a15.92,15.92,0,0,0,4.91-.88,1.13,1.13,0,0,0,.5.26,1.15,1.15,0,0,0,.6,0,2.59,2.59,0,0,0,1.08.53,2.65,2.65,0,0,0,2.09-.39,1.37,1.37,0,0,0,2.31-.66,1.34,1.34,0,0,0-.06-.8.73.73,0,0,0,.08-.21.71.71,0,0,0-.53-.85h-.06a.63.63,0,0,0-.16-.1,1.37,1.37,0,0,0-.66-.75.94.94,0,0,0,.08-.2.86.86,0,0,0-.65-1H98.2a1.37,1.37,0,0,0-2.66-.11h0a.71.71,0,0,0-.82.44h0l-.17,0-.15,0a1,1,0,0,0-1.13.54,1.37,1.37,0,0,0-.49,2.69,1.33,1.33,0,0,0,.56,0,1.13,1.13,0,0,0,.14.45,12.38,12.38,0,0,1-4.58.5c1.85-2.52,4.09-4.78,5.55-6.86a10.9,10.9,0,0,0,4.75-1.82,5.65,5.65,0,0,0,9.29-6,2.81,2.81,0,0,0,.36-.87,2.93,2.93,0,0,0-2.2-3.51l-.22,0a2.56,2.56,0,0,0-.72-.46,5.67,5.67,0,0,0-2.7-3,3.5,3.5,0,0,0,.3-.81,3.55,3.55,0,0,0-2.66-4.25l-.29,0a5.65,5.65,0,0,0-11-.45l-.15,0a2.92,2.92,0,0,0-3.38,1.8l-.12,0a3.71,3.71,0,0,0-.71-.09,4.1,4.1,0,0,0-.61-.2,4.16,4.16,0,0,0-4.67,2.24A5.66,5.66,0,1,0,80,196.71a4.69,4.69,0,0,0,6.1,4.09A11,11,0,0,0,88,202.06c-.11,1-.75,3.33-3.18,8.39-.76,1.59-1.42,3.11-2,4.54a19.82,19.82,0,0,1-3.65-3.06A8.35,8.35,0,0,1,79,209a4.38,4.38,0,0,0,1.2-.57,2.25,2.25,0,0,0,3.7-2.4,1.29,1.29,0,0,0,.14-.35,1.17,1.17,0,0,0-.87-1.4H83a1,1,0,0,0-.28-.18,2.26,2.26,0,0,0-1.07-1.21,1.58,1.58,0,0,0,.12-.32,1.41,1.41,0,0,0-1.06-1.69l-.11,0a2.25,2.25,0,0,0-4.38-.18l-.06,0a1.16,1.16,0,0,0-1.34.72l-.05,0-.27,0-.25-.08a1.65,1.65,0,0,0-1.86.89,2.25,2.25,0,0,0-.82,4.43,2.18,2.18,0,0,0,.92,0A1.89,1.89,0,0,0,74,208.25a1.85,1.85,0,0,0,1,0,4.38,4.38,0,0,0,1.59.82,22,22,0,0,0,3,4.45c.15.49.12.36,0,0a9.21,9.21,0,0,0,.91.91,7.9,7.9,0,0,1,1.7,2.08,56.28,56.28,0,0,0-1.94,6.65q-5.34-.88-10.37-1.53l-.22-6.84-3.53.11-.46-14.54-2,.06L63.13,180l-2.23.07-.12-3.91-11.45.36.12,3.91-1.68.05.48,15.2-1.12.09a4.75,4.75,0,0,0-1.77.11,4.63,4.63,0,0,1,0,.83,7.56,7.56,0,0,0-1,.09,2,2,0,0,0-.15.61c.11,0,.11,0,.17-.06,0,.28.07.55.08.83l-7.74.24.25,7.79-1.21,0,.15,4.7h-.22l-.08-2.6-1,0-.06-1.77-.55,0,.06,1.77-3.32.11-.1-3.32-.83,0,.1,3.31-.66,0,.12,3.81.11,3.64-5.58.18.1,3.07c-2.79.11-4.31.24-4.31.24V362.43H358.41V248.17Q354.8,250.48,351.08,252.51Zm-23.78,7.41a4.66,4.66,0,0,1-.42.54c0-.1,0-.32,0-.58A1.53,1.53,0,0,0,327.31,259.92Zm-24.72-5.46a13.41,13.41,0,0,1-1.54-1.11,4.32,4.32,0,0,0,1.19-.47C302.36,253.6,302.51,254.19,302.59,254.46Zm-68.92,7.2a5.38,5.38,0,0,1-.43-.64,1.73,1.73,0,0,0,.52,0C233.7,261.3,233.67,261.55,233.67,261.66Zm-8.51,1.75a.6.6,0,0,0,.17.08,1.8,1.8,0,0,1-.24.15S225.13,263.52,225.16,263.41ZM216.73,258a5.38,5.38,0,0,1-.43-.64,1.74,1.74,0,0,0,.52,0C216.76,257.67,216.74,257.92,216.73,258Zm-8.45.68a.79.79,0,0,0,.21.1,2.36,2.36,0,0,1-.3.19S208.24,258.85,208.28,258.71ZM131,231.54a6.85,6.85,0,0,1-.62-.79,2.22,2.22,0,0,0,.66-.06C131.05,231.07,131,231.39,131,231.54Zm-32.17-7a1.54,1.54,0,0,0,.41.2,4.62,4.62,0,0,1-.59.35C98.73,225,98.8,224.78,98.87,224.52Zm-20.7-13.78a13.39,13.39,0,0,1-1-1.59,4.32,4.32,0,0,0,1.28,0C78.27,209.85,78.2,210.46,78.17,210.74Zm44.4-6.75-3.7,12.8-4.25-3.8v0l1.83-8.38Zm-8.37,10.5,4.36,3.37L114.76,231q-2-.58-3.91-1.13Zm-18.39,7.84,0-.06-.06-.17,0-.06a12.35,12.35,0,0,1-.35-1.55,3.83,3.83,0,0,0,.59.19l.23,0c-.08.36-.14.74-.18,1.05h0l0,.15h0c0,.12,0,.23,0,.32v.26A1.32,1.32,0,0,1,95.81,222.33Zm-7.42-14.7,0-.08,0-.07,0,0c.17-.46.58-1.55,1-2.81l0-.07.15-.5,0-.08.07-.26,0-.16.09-.36.05-.21,0-.12.61.16a11,11,0,0,0,1.73.26c-.28.39-.58.79-.89,1.2l-.06.08-.18.23-.07.1-.33.41-.07.09-.16.19-.11.13-.15.18-.11.13-.24.27-.13.15-.13.14-.12.13-.13.13-.15.15-.14.13-.17.16-.09.08-.15.12-.08.06-.21.14Zm-37.66-7,3-.1.06,2-3,.1Zm10.63-4.77.06,2-6.08.19-.06-2Zm-3.2-4.95.05,1.58-2.17.07L56,191Zm-2.78-1.62-2.17.07,0-1.58,2.17-.07Zm-.18-5.64.06,2-6.08.19-.06-2Zm-7.42,24.75,0,1.58-2.17.07,0-1.58Zm-4,5,.05,1.58-2.17.07,0-1.58ZM312.59,244l-.08.26,0,.15-.13.43-.05.17-.07.22-.06.18-.07.21-.07.18-.11.31-.08.2-.07.18-.07.17-.07.16-.09.2-.08.16-.11.21-.06.1-.09.16-.05.08-.14.21v-.23h0c0-.6,0-2.25-.2-3.94v-.07q0-.24-.05-.47l0-.18,0-.14.62-.07a11.05,11.05,0,0,0,1.7-.38c-.12.46-.25.94-.39,1.43Zm23.28,12.35-1.55-4,3,.22-.67.23.68,2a5.55,5.55,0,0,1,.09,2,4.84,4.84,0,0,0,0,2.24l-.52.21-1-2.61h.09v-.21Zm-2.1-3.8,1.14,3.66-1.63-.24h0l-.89-2.31Zm-.34,3.85,1.58.12,1,3.07-1.14.44Zm-10.22,2.57-.05-.05-.11-.13-.05-.06c-.12-.14-.24-.31-.36-.49h0c-.18-.27-.36-.56-.52-.83a3.84,3.84,0,0,0,.62,0l.22,0c.05.36.13.73.21,1v0l0,.13v0l0,.1,0,.07,0,.11v.1l0,.06V259h0v0Zm-44.21,1,1.73-.06,0,1.13-1.73.05Zm6.06-2.72,0,1.13-3.47.11,0-1.13Zm-1.82-2.82,0,.9-1.24,0,0-.9Zm-1.59-.92-1.23,0,0-.9,1.24,0Zm-.1-3.22,0,1.12-3.47.11,0-1.12Zm-4.23,14.11,0,.9-1.24,0,0-.9ZM275,267.25l0,.9-1.24,0,0-.9Zm-19-15.89-.31,7.8-2.95-1.57v0l-.14-5Zm-3.29,7.14,3,1.3-.35,8.89-2.33-.23Zm-11.9,7.64v0l0-.14v0l0-.15,0-.08v-.06l0-.22.24.08H241l0,.08v.07l0,.16v.38h0v0Zm1.26.9a.59.59,0,0,0,.17.08l-.05,0-.14,0Zm-4.34-6.73,0,0h0l0-.1h0l.16-.49h0l.06-.2h0c.07-.21.13-.45.19-.69v-.06l0-.17,0-.08v-.06l.24.07a4.37,4.37,0,0,0,.7.08l0,0-.08.12-.13.18-.16.22-.07.1-.14.19-.07.1-.19.23,0,0-.2.23-.06.06-.14.14-.06.05-.17.14Zm-13.86,2.2v0l0-.14v0l0-.15,0-.08V262l0-.22.24.08H224l0,.08V262l0,.16v.38h0v0Zm-3.07-5.83,0,0h0l0-.1h0L221,256h0l.06-.2v0c.07-.21.13-.45.19-.69v-.06l0-.17,0-.08v-.06l.24.07a4.37,4.37,0,0,0,.7.08l0,0-.08.12-.13.18-.16.22-.07.1-.14.19-.07.1-.19.23,0,0-.2.23-.06.06-.14.14-.06.05-.17.14Zm-16.32-8.74-.16.23-.21.28-.1.13-.19.25-.09.12-.26.32,0,0-.26.3-.07.08-.18.18-.07.07-.22.18v0h0l0-.07v0l0-.11v0c.05-.15.13-.37.21-.63h0l.08-.25v0c.08-.27.17-.58.25-.89l0-.07.05-.23,0-.09,0-.08.31.09a5.67,5.67,0,0,0,.9.11l0,0Zm2.17,9.66v0l0-.08v0a6.39,6.39,0,0,1-.2-.81,2,2,0,0,0,.31.1l.12,0,0,.08,0,.1,0,.2v.06l0,.14v.35Zm-3.77-20.9-.07,0a1.51,1.51,0,0,0-1.73,1l-.07,0a1.87,1.87,0,0,0-.37,0,2.12,2.12,0,0,0-2.72,1.11,2.93,2.93,0,1,0,.25,5.78,2.43,2.43,0,0,0,3.2,2.06,5.77,5.77,0,0,0,1,.63,15.84,15.84,0,0,1-1.56,4.38c-.38.83-.7,1.62-1,2.37a10.27,10.27,0,0,1-1.92-1.55,4.34,4.34,0,0,1-.12-1.52,2.28,2.28,0,0,0,.61-.3,1.17,1.17,0,0,0,2-.6,1.15,1.15,0,0,0-.06-.68.69.69,0,0,0,.07-.18.6.6,0,0,0-.47-.72h-.06a.51.51,0,0,0-.14-.08,1.18,1.18,0,0,0-.57-.63.75.75,0,0,0,.06-.17.73.73,0,0,0-.57-.87h-.06a1.17,1.17,0,0,0-2.27,0h0a.6.6,0,0,0-.68.39h-.14l-.16-.05a.86.86,0,0,0-1,.48,1.17,1.17,0,0,0-.38,2.3,1.14,1.14,0,0,0,.48,0,1,1,0,0,0,.77.85,1,1,0,0,0,.51,0,2.28,2.28,0,0,0,.83.41,11.43,11.43,0,0,0,1.62,2.28c.08.25.07.18,0,0a4.74,4.74,0,0,0,.48.46,4.06,4.06,0,0,1,.9,1.06,29.28,29.28,0,0,0-.93,3.42q-5.49-1.46-10.84-3l2.95-13.54.21.16.37-.48-.43-.38,2.61-12,9.53,7.35A3,3,0,0,0,202.91,236.71Zm-5.38,14.23c-.06.38-.1.7-.11.84a6.89,6.89,0,0,1-.56-.83A2.24,2.24,0,0,0,197.52,250.94Zm-5.63-22.4-3,10.53-3.5-3.13v0l1.5-6.9ZM185,237.17l3.59,2.77-4.11,14.23-3-.89Zm-47.17-10-.15.25-.18.29-.09.14-.16.25-.09.13-.22.31,0,0-.24.31-.07.09-.17.19-.07.07a2,2,0,0,1-.21.19v0h0l0-.07v0l0-.11v0c0-.16.1-.38.16-.63v0l.06-.23v0l.06-.26v0c0-.2.08-.4.12-.6v-.08l0-.22,0-.1v-.08l.32.06a5.73,5.73,0,0,0,.91,0l0,0Zm2.85,9.48,0,0,0-.09v0a6.34,6.34,0,0,1-.26-.79,2,2,0,0,0,.31.08h.12v.66s0,.06,0,.09v.19Zm11-1.29.2-.21-.19-.21,1.87-5.61,3,2.9-.92-.34-1,2.67a7.65,7.65,0,0,1-1.65,2.18,6.83,6.83,0,0,0-2.12,2.82l-.68-.25,1.35-4Zm1.13-6.31-2,4.9-1.52-1.68v0l1.08-3.24Zm-3.75,3.79,1.58,1.52-2.19,5.34-1.5-.56Zm-7.23,5.48s0,.06,0,0l.15-.08-.65,1.76-.25-.09a10.5,10.5,0,0,0,.09-1.23,1.42,1.42,0,0,1,.43-.25Z"/><path class="cls-7" d="M96.14,151.23l11,3.19a2.27,2.27,0,1,0,1.26-4.35l-.33-.07a2.26,2.26,0,0,0-.48-1.28,2.4,2.4,0,0,0,.22-.51,2.48,2.48,0,0,0-1.76-3,2.55,2.55,0,0,0-2.47.58l-.22-.07a2.32,2.32,0,0,0-2.9,1.52c0,.06,0,.12,0,.18a2.4,2.4,0,0,0-1.86.29,2.43,2.43,0,0,0-1.2-.78,2.27,2.27,0,1,0-1.26,4.35Z"/><path class="cls-8" d="M102.29,161.58v0a3.56,3.56,0,0,0,0-1.69l-.42-2.61v0l0,0-1.75,2c-.87,1-.9,1.49-.9,1.49a1.61,1.61,0,0,0,3.09.89Z"/><path class="cls-9" d="M106,154.54l0,0-1.75,2c-.87,1-.9,1.49-.9,1.49a1.61,1.61,0,0,0,3.09.89v0a3.53,3.53,0,0,0,0-1.69c-.17-1.1-.36-2.27-.42-2.61Z"/><path class="cls-10" d="M98.42,158.2a1.61,1.61,0,0,0,2-1.1v0a3.55,3.55,0,0,0,0-1.69l-.42-2.61v0l0,0-1.75,2c-.87,1-.9,1.49-.9,1.49A1.61,1.61,0,0,0,98.42,158.2Z"/><path class="cls-11" d="M98.4,169.63a1.61,1.61,0,0,0,2-1.1v0a3.53,3.53,0,0,0,0-1.69l-.42-2.61v0l0,0-1.75,2c-.87,1-.9,1.49-.9,1.49A1.61,1.61,0,0,0,98.4,169.63Z"/><path class="cls-12" d="M172.43,229.7a.92.92,0,0,0-1.18.55l0,.07a.86.86,0,0,1-1.17-.27.92.92,0,0,0-.94,1.54,1.82,1.82,0,0,0,1.28,2.13s-1,.71.14,1.63a1.51,1.51,0,0,1,.35,1.78l.36.13a1.92,1.92,0,0,0,.38-1.79c-.4-.84,1.21-.34,1.18-1.17,0,0,1.1-.09,1.29-1a.92.92,0,0,0,.12-1.76l-.12,0A.93.93,0,0,0,174,231a1,1,0,0,0,.1-.2,1,1,0,0,0-1.55-1.09Z"/><path class="cls-13" d="M164.9,229s-1,.71.14,1.63a1.5,1.5,0,0,1,.35,1.78l.36.13a1.92,1.92,0,0,0,.38-1.79c-.4-.84,1.21-.34,1.18-1.17,0,0,1.1-.09,1.29-1a.92.92,0,0,0,.12-1.76l-.13,0a.94.94,0,0,0-.14-.53,1,1,0,0,0,.1-.2A1,1,0,0,0,167,225l-.08,0a.92.92,0,0,0-1.18.55l0,.07a.92.92,0,0,0-.73.07.9.9,0,0,0-.44-.34.92.92,0,0,0-.94,1.54A1.81,1.81,0,0,0,164.9,229Z"/><path class="cls-14" d="M168.13,220s-1,.71.14,1.63a1.5,1.5,0,0,1,.35,1.78l.36.13a1.92,1.92,0,0,0,.38-1.79c-.4-.84,1.21-.34,1.18-1.17,0,0,1.1-.09,1.29-1a.93.93,0,0,0,.65-.58.92.92,0,0,0-.54-1.18l-.13,0a.94.94,0,0,0-.14-.53,1,1,0,0,0,.1-.2,1,1,0,0,0-1.55-1.09l-.08,0a.92.92,0,0,0-1.18.55l0,.07a.86.86,0,0,1-1.17-.27.92.92,0,0,0-.94,1.54A1.82,1.82,0,0,0,168.13,220Z"/><path class="cls-15" d="M344,246.39a1.32,1.32,0,0,0,1.7.6s-.21.84.83.84a1.09,1.09,0,0,1,1,.83l.26-.09s0-.89-.62-1.18.52-.75.12-1.2c0,0,.57-.56.28-1.13a.67.67,0,0,0-.75-1l-.08,0a.68.68,0,0,0-.32-.23.72.72,0,0,0,0-.16.71.71,0,0,0-1.37.11l-.06,0a.66.66,0,0,0-.41.85l0,0a.62.62,0,0,1-.77.39.67.67,0,0,0,.19,1.3Z"/><path class="cls-16" d="M339.77,243.66l-.06,0a.66.66,0,0,0-.41.85l0,0a.66.66,0,0,0-.37.38.65.65,0,0,0-.4,0,.67.67,0,0,0,.19,1.3,1.31,1.31,0,0,0,1.7.6s-.21.84.83.84a1.09,1.09,0,0,1,1,.83l.26-.09s0-.89-.62-1.18.52-.75.12-1.2c0,0,.57-.56.28-1.13a.67.67,0,0,0-.75-1l-.09,0a.4.4,0,0,1-.36-.39.71.71,0,0,0-1.37.11Z"/><path class="cls-17" d="M336.41,239.8a1.31,1.31,0,0,0,1.7.6s-.21.84.83.84a1.09,1.09,0,0,1,1,.83l.26-.09s0-.89-.62-1.18.52-.75.12-1.2c0,0,.57-.56.28-1.13a.67.67,0,0,0,.1-.62.66.66,0,0,0-.84-.41l-.09,0a.68.68,0,0,0-.32-.23.71.71,0,0,0-1.41-.05l-.06,0a.67.67,0,0,0-.4.85l0,0a.63.63,0,0,1-.78.39.67.67,0,0,0,.19,1.3Z"/></g><path class="cls-18" d="M183,37.08c-4.77,2.31-10,1.27-15,1.92-10.34,1.34-20.16,4.89-30.42,6.48-2-5.4-4-10.83-6.1-16.18-1.18-3-1.25-4.65,2.55-5.8a190.38,190.38,0,0,1,44.51-8.07c4.06-.23,4.88,1.36,4.7,5C182.92,25.94,183,31.52,183,37.08Z"/><path class="cls-19" d="M128.09,49.18C114.19,56,101.47,64.82,88.26,72.81c-3.81-4.31-7.49-8.74-11.47-12.89-2.23-2.33-2.17-3.71.42-5.74a192.42,192.42,0,0,1,39-23.89c3.12-1.42,4.19-.61,5.24,2.27C123.52,38.15,125.87,43.64,128.09,49.18Z"/><path class="cls-20" d="M81.18,80C71,91,61.06,102.17,53.52,115.22c-.68,1.18-1.81,1-2.89,1.09-4.52-2.37-9-4.9-13.6-7-3.06-1.41-3.87-2.72-2-5.92a199.38,199.38,0,0,1,27.47-36c3.11-3.22,4.85-2.45,7.33.47C73.47,72,77.4,76,81.18,80Z"/><path class="cls-21" d="M239.29,45c-10-1.47-19.63-4.83-29.71-6.12-5.32-.68-10.84.47-16-1.75.07-5.57.32-11.14.16-16.7-.1-3.53.52-5.13,4.71-4.9A185.88,185.88,0,0,1,243,23.93c2.62.8,3.55,2,2.33,4.85C243.07,34.09,241.27,39.59,239.29,45Z"/><path class="cls-22" d="M46.72,125.44a6,6,0,0,1-.68,4.5c-6.37,13.05-9.31,27.17-12.82,41.12-5.31-.49-10.62-1.21-15.94-1.39-3.72-.13-4.47-1.66-3.89-5A194.36,194.36,0,0,1,26,121.27c1.66-3.87,3.35-4.44,6.93-2.45C37.39,121.3,42.12,123.26,46.72,125.44Z"/><path class="cls-23" d="M290,72.79c-2.11.44-3.21-1.2-4.58-2.25a161.37,161.37,0,0,0-31.38-18.9c-1.9-.87-4.49-1.09-5.16-3.75,2-4.89,4.25-9.72,6-14.7,1.13-3.15,2.93-3.59,5.6-2.35a187.35,187.35,0,0,1,39.51,24.59c2.87,2.33,1.9,3.78,0,5.85C296.65,65,293.38,68.95,290,72.79Z"/><path class="cls-24" d="M31.87,181.72c0,15.85.58,31.66,3.54,47.29-4.71,1.34-9.47,2.5-14.09,4.09-3.16,1.09-4.78.95-5.59-2.88a189.32,189.32,0,0,1-4-45.79c.13-3.89,1.71-4.34,4.89-4C21.66,181,26.77,181.3,31.87,181.72Z"/><path class="cls-25" d="M327.43,116.65c-1.61.28-2.38-.75-3.06-1.95C317,101.79,307.21,90.79,297.11,80c3.31-3.56,6.79-7,9.89-10.73,2.61-3.14,4.5-3.81,7.66-.36A213.88,213.88,0,0,1,340.93,104c2.18,3.67,1.51,5.34-2.27,6.9S331.17,114.71,327.43,116.65Z"/><path class="cls-23" d="M37.24,239.15c3.07,2.69,3.24,6.72,4.46,10.18,4.26,12,10.9,22.82,16.9,34-3.74,2.76-7.57,5.41-11.19,8.31-2.3,1.84-3.71,1.46-5.31-.89a182.18,182.18,0,0,1-21.33-42.62c-1.06-3,0-3.93,2.55-4.66C28,242.07,32.6,240.58,37.24,239.15Z"/><path class="cls-26" d="M345.06,171.31c-3.37-14.73-6.9-29.41-13.39-43.18-.32-.67.14-1.71.23-2.57,4-1.84,8.15-3.46,12-5.6,3.05-1.7,4.62-1.34,6,2a195.33,195.33,0,0,1,12.41,43.38c.58,3.43-.57,4.83-4,5C353.91,170.5,349.49,171,345.06,171.31Z"/><path class="cls-27" d="M64,292.06c.62.18,1.48.15,1.83.56a181.23,181.23,0,0,0,33.17,31c.47.33.31,1.54.44,2.34-.88,1.27-1.81,2.52-2.64,3.82-6,9.39-6,9.44-14.65,2.8a186.49,186.49,0,0,1-27.77-25.9c-2.83-3.26-3.28-5.29.63-7.79C58.16,296.92,61,294.38,64,292.06Z"/><path class="cls-21" d="M345,230.48c-1.56-.64-2.56-1.45-2.07-3.48,3.53-14.8,3.38-29.91,3.59-45,2.22-.11,4.44-.18,6.65-.32C364,181,364,181,364,192.24a186.69,186.69,0,0,1-3.86,37c-.85,4.2-2.17,5.19-6.11,3.59C351.18,231.68,348,231.24,345,230.48Z"/><path class="cls-28" d="M108.47,330.39c14.63,7.72,30.13,13.29,45.75,18.59-.38,2-.74,3.93-1.14,5.89-2,9.52-2,9.55-11.14,7a211.23,211.23,0,0,1-35.35-13.7c-5.18-2.52-6.83-4.83-2.8-9.72C105.73,336.06,106.93,333.09,108.47,330.39Z"/><path class="cls-29" d="M319.86,283c8.58-13.72,14.41-28.77,21.12-43.4a5.3,5.3,0,0,0,1.13.67c14.44,4.29,14.41,4.27,8.61,18.66a200.4,200.4,0,0,1-15.06,28.94c-2.06,3.39-3.88,4.32-7.16,1.32C325.91,286.85,322.76,285.07,319.86,283Z"/><path class="cls-23" d="M164.57,350.43a222.17,222.17,0,0,0,49.29-.05c.57,3.29.77,6.69,1.8,9.83,1.43,4.37.27,5.8-4.32,6.28a201.87,201.87,0,0,1-45.3.11c-3.66-.43-4.53-1.55-3.58-5C163.44,357.93,163.89,354.14,164.57,350.43Z"/><path class="cls-27" d="M278.6,326.1c-.6-2,.85-2.72,2.12-3.63a156.69,156.69,0,0,0,30-28.08c1.17-1.43,2.11-3.67,4.74-2.46a8.73,8.73,0,0,0,.89,1c9.91,8.16,10,8.25,1.47,17.58a213.92,213.92,0,0,1-26.26,23.74c-4.51,3.53-6.72,2.48-8.94-2A54.41,54.41,0,0,0,278.6,326.1Z"/><path class="cls-30" d="M224.45,349c4.68-3.14,10.31-3.57,15.48-5.32,10.33-3.5,19.83-8.77,29.73-13.17a13.53,13.53,0,0,0,.75,1.84c6.84,11.68,6.84,11.68-5.56,17.85-10.32,5.13-21.18,8.78-32.2,12.07-4.16,1.24-6,.16-6.46-4.15C225.86,355,225,352,224.45,349Z"/></g><path class="cls-31" d="M119.95,187.07l-1.05-16.15h-3.57L114,193l-5.79,5.79V180.53L102,186.82l-1-16.45H97.35L96.09,192a25.5,25.5,0,0,1,4.37,7.77v-.92H105v4.51h-3.7a17.29,17.29,0,0,1,.14,2.4c0,.09,0,.19,0,.28H105v4.51h-4.48a16.86,16.86,0,0,1-2.71,4.63v2.55H95.36a31.17,31.17,0,0,1-5.08,3.69h39V180Zm-15,30.68h-4.51v-4.51H105Zm0-21.55h-4.51v-4.51H105ZM116,217.74h-4.51v-4.51H116Zm0-7.18h-4.51v-4.51H116Zm0-7.18h-4.51v-4.51H116Zm7.18,14.37H118.7v-4.51h4.51Zm0-7.18H118.7v-4.51h4.51Zm0-7.18H118.7v-4.51h4.51Zm0-7.18H118.7v-4.51h4.51Z"/><path class="cls-31" d="M128.87,221.44h17.56V198.66h1.19v-1.37H129.08Zm9.21-7.49h-3.86v-4.84h3.86Zm0-7.71h-3.86v-4.84h3.86Zm6.15,7.71h-3.86v-4.84h3.86Zm0-7.71h-3.86v-4.84h3.86Z"/><path class="cls-32" d="M282.75,99.7l-.25,0A3.32,3.32,0,0,0,280.37,98a4.75,4.75,0,0,0-9-1.14,3.76,3.76,0,0,0-3.06,2.81h0a2.31,2.31,0,1,0,1.56,4,3.75,3.75,0,0,0,4.57-.24h0a3.16,3.16,0,0,0,3.76.83,3.32,3.32,0,0,0,3.33-.35,2.31,2.31,0,1,0,1.24-4.26Z"/><path class="cls-32" d="M271.52,109.35a.28.28,0,0,1-.31.23h0a.28.28,0,0,1-.31-.23v-2.91a.28.28,0,0,1,.31-.23h0a.28.28,0,0,1,.31.23Z"/><path class="cls-32" d="M273.67,109.35a.28.28,0,0,1-.31.23h0a.28.28,0,0,1-.31-.23v-2.91a.28.28,0,0,1,.31-.23h0a.28.28,0,0,1,.31.23Z"/><path class="cls-32" d="M275.82,109.35a.28.28,0,0,1-.31.23h0a.28.28,0,0,1-.31-.23v-2.91a.28.28,0,0,1,.31-.23h0a.28.28,0,0,1,.31.23Z"/><path class="cls-32" d="M278,109.35a.28.28,0,0,1-.31.23h0a.28.28,0,0,1-.31-.23v-2.91a.28.28,0,0,1,.31-.23h0a.28.28,0,0,1,.31.23Z"/><path class="cls-32" d="M280.12,109.35a.28.28,0,0,1-.31.23h0a.28.28,0,0,1-.31-.23v-2.91a.28.28,0,0,1,.31-.23h0a.28.28,0,0,1,.31.23Z"/><path class="cls-32" d="M271.52,113.65a.28.28,0,0,1-.31.23h0a.28.28,0,0,1-.31-.23v-2.91a.28.28,0,0,1,.31-.23h0a.28.28,0,0,1,.31.23Z"/><path class="cls-32" d="M273.67,113.65a.28.28,0,0,1-.31.23h0a.28.28,0,0,1-.31-.23v-2.91a.28.28,0,0,1,.31-.23h0a.28.28,0,0,1,.31.23Z"/><path class="cls-32" d="M275.82,113.65a.28.28,0,0,1-.31.23h0a.28.28,0,0,1-.31-.23v-2.91a.28.28,0,0,1,.31-.23h0a.28.28,0,0,1,.31.23Z"/><path class="cls-32" d="M278,113.65a.28.28,0,0,1-.31.23h0a.28.28,0,0,1-.31-.23v-2.91a.28.28,0,0,1,.31-.23h0a.28.28,0,0,1,.31.23Z"/><path class="cls-32" d="M280.12,113.65a.28.28,0,0,1-.31.23h0a.28.28,0,0,1-.31-.23v-2.91a.28.28,0,0,1,.31-.23h0a.28.28,0,0,1,.31.23Z"/><path class="cls-32" d="M271.52,118a.28.28,0,0,1-.31.23h0a.28.28,0,0,1-.31-.23V115a.28.28,0,0,1,.31-.23h0a.28.28,0,0,1,.31.23Z"/><path class="cls-32" d="M273.67,118a.28.28,0,0,1-.31.23h0a.28.28,0,0,1-.31-.23V115a.28.28,0,0,1,.31-.23h0a.28.28,0,0,1,.31.23Z"/><path class="cls-32" d="M275.82,118a.28.28,0,0,1-.31.23h0a.28.28,0,0,1-.31-.23V115a.28.28,0,0,1,.31-.23h0a.28.28,0,0,1,.31.23Z"/><path class="cls-32" d="M278,118a.28.28,0,0,1-.31.23h0a.28.28,0,0,1-.31-.23V115a.28.28,0,0,1,.31-.23h0a.28.28,0,0,1,.31.23Z"/><path class="cls-32" d="M280.12,118a.28.28,0,0,1-.31.23h0a.28.28,0,0,1-.31-.23V115a.28.28,0,0,1,.31-.23h0a.28.28,0,0,1,.31.23Z"/><path class="cls-32" d="M271.52,122.26a.28.28,0,0,1-.31.23h0a.28.28,0,0,1-.31-.23v-2.91a.28.28,0,0,1,.31-.23h0a.28.28,0,0,1,.31.23Z"/><path class="cls-32" d="M273.67,122.26a.28.28,0,0,1-.31.23h0a.28.28,0,0,1-.31-.23v-2.91a.28.28,0,0,1,.31-.23h0a.28.28,0,0,1,.31.23Z"/><path class="cls-32" d="M275.82,122.26a.28.28,0,0,1-.31.23h0a.28.28,0,0,1-.31-.23v-2.91a.28.28,0,0,1,.31-.23h0a.28.28,0,0,1,.31.23Z"/><path class="cls-32" d="M278,122.26a.28.28,0,0,1-.31.23h0a.28.28,0,0,1-.31-.23v-2.91a.28.28,0,0,1,.31-.23h0a.28.28,0,0,1,.31.23Z"/><path class="cls-32" d="M280.12,122.26a.28.28,0,0,1-.31.23h0a.28.28,0,0,1-.31-.23v-2.91a.28.28,0,0,1,.31-.23h0a.28.28,0,0,1,.31.23Z"/><path class="cls-32" d="M271.52,126.56a.28.28,0,0,1-.31.23h0a.28.28,0,0,1-.31-.23v-2.91a.28.28,0,0,1,.31-.23h0a.28.28,0,0,1,.31.23Z"/><path class="cls-32" d="M273.67,126.56a.28.28,0,0,1-.31.23h0a.28.28,0,0,1-.31-.23v-2.91a.28.28,0,0,1,.31-.23h0a.28.28,0,0,1,.31.23Z"/><path class="cls-32" d="M275.82,126.56a.28.28,0,0,1-.31.23h0a.28.28,0,0,1-.31-.23v-2.91a.28.28,0,0,1,.31-.23h0a.28.28,0,0,1,.31.23Z"/><path class="cls-32" d="M278,126.56a.28.28,0,0,1-.31.23h0a.28.28,0,0,1-.31-.23v-2.91a.28.28,0,0,1,.31-.23h0a.28.28,0,0,1,.31.23Z"/><path class="cls-32" d="M280.12,126.56a.28.28,0,0,1-.31.23h0a.28.28,0,0,1-.31-.23v-2.91a.28.28,0,0,1,.31-.23h0a.28.28,0,0,1,.31.23Z"/><path class="cls-32" d="M271.52,131.34a.28.28,0,0,1-.31.23h0a.28.28,0,0,1-.31-.23v-2.91a.28.28,0,0,1,.31-.23h0a.28.28,0,0,1,.31.23Z"/><path class="cls-32" d="M273.67,131.34a.28.28,0,0,1-.31.23h0a.28.28,0,0,1-.31-.23v-2.91a.28.28,0,0,1,.31-.23h0a.28.28,0,0,1,.31.23Z"/><path class="cls-32" d="M275.82,131.34a.28.28,0,0,1-.31.23h0a.28.28,0,0,1-.31-.23v-2.91a.28.28,0,0,1,.31-.23h0a.28.28,0,0,1,.31.23Z"/><path class="cls-32" d="M278,131.34a.28.28,0,0,1-.31.23h0a.28.28,0,0,1-.31-.23v-2.91a.28.28,0,0,1,.31-.23h0a.28.28,0,0,1,.31.23Z"/><path class="cls-32" d="M280.12,131.34a.28.28,0,0,1-.31.23h0a.28.28,0,0,1-.31-.23v-2.91a.28.28,0,0,1,.31-.23h0a.28.28,0,0,1,.31.23Z"/><path class="cls-32" d="M271.52,135.64a.28.28,0,0,1-.31.23h0a.28.28,0,0,1-.31-.23v-2.91a.28.28,0,0,1,.31-.23h0a.28.28,0,0,1,.31.23Z"/><path class="cls-32" d="M273.67,135.64a.28.28,0,0,1-.31.23h0a.28.28,0,0,1-.31-.23v-2.91a.28.28,0,0,1,.31-.23h0a.28.28,0,0,1,.31.23Z"/><path class="cls-32" d="M275.82,135.64a.28.28,0,0,1-.31.23h0a.28.28,0,0,1-.31-.23v-2.91a.28.28,0,0,1,.31-.23h0a.28.28,0,0,1,.31.23Z"/><path class="cls-32" d="M278,135.64a.28.28,0,0,1-.31.23h0a.28.28,0,0,1-.31-.23v-2.91a.28.28,0,0,1,.31-.23h0a.28.28,0,0,1,.31.23Z"/><path class="cls-32" d="M280.12,135.64a.28.28,0,0,1-.31.23h0a.28.28,0,0,1-.31-.23v-2.91a.28.28,0,0,1,.31-.23h0a.28.28,0,0,1,.31.23Z"/><path class="cls-32" d="M271.52,139.94a.28.28,0,0,1-.31.23h0a.28.28,0,0,1-.31-.23V137a.28.28,0,0,1,.31-.23h0a.28.28,0,0,1,.31.23Z"/><path class="cls-32" d="M273.67,139.94a.28.28,0,0,1-.31.23h0a.28.28,0,0,1-.31-.23V137a.28.28,0,0,1,.31-.23h0a.28.28,0,0,1,.31.23Z"/><path class="cls-32" d="M275.82,139.94a.28.28,0,0,1-.31.23h0a.28.28,0,0,1-.31-.23V137a.28.28,0,0,1,.31-.23h0a.28.28,0,0,1,.31.23Z"/><path class="cls-32" d="M278,139.94a.28.28,0,0,1-.31.23h0a.28.28,0,0,1-.31-.23V137a.28.28,0,0,1,.31-.23h0a.28.28,0,0,1,.31.23Z"/><path class="cls-32" d="M280.12,139.94a.28.28,0,0,1-.31.23h0a.28.28,0,0,1-.31-.23V137a.28.28,0,0,1,.31-.23h0a.28.28,0,0,1,.31.23Z"/><path class="cls-32" d="M271.52,144.25a.28.28,0,0,1-.31.23h0a.28.28,0,0,1-.31-.23v-2.91a.28.28,0,0,1,.31-.23h0a.28.28,0,0,1,.31.23Z"/><path class="cls-32" d="M273.67,144.25a.28.28,0,0,1-.31.23h0a.28.28,0,0,1-.31-.23v-2.91a.28.28,0,0,1,.31-.23h0a.28.28,0,0,1,.31.23Z"/><path class="cls-32" d="M275.82,144.25a.28.28,0,0,1-.31.23h0a.28.28,0,0,1-.31-.23v-2.91a.28.28,0,0,1,.31-.23h0a.28.28,0,0,1,.31.23Z"/><path class="cls-32" d="M278,144.25a.28.28,0,0,1-.31.23h0a.28.28,0,0,1-.31-.23v-2.91a.28.28,0,0,1,.31-.23h0a.28.28,0,0,1,.31.23Z"/><path class="cls-32" d="M280.12,144.25a.28.28,0,0,1-.31.23h0a.28.28,0,0,1-.31-.23v-2.91a.28.28,0,0,1,.31-.23h0a.28.28,0,0,1,.31.23Z"/><path class="cls-32" d="M271.52,148.55a.28.28,0,0,1-.31.23h0a.28.28,0,0,1-.31-.23v-2.91a.28.28,0,0,1,.31-.23h0a.28.28,0,0,1,.31.23Z"/><path class="cls-32" d="M273.67,148.55a.28.28,0,0,1-.31.23h0a.28.28,0,0,1-.31-.23v-2.91a.28.28,0,0,1,.31-.23h0a.28.28,0,0,1,.31.23Z"/><path class="cls-32" d="M275.82,148.55a.28.28,0,0,1-.31.23h0a.28.28,0,0,1-.31-.23v-2.91a.28.28,0,0,1,.31-.23h0a.28.28,0,0,1,.31.23Z"/><path class="cls-32" d="M278,148.55a.28.28,0,0,1-.31.23h0a.28.28,0,0,1-.31-.23v-2.91a.28.28,0,0,1,.31-.23h0a.28.28,0,0,1,.31.23Z"/><path class="cls-32" d="M280.12,148.55a.28.28,0,0,1-.31.23h0a.28.28,0,0,1-.31-.23v-2.91a.28.28,0,0,1,.31-.23h0a.28.28,0,0,1,.31.23Z"/><path class="cls-32" d="M271.52,153.33a.28.28,0,0,1-.31.23h0a.28.28,0,0,1-.31-.23v-2.91a.28.28,0,0,1,.31-.23h0a.28.28,0,0,1,.31.23Z"/><path class="cls-32" d="M273.67,153.33a.28.28,0,0,1-.31.23h0a.28.28,0,0,1-.31-.23v-2.91a.28.28,0,0,1,.31-.23h0a.28.28,0,0,1,.31.23Z"/><path class="cls-32" d="M275.82,153.33a.28.28,0,0,1-.31.23h0a.28.28,0,0,1-.31-.23v-2.91a.28.28,0,0,1,.31-.23h0a.28.28,0,0,1,.31.23Z"/><path class="cls-32" d="M278,153.33a.28.28,0,0,1-.31.23h0a.28.28,0,0,1-.31-.23v-2.91a.28.28,0,0,1,.31-.23h0a.28.28,0,0,1,.31.23Z"/><path class="cls-32" d="M280.12,153.33a.28.28,0,0,1-.31.23h0a.28.28,0,0,1-.31-.23v-2.91a.28.28,0,0,1,.31-.23h0a.28.28,0,0,1,.31.23Z"/><path class="cls-32" d="M271.52,157.63a.28.28,0,0,1-.31.23h0a.28.28,0,0,1-.31-.23v-2.91a.28.28,0,0,1,.31-.23h0a.28.28,0,0,1,.31.23Z"/><path class="cls-32" d="M273.67,157.63a.28.28,0,0,1-.31.23h0a.28.28,0,0,1-.31-.23v-2.91a.28.28,0,0,1,.31-.23h0a.28.28,0,0,1,.31.23Z"/><path class="cls-32" d="M275.82,157.63a.28.28,0,0,1-.31.23h0a.28.28,0,0,1-.31-.23v-2.91a.28.28,0,0,1,.31-.23h0a.28.28,0,0,1,.31.23Z"/><path class="cls-32" d="M278,157.63a.28.28,0,0,1-.31.23h0a.28.28,0,0,1-.31-.23v-2.91a.28.28,0,0,1,.31-.23h0a.28.28,0,0,1,.31.23Z"/><path class="cls-32" d="M280.12,157.63a.28.28,0,0,1-.31.23h0a.28.28,0,0,1-.31-.23v-2.91a.28.28,0,0,1,.31-.23h0a.28.28,0,0,1,.31.23Z"/><path class="cls-32" d="M271.52,161.93a.28.28,0,0,1-.31.23h0a.28.28,0,0,1-.31-.23V159a.28.28,0,0,1,.31-.23h0a.28.28,0,0,1,.31.23Z"/><path class="cls-32" d="M273.67,161.93a.28.28,0,0,1-.31.23h0a.28.28,0,0,1-.31-.23V159a.28.28,0,0,1,.31-.23h0a.28.28,0,0,1,.31.23Z"/><path class="cls-32" d="M275.82,161.93a.28.28,0,0,1-.31.23h0a.28.28,0,0,1-.31-.23V159a.28.28,0,0,1,.31-.23h0a.28.28,0,0,1,.31.23Z"/><path class="cls-32" d="M278,161.93a.28.28,0,0,1-.31.23h0a.28.28,0,0,1-.31-.23V159a.28.28,0,0,1,.31-.23h0a.28.28,0,0,1,.31.23Z"/><path class="cls-32" d="M280.12,161.93a.28.28,0,0,1-.31.23h0a.28.28,0,0,1-.31-.23V159a.28.28,0,0,1,.31-.23h0a.28.28,0,0,1,.31.23Z"/><path class="cls-32" d="M271.52,166.24a.28.28,0,0,1-.31.23h0a.28.28,0,0,1-.31-.23v-2.91a.28.28,0,0,1,.31-.23h0a.28.28,0,0,1,.31.23Z"/><path class="cls-32" d="M273.67,166.24a.28.28,0,0,1-.31.23h0a.28.28,0,0,1-.31-.23v-2.91a.28.28,0,0,1,.31-.23h0a.28.28,0,0,1,.31.23Z"/><path class="cls-32" d="M275.82,166.24a.28.28,0,0,1-.31.23h0a.28.28,0,0,1-.31-.23v-2.91a.28.28,0,0,1,.31-.23h0a.28.28,0,0,1,.31.23Z"/><path class="cls-32" d="M278,166.24a.28.28,0,0,1-.31.23h0a.28.28,0,0,1-.31-.23v-2.91a.28.28,0,0,1,.31-.23h0a.28.28,0,0,1,.31.23Z"/><path class="cls-32" d="M280.12,166.24a.28.28,0,0,1-.31.23h0a.28.28,0,0,1-.31-.23v-2.91a.28.28,0,0,1,.31-.23h0a.28.28,0,0,1,.31.23Z"/><path class="cls-32" d="M271.52,170.54a.28.28,0,0,1-.31.23h0a.28.28,0,0,1-.31-.23v-2.91a.28.28,0,0,1,.31-.23h0a.28.28,0,0,1,.31.23Z"/><path class="cls-32" d="M273.67,170.54a.28.28,0,0,1-.31.23h0a.28.28,0,0,1-.31-.23v-2.91a.28.28,0,0,1,.31-.23h0a.28.28,0,0,1,.31.23Z"/><path class="cls-32" d="M275.82,170.54a.28.28,0,0,1-.31.23h0a.28.28,0,0,1-.31-.23v-2.91a.28.28,0,0,1,.31-.23h0a.28.28,0,0,1,.31.23Z"/><path class="cls-32" d="M278,170.54a.28.28,0,0,1-.31.23h0a.28.28,0,0,1-.31-.23v-2.91a.28.28,0,0,1,.31-.23h0a.28.28,0,0,1,.31.23Z"/><path class="cls-32" d="M280.12,170.54a.28.28,0,0,1-.31.23h0a.28.28,0,0,1-.31-.23v-2.91a.28.28,0,0,1,.31-.23h0a.28.28,0,0,1,.31.23Z"/><path class="cls-32" d="M271.52,175.32a.28.28,0,0,1-.31.23h0a.28.28,0,0,1-.31-.23V172.4a.28.28,0,0,1,.31-.23h0a.28.28,0,0,1,.31.23Z"/><path class="cls-32" d="M273.67,175.32a.28.28,0,0,1-.31.23h0a.28.28,0,0,1-.31-.23V172.4a.28.28,0,0,1,.31-.23h0a.28.28,0,0,1,.31.23Z"/><path class="cls-32" d="M275.82,175.32a.28.28,0,0,1-.31.23h0a.28.28,0,0,1-.31-.23V172.4a.28.28,0,0,1,.31-.23h0a.28.28,0,0,1,.31.23Z"/><path class="cls-32" d="M278,175.32a.28.28,0,0,1-.31.23h0a.28.28,0,0,1-.31-.23V172.4a.28.28,0,0,1,.31-.23h0a.28.28,0,0,1,.31.23Z"/><path class="cls-32" d="M280.12,175.32a.28.28,0,0,1-.31.23h0a.28.28,0,0,1-.31-.23V172.4a.28.28,0,0,1,.31-.23h0a.28.28,0,0,1,.31.23Z"/><path class="cls-32" d="M271.52,179.62a.28.28,0,0,1-.31.23h0a.28.28,0,0,1-.31-.23V176.7a.28.28,0,0,1,.31-.23h0a.28.28,0,0,1,.31.23Z"/><path class="cls-32" d="M273.67,179.62a.28.28,0,0,1-.31.23h0a.28.28,0,0,1-.31-.23V176.7a.28.28,0,0,1,.31-.23h0a.28.28,0,0,1,.31.23Z"/><path class="cls-32" d="M275.82,179.62a.28.28,0,0,1-.31.23h0a.28.28,0,0,1-.31-.23V176.7a.28.28,0,0,1,.31-.23h0a.28.28,0,0,1,.31.23Z"/><path class="cls-32" d="M278,179.62a.28.28,0,0,1-.31.23h0a.28.28,0,0,1-.31-.23V176.7a.28.28,0,0,1,.31-.23h0a.28.28,0,0,1,.31.23Z"/><path class="cls-32" d="M280.12,179.62a.28.28,0,0,1-.31.23h0a.28.28,0,0,1-.31-.23V176.7a.28.28,0,0,1,.31-.23h0a.28.28,0,0,1,.31.23Z"/><path class="cls-32" d="M271.52,183.92a.28.28,0,0,1-.31.23h0a.28.28,0,0,1-.31-.23V181a.28.28,0,0,1,.31-.23h0a.28.28,0,0,1,.31.23Z"/><path class="cls-32" d="M273.67,183.92a.28.28,0,0,1-.31.23h0a.28.28,0,0,1-.31-.23V181a.28.28,0,0,1,.31-.23h0a.28.28,0,0,1,.31.23Z"/><path class="cls-32" d="M275.82,183.92a.28.28,0,0,1-.31.23h0a.28.28,0,0,1-.31-.23V181a.28.28,0,0,1,.31-.23h0a.28.28,0,0,1,.31.23Z"/><path class="cls-32" d="M278,183.92a.28.28,0,0,1-.31.23h0a.28.28,0,0,1-.31-.23V181a.28.28,0,0,1,.31-.23h0a.28.28,0,0,1,.31.23Z"/><path class="cls-32" d="M280.12,183.92a.28.28,0,0,1-.31.23h0a.28.28,0,0,1-.31-.23V181a.28.28,0,0,1,.31-.23h0a.28.28,0,0,1,.31.23Z"/><path class="cls-32" d="M271.52,188.23a.28.28,0,0,1-.31.23h0a.28.28,0,0,1-.31-.23v-2.91a.28.28,0,0,1,.31-.23h0a.28.28,0,0,1,.31.23Z"/><path class="cls-32" d="M273.67,188.23a.28.28,0,0,1-.31.23h0a.28.28,0,0,1-.31-.23v-2.91a.28.28,0,0,1,.31-.23h0a.28.28,0,0,1,.31.23Z"/><path class="cls-32" d="M275.82,188.23a.28.28,0,0,1-.31.23h0a.28.28,0,0,1-.31-.23v-2.91a.28.28,0,0,1,.31-.23h0a.28.28,0,0,1,.31.23Z"/><path class="cls-32" d="M278,188.23a.28.28,0,0,1-.31.23h0a.28.28,0,0,1-.31-.23v-2.91a.28.28,0,0,1,.31-.23h0a.28.28,0,0,1,.31.23Z"/><path class="cls-32" d="M280.12,188.23a.28.28,0,0,1-.31.23h0a.28.28,0,0,1-.31-.23v-2.91a.28.28,0,0,1,.31-.23h0a.28.28,0,0,1,.31.23Z"/><path class="cls-32" d="M271.52,192.53a.28.28,0,0,1-.31.23h0a.28.28,0,0,1-.31-.23v-2.91a.28.28,0,0,1,.31-.23h0a.28.28,0,0,1,.31.23Z"/><path class="cls-32" d="M273.67,192.53a.28.28,0,0,1-.31.23h0a.28.28,0,0,1-.31-.23v-2.91a.28.28,0,0,1,.31-.23h0a.28.28,0,0,1,.31.23Z"/><path class="cls-32" d="M275.82,192.53a.28.28,0,0,1-.31.23h0a.28.28,0,0,1-.31-.23v-2.91a.28.28,0,0,1,.31-.23h0a.28.28,0,0,1,.31.23Z"/><path class="cls-32" d="M278,192.53a.28.28,0,0,1-.31.23h0a.28.28,0,0,1-.31-.23v-2.91a.28.28,0,0,1,.31-.23h0a.28.28,0,0,1,.31.23Z"/><path class="cls-32" d="M280.12,192.53a.28.28,0,0,1-.31.23h0a.28.28,0,0,1-.31-.23v-2.91a.28.28,0,0,1,.31-.23h0a.28.28,0,0,1,.31.23Z"/><g class="cls-33"><path class="cls-32" d="M90.41,150.51h-.23A3,3,0,0,0,88.25,149a4.3,4.3,0,0,0-8.13-1,3.4,3.4,0,0,0-2.77,2.54h0a2.09,2.09,0,1,0,1.41,3.63,3.39,3.39,0,0,0,4.14-.22h0a2.86,2.86,0,0,0,3.4.75,3,3,0,0,0,3-.31,2.09,2.09,0,1,0,1.12-3.85Z"/><path class="cls-32" d="M80.24,159.24a.25.25,0,0,1-.28.21h0a.25.25,0,0,1-.28-.21V156.6a.25.25,0,0,1,.28-.21h0a.25.25,0,0,1,.28.21Z"/><path class="cls-32" d="M82.18,159.24a.25.25,0,0,1-.28.21h0a.25.25,0,0,1-.28-.21V156.6a.25.25,0,0,1,.28-.21h0a.25.25,0,0,1,.28.21Z"/><path class="cls-32" d="M84.13,159.24a.25.25,0,0,1-.28.21h0a.25.25,0,0,1-.28-.21V156.6a.25.25,0,0,1,.28-.21h0a.25.25,0,0,1,.28.21Z"/><path class="cls-32" d="M86.08,159.24a.25.25,0,0,1-.28.21h0a.25.25,0,0,1-.28-.21V156.6a.25.25,0,0,1,.28-.21h0a.25.25,0,0,1,.28.21Z"/><path class="cls-32" d="M88,159.24a.25.25,0,0,1-.28.21h0a.25.25,0,0,1-.28-.21V156.6a.25.25,0,0,1,.28-.21h0a.25.25,0,0,1,.28.21Z"/><path class="cls-32" d="M80.24,163.14a.25.25,0,0,1-.28.21h0a.25.25,0,0,1-.28-.21V160.5a.25.25,0,0,1,.28-.21h0a.25.25,0,0,1,.28.21Z"/><path class="cls-32" d="M82.18,163.14a.25.25,0,0,1-.28.21h0a.25.25,0,0,1-.28-.21V160.5a.25.25,0,0,1,.28-.21h0a.25.25,0,0,1,.28.21Z"/><path class="cls-32" d="M84.13,163.14a.25.25,0,0,1-.28.21h0a.25.25,0,0,1-.28-.21V160.5a.25.25,0,0,1,.28-.21h0a.25.25,0,0,1,.28.21Z"/><path class="cls-32" d="M86.08,163.14a.25.25,0,0,1-.28.21h0a.25.25,0,0,1-.28-.21V160.5a.25.25,0,0,1,.28-.21h0a.25.25,0,0,1,.28.21Z"/><path class="cls-32" d="M88,163.14a.25.25,0,0,1-.28.21h0a.25.25,0,0,1-.28-.21V160.5a.25.25,0,0,1,.28-.21h0a.25.25,0,0,1,.28.21Z"/><path class="cls-32" d="M80.24,167a.25.25,0,0,1-.28.21h0a.25.25,0,0,1-.28-.21v-2.64a.25.25,0,0,1,.28-.21h0a.25.25,0,0,1,.28.21Z"/><path class="cls-32" d="M82.18,167a.25.25,0,0,1-.28.21h0a.25.25,0,0,1-.28-.21v-2.64a.25.25,0,0,1,.28-.21h0a.25.25,0,0,1,.28.21Z"/><path class="cls-32" d="M84.13,167a.25.25,0,0,1-.28.21h0a.25.25,0,0,1-.28-.21v-2.64a.25.25,0,0,1,.28-.21h0a.25.25,0,0,1,.28.21Z"/><path class="cls-32" d="M86.08,167a.25.25,0,0,1-.28.21h0a.25.25,0,0,1-.28-.21v-2.64a.25.25,0,0,1,.28-.21h0a.25.25,0,0,1,.28.21Z"/><path class="cls-32" d="M88,167a.25.25,0,0,1-.28.21h0a.25.25,0,0,1-.28-.21v-2.64a.25.25,0,0,1,.28-.21h0a.25.25,0,0,1,.28.21Z"/><path class="cls-32" d="M80.24,170.93a.25.25,0,0,1-.28.21h0a.25.25,0,0,1-.28-.21v-2.64a.25.25,0,0,1,.28-.21h0a.25.25,0,0,1,.28.21Z"/><path class="cls-32" d="M82.18,170.93a.25.25,0,0,1-.28.21h0a.25.25,0,0,1-.28-.21v-2.64a.25.25,0,0,1,.28-.21h0a.25.25,0,0,1,.28.21Z"/><path class="cls-32" d="M84.13,170.93a.25.25,0,0,1-.28.21h0a.25.25,0,0,1-.28-.21v-2.64a.25.25,0,0,1,.28-.21h0a.25.25,0,0,1,.28.21Z"/><path class="cls-32" d="M86.08,170.93a.25.25,0,0,1-.28.21h0a.25.25,0,0,1-.28-.21v-2.64a.25.25,0,0,1,.28-.21h0a.25.25,0,0,1,.28.21Z"/><path class="cls-32" d="M88,170.93a.25.25,0,0,1-.28.21h0a.25.25,0,0,1-.28-.21v-2.64a.25.25,0,0,1,.28-.21h0a.25.25,0,0,1,.28.21Z"/><path class="cls-32" d="M80.24,174.82A.25.25,0,0,1,80,175h0a.25.25,0,0,1-.28-.21v-2.64A.25.25,0,0,1,80,172h0a.25.25,0,0,1,.28.21Z"/><path class="cls-32" d="M82.18,174.82a.25.25,0,0,1-.28.21h0a.25.25,0,0,1-.28-.21v-2.64a.25.25,0,0,1,.28-.21h0a.25.25,0,0,1,.28.21Z"/><path class="cls-32" d="M84.13,174.82a.25.25,0,0,1-.28.21h0a.25.25,0,0,1-.28-.21v-2.64a.25.25,0,0,1,.28-.21h0a.25.25,0,0,1,.28.21Z"/><path class="cls-32" d="M86.08,174.82a.25.25,0,0,1-.28.21h0a.25.25,0,0,1-.28-.21v-2.64a.25.25,0,0,1,.28-.21h0a.25.25,0,0,1,.28.21Z"/><path class="cls-32" d="M88,174.82a.25.25,0,0,1-.28.21h0a.25.25,0,0,1-.28-.21v-2.64a.25.25,0,0,1,.28-.21h0a.25.25,0,0,1,.28.21Z"/></g><circle class="cls-34" cx="183.78" cy="82.4" r="5.92"/><path class="cls-34" d="M184.08,96.74a.3.3,0,0,1-.3.3h0a.3.3,0,0,1-.3-.3V89.15a.3.3,0,0,1,.3-.3h0a.3.3,0,0,1,.3.3Z"/><path class="cls-34" d="M184.08,75.48a.3.3,0,0,1-.3.3h0a.3.3,0,0,1-.3-.3V67.88a.3.3,0,0,1,.3-.3h0a.3.3,0,0,1,.3.3Z"/><path class="cls-34" d="M169.35,82.61a.3.3,0,0,1-.3-.3h0a.3.3,0,0,1,.3-.3h7.59a.3.3,0,0,1,.3.3h0a.3.3,0,0,1-.3.3Z"/><path class="cls-34" d="M190.61,82.61a.3.3,0,0,1-.3-.3h0a.3.3,0,0,1,.3-.3h7.59a.3.3,0,0,1,.3.3h0a.3.3,0,0,1-.3.3Z"/><path class="cls-34" d="M173.79,92.73a.3.3,0,0,1-.43,0h0a.3.3,0,0,1,0-.43l5.37-5.37a.3.3,0,0,1,.43,0h0a.3.3,0,0,1,0,.43Z"/><path class="cls-34" d="M188.83,77.69a.3.3,0,0,1-.43,0h0a.3.3,0,0,1,0-.43l5.37-5.37a.3.3,0,0,1,.43,0h0a.3.3,0,0,1,0,.43Z"/><path class="cls-34" d="M173.36,72.32a.3.3,0,0,1,0-.43h0a.3.3,0,0,1,.43,0l5.37,5.37a.3.3,0,0,1,0,.43h0a.3.3,0,0,1-.43,0Z"/><path class="cls-34" d="M188.4,87.36a.3.3,0,0,1,0-.43h0a.3.3,0,0,1,.43,0l5.37,5.37a.3.3,0,0,1,0,.43h0a.3.3,0,0,1-.43,0Z"/><g class="cls-35"><circle class="cls-36" cx="168.94" cy="252.15" r="24.42" transform="translate(-118.37 154.3) rotate(-37.37)"/><circle class="cls-37" cx="229.82" cy="95.85" r="29.41" transform="translate(-11 159.17) rotate(-37.37)"/><circle class="cls-38" cx="205.75" cy="157.66" r="28.32" transform="translate(-53.46 157.24) rotate(-37.37)"/><circle class="cls-38" cx="302.9" cy="112.15" r="13.35" transform="matrix(0.79, -0.61, 0.61, 0.79, -5.89, 206.88)"/><circle class="cls-37" cx="99.38" cy="310.19" r="11.07" transform="translate(-167.87 123.99) rotate(-37.37)"/><circle class="cls-37" cx="254.05" cy="185.5" r="17.91" transform="translate(-60.45 192.27) rotate(-37.37)"/><circle class="cls-36" cx="137.33" cy="286.94" r="6.62" transform="matrix(0.79, -0.61, 0.61, 0.79, -145.97, 142.25)"/><circle class="cls-36" cx="195.24" cy="222.22" r="10.96" transform="translate(-94.8 164.12) rotate(-37.37)"/><circle class="cls-36" cx="206.85" cy="253.51" r="6.18" transform="translate(-111.41 177.6) rotate(-37.37)"/><circle class="cls-36" cx="209.37" cy="199.96" r="6.18" transform="translate(-78.39 168.12) rotate(-37.37)"/></g><path class="cls-39" d="M286.28,210.52a100,100,0,0,1-2.94,20,98.87,98.87,0,0,1-4.11,12.66A100.58,100.58,0,0,1,194.58,306h-17.4a100.44,100.44,0,0,1-90.26-82.45q-.48-2.69-.81-5.42c31.44,2.32,73.84,3.79,113.2-.26C237.67,213.94,264.87,211.6,286.28,210.52Z"/><path class="cls-40" d="M283.34,230.53a98.87,98.87,0,0,1-4.11,12.66A100.58,100.58,0,0,1,194.58,306h-17.4a100.44,100.44,0,0,1-90.26-82.45c21.63.9,49.18,2.94,88.42,6.42C212.56,233.29,252.52,232.34,283.34,230.53Z"/><path class="cls-41" d="M279.23,243.19q-1.64,4.1-3.63,8a100.54,100.54,0,0,1-81,54.8h-17.4a100.68,100.68,0,0,1-82.42-57.65c30.32,1.28,68.7,1.88,104.55-.57C233.59,245.47,258.95,244,279.23,243.19Z"/><circle class="cls-39" cx="228.58" cy="111.58" r="4.01"/><path class="cls-39" d="M254,72.25l-25,28.18s-.45,7.24-.33,7.69l2.23,1.56,24.42-35.62a1.39,1.39,0,0,0,0-2A1,1,0,0,0,254,72.25Z"/><path class="cls-39" d="M252,152.24,238.71,117s-6.2-3.77-6.64-3.88l-2.42,1.24,20.14,38.21c.35.66.92,1.23,1.78.89A1,1,0,0,0,252,152.24Z"/><path class="cls-39" d="M181.68,111.81,219,116.88s6.26-3.66,6.57-4l.05-2.72-43.19-.44c-.74,0-1.51.22-1.63,1.14A1,1,0,0,0,181.68,111.81Z"/><polygon class="cls-39" points="231.88 220.29 224.84 220.29 227.39 112.69 229.33 112.69 231.88 220.29"/><circle class="cls-39" cx="256.86" cy="167.3" r="1.9"/><path class="cls-39" d="M268.89,148.71,257.07,162s-.21,3.42-.16,3.63l1.05.74,11.54-16.84a.66.66,0,0,0,0-.94A.48.48,0,0,0,268.89,148.71Z"/><path class="cls-39" d="M267.93,186.51l-6.28-16.66s-2.93-1.78-3.14-1.83l-1.14.59,9.52,18.06c.16.31.43.58.84.42A.48.48,0,0,0,267.93,186.51Z"/><path class="cls-39" d="M234.7,167.41l17.64,2.4s3-1.73,3.1-1.89l0-1.28-20.41-.21c-.35,0-.72.11-.77.54A.48.48,0,0,0,234.7,167.41Z"/><polygon class="cls-39" points="258.43 218.68 255.09 218.68 256.3 167.82 257.22 167.82 258.43 218.68"/><circle class="cls-39" cx="207.9" cy="152.12" r="2.44"/><path class="cls-39" d="M223.4,128.17l-15.23,17.17s-.27,4.41-.2,4.68l1.36.95,14.87-21.7a.84.84,0,0,0,0-1.21A.62.62,0,0,0,223.4,128.17Z"/><path class="cls-39" d="M222.16,176.88l-8.09-21.47s-3.77-2.3-4-2.36l-1.47.76,12.26,23.27c.21.4.56.75,1.08.54A.62.62,0,0,0,222.16,176.88Z"/><path class="cls-39" d="M179.34,152.26l22.74,3.09s3.81-2.23,4-2.44l0-1.66-26.3-.27c-.45,0-.92.14-1,.7A.62.62,0,0,0,179.34,152.26Z"/><polygon class="cls-39" points="209.91 218.33 205.62 218.33 207.18 152.8 208.36 152.8 209.91 218.33"/><path class="cls-40" d="M169.44,199.2v-.1l-.06,0-.06,0v.1c-12.07,9.32-4.28,18.8-1.07,21.91l-.65,9.69h2.75l-.46-9.11C172.47,219.39,182.39,209.21,169.44,199.2Z"/><path class="cls-40" d="M176,217v0l0,0,0,0v0c-5.27,4.07-1.87,8.21-.47,9.57l-.28,4.23h1.2l-.2-4C177.34,225.82,181.68,221.37,176,217Z"/><path class="cls-40" d="M163.7,220.65v0h0v0c-3.68,2.84-1.31,5.73-.33,6.69l-.2,3H164l-.14-2.78C164.62,226.81,167.65,223.71,163.7,220.65Z"/><path class="cls-41" d="M243.71,194.65v-.16l-.1.08-.1-.08v.16c-20.29,15.67-7.19,31.6-1.8,36.84l-1.09,16.29h4.62l-.77-15.31C248.8,228.59,265.48,211.46,243.71,194.65Z"/><path class="cls-41" d="M254.78,224.57v-.07l0,0,0,0v.07c-8.86,6.84-3.14,13.8-.79,16.09l-.48,7.11h2l-.34-6.69C257,239.39,264.29,231.92,254.78,224.57Z"/><path class="cls-41" d="M234.05,230.71v-.05l0,0,0,0v.05c-6.19,4.78-2.19,9.64-.55,11.24l-.33,5h1.41l-.24-4.67C235.6,241.06,240.7,235.84,234.05,230.71Z"/><path class="cls-40" d="M217.58,212.82v-.06l0,0,0,0v.06c-8,6.2-2.85,12.51-.71,14.58l-.43,6.45h1.83l-.3-6.06C219.59,226.26,226.2,219.48,217.58,212.82Z"/><path class="cls-40" d="M222,224.67v0h0v0c-3.51,2.71-1.24,5.46-.31,6.37l-.19,2.82h.8l-.13-2.65C222.84,230.53,225.72,227.57,222,224.67Z"/><path class="cls-40" d="M213.75,227.1v0h0v0c-2.45,1.89-.87,3.82-.22,4.45l-.13,2h.56l-.09-1.85C214.37,231.2,216.38,229.13,213.75,227.1Z"/><path class="cls-41" d="M206.83,233a8.61,8.61,0,0,0-2.6.4l-.45-1.26a.43.43,0,0,0-.09-.26l-.55-1.55h0a.92.92,0,0,1,.59-1.06.58.58,0,0,0,.76-.74.75.75,0,0,0-.3-.42,3.22,3.22,0,0,0-2.51-2.19v-.27a.24.24,0,0,0-.22-.19h0c-.1,0-.38.1-.38.19v.45h-2.36c-.31,0-.56.05-.56.32s.25.32.57.32h2.78c.07,0,.16,0,.2,0a.35.35,0,0,0,.16-.09,2.56,2.56,0,0,1,1.64,1.48,2.18,2.18,0,0,0-1,2.67l.07.09.41,1.14-.36.34-14.88,0a2.31,2.31,0,0,0,1-.68c.91-1.06,2.49-.18,2.84-1.08s-.74-.87-3.39-.77-3.55-1-4.15.07.83,2.74,2.73,2.56a1.35,1.35,0,0,0,.27,0h0a.44.44,0,0,0-.1.42l.61,2.08-.28.25-2.78-2.77s-.08-.08-.12-.08l-9.24,0c-.1,0-.17.12-.17.21s.08.21.18.21l9.16,0,2.7,2.66-.73.64a8.62,8.62,0,1,0,1.28,9.05l.81.19a.7.7,0,0,0,0,.81l1,1.22a.7.7,0,0,0,1.08-.88l-.66-.81.94.21a2.89,2.89,0,0,0,1,.23h.14a2.91,2.91,0,0,0,2.3-4.68l8.67-8.14h.61l.13.36a8.62,8.62,0,1,0,3.35-.68Zm-19.47,2.95h0a.18.18,0,0,0,.12-.05.17.17,0,0,0,0-.14l0,0,1.35,4.62H188a8.57,8.57,0,0,0-1.5-3.68Zm-7.83,13a7.31,7.31,0,1,1,5.59-12l-3.88,3.39h-.89a1.54,1.54,0,1,0-.34,3.05v.06l6.07,1.39A7.3,7.3,0,0,1,179.53,249Zm7.17-8.61h-4.4l3.24-2.83A7.26,7.26,0,0,1,186.7,240.34Zm6.74.5a2.9,2.9,0,0,0-1.69-.54l-.39,0h-1.49l-2.05-7,13.64,0Zm13.42,8.07a7.31,7.31,0,0,1-2.94-14l2.11,5.92a1.26,1.26,0,1,0,.83-.32h-.08l-2.1-5.9a7.31,7.31,0,1,1,2.18,14.28Z"/><path class="cls-39" d="M142.31,243.45a5,5,0,1,0,7.26-4.22l.09-.2.36,0,4.78,5a1.7,1.7,0,0,0,1.19,2.8h.08a1.69,1.69,0,0,0,.6-.1l.56-.09-.41.45a.41.41,0,0,0,.6.55L158,247a.41.41,0,0,0,.06-.47l.48-.08a5,5,0,1,0,1.05-5.24l-.4-.4,1.66-1.46,5.34.32c.06,0,.11-.06.11-.12s0-.13-.09-.13l-5.39-.32s-.05,0-.07,0l-1.71,1.52-.16-.15.43-1.2a.26.26,0,0,0,0-.25h.15c1.1.17,2-.78,1.68-1.4s-.88,0-2.42-.18-2.18-.21-2,.33,1.12.07,1.62.73a1.35,1.35,0,0,0,.53.43l-8.67-.51-.2-.21.28-.65,0,0a1.27,1.27,0,0,0-.52-1.59,1.49,1.49,0,0,1,1-.81.2.2,0,0,0,.09.06s.07,0,.11,0h.08l1.54.09c.18,0,.33,0,.34-.17s-.14-.19-.32-.21l-1.38-.08,0-.26c0-.06-.16-.12-.22-.12h0a.14.14,0,0,0-.13.1v.16a1.88,1.88,0,0,0-1.54,1.19.44.44,0,0,0-.19.23.34.34,0,0,0,.42.46.54.54,0,0,1,.31.64h0l-.37.89a.25.25,0,0,0-.06.15l-.3.72a5,5,0,0,0-6.82,4.4Zm17-1.91a5,5,0,0,0-1,2.1l-.54,0,.94-2.65,0,0a.1.1,0,0,0,0,.08.1.1,0,0,0,.07,0h0Zm0,4.8,3.59-.6v0a.9.9,0,0,0,.07-1.8h-.17l-.52,0-2.15-2.11a4.27,4.27,0,1,1-.82,4.57Zm.56-4.26,1.8,1.76-2.56-.15A4.24,4.24,0,0,1,159.9,242.08Zm-9.14-3,8,.47-1.43,4-.87-.05-.23,0a1.69,1.69,0,0,0-1,.26Zm-7.68,4.4a4.27,4.27,0,0,1,5.76-3.74l-1.42,3.37h0a.75.75,0,1,0,.47.21l1.43-3.38a4.27,4.27,0,1,1-6.19,3.55Z"/><g class="cls-42"><path class="cls-43" d="M157.33,137.56l.13-.16a47.47,47.47,0,0,0,3.82-4.8c.39-.47.84-.93,1.21-1.4.28-.18.46-.42,0-.15a20.62,20.62,0,0,0-2.4,3.22c-.9,1.07-1.84,2.1-2.7,3.2.07-.52-.6.32-.64-.42h0a14.67,14.67,0,0,0-.29-1.71,20.61,20.61,0,0,1-.35-4.33c-.15-.17-.07.68-.09.74a42.69,42.69,0,0,0,.65,5.17s0,.07,0,.11-.17.36-.24.44c-.88.26-.42,2.41-1-.26-1-4.29-3.85-9.29-6.54-12.8-1.27-1.43-5.29-5-7.23-3a5.19,5.19,0,0,0-1,3.6,8.84,8.84,0,0,1,.31,3.39c-.48.77.15,1.64-.1,2.49-.44.76.44,3.27,1,3.91,1,.77,5.63,1.89,5.56,1.91-2.3-.14-7.13-.63-8,2.32a4.13,4.13,0,0,1-.26,2.48c0,.6.39,1.16.41,1.84-.25,1.36,1.24,1.61,1.51,2.84a8.57,8.57,0,0,0,2.4,2.11c1,.1,1.83.69,2.82.64a3.69,3.69,0,0,0,2.07-.48c.33-.24,6-5.35,6-5.2-.43,1.63-2.23,4.12-1.82,5.75-.06.26-.07.62.27.54,1.45-1,1.28-3.74,1.84-5.27,1-1.81.66-1.41,1.07-.18.57,2.38,1.59,4.58,2.16,7a4.16,4.16,0,0,0,2.42,2.5c.84-.14,1.69.71,2.36.51.75-.49,2,.18,2.66-.48.88-.55,2.1-.37,2.7-1.17a3.63,3.63,0,0,1,1-1.12c1-.27.66-2.06,1.67-2.67.32-.45,0-1-.12-1.44-.59-2.66-3.11-3.74-5.24-5-.09-.11,3.92,1.3,4.68,1.39,1.41,0,2.79-1.52,3.5-2.63a2.31,2.31,0,0,1,.61-1.14c1-.52.69-1.94,1.67-2.41.66-.67.69-1.21,1.57-1.73a5.53,5.53,0,0,0,1-3.13c.05-3-4.86-2.55-6.76-2.24a36.21,36.21,0,0,0-12,6.09,23.7,23.7,0,0,1-2.14,1.8c0-.25-.2-.37-.24-.55s0-.12,0-.17Z"/><path class="cls-44" d="M117.74,130l0-.09a25.26,25.26,0,0,0-1.35-2.83c-.13-.28-.24-.59-.37-.86s-.09-.31-.08,0a10.42,10.42,0,0,0,.94,1.82c.28.65.55,1.31.86,2-.23-.15,0,.35-.34.2h0a7,7,0,0,0-.85-.25,10.86,10.86,0,0,1-2.07-.81c-.11,0,.3.19.32.21a21.26,21.26,0,0,0,2.51.86l.05,0c0,.06.13.15.15.21-.07.46,1,.73-.33.39a19.28,19.28,0,0,0-7.32.14c-.94.27-3.47,1.31-3,2.65a2.64,2.64,0,0,0,1.43,1.25,4.41,4.41,0,0,1,1.62.62c.24.39.78.29,1.12.59a2.75,2.75,0,0,0,2,.4,15.44,15.44,0,0,0,2.12-2.12c-.58,1-1.89,3.13-.73,4.18a2.16,2.16,0,0,1,1.08.68c.28.13.62.08.93.22.57.42,1-.2,1.64-.06a4.33,4.33,0,0,0,1.5-.62c.28-.45.72-.69.92-1.15a1.91,1.91,0,0,0,.24-1.06c0-.2-1.11-4-1-3.93.64.56,1.39,1.94,2.22,2.12.1.08.27.17.31,0-.11-.88-1.43-1.43-2-2-.61-.85-.49-.62.16-.54,1.22.27,2.45.3,3.69.57a2.13,2.13,0,0,0,1.68-.55c.12-.42.7-.62.76-1s.53-.86.38-1.33.3-1,.06-1.5a1.85,1.85,0,0,1-.29-.7c.1-.52-.79-.76-.85-1.37-.14-.25-.44-.23-.68-.27-1.35-.32-2.41.59-3.44,1.29-.07,0,1.47-1.5,1.68-1.83a2.7,2.7,0,0,0-.42-2.19,1.11,1.11,0,0,1-.38-.53c0-.56-.74-.75-.73-1.3-.16-.46-.4-.59-.45-1.11a2.77,2.77,0,0,0-1.22-1.14c-1.35-.69-2.25,1.65-2.53,2.6a18.42,18.42,0,0,0,.1,6.87,11.69,11.69,0,0,1,.35,1.39c-.12,0-.22,0-.31,0l-.07-.06Z"/><path class="cls-43" d="M160.68,114.24l.06,0a15.17,15.17,0,0,0,1.84-.73c.18-.06.39-.12.56-.19s.2,0,0-.05a7.24,7.24,0,0,0-1.19.52c-.42.15-.85.29-1.27.46.11-.14-.22,0-.11-.22h0a4,4,0,0,0,.19-.53,6.85,6.85,0,0,1,.6-1.27c0-.07-.14.18-.15.19a15.46,15.46,0,0,0-.65,1.55v0s-.1.08-.14.08c-.29-.07-.51.6-.23-.23a12.19,12.19,0,0,0,.22-4.62c-.13-.6-.67-2.24-1.54-2a1.73,1.73,0,0,0-.86.85,2.66,2.66,0,0,1-.46,1c-.25.14-.21.48-.42.68a1.75,1.75,0,0,0-.33,1.26,9.67,9.67,0,0,0,1.25,1.43c-.63-.41-1.89-1.32-2.61-.64a1.31,1.31,0,0,1-.47.65c-.09.17-.07.39-.18.58-.29.34.09.65,0,1a2.77,2.77,0,0,0,.33,1c.28.19.4.48.69.62a1.16,1.16,0,0,0,.65.2c.13,0,2.54-.53,2.53-.48-.38.39-1.28.79-1.43,1.32-.06.06-.12.16,0,.19.56,0,1-.84,1.36-1.18.56-.35.41-.28.33.12-.22.76-.29,1.53-.52,2.31a1.33,1.33,0,0,0,.28,1.08c.26.1.36.47.58.52s.52.37.82.29.65.23.94.11a1.16,1.16,0,0,1,.46-.15c.32.08.52-.47.9-.48.16-.07.17-.27.2-.42.26-.84-.27-1.54-.67-2.23,0,0,.89,1,1.09,1.14a1.74,1.74,0,0,0,1.4-.18.73.73,0,0,1,.35-.22c.35,0,.5-.43.86-.4s.39-.23.72-.24a1.83,1.83,0,0,0,.77-.72c.49-.82-.95-1.49-1.53-1.71a11.66,11.66,0,0,0-4.34-.23,7.78,7.78,0,0,1-.89.16c0-.08,0-.14,0-.2l0,0Z"/><path class="cls-43" d="M151.85,175.43l.06,0a14.89,14.89,0,0,0,1.84-.73c.18-.06.39-.12.56-.19s.2,0,0,0a6.81,6.81,0,0,0-1.19.52c-.42.15-.85.29-1.27.46.11-.14-.22,0-.11-.22h0a4,4,0,0,0,.2-.53,6.74,6.74,0,0,1,.6-1.27c0-.07-.14.18-.15.19a14.7,14.7,0,0,0-.65,1.55v0s-.11.07-.14.08c-.29-.07-.51.6-.23-.23a12.16,12.16,0,0,0,.22-4.62c-.13-.6-.67-2.24-1.54-2a1.72,1.72,0,0,0-.86.85,2.69,2.69,0,0,1-.46,1c-.25.14-.21.48-.42.68a1.75,1.75,0,0,0-.33,1.26,9.72,9.72,0,0,0,1.25,1.43c-.63-.41-1.89-1.32-2.61-.64a1.33,1.33,0,0,1-.47.65c-.09.17-.07.39-.18.58-.29.34.09.65,0,1a2.79,2.79,0,0,0,.33,1c.28.19.4.48.69.63a1.15,1.15,0,0,0,.65.2c.13,0,2.54-.52,2.53-.48-.38.39-1.28.79-1.43,1.32-.06.06-.12.16,0,.19.56,0,1-.84,1.36-1.18.56-.35.41-.28.33.12-.22.76-.29,1.54-.52,2.31a1.33,1.33,0,0,0,.28,1.08c.26.1.36.47.58.52s.52.37.82.29.65.23.94.1a1.14,1.14,0,0,1,.46-.15c.32.08.52-.47.9-.48.16-.07.17-.27.2-.42.26-.84-.27-1.54-.67-2.23,0,0,.89,1,1.09,1.15a1.73,1.73,0,0,0,1.4-.18.75.75,0,0,1,.35-.22c.35,0,.51-.43.86-.4s.39-.23.72-.23a1.82,1.82,0,0,0,.77-.72c.49-.82-.95-1.49-1.53-1.71a11.7,11.7,0,0,0-4.34-.23,7.43,7.43,0,0,1-.89.16c0-.08,0-.14,0-.2l0,0Z"/><path class="cls-43" d="M178.93,188l.06,0a15,15,0,0,0,1.84-.73c.18-.06.39-.12.56-.19s.2,0,0-.05a6.92,6.92,0,0,0-1.19.52c-.42.15-.85.29-1.27.46.11-.14-.22,0-.11-.22h0a4.15,4.15,0,0,0,.19-.52,6.82,6.82,0,0,1,.6-1.27c0-.07-.14.18-.15.19a15,15,0,0,0-.65,1.55v0s-.1.07-.14.08c-.29-.07-.51.6-.23-.23a12.21,12.21,0,0,0,.22-4.62c-.13-.6-.68-2.24-1.54-2a1.72,1.72,0,0,0-.86.85,2.71,2.71,0,0,1-.46,1c-.25.14-.21.48-.42.68a1.76,1.76,0,0,0-.33,1.26,9.86,9.86,0,0,0,1.25,1.43c-.63-.41-1.89-1.32-2.61-.64a1.3,1.3,0,0,1-.47.65c-.09.17-.07.39-.18.58-.29.34.09.65,0,1a2.79,2.79,0,0,0,.33,1c.28.19.4.48.69.63a1.14,1.14,0,0,0,.65.2c.13,0,2.54-.53,2.53-.49-.38.39-1.29.8-1.43,1.32-.06.06-.12.16,0,.19.56,0,1-.84,1.36-1.18.56-.35.41-.28.33.12-.22.76-.29,1.54-.52,2.31a1.33,1.33,0,0,0,.28,1.08c.26.1.36.47.58.52s.52.37.82.29.65.23.94.1a1.17,1.17,0,0,1,.45-.15c.32.09.51-.46.9-.48.16-.07.17-.27.2-.42.26-.84-.27-1.54-.67-2.23,0,0,.89,1,1.09,1.14a1.73,1.73,0,0,0,1.4-.18.74.74,0,0,1,.35-.22c.35,0,.5-.43.86-.41s.39-.23.72-.23a1.82,1.82,0,0,0,.78-.72c.49-.82-.95-1.49-1.53-1.71a11.69,11.69,0,0,0-4.34-.23,8.06,8.06,0,0,1-.89.16c0-.08,0-.14,0-.2l0,0Z"/><path class="cls-45" d="M174.95,163.34v-.09a20.42,20.42,0,0,0,.32-2.58c0-.26.1-.52.13-.77s.07-.25,0,0a8.67,8.67,0,0,0-.16,1.7c-.09.58-.2,1.17-.27,1.76-.09-.21-.15.25-.33,0h0a6.32,6.32,0,0,0-.48-.56,8.76,8.76,0,0,1-1.08-1.49c-.09,0,.12.26.13.29a18,18,0,0,0,1.37,1.73l0,0s0,.17,0,.22c-.26.29.38,1-.41.12a16,16,0,0,0-5.19-3.2c-.78-.24-3-.64-3.27.52a2.2,2.2,0,0,0,.44,1.52,3.76,3.76,0,0,1,.86,1.16c0,.38.42.56.51.92s.88,1.09,1.24,1.19a13.12,13.12,0,0,0,2.43-.53c-.86.46-2.72,1.34-2.39,2.6a1.75,1.75,0,0,1,.45,1c.13.22.4.33.55.58.21.55.8.31,1.17.69a3.65,3.65,0,0,0,1.34.23c.4-.19.81-.15,1.16-.39a1.54,1.54,0,0,0,.64-.63c.07-.16,1-3.27,1-3.22.2.68.1,2,.61,2.49,0,.11.11.24.22.13.32-.67-.36-1.64-.49-2.31,0-.87-.07-.66.35-.3.73.74,1.59,1.31,2.33,2.06a1.77,1.77,0,0,0,1.43.37c.27-.24.77-.11,1-.34s.76-.37.86-.76.68-.6.72-1a1.51,1.51,0,0,1,.11-.62c.3-.32-.22-.89,0-1.34,0-.23-.2-.37-.36-.5-.8-.83-1.95-.67-3-.64-.06,0,1.7-.39,2-.53a2.22,2.22,0,0,0,.69-1.72,1,1,0,0,1,0-.55c.23-.4-.18-.85.08-1.24.09-.39,0-.59.19-1a2.36,2.36,0,0,0-.34-1.35c-.64-1.09-2.32.15-2.94.68a15.33,15.33,0,0,0-3,4.86,9.89,9.89,0,0,1-.38,1.12c-.07-.08-.16-.09-.21-.15l0-.07Z"/></g><circle class="cls-46" cx="176.36" cy="283.69" r="6.65"/><path class="cls-41" d="M174.73,283.94a8.26,8.26,0,0,1,1.4-2.67v0c0-.22-.12-.33-.36-.21a1.21,1.21,0,0,0,0-.45c0-.18-.34-.26-.42-.07,0,0,0-.33-.22-.39s-.43.24-.5.44l-.1.29v-.11s.09-.28-.11-.38-.46,0-.69.79-.29,1-.29,1l-.17.93a2.07,2.07,0,0,1,0-.69c.06-.23.19-.59,0-.79,0,0-.33-.35-.44.06s-.23.51-.29.82a4.14,4.14,0,0,0,.22,1.62c.18.46.7,1,.7,1.52a5.8,5.8,0,0,1-.35,1.5h2.32a3.84,3.84,0,0,1,.37-1.82h0A1.44,1.44,0,0,1,174.73,283.94Z"/><path class="cls-41" d="M179.87,282.51c-.06-.31-.18-.41-.29-.82s-.44-.06-.44-.06c-.22.2-.09.56,0,.79a2.07,2.07,0,0,1,0,.69l-.17-.93s-.06-.27-.29-1-.49-.89-.69-.79-.11.38-.11.38v.11l-.1-.29c-.06-.19-.24-.49-.5-.44s-.22.39-.22.39c-.08-.18-.39-.1-.42.07a1.21,1.21,0,0,0,0,.45c-.23-.12-.34,0-.36.19.25.4,1.44,2,1.44,2.73a1.44,1.44,0,0,1-1.08,1.38h0a3.84,3.84,0,0,1,.37,1.82h2.32a5.8,5.8,0,0,1-.35-1.5c0-.56.52-1.06.7-1.52A4.14,4.14,0,0,0,179.87,282.51Z"/><path class="cls-41" d="M177,283.2s.38,1.45-.47,1.66C176.57,284.86,177.92,284.8,177,283.2Z"/><circle class="cls-46" cx="159.36" cy="283.69" r="6.65"/><g class="cls-47"><path class="cls-41" d="M155.47,282.44A2.22,2.22,0,0,1,153.8,280a1.87,1.87,0,0,1,1.85,2.29,6,6,0,0,1-1-1.26A3.66,3.66,0,0,0,155.47,282.44Z"/><path class="cls-41" d="M155.91,282.38a1.94,1.94,0,0,1,1.38-2.21,1.64,1.64,0,0,1-1.18,2.29,5.22,5.22,0,0,1,.67-1.23A3.21,3.21,0,0,0,155.91,282.38Z"/></g><path class="cls-41" d="M159.43,281.4V287H162V281.4Zm1.13,4.55h-.83v-1.24h.83Zm0-1.54h-.83v-1.24h.83Zm0-1.54h-.83v-1.24h.83Zm1.13,3.08h-.83v-1.24h.83Zm0-1.54h-.83v-1.24h.83Zm0-1.54h-.83v-1.24h.83Z"/><path class="cls-41" d="M162.2,283.47V287h1.61v-3.54Zm.71,2.87h-.52v-.78h.52Zm0-1h-.52v-.78h.52Zm0-1h-.52v-.78h.52Zm.71,1.94h-.52v-.78h.52Zm0-1h-.52v-.78h.52Zm0-1h-.52v-.78h.52Z"/><polygon class="cls-41" points="154.61 284.68 157.3 282.45 160 284.68 154.61 284.68"/><path class="cls-41" d="M155.46,284.17V287h3.68v-2.87Zm2.93,2.74h-1v-1.75h1Z"/><rect class="cls-41" x="155.78" y="283.06" width="0.41" height="0.75"/><path class="cls-41" d="M165.47,287.39a17.46,17.46,0,0,0-11.45,0c1.81-.1,3.73-.15,5.72-.15S163.66,287.29,165.47,287.39Z"/><circle class="cls-46" cx="193.36" cy="283.69" r="6.65"/><path class="cls-41" d="M190.67,285.18a1.72,1.72,0,0,1-.73-.14.89.89,0,0,1-.4-.31l.08.14.19.34.26.45.19.35,0,.09.19.38q.09.17.2.35a1.53,1.53,0,0,0,.23.3.34.34,0,0,0,.23.11l2.16,0,0-2.08Z"/><path class="cls-41" d="M190,284.87a1.51,1.51,0,0,0,.76.18h.59l-.15-.09a.24.24,0,0,1-.1-.2.37.37,0,0,1,.06-.18l.09-.13.13-.16.12-.13.08-.08.56.32-.89-1.68-1.93.06.59.35-.08.08a1.32,1.32,0,0,0-.13.19,1.39,1.39,0,0,0-.13.3,1.4,1.4,0,0,0,0,.6,1.1,1.1,0,0,0,.06.2A.77.77,0,0,0,190,284.87Z"/><path class="cls-41" d="M189.54,284.73l0,0Z"/><path class="cls-41" d="M195.55,282.2l.8-1.81-.59.35-.08-.15-.16-.26-.17-.28-.09-.16a.6.6,0,0,0-.48-.21,10.84,10.84,0,0,0-1.18,0h-1.08l-.46,0,.2,0a1.71,1.71,0,0,1,.34.1,1.44,1.44,0,0,1,.41.25,1.68,1.68,0,0,1,.37.46l.71,1.2-.55.33Z"/><path class="cls-41" d="M197.34,283.5l-.41-.77-.23-.42-.12-.21-1.7,1,.57.88.63,1,.16.23a1.26,1.26,0,0,0,.51-.13,1.71,1.71,0,0,0,.4-.26,2.25,2.25,0,0,0,.25-.26.68.68,0,0,0,.18-.52.39.39,0,0,0,0-.19Z"/><path class="cls-41" d="M193.31,280.58a1.51,1.51,0,0,0-.36-.44,1.46,1.46,0,0,0-.41-.25,1.65,1.65,0,0,0-.34-.1l-.22,0a1.59,1.59,0,0,0-.33.09.36.36,0,0,0-.17.15l-.11.19-.21.36-.3.49-.21.34-.23.38,1.68.93,1.31-2-.08-.12Z"/><path class="cls-41" d="M197.22,284.91a1.74,1.74,0,0,1-.4.26,1.28,1.28,0,0,1-.52.13h-1.46v-.65l-1,1.62,1,1.63v-.68h1a.47.47,0,0,0,.31-.13,1.61,1.61,0,0,0,.29-.34,4.19,4.19,0,0,0,.25-.43l.29-.61.14-.29.11-.21.21-.38a2.25,2.25,0,0,0,.14-.33l-.11.15A2.06,2.06,0,0,1,197.22,284.91Z"/><circle class="cls-46" cx="210.36" cy="283.69" r="6.65"/><path class="cls-41" d="M214.11,282.25a2.27,2.27,0,0,0-.69.09l-.11-.34a.11.11,0,0,0,0-.07l-.14-.41h0a.24.24,0,0,1,.16-.27.15.15,0,0,0,.21-.19.2.2,0,0,0-.08-.11.85.85,0,0,0-.65-.59v-.07a.06.06,0,0,0-.06-.05h0s-.1,0-.1,0v.12H212c-.08,0-.15,0-.15.08s.06.09.15.09l.7,0h.09l0,0a.67.67,0,0,1,.42.4.57.57,0,0,0-.29.7l0,0,.1.3-.1.09-3.92-.09a.61.61,0,0,0,.26-.17c.25-.27.66,0,.75-.27s-.19-.23-.89-.22-.93-.28-1.09,0,.2.73.7.69h.07a.12.12,0,0,0,0,.11l.15.55-.08.06-.71-.75,0,0-2.43-.06s0,0,0,.06,0,.06,0,.06l2.41.06.69.72-.2.16a2.27,2.27,0,1,0,.28,2.39l.21.05a.18.18,0,0,0,0,.21l.25.33a.18.18,0,0,0,.29-.23l-.17-.22.25.06a.76.76,0,0,0,.27.07h0a.77.77,0,0,0,.64-1.22l2.34-2.09h.16l0,.1a2.27,2.27,0,1,0,.89-.16Zm-5.15.65h0a0,0,0,0,0,0,0h0l.33,1.23h-.24a2.26,2.26,0,0,0-.37-1Zm-2.15,3.38a1.93,1.93,0,1,1,1.55-3.12l-1,.87H207a.41.41,0,0,0,0,.81v0l1.59.41A1.92,1.92,0,0,1,206.81,286.28Zm1.95-2.22-1.16,0,.87-.72A1.91,1.91,0,0,1,208.75,284.06Zm1.77.18a.76.76,0,0,0-.44-.15h-.5l-.49-1.86,3.59.08Zm3.48,2.21a1.93,1.93,0,0,1-.68-3.71l.52,1.57a.33.33,0,1,0,.22-.08h0l-.51-1.57a1.93,1.93,0,1,1,.48,3.78Z"/><g class="cls-47"><path class="cls-41" d="M99.72,237.35s-4.28-.66-4.28-6.32c0,0,5.84.28,4.75,5.88a15.34,15.34,0,0,1-2.51-3.24S98.55,236.47,99.72,237.35Z"/><path class="cls-41" d="M100.85,237.19s-1-3.67,3.56-5.68c0,0,1.85,4.78-3,5.89a13.43,13.43,0,0,1,1.71-3.16S101.14,235.94,100.85,237.19Z"/></g><path class="cls-41" d="M109.91,234.68v14.43h6.57V234.68Zm2.9,11.71h-2.13V243.2h2.13Zm0-4h-2.13v-3.19h2.13Zm0-4h-2.13v-3.19h2.13Zm2.9,7.93h-2.13V243.2h2.13Zm0-4h-2.13v-3.19h2.13Zm0-4h-2.13v-3.19h2.13Z"/><path class="cls-41" d="M117,240v9.11h4.14V240Zm1.83,7.39h-1.34v-2h1.34Zm0-2.5h-1.34v-2h1.34Zm0-2.5h-1.34v-2h1.34Zm1.83,5h-1.34v-2h1.34Zm0-2.5h-1.34v-2h1.34Zm0-2.5h-1.34v-2h1.34Z"/><polygon class="cls-41" points="97.51 243.12 104.44 237.38 111.38 243.12 97.51 243.12"/><path class="cls-41" d="M99.71,241.81v7.38h9.47v-7.38Zm7.54,7h-2.51v-4.49h2.51Z"/><rect class="cls-41" x="100.52" y="238.94" width="1.04" height="1.93"/><path class="cls-41" d="M125.45,250.09a40.31,40.31,0,0,0-14.73-2.48A40.31,40.31,0,0,0,96,250.09c4.65-.25,9.59-.39,14.73-.39S120.8,249.83,125.45,250.09Z"/><path class="cls-48" d="M139.91,243.35l-1-5.34a1.61,1.61,0,0,0-.6-1,1.69,1.69,0,0,0-1.06-.36l-9.19.13a1.69,1.69,0,0,0-1,.39,1.61,1.61,0,0,0-.57,1l-.85,5.36a1.88,1.88,0,0,0,0,.34,1.75,1.75,0,0,0,.29.95,1.63,1.63,0,0,0,.15.19l.06.06a1.74,1.74,0,0,0,1.25.48l10.92-.15a1.74,1.74,0,0,0,1.24-.52l.06-.06a1.62,1.62,0,0,0,.15-.21,1.76,1.76,0,0,0,.26-1A1.94,1.94,0,0,0,139.91,243.35Zm-1,1a.9.9,0,0,1-.65.26l-10.91.15a.9.9,0,0,1-.67-.24.87.87,0,0,1-.25-.62,1.16,1.16,0,0,1,0-.2l.85-5.36a.78.78,0,0,1,.28-.49.87.87,0,0,1,.54-.2l9.19-.13a.88.88,0,0,1,.54.18.8.8,0,0,1,.3.48l1,5.34a1.05,1.05,0,0,1,0,.19A.87.87,0,0,1,138.87,244.33Z"/><polygon class="cls-48" points="130.31 238.18 128.42 238.2 128.21 238.36 127.98 238.53 127.84 238.63 127.62 240.2 127.7 240.28 128.1 240.66 130.15 240.63 130.73 240.15 130.8 238.57 130.5 238.33 130.31 238.18"/><polygon class="cls-48" points="128.08 241.02 127.51 241.48 127.44 241.53 127.17 243.44 127.19 243.46 127.62 243.91 127.7 243.99 129.95 243.96 130.05 243.87 130.6 243.38 130.68 241.47 130.14 240.99 128.08 241.02"/><polygon class="cls-48" points="131.68 240.61 133.73 240.58 133.81 240.51 134.25 240.1 134.16 238.53 133.82 238.28 133.62 238.13 131.73 238.16 131.53 238.31 131.2 238.57 131.15 240.15 131.61 240.54 131.68 240.61"/><polygon class="cls-48" points="133.81 241 133.74 240.94 131.68 240.97 131.61 241.03 131.1 241.47 131.03 243.38 131.54 243.85 131.63 243.94 133.88 243.91 133.97 243.82 134.46 243.33 134.34 241.43 133.81 241"/><polygon class="cls-48" points="137.31 240.53 137.7 240.14 137.78 240.06 137.51 238.49 137.37 238.39 137.14 238.24 136.93 238.08 135.04 238.11 134.85 238.27 134.56 238.52 134.67 240.09 135.26 240.56 137.31 240.53"/><polygon class="cls-48" points="137.93 241.33 137.34 240.89 135.29 240.92 134.76 241.41 134.89 243.32 135.46 243.8 135.56 243.88 137.8 243.85 137.89 243.76 138.3 243.3 138.32 243.28 138 241.38 137.93 241.33"/><path class="cls-48" d="M134.95,249l-1.22,0,0-3-1.8,0,0,3-1.38,0a.19.19,0,0,0-.16.21v.21a.19.19,0,0,0,.16.21l4.4-.06a.19.19,0,0,0,.16-.21v-.21A.19.19,0,0,0,134.95,249Z"/><path class="cls-39" d="M159.22,209.22,159,209a.46.46,0,0,0-.65,0l-2,2h-2l-2-2a.46.46,0,0,0-.65,0l-.21.22a.46.46,0,0,0,0,.65l2.4,2.37,0,3.33v.3l0,4a.46.46,0,0,0,.46.46h.3a.46.46,0,0,0,.46-.46l0-3.55h.6l0,3.55a.46.46,0,0,0,.46.46h.3a.46.46,0,0,0,.46-.46l0-4v-.3l0-3.33,2.37-2.4A.46.46,0,0,0,159.22,209.22Z"/><circle class="cls-39" cx="155.32" cy="209.45" r="1.31" transform="translate(-1.18 0.88) rotate(-0.32)"/><path class="cls-39" d="M162.68,213.32l-.13-.12a.27.27,0,0,0-.38,0L161,214.38h-1.19l-1.19-1.17a.27.27,0,0,0-.38,0l-.12.13a.27.27,0,0,0,0,.38l1.4,1.38v5a.27.27,0,0,0,.27.27H160a.27.27,0,0,0,.27-.27V218h.35v2.07a.27.27,0,0,0,.27.27h.18a.27.27,0,0,0,.27-.27v-5l1.38-1.4A.27.27,0,0,0,162.68,213.32Z"/><circle class="cls-39" cx="160.4" cy="213.02" r="0.97" transform="translate(-1.21 0.91) rotate(-0.33)"/><path class="cls-39" d="M195.23,217.43l-.79.05.09,1.29,8.15-.55-.09-1.36-.79.05-.37-5.58s.43,0,.52.32c0,0,.15.13.25,1.56l.12,1.86s.37,1.2,1.38,1.27c0,0,1.15,0,1.47-.53,0,0,.34-.24.32-1.67l-.3-4.5a1.78,1.78,0,0,0-.73-1.31l-2-1.73-.42-.37-.43.57,1.54,1.48.12,1.86.9.59.28,4.15s-.19,1.38-1.14.08l-.21-3.15s-.68-1.53-1.54-1.48l-.29,0-.18-2.65A.91.91,0,0,0,200,207l-4.22.28a3.45,3.45,0,0,0-1.07,1.15Z"/><path class="cls-4" d="M196.76,212.6a1.31,1.31,0,0,0,.06-.31,5.47,5.47,0,0,1,.2-.72,2.36,2.36,0,0,1,1-1.32,4.83,4.83,0,0,1,1.53-.43l.49-.09a2.7,2.7,0,0,0-2.26-.76,1.84,1.84,0,0,0-1.52,1.52,7.83,7.83,0,0,0,.18,3.54c0-.16.43-.35.56-.41a6.94,6.94,0,0,1,.86-.31c.28-.09.56-.14.84-.22a2,2,0,0,0,1.49-1.29,2.86,2.86,0,0,0,0-1.42s-.12-.15.34-.12l.91.11-.15-.39c0-.07-.36-.05-.4-.05a6.81,6.81,0,0,0-1.11.1c-.74.12-1.66.23-2.07.91l-.52.86Z"/><circle class="cls-1" cx="188.61" cy="193.91" r="165.98"/><path class="cls-41" d="M280.49,212.76H264c0-.2,0-.35,0-.51,0-3.62,0-7.24,0-10.87a1,1,0,0,1,.76-1.15c.9-.31,1.78-.69,2.77-1.09l.14,1.36,3.48-1.35.13,1.34,3.52-1.35c0,.93,0,1.74,0,2.54,0,.36-.06.72.51.73s.63-.26.66-.71c.11-2.08.25-4.16.34-6.25,0-.68.24-1,1-.92,1.91.09,1.7-.31,1.81,1.77.09,1.62.15,3.23.27,4.85.1,1.36-.15,1.06,1.16,1.36Zm-13.4-4.12c.12.54.15,1.35.32,1.38a6.46,6.46,0,0,0,2.35,0c.17,0,.2-.84.32-1.38Zm1.6-3.22h-.49c-.57,0-1-.07-1,.81s.49.75,1,.75a10.29,10.29,0,0,1,1.07,0c.64.07.78-.23.78-.81s-.17-.82-.75-.75A5.17,5.17,0,0,1,268.7,205.42Zm4.68,0c-.23,1.55-.23,1.55,1.17,1.55h1c.58,0,.56-.38.55-.78s0-.79-.55-.78S274.12,205.42,273.37,205.42Zm-.05,4.7a22.77,22.77,0,0,0,2.3,0c.17,0,.42-.43.42-.67s-.2-.78-.36-.79a22.11,22.11,0,0,0-2.36,0Z"/><path class="cls-41" d="M281.2,212.74v-3.38c1.67-.1,2.44-.68,2.38-1.78s-.85-1.6-2.41-1.6c0-1,0-2.1,0-3.15,0-.11.38-.33.56-.3.39.07.92.14,1.11.41a1.32,1.32,0,0,0,1.71.66c.31-.06.76.27,1,.54a1.08,1.08,0,0,1,.29.88c-.2.72,0,1.33.63,1.59s.55.67.48,1.08a1.5,1.5,0,0,1-.5,1c-.56.36-.93,1-.62,1.53s-.1.82-.38,1.1-.52.62-1.11.41a1.53,1.53,0,0,0-1.36.32C282.36,212.8,282.42,212.86,281.2,212.74Z"/><path class="cls-41" d="M267.57,193.41a5.09,5.09,0,0,0,3.12-.5,27.12,27.12,0,0,1,3.51-1.11,2.7,2.7,0,0,1,3,1.08c-1.44-.5-2.68.14-4,.58a22.28,22.28,0,0,1-3.32.89A2.25,2.25,0,0,1,267.57,193.41Z"/><path class="cls-40" d="M193.69,219.34h-6.11l1.35-49.85h3.41Z"/><path class="cls-40" d="M178.6,174.07H182l1.32,45.29h-6Z"/><path class="cls-40" d="M172.27,160c.68,2,2.34,2.7,4.19,3s3.82.34,5.74.44a26.92,26.92,0,0,1,5.8.63,7.9,7.9,0,0,1,1.75.7,4.05,4.05,0,0,1,2,4.17h-2.13a.31.31,0,0,1-.2-.13,5.08,5.08,0,0,0-3.17-1.84c-1.64-.35-3.3-.57-5-.86s-3.51-.57-5.23-1a7.06,7.06,0,0,1-2.18-1A3.78,3.78,0,0,1,172.27,160Z"/><path class="cls-40" d="M161.95,164.44a3.94,3.94,0,0,0,2.77,2.72,15.64,15.64,0,0,0,4.36.69c1.92.1,3.84.15,5.76.27a12,12,0,0,1,3.78.76,4.19,4.19,0,0,1,2.81,4.56h-2.16a.32.32,0,0,1-.2-.14,4.79,4.79,0,0,0-2.93-1.75c-1.8-.39-3.63-.67-5.46-1a28.08,28.08,0,0,1-5.55-1.12,7.75,7.75,0,0,1-1.21-.56A3.92,3.92,0,0,1,161.95,164.44Z"/><rect class="cls-31" x="96.06" y="192.11" width="3.12" height="25.63"/><path class="cls-48" d="M102.07,213l-1.5-9.22a2.77,2.77,0,0,0-1-1.71,2.9,2.9,0,0,0-1.81-.66l-15.81-.15a2.91,2.91,0,0,0-1.82.62,2.78,2.78,0,0,0-1,1.69l-1.68,9.19a3.19,3.19,0,0,0-.06.58,3,3,0,0,0,.46,1.64,2.77,2.77,0,0,0,.25.34l.1.11a3,3,0,0,0,2.14.88l18.79.18a3,3,0,0,0,2.15-.84l.1-.1a2.81,2.81,0,0,0,.27-.35,3,3,0,0,0,.49-1.63A3.41,3.41,0,0,0,102.07,213Zm-1.82,1.64a1.55,1.55,0,0,1-1.14.43l-18.78-.18a1.56,1.56,0,0,1-1.14-.44,1.5,1.5,0,0,1-.4-1.08,2,2,0,0,1,0-.34l1.68-9.19A1.35,1.35,0,0,1,81,203a1.49,1.49,0,0,1,.93-.32l15.81.15a1.51,1.51,0,0,1,.92.34,1.37,1.37,0,0,1,.49.84l1.5,9.22a1.79,1.79,0,0,1,0,.33A1.5,1.5,0,0,1,100.25,214.6Z"/><polygon class="cls-48" points="85.77 203.66 82.51 203.63 82.14 203.89 81.74 204.17 81.5 204.34 81.06 207.04 81.19 207.17 81.87 207.84 85.39 207.87 86.41 207.07 86.59 204.36 86.08 203.93 85.77 203.66"/><polygon class="cls-48" points="81.81 208.47 80.81 209.22 80.69 209.31 80.15 212.59 80.18 212.62 80.9 213.41 81.04 213.56 84.91 213.6 85.08 213.45 86.05 212.62 86.26 209.35 85.36 208.5 81.81 208.47"/><polygon class="cls-48" points="88.03 207.9 91.55 207.93 91.69 207.81 92.47 207.14 92.37 204.43 91.8 203.99 91.46 203.72 88.21 203.69 87.86 203.95 87.28 204.38 87.12 207.09 87.9 207.78 88.03 207.9"/><polygon class="cls-48" points="91.68 208.67 91.56 208.56 88.01 208.53 87.89 208.63 86.99 209.37 86.8 212.64 87.65 213.47 87.8 213.63 91.67 213.66 91.83 213.51 92.69 212.7 92.56 209.42 91.68 208.67"/><polygon class="cls-48" points="97.71 207.99 98.4 207.34 98.54 207.21 98.15 204.5 97.91 204.32 97.52 204.04 97.15 203.77 93.9 203.74 93.58 204 93.06 204.42 93.19 207.13 94.19 207.96 97.71 207.99"/><polygon class="cls-48" points="98.74 209.4 97.75 208.62 94.21 208.59 93.29 209.42 93.44 212.69 94.39 213.54 94.56 213.69 98.43 213.73 98.57 213.58 99.31 212.81 99.34 212.77 98.86 209.49 98.74 209.4"/><path class="cls-48" d="M93.3,222.5l-2.1,0,0-5.16-3.1,0,0,5.16-2.37,0a.33.33,0,0,0-.28.36v.36a.33.33,0,0,0,.27.37l7.57.08c.15,0,.28-.16.28-.36v-.36A.33.33,0,0,0,93.3,222.5Z"/></g></g></svg>