<svg id="Layer_1" data-name="Layer 1" xmlns="http://www.w3.org/2000/svg" viewBox="0 0 385.17 382.67"><defs><style>.cls-1{fill:#c08d2e;}.cls-2{fill:#df1c69;}.cls-3{fill:#3f8144;}.cls-4{fill:#f36b23;}.cls-5{fill:#1c96d3;}.cls-6{fill:#e0a82d;}.cls-7{fill:#4ca147;}.cls-8{fill:#fbc613;}.cls-9{fill:#184a6e;}.cls-10{fill:#a52044;}.cls-11{fill:#c7242b;}.cls-12{fill:#e42437;}.cls-13{fill:#0069a1;}.cls-14{fill:#1dbde4;}</style></defs><title>leave-no-one</title><path class="cls-1" d="M76,276.37c-.94,0-1.15-.69-1.49-1.17a143.74,143.74,0,0,1-18.22-36.34c-.78-2.33.83-2.16,2-2.49q26.36-7.61,52.75-15.15c4.63-1.32,4.6-1.27,6.43,3.17a69.18,69.18,0,0,0,6.53,12.5c1,1.54,1,2.35-.55,3.53q-23.07,17.39-46,34.92Z"/><path class="cls-2" d="M173.52,273.91q-3,16.13-6,32.31c-1.58,8.41-3.26,16.81-4.75,25.24-.35,2-.95,2.26-2.87,1.82a149.19,149.19,0,0,1-36.5-13.89c-2.15-1.15-1.91-2-.83-3.75q15.08-24.22,30-48.54c1-1.61,1.71-2.23,3.64-1.19a71.13,71.13,0,0,0,15.47,5.92C172.65,272.11,174.23,272,173.52,273.91Z"/><path class="cls-3" d="M48.93,192.91c.1-1.55.36-4,.36-6.35,0-1.74.68-2,2.28-1.86C64.78,185.92,78,187,91.22,188.21c6,.53,12.06,1.17,18.1,1.61,1.73.13,2.3.58,2.24,2.4a63.64,63.64,0,0,0,1.34,16.51c.46,2-.24,2.67-2.15,3.21q-27.27,7.7-54.47,15.65c-2.36.69-3.18.38-3.74-2.13A167.08,167.08,0,0,1,48.93,192.91Z"/><path class="cls-4" d="M191.77,336.87a164.18,164.18,0,0,1-18.15-1.15c-1.95-.23-2.5-.85-2.14-2.73q5.42-28.49,10.75-57c.28-1.48.85-2.1,2.5-1.9a70.59,70.59,0,0,0,16.91-.19c1.53-.18,2.17.19,2.48,1.85q5.26,28.52,10.72,57c.34,1.75-.06,2.33-1.8,2.59A147.6,147.6,0,0,1,191.77,336.87Z"/><path class="cls-5" d="M110,180.93c-13.05-1.18-25.63-2.34-38.21-3.46-6.24-.56-12.48-1.14-18.73-1.54-2.32-.15-2.94-.72-2.55-3.23a149.86,149.86,0,0,1,10.88-37.16c.78-1.77,1.37-2.35,3.37-1.34q25.6,12.93,51.32,25.62c1.76.87,2.25,1.66,1.42,3.59A60.35,60.35,0,0,0,112.93,179C112.61,181.39,111.08,181.08,110,180.93Z"/><path class="cls-6" d="M146,260.59c-.35.6-.69,1.25-1.08,1.87q-15.09,24.44-30.16,48.9c-1.06,1.72-1.77,1.72-3.35.63a149.15,149.15,0,0,1-28.8-26.05c-1.33-1.57-1.33-2.37.36-3.64q22.94-17.3,45.75-34.78c1.43-1.1,2.25-1.26,3.56.25a72.71,72.71,0,0,0,12.31,11.16C145.2,259.36,145.85,259.74,146,260.59Z"/><path class="cls-7" d="M135.18,136.56c-.49.58-.86,1.08-1.29,1.53a72.94,72.94,0,0,0-10.15,13.12c-.88,1.49-1.65,1.72-3.22.93q-25.91-13-51.89-25.86c-1.87-.92-1.76-1.78-.86-3.32A150.74,150.74,0,0,1,91.6,92c1.45-1.45,2.13-1.2,3.38.18q19.37,21.39,38.85,42.69C134.31,135.35,134.71,135.95,135.18,136.56Z"/><path class="cls-8" d="M304,282.56c-.52.68-.88,1.19-1.28,1.68a146.58,146.58,0,0,1-28.87,26.86c-1.48,1-2.18.91-3.12-.62q-15.17-24.74-30.47-49.4c-.89-1.44-.91-2.24.53-3.29a67,67,0,0,0,12.1-11.37c1.15-1.39,1.93-1.34,3.28-.32q23,17.45,46.08,34.82A22.67,22.67,0,0,1,304,282.56Z"/><path class="cls-6" d="M285,85.76c-.31.36-.69.85-1.1,1.3q-19.61,21.43-39.2,42.88c-1,1.09-1.7,1.5-3,.39a68,68,0,0,0-14-8.85c-1.57-.75-1.86-1.57-1.24-3.17q10.54-27.21,20.94-54.48c.62-1.62,1.32-1.46,2.55-.91a146.2,146.2,0,0,1,34,21.24C284.27,84.54,284.89,84.83,285,85.76Z"/><path class="cls-9" d="M188.26,82.05c0,9.42-.08,18.83.06,28.25,0,2.31-.61,3-2.91,3.15a61.74,61.74,0,0,0-15.08,2.75c-1.77.57-2.67.38-3.44-1.62q-10.12-26.5-20.54-52.87c-1.09-2.74-.37-3.43,2.14-4.21a155,155,0,0,1,36.29-6.62c2.59-.17,3.64.24,3.56,3.25C188.11,63.43,188.26,72.74,188.26,82.05Z"/><path class="cls-10" d="M231.23,264.37c1,.08,1.15.9,1.52,1.48q15.25,24.69,30.52,49.38c.94,1.51.86,2.17-.73,3.06a148,148,0,0,1-36.29,14.49c-1.86.47-2.33-.13-2.65-1.84q-5.2-28.05-10.57-56.07c-.43-2.24-.09-3.35,2.36-3.94a61.62,61.62,0,0,0,13.92-5.62C230,265,230.62,264.67,231.23,264.37Z"/><path class="cls-7" d="M262.77,153.84c-1,.13-1.16-.75-1.51-1.32A73.93,73.93,0,0,0,251.06,139c-1.24-1.27-.84-2,.14-3q19.64-21.37,39.2-42.82c1.17-1.29,1.86-1.45,3.17-.12a147.53,147.53,0,0,1,23.51,31.24c.73,1.29,1,2-.7,2.85q-26.27,13-52.47,26.14Z"/><path class="cls-11" d="M273.95,181.73c-1.69.57-2.31-.58-2.6-2.41a64.94,64.94,0,0,0-4.18-14.75c-.71-1.73-.68-2.62,1.24-3.56q25.87-12.75,51.63-25.73c1.56-.78,2.24-.65,3,1.05a147.81,147.81,0,0,1,10.59,36.94c.32,2.13-.15,2.81-2.4,3C312.25,178,293.31,179.88,273.95,181.73Z"/><path class="cls-4" d="M334.91,196.9a139.7,139.7,0,0,1-3.3,28.59c-.48,2.31-1.31,2.7-3.53,2.05q-27.21-8-54.49-15.67c-2.12-.6-2.86-1.36-2.3-3.65a53.29,53.29,0,0,0,1.29-14.64c-.09-2.24.74-2.89,2.75-3.06,11.76-1,23.52-2.16,35.28-3.24,7.28-.67,14.58-1.22,21.85-2.06,2.13-.25,2.52.46,2.48,2.27C334.86,190.62,334.91,193.76,334.91,196.9Z"/><path class="cls-12" d="M197.19,82c0-9.52.05-19,0-28.55,0-2,.49-2.7,2.61-2.56a150.7,150.7,0,0,1,37.75,7.21c1.8.6,1.87,1.3,1.24,2.92q-10.48,27-20.79,54.11c-.54,1.43-1.09,1.94-2.73,1.42a64.81,64.81,0,0,0-15.65-3c-2.2-.14-2.43-1.13-2.42-2.95C197.22,101.06,197.19,91.54,197.19,82Z"/><path class="cls-13" d="M159.13,119.54c0,.91-.82,1-1.43,1.29a78.19,78.19,0,0,0-14.16,8.64c-1.24,1-1.91.63-2.83-.38Q121.1,107.5,101.41,86c-1.11-1.21-1.1-1.9.21-3a146.39,146.39,0,0,1,33-20.27c1.28-.57,2.19-.92,2.88.88q10.58,27.48,21.29,54.92C158.94,118.85,159,119.16,159.13,119.54Z"/><path class="cls-14" d="M328.23,238c-1,2.7-1.88,5.48-3,8.19a150.55,150.55,0,0,1-13.89,26.65c-1.26,1.9-2.17,2.34-4.14.85q-22.84-17.37-45.81-34.56c-1.35-1-1.61-1.83-.63-3.34A62.37,62.37,0,0,0,267.48,222c.66-1.91,1.67-2.27,3.54-1.73q27.51,8,55.06,16C327,236.47,328.31,236.31,328.23,238Z"/><path class="cls-14" d="M326.67,266.44a11.23,11.23,0,1,1,11.07,11.31A11.26,11.26,0,0,1,326.67,266.44Z"/><path class="cls-3" d="M30.07,219.84A11.12,11.12,0,1,1,41.2,208.62,11.16,11.16,0,0,1,30.07,219.84Z"/><path class="cls-6" d="M278.3,44.16A11.13,11.13,0,1,1,267,55.24,11.2,11.2,0,0,1,278.3,44.16Z"/><path class="cls-2" d="M122.29,345.83A11.1,11.1,0,1,1,133.39,357,11,11,0,0,1,122.29,345.83Z"/><path class="cls-6" d="M93.92,314.27a11.21,11.21,0,0,1-22.42.14,11.21,11.21,0,1,1,22.42-.14Z"/><path class="cls-8" d="M314.2,313a11.12,11.12,0,0,1-22.24.46A11.12,11.12,0,1,1,314.2,313Z"/><path class="cls-4" d="M192.7,345.73A11.13,11.13,0,1,1,181.54,357,11.29,11.29,0,0,1,192.7,345.73Z"/><path class="cls-12" d="M222.84,44.69a11.11,11.11,0,1,1,11.1-11.18A11.13,11.13,0,0,1,222.84,44.69Z"/><path class="cls-7" d="M62,107a11.14,11.14,0,1,1,11.31-11A11.26,11.26,0,0,1,62,107Z"/><path class="cls-13" d="M95.36,55.22a11.13,11.13,0,1,1,11.13,11.22A11.13,11.13,0,0,1,95.36,55.22Z"/><path class="cls-10" d="M264.39,345a11.14,11.14,0,1,1-11.26-11.15A11.27,11.27,0,0,1,264.39,345Z"/><path class="cls-4" d="M354.06,220.22a11.13,11.13,0,1,1,11.34-11A11.16,11.16,0,0,1,354.06,220.22Z"/><path class="cls-5" d="M47.08,148.6a11.09,11.09,0,1,1-22.19-.08,11.1,11.1,0,1,1,22.19.08Z"/><path class="cls-1" d="M57.6,266.24a11.19,11.19,0,0,1-22.38.13,11.19,11.19,0,0,1,22.38-.13Z"/><path class="cls-11" d="M337.78,148.94a11.06,11.06,0,1,1,11.14,11.16A11.07,11.07,0,0,1,337.78,148.94Z"/><path class="cls-7" d="M323.11,85.35a11.11,11.11,0,1,1,0,22.22,11.11,11.11,0,1,1,0-22.22Z"/><path class="cls-9" d="M172.76,33.46a11.06,11.06,0,1,1-11.2-11A11,11,0,0,1,172.76,33.46Z"/></svg>