<svg id="Layer_1" data-name="Layer 1" xmlns="http://www.w3.org/2000/svg" viewBox="0 0 76.08 123.83"><defs><style>.cls-1{fill:#fff;}</style></defs><path class="cls-1" d="M2.56,73.47a3,3,0,0,1,.14-.88,2.83,2.83,0,0,1,.42-.81,2.19,2.19,0,0,1,.66-.59A1.78,1.78,0,0,1,4.67,71a1.9,1.9,0,0,1,.79.17,1.83,1.83,0,0,1,.65.49,2.25,2.25,0,0,1,.44.79,3.13,3.13,0,0,1,.16,1,2.4,2.4,0,0,1-.11.71,1.6,1.6,0,0,1-.38.62,2.07,2.07,0,0,1-.65.44,2.55,2.55,0,0,1-1,.17,2.68,2.68,0,0,1-.83-.12,1.54,1.54,0,0,1-.65-.36,1.73,1.73,0,0,1-.41-.6A2.24,2.24,0,0,1,2.56,73.47Zm.7-4.2a.6.6,0,0,1,.17-.41.59.59,0,0,1,.42-.17.58.58,0,0,1,.41.17.6.6,0,0,1,.17.41.59.59,0,0,1-.17.42.58.58,0,0,1-.41.17.58.58,0,0,1-.59-.59Zm1.38,2.59a1.07,1.07,0,0,0-.51.12,1.41,1.41,0,0,0-.39.34,1.59,1.59,0,0,0-.26.48,1.57,1.57,0,0,0-.1.58,1.29,1.29,0,0,0,.1.51,1.06,1.06,0,0,0,.27.35,1.16,1.16,0,0,0,.4.2,2.42,2.42,0,0,0,.48.06,2.3,2.3,0,0,0,.45,0,1.22,1.22,0,0,0,.4-.18.85.85,0,0,0,.29-.33,1.11,1.11,0,0,0,.11-.52,1.83,1.83,0,0,0-.11-.64,1.64,1.64,0,0,0-.27-.49A1.11,1.11,0,0,0,5.1,72,1,1,0,0,0,4.64,71.86Zm.05-2.59a.6.6,0,0,1,.17-.41.57.57,0,0,1,.41-.17.58.58,0,0,1,.59.58.59.59,0,0,1-.17.42.61.61,0,0,1-.42.17.57.57,0,0,1-.41-.17A.59.59,0,0,1,4.69,69.27Z"/><path class="cls-1" d="M12.3,75.35a1.38,1.38,0,0,1-.76-.19,2,2,0,0,1-.62-.66,1.33,1.33,0,0,1-.31.47,1.27,1.27,0,0,1-.43.26,2,2,0,0,1-.5.1,4.7,4.7,0,0,1-.53,0H7.48v-.91h2a1.88,1.88,0,0,0,.71-.11.38.38,0,0,0,.25-.34.94.94,0,0,0-.11-.42c-.08-.14-.17-.29-.28-.45L8.86,71.4l.84-.53L11,73.05l.39.63a2.84,2.84,0,0,0,.31.43,1.53,1.53,0,0,0,.28.25.64.64,0,0,0,.3.08.39.39,0,0,1,.44.44.49.49,0,0,1-.11.37A.45.45,0,0,1,12.3,75.35Z"/><path class="cls-1" d="M12.29,75.35c-.29,0-.43-.14-.43-.44a.51.51,0,0,1,.1-.37.45.45,0,0,1,.33-.1h1.63a.39.39,0,0,1,.44.44.55.55,0,0,1-.1.37.48.48,0,0,1-.34.1Z"/><path class="cls-1" d="M13.92,75.35a.39.39,0,0,1-.44-.44.51.51,0,0,1,.11-.37.45.45,0,0,1,.33-.1h1.63a.39.39,0,0,1,.44.44.49.49,0,0,1-.11.37.45.45,0,0,1-.33.1Z"/><path class="cls-1" d="M15.55,75.35a.38.38,0,0,1-.44-.44.51.51,0,0,1,.1-.37.46.46,0,0,1,.34-.1h1.62a.39.39,0,0,1,.44.44.5.5,0,0,1-.1.37.46.46,0,0,1-.34.1Z"/><path class="cls-1" d="M17.17,75.35c-.29,0-.43-.14-.43-.44a.51.51,0,0,1,.1-.37.45.45,0,0,1,.33-.1H18.8a.39.39,0,0,1,.44.44.55.55,0,0,1-.1.37.49.49,0,0,1-.34.1Z"/><path class="cls-1" d="M18.8,75.35a.39.39,0,0,1-.44-.44.51.51,0,0,1,.11-.37.44.44,0,0,1,.33-.1h1.63a.39.39,0,0,1,.44.44.49.49,0,0,1-.11.37.45.45,0,0,1-.33.1Z"/><path class="cls-1" d="M20.43,75.35a.38.38,0,0,1-.44-.44.51.51,0,0,1,.1-.37.46.46,0,0,1,.34-.1h4.4a3.47,3.47,0,0,0-.18-1.19,2.2,2.2,0,0,0-.51-.78A1.92,1.92,0,0,0,23.4,72a3,3,0,0,0-.91-.14,4.06,4.06,0,0,0-.67.06,4.13,4.13,0,0,0-.59.13v-.87c.15,0,.34-.09.58-.15A3.91,3.91,0,0,1,22.6,71a3.43,3.43,0,0,1,1.42.27A2.85,2.85,0,0,1,25,72a3.1,3.1,0,0,1,.58,1.11,5.21,5.21,0,0,1,.2,1.33h.68a.39.39,0,0,1,.44.44.49.49,0,0,1-.11.37.45.45,0,0,1-.33.1Z"/><path class="cls-1" d="M26.47,75.35a.39.39,0,0,1-.44-.44.56.56,0,0,1,.1-.37.48.48,0,0,1,.34-.1h.74l.45,0a.71.71,0,0,0,.31-.11.47.47,0,0,0,.19-.24,1.23,1.23,0,0,0,.06-.43V71.12h.9v2.11a2.6,2.6,0,0,0,0,.5.86.86,0,0,0,.14.38.89.89,0,0,0,.3.24,1.09,1.09,0,0,0,.47.09.39.39,0,0,1,.44.44.5.5,0,0,1-.1.37.46.46,0,0,1-.34.1,1.15,1.15,0,0,1-.69-.2,1,1,0,0,1-.35-.51,1,1,0,0,1-.62.58,3.47,3.47,0,0,1-1,.13Zm.87-6.08a.56.56,0,0,1,.17-.41.58.58,0,0,1,.82,0,.56.56,0,0,1,.17.41.55.55,0,0,1-.17.42.58.58,0,0,1-.82,0A.55.55,0,0,1,27.34,69.27Zm1.43,0a.56.56,0,0,1,.17-.41.58.58,0,0,1,.82,0,.6.6,0,0,1,.17.41.59.59,0,0,1-.17.42.58.58,0,0,1-.82,0A.55.55,0,0,1,28.77,69.27Z"/><path class="cls-1" d="M36.82,75.35a1.47,1.47,0,0,1-.72-.16,1.15,1.15,0,0,1-.5-.56v0a1.59,1.59,0,0,1-.61.65,1.92,1.92,0,0,1-1,.24,3.22,3.22,0,0,1-1.05-.18,4.06,4.06,0,0,1-1.09-.59,1.43,1.43,0,0,1-.29.34.93.93,0,0,1-.31.19,1.87,1.87,0,0,1-.34.08h-.85a.39.39,0,0,1-.44-.44.49.49,0,0,1,.11-.37.45.45,0,0,1,.33-.1h.45l.28,0a1,1,0,0,0,.28-.15,1.39,1.39,0,0,0,.29-.3,2.3,2.3,0,0,0,.25-.52,5.6,5.6,0,0,1,.53-1.14,2.7,2.7,0,0,1,.58-.68,1.6,1.6,0,0,1,.59-.31,2.47,2.47,0,0,1,.6-.08,2,2,0,0,1,.77.16,1.93,1.93,0,0,1,.61.45,2.31,2.31,0,0,1,.41.7,2.79,2.79,0,0,1,.14.9v.15s0,.09,0,.13a1.16,1.16,0,0,0,.33.54,1,1,0,0,0,.66.18.39.39,0,0,1,.44.44.5.5,0,0,1-.1.37A.46.46,0,0,1,36.82,75.35Zm-1.88-1.94a1.59,1.59,0,0,0-.07-.48,1.39,1.39,0,0,0-.21-.4,1,1,0,0,0-.33-.28,1,1,0,0,0-.46-.11,1.17,1.17,0,0,0-.85.41A4,4,0,0,0,32.29,74a4.83,4.83,0,0,0,.81.42,2.14,2.14,0,0,0,.82.16,1,1,0,0,0,.74-.26A1.17,1.17,0,0,0,34.94,73.41Z"/><path class="cls-1" d="M36.83,75.35a.39.39,0,0,1-.44-.44.51.51,0,0,1,.11-.37.45.45,0,0,1,.33-.1h1.72V67.51h.9v7.84Z"/><path class="cls-1" d="M41.78,67.51v7.84h-.9V67.51Z"/><path class="cls-1" d="M50.48,75.35a1.47,1.47,0,0,1-.72-.16,1.2,1.2,0,0,1-.5-.56v0a1.59,1.59,0,0,1-.61.65,1.9,1.9,0,0,1-1,.24,3.1,3.1,0,0,1-1.06-.2,4.7,4.7,0,0,1-1.09-.62,1.73,1.73,0,0,0-.47.21.8.8,0,0,0-.25.32,1.56,1.56,0,0,0-.1.49c0,.19,0,.43,0,.71v3.34h-.93V76.38a9.05,9.05,0,0,1,.05-1,2.43,2.43,0,0,1,.21-.75,1.48,1.48,0,0,1,.44-.56,2.44,2.44,0,0,1,.76-.39,3.74,3.74,0,0,1,.41-1.2,3,3,0,0,1,.62-.76,2,2,0,0,1,.7-.4,2.09,2.09,0,0,1,.65-.12,1.91,1.91,0,0,1,.76.16,1.87,1.87,0,0,1,.62.45,2.1,2.1,0,0,1,.4.7,2.54,2.54,0,0,1,.15.9v.15a.57.57,0,0,0,0,.13,1.15,1.15,0,0,0,.32.54,1,1,0,0,0,.67.18.39.39,0,0,1,.44.44.5.5,0,0,1-.1.37A.48.48,0,0,1,50.48,75.35ZM48.6,73.41a1.59,1.59,0,0,0-.07-.48,1.39,1.39,0,0,0-.21-.4,1,1,0,0,0-.33-.28,1,1,0,0,0-.47-.11,1.31,1.31,0,0,0-.89.43A3.19,3.19,0,0,0,46,74a4.47,4.47,0,0,0,.81.42,2.14,2.14,0,0,0,.82.16,1,1,0,0,0,.74-.26A1.17,1.17,0,0,0,48.6,73.41Z"/><path class="cls-1" d="M50.49,75.35a.39.39,0,0,1-.44-.44.56.56,0,0,1,.1-.37.49.49,0,0,1,.34-.1h1.63a.39.39,0,0,1,.44.44.49.49,0,0,1-.11.37.45.45,0,0,1-.33.1Z"/><path class="cls-1" d="M52.12,75.35a.38.38,0,0,1-.44-.44.51.51,0,0,1,.1-.37.46.46,0,0,1,.34-.1h1.62a.39.39,0,0,1,.44.44.5.5,0,0,1-.1.37.46.46,0,0,1-.34.1Z"/><path class="cls-1" d="M53.74,75.35a.39.39,0,0,1-.44-.44.51.51,0,0,1,.11-.37.45.45,0,0,1,.33-.1h1.63a.39.39,0,0,1,.44.44.55.55,0,0,1-.1.37.48.48,0,0,1-.34.1Z"/><path class="cls-1" d="M55.37,75.35a.39.39,0,0,1-.44-.44.56.56,0,0,1,.1-.37.48.48,0,0,1,.34-.1H57a.39.39,0,0,1,.44.44.49.49,0,0,1-.11.37.45.45,0,0,1-.33.1Z"/><path class="cls-1" d="M57,75.35a.38.38,0,0,1-.44-.44.51.51,0,0,1,.1-.37.46.46,0,0,1,.34-.1h1.62a.39.39,0,0,1,.44.44.5.5,0,0,1-.1.37.46.46,0,0,1-.34.1Z"/><path class="cls-1" d="M58.61,75.35a.39.39,0,0,1-.44-.44.55.55,0,0,1,.1-.37.49.49,0,0,1,.34-.1h.45l.28,0a1,1,0,0,0,.28-.15,1.17,1.17,0,0,0,.28-.3,2.28,2.28,0,0,0,.26-.52,5.6,5.6,0,0,1,.53-1.14,2.7,2.7,0,0,1,.58-.68,1.6,1.6,0,0,1,.59-.31,2.47,2.47,0,0,1,.6-.08,1.88,1.88,0,0,1,.76.16,2,2,0,0,1,.62.45,2.29,2.29,0,0,1,.4.7,2.54,2.54,0,0,1,.15.9,2.31,2.31,0,0,1-.45,1.5,1.74,1.74,0,0,1-1.41.56,3.21,3.21,0,0,1-1-.18,4.06,4.06,0,0,1-1.09-.59,1.43,1.43,0,0,1-.29.34.93.93,0,0,1-.31.19,2.09,2.09,0,0,1-.34.08h-.85Zm4.88-1.94a1.59,1.59,0,0,0-.07-.48,1.39,1.39,0,0,0-.21-.4.93.93,0,0,0-.34-.28,1,1,0,0,0-.46-.11,1.13,1.13,0,0,0-.84.41A4,4,0,0,0,60.84,74a4.47,4.47,0,0,0,.81.42,2.14,2.14,0,0,0,.82.16,1.06,1.06,0,0,0,.74-.26A1.17,1.17,0,0,0,63.49,73.41Z"/><path class="cls-1" d="M71.51,67.51v7.84H65.27v-.91h2.47V69.11h.9v5.33h2V67.51ZM69,68.67H67v-.49h.49a1.09,1.09,0,0,1-.15-.56,1,1,0,0,1,.08-.43.93.93,0,0,1,.2-.3A1.08,1.08,0,0,1,68,66.7a1,1,0,0,1,.34-.06l.33,0a.42.42,0,0,1,.2.08v.5a1.23,1.23,0,0,0-.47-.09.47.47,0,0,0-.39.15.52.52,0,0,0-.12.34A.59.59,0,0,0,68,68a.58.58,0,0,0,.43.16H69Z"/><path class="cls-1" d="M73.84,67.51v7.84h-.9V67.51Z"/><g id="g4303"><g id="branches-olive"><path class="cls-1" d="M47.79,59.49a11.36,11.36,0,0,1-1.45,1.31c-3.24-3.35-7.05-7.06-10.67-7.06-2.25,0-3.86,1.71-5.75,2.91-2.61,1.67-6.2,2.62-9.28,1.39A10.13,10.13,0,0,1,16.19,55a9.69,9.69,0,0,0,8.78.76c3-1.25,6.09-2.92,9.53-2.92C39.58,52.82,44.4,56.26,47.79,59.49ZM10.28,49c3.36,3.82,8.84,2.59,13.32,3.55a5,5,0,0,0,1.88.23,10.54,10.54,0,0,0-1.85-.6c-3.48-1.32-4-5-5.93-7.6,2.43,1.61,4.45,3.83,6.72,5.91A11.24,11.24,0,0,0,30,52.92c-.5.18-1.14.14-1.67.27-3.67.91-7.75,2.35-11.66,1.06A11.48,11.48,0,0,1,10.28,49ZM4.89,40.09c2.1,4.75,7.36,5.12,10.87,8a10.13,10.13,0,0,0,2,1.41l0,0A15.3,15.3,0,0,1,15.54,47c-2-2.91-1.33-6.89-2.88-10a21.93,21.93,0,0,1,3.53,5.33c1.3,3.09,1.74,6.62,4.65,9-3.15-1-6.79-.83-9.63-2.69s-5.75-5-6.32-8.53Zm-2.24-9.6c.3,4.18,4.75,6.42,6.87,9.85a9.2,9.2,0,0,0,1.58,2.09,7.48,7.48,0,0,0-.67-1.28,9.58,9.58,0,0,1-.82-4.93c.21-2.14,1.1-4.12.76-6.37C12.2,33.8,11.61,38.74,12.66,43a21.68,21.68,0,0,0,1.17,2.66C12,44.31,9.67,43.09,7.7,41.54A13.11,13.11,0,0,1,3.28,36a13.07,13.07,0,0,1-.63-5.49Zm.12-7.7A13.37,13.37,0,0,1,3.56,20C2.79,24,5.41,26.83,6.31,30.24a25.52,25.52,0,0,0,1,3.85s.09,0,.12-.06c-1.29-3.63.6-7,2.45-9.85a8.36,8.36,0,0,0,1-2.51,18.79,18.79,0,0,1-.45,5.24c-.4,2.18-1.14,4.23-1.74,6.34a10,10,0,0,0-.08,4.18l-.19-.15C7,34.74,4.25,32.75,3.43,30a15.69,15.69,0,0,1-.66-7.19Zm1.45-4.24a12.1,12.1,0,0,1,2.91-7.64s.09-.08.15-.07c-1.92,2.92-.17,6.61-.42,9.92l-.25,3.4s0,.12.12.08A9.28,9.28,0,0,0,7,23.07c.46-2.74,2.87-4.65,4.91-6.58a4.45,4.45,0,0,0,1.06-1.58,12.69,12.69,0,0,1-1.16,4c-1.57,3.18-4.61,5.75-5.15,9.36C6.34,24.81,4.22,22.24,4.22,18.55ZM9.28,8.48a6.9,6.9,0,0,1,3.33-2.23C10.11,8,10.25,11,9.48,13.61c-.28.94-.69,1.82-.9,2.79l.06.05a8.18,8.18,0,0,1,2.06-3c1.76-1.66,4.4-2.66,5.27-5.09,0,3.37-2.91,5.94-5.54,7.92a9.48,9.48,0,0,0-2.79,3.34A12.81,12.81,0,0,0,7.71,17C7.44,14,7.26,10.72,9.28,8.48ZM19.43,2.81c-1.86,1.63-3.09,3.73-4.52,5.61C13.72,10,12.1,11,10.7,12.27c.75-1.56.89-3.36,1.85-4.88C14.19,4.8,16.9,3.8,19.43,2.81Z"/></g><g id="branches-olive-2" data-name="branches-olive"><path class="cls-1" d="M28.61,59.49a12.08,12.08,0,0,0,1.45,1.31c3.24-3.35,7.05-7.06,10.67-7.06,2.24,0,3.86,1.71,5.75,2.91,2.61,1.67,6.2,2.62,9.28,1.39A10.13,10.13,0,0,0,60.21,55a9.69,9.69,0,0,1-8.78.76c-3-1.25-6.09-2.92-9.53-2.92C36.82,52.82,32,56.26,28.61,59.49ZM66.12,49c-3.36,3.82-8.84,2.59-13.32,3.55a5,5,0,0,1-1.88.23,10.28,10.28,0,0,1,1.85-.6c3.48-1.32,4-5,5.93-7.6-2.43,1.61-4.45,3.83-6.73,5.91a11.17,11.17,0,0,1-5.6,2.48c.5.18,1.14.14,1.67.27,3.67.91,7.75,2.35,11.66,1.06A11.48,11.48,0,0,0,66.12,49Zm5.39-8.86c-2.1,4.75-7.36,5.12-10.86,8a10.48,10.48,0,0,1-2.06,1.41l0,0A15.3,15.3,0,0,0,60.86,47c2-2.91,1.33-6.89,2.88-10a21.64,21.64,0,0,0-3.53,5.33c-1.3,3.09-1.74,6.62-4.65,9,3.15-1,6.79-.83,9.63-2.69s5.75-5,6.32-8.53Zm2.24-9.6c-.3,4.18-4.75,6.42-6.87,9.85a9.2,9.2,0,0,1-1.58,2.09A7.48,7.48,0,0,1,66,41.15a9.58,9.58,0,0,0,.82-4.93c-.21-2.14-1.1-4.12-.76-6.37C64.2,33.8,64.8,38.74,63.74,43a21.68,21.68,0,0,1-1.17,2.66c1.8-1.36,4.16-2.58,6.13-4.13A13.11,13.11,0,0,0,73.12,36a13.07,13.07,0,0,0,.63-5.49Zm-.12-7.7A13.37,13.37,0,0,0,72.84,20c.77,3.94-1.85,6.79-2.75,10.2a25.52,25.52,0,0,1-1,3.85c-.05,0-.09,0-.12-.06,1.29-3.63-.6-7-2.45-9.85a8.36,8.36,0,0,1-1-2.51,18.43,18.43,0,0,0,.46,5.24,65.18,65.18,0,0,0,1.73,6.34,9.8,9.8,0,0,1,.08,4.18l.19-.15c1.38-2.54,4.09-4.53,4.91-7.3a15.69,15.69,0,0,0,.66-7.19Zm-1.45-4.24a12,12,0,0,0-2.91-7.64s-.08-.08-.15-.07c1.92,2.92.17,6.61.42,9.92l.25,3.4s0,.12-.12.08a9.28,9.28,0,0,1-.22-1.17c-.46-2.74-2.87-4.65-4.91-6.58a4.45,4.45,0,0,1-1.06-1.58,12.69,12.69,0,0,0,1.16,4c1.57,3.18,4.61,5.75,5.15,9.36C70.06,24.81,72.18,22.24,72.18,18.55ZM67.12,8.48a6.9,6.9,0,0,0-3.33-2.23C66.28,8,66.15,11,66.92,13.61c.28.94.69,1.82.91,2.79l-.07.05a8.18,8.18,0,0,0-2.06-3c-1.76-1.66-4.4-2.66-5.27-5.09,0,3.37,2.91,5.94,5.54,7.92a9.48,9.48,0,0,1,2.79,3.34A12.81,12.81,0,0,1,68.69,17c.27-2.95.45-6.25-1.57-8.49ZM57,2.81a34.73,34.73,0,0,1,4.52,5.61C62.68,10,64.3,11,65.7,12.27c-.75-1.56-.89-3.36-1.85-4.88C62.21,4.8,59.5,3.8,57,2.81Z"/></g></g><path id="path51" class="cls-1" d="M60.86,36.52l-.55-.3a24.67,24.67,0,0,1-4.54,6.47l-3.2-3.2a20.07,20.07,0,0,0,3.76-5.44l-.54-.3a19.3,19.3,0,0,1-3.66,5.3l-2.9-2.9a15.17,15.17,0,0,0,3-4.37l-.54-.29a14.83,14.83,0,0,1-2.84,4.23l-3.21-3.21a9.93,9.93,0,0,0,2-3.21L47.1,29a9.53,9.53,0,0,1-1.94,3.07l-2.91-2.91a5.38,5.38,0,0,0,1.38-3.33h4.12A9.53,9.53,0,0,1,47.1,29l.54.29a10.08,10.08,0,0,0,.72-3.46H52.9a14.81,14.81,0,0,1-1.26,5.65l.54.29a15.32,15.32,0,0,0,1.32-5.94h4.11a19.2,19.2,0,0,1-1.82,7.91l.54.3a19.8,19.8,0,0,0,1.89-8.21h4.54a24.38,24.38,0,0,1-2.45,10.38l.55.3a25.27,25.27,0,0,0,.68-20.42l-.56.24a24.52,24.52,0,0,1,1.78,8.9H58.22a20,20,0,0,0-1.41-7.1l-.56.24a19.1,19.1,0,0,1,1.36,6.86H53.5a15.17,15.17,0,0,0-1-5.24l-.56.24a14.78,14.78,0,0,1,1,5H48.36A10.51,10.51,0,0,0,47.74,22l-.56.24a9.27,9.27,0,0,1,.57,3H43.63a5.43,5.43,0,0,0-1.38-3.33L45.17,19a9.74,9.74,0,0,1,2,3.27l.56-.24a10.32,10.32,0,0,0-2.14-3.46l3.2-3.21a14.6,14.6,0,0,1,3.11,4.88l.56-.24a15.08,15.08,0,0,0-3.24-5.07L52.14,12a19.32,19.32,0,0,1,4.11,6.35l.56-.24a20.07,20.07,0,0,0-4.24-6.54l3.21-3.21a24.37,24.37,0,0,1,5.2,8l.56-.24A25.24,25.24,0,0,0,47.6,2.18l-.22.57a24.49,24.49,0,0,1,8,5.21l-3.21,3.21A20.12,20.12,0,0,0,45.72,7l-.22.57a19.37,19.37,0,0,1,6.21,4.05l-2.9,2.91A15.55,15.55,0,0,0,44,11.37l-.22.57a14.79,14.79,0,0,1,4.6,3l-3.21,3.21a10.19,10.19,0,0,0-3.05-2l-.23.56a9.44,9.44,0,0,1,2.85,1.85l-2.91,2.91a5.43,5.43,0,0,0-3.33-1.38V16a9.28,9.28,0,0,1,3.39.73l.23-.56a10.12,10.12,0,0,0-3.62-.78V10.85a14.52,14.52,0,0,1,5.28,1.09l.22-.57a15.48,15.48,0,0,0-5.5-1.13V6.13a19.26,19.26,0,0,1,7,1.42L45.72,7A20,20,0,0,0,38.5,5.52V1a24.44,24.44,0,0,1,8.88,1.76l.22-.57A25.18,25.18,0,0,0,26.94,3l.27.53A24.4,24.4,0,0,1,37.89,1V5.52A20.05,20.05,0,0,0,29.32,7.6l.28.53a19.28,19.28,0,0,1,8.29-2v4.11a15.33,15.33,0,0,0-6.38,1.54l.27.53a14.68,14.68,0,0,1,6.11-1.46v4.54a10.13,10.13,0,0,0-4,.95l.28.53A9.49,9.49,0,0,1,37.89,16v4.12a5.44,5.44,0,0,0-1.8.42l.27.53a5,5,0,0,1,1.84-.36,4.83,4.83,0,1,1-3.43,1.42,5,5,0,0,1,1.59-1.06l-.27-.53a5.44,5.44,0,0,0-1.52,1l-2.91-2.91a9.62,9.62,0,0,1,2.51-1.71l-.28-.53a10.1,10.1,0,0,0-2.66,1.81L28,14.94a14.83,14.83,0,0,1,3.76-2.63l-.27-.53a15.34,15.34,0,0,0-3.91,2.73L24.68,11.6A19.43,19.43,0,0,1,29.6,8.13l-.28-.53a20.08,20.08,0,0,0-5.06,3.58L21,8a24.64,24.64,0,0,1,6.17-4.39L26.94,3a25.31,25.31,0,0,0-11.33,11.4l.53.28a24.46,24.46,0,0,1,4.48-6.33l3.21,3.22a20.37,20.37,0,0,0-3.69,5.28l.53.28A19.64,19.64,0,0,1,24.25,12l2.92,2.91a15.3,15.3,0,0,0-2.87,4.19l.53.29a14.55,14.55,0,0,1,2.76-4.05l3.21,3.21a10.09,10.09,0,0,0-2,3l.53.28A9.57,9.57,0,0,1,31.23,19l2.91,2.92a5.41,5.41,0,0,0-1.38,3.32H28.65a9.42,9.42,0,0,1,.72-3.37l-.53-.28a9.87,9.87,0,0,0-.8,3.65H23.5a14.62,14.62,0,0,1,1.33-5.82l-.53-.29a15.42,15.42,0,0,0-1.41,6.11H18.78a19.31,19.31,0,0,1,1.89-8.07l-.53-.28a19.79,19.79,0,0,0-2,8.35H13.64a24.41,24.41,0,0,1,2.5-10.52l-.53-.28A25.13,25.13,0,0,0,14,32.64l.59-.15a24.52,24.52,0,0,1-1-6.64h4.54A20,20,0,0,0,19,31.38l.59-.15a19.7,19.7,0,0,1-.84-5.38h4.11a15.28,15.28,0,0,0,.73,4.38l.59-.15a14.65,14.65,0,0,1-.71-4.23H28A10.26,10.26,0,0,0,28.62,29l.59-.15a9.59,9.59,0,0,1-.56-3h4.11a5.38,5.38,0,0,0,1.38,3.32l-2.91,2.91a9.48,9.48,0,0,1-2-3.26l-.59.15a10.11,10.11,0,0,0,2.18,3.54l-3.21,3.21a14.65,14.65,0,0,1-3.38-5.64l-.59.15a15.11,15.11,0,0,0,3.54,5.92l-2.9,2.91a19.16,19.16,0,0,1-4.63-7.83l-.59.15a19.76,19.76,0,0,0,4.79,8.11L20.62,42.7a24.51,24.51,0,0,1-6-10.21l-.59.15a25.27,25.27,0,0,0,13.3,15.63l.3-.53a24.8,24.8,0,0,1-6.59-4.61l3.21-3.21a19.94,19.94,0,0,0,5.62,3.85l.3-.53a19.59,19.59,0,0,1-5.5-3.75l2.91-2.91a15.31,15.31,0,0,0,4.62,3.06l.3-.53a14.57,14.57,0,0,1-4.49-3L31.23,33a10.14,10.14,0,0,0,3.54,2.17l.3-.54a9.43,9.43,0,0,1-3.41-2.06l2.91-2.92A5.43,5.43,0,0,0,37.9,31V35.1a9.58,9.58,0,0,1-2.83-.52l-.3.54a10.22,10.22,0,0,0,3.13.59v4.54a14.69,14.69,0,0,1-5.39-1.14l-.3.53a15.22,15.22,0,0,0,5.69,1.21V45a19.29,19.29,0,0,1-7.72-1.72l-.3.53a19.91,19.91,0,0,0,8,1.8v4.54a24.49,24.49,0,0,1-10.25-2.37l-.31.53A25.27,25.27,0,0,0,49.54,48l-.28-.56A24.46,24.46,0,0,1,38.5,50.11V45.57a20,20,0,0,0,8.68-2.12l-.28-.55A19.26,19.26,0,0,1,38.5,45V40.85A15.18,15.18,0,0,0,45,39.26l-.28-.55a14.7,14.7,0,0,1-6.24,1.54V35.71a10.17,10.17,0,0,0,4.16-1l-.28-.54a9.53,9.53,0,0,1-3.88,1V31a5.43,5.43,0,0,0,3.33-1.38l2.91,2.91a9.38,9.38,0,0,1-2.36,1.63l.28.54A10.13,10.13,0,0,0,45.17,33l3.2,3.2a14.71,14.71,0,0,1-3.63,2.56l.28.55a15.45,15.45,0,0,0,3.79-2.68l2.9,2.91A19.89,19.89,0,0,1,46.9,42.9l.28.55a20.13,20.13,0,0,0,5-3.53l3.2,3.2a24.8,24.8,0,0,1-6.08,4.35l.28.56a25.29,25.29,0,0,0,11.32-11.5Z"/><polygon id="polygon59" class="cls-1" points="39.49 19.72 39.49 19.9 39.65 19.9 39.64 19.71 39.49 19.72"/><rect id="rect61" class="cls-1" x="39.26" y="19.47" width="0.21" height="0.15"/><polygon id="polygon63" class="cls-1" points="39.08 19.45 39.1 19.29 38.92 19.27 38.9 19.42 39.08 19.45"/><polygon id="rect65" class="cls-1" points="38.75 19.37 38.57 19.34 38.59 19.19 38.77 19.21 38.75 19.37"/><rect id="rect67" class="cls-1" x="37.28" y="19.16" width="0.2" height="0.16"/><polygon id="polygon69" class="cls-1" points="37.02 19.5 37.04 19.34 36.86 19.32 36.84 19.47 37.02 19.5"/><polygon id="rect71" class="cls-1" points="36.86 19.7 36.66 19.65 36.69 19.5 36.9 19.56 36.86 19.7"/><polygon id="rect73" class="cls-1" points="36.5 19.9 36.47 19.74 36.62 19.71 36.65 19.87 36.5 19.9"/><polygon id="polygon75" class="cls-1" points="16.49 35.45 16.36 35.45 16.36 35.71 16.56 35.71 16.56 36.04 16.71 36.04 16.69 35.66 16.49 35.58 16.49 35.45"/><polygon id="polygon77" class="cls-1" points="17.91 37.33 17.81 37.1 17.63 36.64 18.01 36.81 18.14 37.18 18.32 37.31 18.49 37.69 18.39 37.87 18.11 37.62 17.91 37.33"/><polygon id="polygon79" class="cls-1" points="23.62 44.55 23.42 44.24 23.72 44.29 24.05 44.58 24.18 44.91 24 45.01 23.9 44.86 23.65 44.78 23.62 44.55"/><path id="path81" class="cls-1" d="M37.41,21.38h-.28l-.05-.57.15-.1v-.29h-.89l0-.28.13-.08L36.24,20l-.15.2-.05.23-.26.06v.13h-.17v.33l-.71.59-1.42-.05c-.11.23-.36,0-.36,0,0-.16-.41,0-.41,0,0,.28-.48-.13-.48-.13l-.89-.65c-.51-.46-1.27.13-1.29.26,0,.36-.59.08-.59.08s-.51-.16-.58.05-.41.16-.41.16l0,.1-.25.05-.05.15-.31.06.76,0c.21,0-.07.44-.2.41L28,22l-.12.13h-.33l-.15.2-.49,0s-.28.23-.25.31-.05.31-.13.31-.23.23-.18.31-.15.33-.15.33l-.05.26-.15.05v.69l-.31.21v.31l-.45.49.05.41-.38.42,0,.41-.23.07,0,.19-.1.54.25,0c.13-.05.1.34,0,.39s-.38.15-.23.26-.4.07-.4-.08-.31-.28-.38-.23-.21-.24-.21-.24c-.28-.28-1.14,0-1.14,0l-.13.41c-.28.05-.45.52-.45.52-.23.08-.41.36-.34.44s-.12.1-.12.1v.57l-.13.18,0,.62c.15,0,.12.28.12.28-.25,0-.2.36-.2.36l-.53.18-.1.16-.66,0-.18.18-.18-.18H18.34l-.05-.13L18,31.38l0-.28-.38,0-.08.15-.4,0c0,.26-.41.65-.46.54s-.33-.38-.2-.44a3,3,0,0,1,.45-.1v-.18l-.94,0-.1.15-.38,0v.42l-.18,0c-.12.08,0,.36,0,.36.18.18,0,.46,0,.46-.15.16.13.44.13.44.2,0-.13.21-.13.21a.44.44,0,0,0,.21.33.26.26,0,0,0,.1.39l0,.44.18.1v.29l.1.17h.41l0-.64c-.35-.41.31-.51.33-.36s.31.23.31.23c.05.39.48.62.61.23s.23-.15.3,0a3.7,3.7,0,0,0,.56.62h.38l.06.36c.43,0,.55,0,.73.62a1.14,1.14,0,0,0,.66.75l.36,0c0-.31.35,0,.35.21s.69.74.69.74l.68.16.64.51.48,0h.2c.13-.44.74,0,.79.18s.46.41.51.29.33-.06.38.33.23.31.23.31l1.44,0,.51-.43,1.3,0c.66,0,.25-.93.12-.93-.22-.18.08-.93.08-.93l-1.85-1.72c-.43,0-.05-.62-.05-.62.33-.21-.08-.54-.08-.54a1.16,1.16,0,0,0-.18-.67.93.93,0,0,1-.33-.9V32.2c-.38-.36.15-.41.15-.41a.42.42,0,0,0-.12-.54l0-.34-.4-.05-.05-1.21-.92-1.31c-.18-.05-.05-.36-.05-.36.23-.13-.05-.44-.05-.44L25,27l.54,0,.12-.21H26l0-.67a.28.28,0,0,1,.43-.15l.36,0,.2-.39,0-.31-.28,0c-.3-.18-.15-.85-.15-.85.48-.72,1-.31,1-.31l.36,0c.53.36,0,1,0,1a1.53,1.53,0,0,0,0,.64l.13.83-.34.28c-.27.16-.27.52,0,.59s.13.52-.18.18c-.45,0,.26.42.05.31.46.23.36-.2.36-.2l.61-.49c.23-.18.63.38.63.46a4.36,4.36,0,0,0,1,0,1.16,1.16,0,0,1,.38.64c.28-.36.86,0,.43.18.41.26.41.49.41.49.33-.1.33.15.33.23a2.48,2.48,0,0,0,.1-.38c-.38-.29.51-.39.25.13l-.15.23.25.2,0,.6c.56,0,.41-.75.41-.75l.25,0c0-.23.18-.11.18-.11-.18-.87.4-1,.4-1,.33-.07.36-.77.36-.77-.23-.1-.1-.46.15-.15s-.15-.62-.15-.62l-.2-.18-.28,0,0-.28h-.45l-.08.36-.18.05,0-.1-.07.28h-.46l0-.31.28-.08.1-.15.08-.41h.33l.43-.13c0-.44.26-.34.26-.34l.15.13.23.18,0,.16-.15.07,0,.21.08.28H34a.43.43,0,0,1,.77-.15l.15-.36c-.36-.18,0-.46.09-.34s.34-.33.34-.33.18.23,0-.08a.31.31,0,0,1,.12-.46c0-.31.34-.26.34-.26l0-.41-.36,0c-.07.36-.37.05-.22,0a1.41,1.41,0,0,0,.3-.24v-.25l.16-.05,0-.26h.38l.33-.16.08-.13.35,0,.51-.47,0-.2c-.3,0,0-.23,0-.23l0-.39Z"/><path id="path83" class="cls-1" d="M27.18,26.48l-.46-.05,0,.18h.12a2.59,2.59,0,0,1,0,1.24s-.31,0-.36-.13-.18.33-.07.41.45,0,.48.29.23-.19.23-.19V26.48Z"/><polygon id="polygon85" class="cls-1" points="26.97 28.72 26.72 28.57 26.72 29.19 27.13 29.73 27.28 29.37 27.33 29.14 27.15 29.06 27.18 28.67 27.33 28.64 27.35 28.47 26.97 28.72"/><polygon id="polygon87" class="cls-1" points="27.38 30.04 27.2 30.07 27.18 30.27 27.38 30.3 27.38 30.04"/><polygon id="polygon89" class="cls-1" points="27.15 31.35 26.94 31.38 26.94 31.56 27.15 31.53 27.15 31.35"/><path id="path91" class="cls-1" d="M27.45,30.74a.11.11,0,1,0-.11-.11A.11.11,0,0,0,27.45,30.74Z"/><path id="circle93" class="cls-1" d="M27.63,31.06a.11.11,0,0,1,0,.22.11.11,0,1,1,0-.22Z"/><path id="circle95" class="cls-1" d="M27.63,28.12a.11.11,0,0,1,0,.22.11.11,0,0,1,0-.22Z"/><polygon id="polygon97" class="cls-1" points="35.96 25.92 36.02 25.61 36.03 25.38 36.14 25.22 36.45 25.09 36.45 24.6 36.29 24.6 36.27 24.42 35.99 24.39 35.94 24.52 35.81 24.52 35.78 24.73 35.94 24.73 35.96 24.89 35.86 24.99 35.81 25.11 35.61 25.17 35.15 25.61 35.13 25.81 35 25.99 34.85 26.38 34.31 26.41 34.21 26.87 34.29 27.25 34.74 27.44 34.8 27.18 34.95 27.1 34.97 26.84 35.08 26.66 35.23 26.48 35.28 26.28 35.53 26.12 35.84 26.07 35.96 25.92"/><path id="path99" class="cls-1" d="M37,26.17v-.36l0-.33-.38-.18-.28.26-.06.36v.23L36,26.2l-.05.69-.2.08,0,.26-.28.08-.27.07,0,.34-.21.13-.1.31-.13.74s.23.44.36.24a.51.51,0,0,1,.33-.24l.07-.18.69,0c0-.28.38-.18.38-.05s.26,0,.26,0l.17-.28h.28l0-.31.12-.07v-.47a.48.48,0,0,0,.36-.51l.1-.13-.05-.18c-.2-.08-.1-.26,0-.21s-.18-.23-.18-.23-.28-.16-.28-.16Z"/><path id="path101" class="cls-1" d="M37.38,29.29c0,.31-.4.41-.4.41l-.28-.07-.15-.13,0-.36.23,0,0,.15.58,0Z"/><path id="path103" class="cls-1" d="M38.76,27.64c.05.23.05-.36.15-.33s0-.36,0-.36l-.45.33c.23,0,.25.26.28.36Z"/><path id="path105" class="cls-1" d="M40.1,26.3c.1.23.08.57.46.83.13.08-.08.25-.2.18a3.91,3.91,0,0,1-.49-.65v-.33c.08-.21.19-.13.23,0Z"/><polygon id="polygon107" class="cls-1" points="40.28 34.01 40.1 34.14 40.18 34.21 40.25 34.34 40.43 34.06 40.28 34.01"/><polygon id="polygon111" class="cls-1" points="43.34 33.22 43.26 33.09 43.06 33.22 43.14 33.35 43.34 33.22"/><path id="path113" class="cls-1" d="M50.49,38.72l.23.11,0,.43c.31.31,1.3.06,1.3,0s0-1,0-1l-.13-.13,0-.65c.11-.33-.48-.82-.53-.72s-.38,0-.38.13-.2.62-.1.8-.08.18-.1.36-.28.49-.23.64Z"/><path id="path115" class="cls-1" d="M49.93,37.69c0,.2-.23.31-.33.23s.13.13.18.24a.14.14,0,0,0,.25,0c0-.11,0-.34.08-.44s-.15-.13-.18,0Z"/><rect id="rect117" class="cls-1" x="48.75" y="32.97" width="0.18" height="0.49"/><path id="path119" class="cls-1" d="M51.38,28c-.11-.15.51-.41.61-.1s0,.26-.1.23-.36.08-.51-.13Z"/><polygon id="polygon123" class="cls-1" points="51.9 24.7 52.17 24.75 52.2 24.6 51.92 24.55 51.9 24.7"/><polygon id="polygon125" class="cls-1" points="51.23 25.04 51.37 24.98 51.32 24.86 51.29 24.77 51.21 24.82 51.02 24.92 50.86 24.82 50.78 24.95 50.98 25.08 51.02 25.1 51.06 25.08 51.21 24.99 51.23 25.04"/><path id="path127" class="cls-1" d="M52.16,18.72h-.38s.13.06-.23-.28a.35.35,0,0,0-.58.08l-.41.05V19l-.2.08,0,.26.28,0s0,.31.07.18.71,0,.66.34c0,.12.64.46.56.87a.31.31,0,0,1,.25.39l.44.05.12-.26.13,0v-.15l-.28-.08,0-.83-.18-.12,0-.21-.2-.08.1-.33-.18-.37Z"/><path id="path129" class="cls-1" d="M53.28,21.35l-.2,0-.46.08-.25.49a.68.68,0,0,1,.22.25c.11.18.16,1.24-.15,1.42s0,.08,0,.08l0,.56c.07.26.2.13.28,0s.15-.15.25-.28a1.46,1.46,0,0,0,.28-.54c0-.18.15-.46.08-.54s.07-.44.07-.44a.51.51,0,0,0,0-.41.57.57,0,0,1,.1-.54l-.2-.11Z"/><polygon id="rect133" class="cls-1" points="53.59 22.41 53.61 22.2 53.77 22.22 53.74 22.43 53.59 22.41"/><polygon id="rect135" class="cls-1" points="53.58 23.12 53.44 23.05 53.52 22.89 53.65 22.96 53.58 23.12"/><path id="path137" class="cls-1" d="M53.36,21.07l-.1-.23a.93.93,0,0,1,.05-.31c0-.1-.11-.21-.18-.23s-.05-.23-.08-.34-.2-.18-.2-.18-.05-.38-.05-.46-.23-.18-.15-.26a1.14,1.14,0,0,1,.2-.23c.07,0-.08-.41,0-.34s.13.21.18.31,0,.47.1.55,0,.33.18.33.07.49.07.49,0,.36.08.38.05.65.05.65l-.2-.13Z"/><path id="path139" class="cls-1" d="M51.71,16.89c.07.11.23.19.23.29s0,.18.1.2.25,0,.3.11a1,1,0,0,1,0,.44c0,.1,0,.25.15.25s.15,0,.15.11.15-.29.15-.29a1.1,1.1,0,0,1-.22-.33,3.6,3.6,0,0,1-.13-.42c0-.05-.18-.1-.26-.12s-.2-.26-.2-.26l-.3,0Z"/><path id="path141" class="cls-1" d="M52,16.66a.77.77,0,0,0-.25-.23.63.63,0,0,0-.28-.1.17.17,0,0,1-.16-.23c.06-.13-.07-.18-.07-.29s.07-.1.2,0,.1.1.21.23.15.26.25.23.18.23.28.16.07.18.07.18l-.25.07Z"/><path id="path143" class="cls-1" d="M49,19.58c.14.14-.76.1-.76,0s.08-.47.3-.39.26-.47.26-.47-.21,0,0-.07,0-.26-.08-.34a2.34,2.34,0,0,1-.15-.2h.36c.15-.11.2-.6.2-.6a.39.39,0,0,0,.46-.1.94.94,0,0,0,.15.28c.1.13-.25.18-.13.26a.36.36,0,0,1,.13.39c-.05.07-.33,0-.33-.08s-.1.13,0,.26-.13.31-.18.31-.38.05-.1.2a.87.87,0,0,0,.59.08s.22,0,.3.11,0,.15-.15.15l-.74-.05s-.18.18-.1.26Z"/><path id="path145" class="cls-1" d="M47.36,19.81c.13,0,.44,0,.49,0s-.18.18-.18.18l-.31,0c-.1-.12-.12-.23,0-.25Z"/><path id="path147" class="cls-1" d="M50.64,17.64c.2-.1.64-.1.61-.26s.25-.2.25-.2l.08.31.23.15,0,.29s.08-.06-.2,0-.1.21-.1.21l-.61,0-.08-.25-.2-.29Z"/><path id="path149" class="cls-1" d="M49.65,16.25c.15,0,0,.59.35.54s0,.18.34.21.22-.23.33-.41,0-.29-.13-.34-.18-.05-.23-.26a.36.36,0,0,0-.25-.25L50,15.43l-.33.2-.33.44c0,.34.18.18.33.18Z"/><rect id="rect153" class="cls-1" x="50.34" y="18.31" width="0.17" height="0.15" transform="translate(11.44 55.27) rotate(-63.44)"/><rect id="rect155" class="cls-1" x="50.06" y="18.18" width="0.15" height="0.18"/><polygon id="rect157" class="cls-1" points="50.18 14.75 50.21 14.98 50.06 15 50.03 14.77 50.18 14.75"/><rect id="rect159" class="cls-1" x="49.75" y="17.15" width="0.15" height="0.13"/><rect id="rect161" class="cls-1" x="49.34" y="16.98" width="0.25" height="0.15" transform="translate(-1.41 4.84) rotate(-5.52)"/><polygon id="rect163" class="cls-1" points="47.26 19.63 47.12 19.57 47.19 19.39 47.33 19.45 47.26 19.63"/><rect id="rect165" class="cls-1" x="46.45" y="18.99" width="0.25" height="0.15" transform="translate(-1.62 4.56) rotate(-5.51)"/><polygon id="polygon169" class="cls-1" points="41.49 19.14 41.5 19.29 42.06 19.27 42.05 19.11 41.49 19.14"/><polygon id="rect171" class="cls-1" points="41.12 19.34 41.07 19.11 41.22 19.07 41.27 19.3 41.12 19.34"/><rect id="rect173" class="cls-1" x="40.99" y="19.33" width="0.08" height="0.15" transform="translate(-4.03 13.99) rotate(-18.46)"/><path id="path175" class="cls-1" d="M42.28,19.06l0,.18.28,0s.12.1.12.18.18.15.29.15a1.3,1.3,0,0,0,.38-.2s.12-.37,0-.34-.3.18-.33,0-.33-.08-.33-.08l-.41,0Z"/><path id="path177" class="cls-1" d="M43.55,18.78c0,.07,0,.18.11.2s.43-.1.45.05,0,.26.23.34a1.21,1.21,0,0,0,.48.1,4.69,4.69,0,0,0,.49,0,1.42,1.42,0,0,1,.43.13c.28.28.46.36.53.23s0-.41-.05-.51-.38-.6-.51-.49-.15,0-.38.07-.71,0-.73-.07-.39-.16-.39-.26-.25-.23-.22-.08-.18.23-.23.18-.21.16-.21.16Z"/><path id="path179" class="cls-1" d="M49.4,15.48l.17-.57c-.25-.05-.2-.34-.2-.34,0-.23-.38-.48-.51-.41s-.07-.54-.07-.54.23-.15.33-.08-.87-1.28-1.07-1.15-.66-.13-.63-.37-.92-1-.92-1-.3-.21-.35,0-.16.26,0,.33.12-.13.3,0,.51.42.38.57a.82.82,0,0,1-.28.21l.18.2H47l.05.44s.31.16.38.34.08.28,0,.38-.23.29-.2.47.23.25.23.25l.2,0,.15.08v.33c.2-.05.54.23.51.42s.05.07.31.25.17.21.35.34.33.05.41-.18Z"/><path id="path181" class="cls-1" d="M45.2,12c0-.1-.07-.46.08-.44s0,0,.23.08.2-.13.2-.13H46l.36.29L46.3,12,46,12c-.12-.2-.38-.12-.33.05a.6.6,0,0,1-.22.55c-.11,0-.44,0-.41-.13s.12-.52.12-.52Z"/><path id="path183" class="cls-1" d="M45,11.28v-.21s0-.2-.15-.2-.36-.16-.3-.26-.44-.21-.44-.21-.43-.41-.28-.36.08-.18.08-.18a1.39,1.39,0,0,1-.38,0c-.08,0-.05-.25-.05-.25s-.31-.08-.31,0,.11.07.16.23,0,.41.25.46.28.1.31.21.3.13.3.13l.2.1.61.52Z"/><polygon id="polygon185" class="cls-1" points="42.19 8.44 41.98 8.39 41.98 8.62 42.26 8.65 42.19 8.44"/><path id="path187" class="cls-1" d="M42.18,7.57c-.26-.21.36.15.36.15a.32.32,0,0,1,.33.23c0,.08.28,0,.28,0l0-.18L43,7.57l-.18-.13s-.28,0-.28-.1-.22.3-.33.23Z"/><path id="path189" class="cls-1" d="M46.85,7.72c-.07.22-.1.54-.22.54s-.08.34-.08.34a3.91,3.91,0,0,1,.43,0c.1,0,.1.29.1.29.39,0,.54.49.49.61s.15.13.15.13a2.26,2.26,0,0,1,0,.52c-.05.1.33.18.43.33a.87.87,0,0,1-.13.7c-.07,0,.21.1.18.23s.08,0,.1.21.08.64.08.64l.35,0c0-.34.71-.35.82-.31a1.51,1.51,0,0,1,.76,1c0,.15-.28.18-.28.18l.05.75c.43.12.79.74.74.85s.3.07.3.07c0-.46.48-.3.51-.15s.1.49.1.49l.13.23.17.18.28,0,.08.15.33,0a2.42,2.42,0,0,1,.3.39c0,.07.41.05.51.07s.26.11.28.24a1.23,1.23,0,0,0,.18.33s.31.08.33.18a2.58,2.58,0,0,0,.15.34l.26.2,0,.24.28,0,.08.31.45,0,.26-.19a1.3,1.3,0,0,0,.58-.51c0-.1.08-.49.33-.41s.08-.57.08-.57-.36-.26-.33-.39-.36-.38-.33-.49-.33-.31-.31-.41-.17-.39-.17-.39l-.39-.36,0-.23-.3,0-.61-.75,0-.21-.18,0v-.29l-.18-.1-.28,0-.56-.62-.05-.28h-.28l0-.54a1,1,0,0,0,.08-.67s-.36.18-.53.1.07-.26.07-.26v-.2l-.15-.16s-.43.06-.46,0l-.1-.41,0-.44-.18-.08,0-.15-.28,0V8.67l-.15-.05-.15-.08,0-.3-.56,0L50.16,8,50,7.64l-.63,0-.15-.15-.26-.06-.18-.07-.07.13-.48,0,0,.16c-.25.13-1.27,0-1.3.1Z"/><path id="path191" class="cls-1" d="M49.52,7.05c0-.2.51-.39.64-.23a1,1,0,0,1,.53.95c0,.28-.46-.28-.46-.28l-.38-.13a.42.42,0,0,1-.33-.31Z"/><polygon id="rect193" class="cls-1" points="42.08 7.37 41.94 7.3 42.04 7.07 42.17 7.13 42.08 7.37"/><path id="path195" class="cls-1" d="M40.76,4.84l-.33-.34V4.22l-.1-.11-.1-.36-.33-.1-.33.13L39.21,4l-.38,0-.2.23.81.08.15.26.59,0,.38.39c.33.1.4-.06.2-.23Z"/><path id="path197" class="cls-1" d="M40.71,3.57c-.05-.22-.38.28-.05.39a1.27,1.27,0,0,0,.66,0l.08-.16,1.27,0a.73.73,0,0,0,.15-.26.93.93,0,0,1,.43,0c.13,0,0-.36-.1-.31a1.05,1.05,0,0,1-.38,0h-.46c0-.17-.43-.1-.46,0s-.17.13-.17.13l-.59.06c-.05.15-.35.26-.38.15Z"/><path id="path199" class="cls-1" d="M38.2,7.92c.39.12.53,0,.56-.07s.05-.13.2-.15,0-.34-.18-.31a.29.29,0,0,1-.33-.18c0-.13-.28-.47-.3-.21s-.18.26-.16.44.1.45.21.48Z"/><path id="path201" class="cls-1" d="M35.28,8.21c0-.09.51-.1.58,0s0,.21.26.21.12.15.1.23-.28.05-.31,0-.4-.11-.4-.11-.21-.15-.23-.28Z"/><polygon id="polygon205" class="cls-1" points="43.71 2.85 43.58 2.72 43.48 2.83 43.65 3.01 43.7 3.06 43.76 3.01 44.01 2.81 43.91 2.69 43.71 2.85"/><polygon id="polygon207" class="cls-1" points="42.35 2.11 42.27 2.25 42.47 2.37 42.51 2.4 42.55 2.37 42.84 2.19 42.75 2.06 42.51 2.22 42.35 2.11"/><polygon id="polygon209" class="cls-1" points="41.66 7.51 41.41 7.49 41.39 7.64 41.61 7.66 41.77 7.92 41.89 7.83 41.72 7.55 41.7 7.52 41.66 7.51"/><path id="path211" class="cls-1" d="M33.3,14.7l0,.29h.38c.15,0-.12-.18-.12-.18s-.31,0-.28-.11Z"/><polygon id="rect213" class="cls-1" points="33.78 14.71 33.88 14.59 34.03 14.72 33.93 14.84 33.78 14.71"/><polygon id="rect215" class="cls-1" points="29.16 9.89 29.26 9.78 29.41 9.94 29.31 10.04 29.16 9.89"/><polygon id="polygon219" class="cls-1" points="36.28 42.93 36.21 43.07 36.37 43.15 36.31 43.2 36.42 43.31 36.55 43.18 36.63 43.11 36.53 43.06 36.28 42.93"/><polygon id="polygon221" class="cls-1" points="34.47 41.09 34.31 41.22 34.24 41.28 34.32 41.34 34.5 41.47 34.59 41.34 34.49 41.27 34.56 41.21 34.47 41.09"/><path id="path223" class="cls-1" d="M53.45,36.32c0-.13-.19-.19-.2-.2l0,.15h0l0,0,0,.13s0,0,0,0l.11.1a.29.29,0,0,0,.09-.26Z"/><polygon id="polygon225" class="cls-1" points="53.43 35.81 53.45 35.58 53.7 35.62 53.68 35.83 53.43 35.81"/><path id="path227" class="cls-1" d="M59.57,33.82c.11-.07.24-.19.23.1s-.14.19-.23.29S59.41,33.92,59.57,33.82Z"/><path id="path231" class="cls-1" d="M60.86,32.73s0,0,0,0a.27.27,0,0,0,0-.16l-.13.07a.18.18,0,0,1,0,.1s0,.1,0,.13a.14.14,0,0,0,.11,0l0-.15s0,0,0,0Z"/><path id="path233" class="cls-1" d="M60.52,32.85c0,.16.1.31.1.32l.14-.05a2.34,2.34,0,0,1-.09-.31l-.15,0Z"/><path id="path235" class="cls-1" d="M60,33.46h-.15c0,.12,0,.27.14.29l0-.15h0a.31.31,0,0,1,0-.13Z"/><path id="path237" class="cls-1" d="M59.3,30.39a.14.14,0,0,0-.09-.11.5.5,0,0,0-.39.09l.08.13a.51.51,0,0,1,.25-.08h0l.15,0Z"/><path id="path241" class="cls-1" d="M52.26,22.15a.76.76,0,0,1-.33.16l-.07.28-.13.1a.56.56,0,0,1,0,.26c0,.18-.25.29-.25.29l-.1.12a4,4,0,0,1-.69,0,.2.2,0,0,1,.08-.38c.15,0,0-.44,0-.44l.2,0s0-.46.11-.46,0-.15-.13-.23-.23-.34-.33-.31a4.25,4.25,0,0,1-.51,0l-.08.15-.27.05s0,.2,0,.26-.74.57-.48-.07l.07-.16v-.23l-.45,0s-.23-.07-.23-.18a1.25,1.25,0,0,0,0-.23l-.53-.59-.64-.08,0-.13L47,20.22c-.45-.23-.86,0-.78.36s.2.54-.06.54a.29.29,0,0,1-.3-.2s-.2-.08-.2,0-.08.31,0,.41-.1.26-.18.18-.28-.3-.23-.38-.36-.57.05-.65,0-.31.13-.36l.2-.1h.2l.13-.1-.33-.06-.2,0-.38,0a1.11,1.11,0,0,0-.46.57c-.2.39-.68-.15-.51-.36s-.56,0-.68.08-.51.05-.51.05c-.08.23-.43,0-.33-.18a.55.55,0,0,0,.1-.26l-.13,0-.15.28c-.35,0-.46.2-.38.33s-.1,0-.15.16,0,.18.18.26-.08.07,0,.2.41,0,.23.18a.67.67,0,0,1-.53.11c0,.23-.51.18-.56.1s-.43-.54-.43-.54l-.49,0c0-.36.23-.18.33-.46a3.8,3.8,0,0,0,.16-.75s-.41,0-.44.1-.27.21-.27.21-.21.08-.13.18-.15.15-.15.15,0,.17,0,.23-.71,0-.79,0l-.3-.13L38.32,20l-.35.15-.1.11h-.38l0,.31.69.07.05.64-.28-.09h-.18l-.08-.16-.15,0v.57l.15.13.13.13.26,0,0,.3.64,0,.08.13.38,0,.73.75-.05.23-.12.08c0,.18-.33.08-.33.08v.15l.17,0,.18.1.26-.44c.27-.18.4.08.43.24s-.13.12-.13.12v.36l.15.06a.3.3,0,0,1-.1.49l-.08.26c-.07.23-.35.17-.35.17l-.1.16-.31.08.61.07c.05-.2.21-.25.28-.15a.53.53,0,0,1,.08.28l.15,0,0,.28.16.05v.83l.17.2c.31-.12.31.08.16.19s0,.56,0,.56l-.13.13V28l-.15.1v.28a.69.69,0,0,0-.64,0c-.23-.15-.71-.1-.71,0,.15.21-.18.26-.18.26l-.18.2c.13.26-.12.29-.12.29v.49l-.31.28,0,.67c0,.18.38.2.46.1s.38.21.38.21h.22l.06-.47-.15-.07V29.6l.25-.28c.3-.11.2.67.2.75,0,.28.15.25.28.2s0,.28-.15.26-.08.25-.08.25l.13.06-.23.18-.2.23-.26-.08-.3,0-.1-.18-.18,0,0,.36-.12.16-.31.31c.41,0,0,.28-.15.28.23.08,0,.31-.61.13v.18l-.2,0,.18.21.2,0-.08.43c0,.34-.84.11-.91,0l0,.46-.15,0,0,.31,0,.44.28-.06v.18l.69,0,1-1.06.59-.12c0-.26.3.05.3.05.26,0,.31.15.31.15l.33,0c.28.08.11.11.13.21a.11.11,0,0,0,.15.1l0-.33.15,0-.15-.18-.28-.13L40,33.11c-.2-.29.06-.24.26-.21h.33a2.76,2.76,0,0,1,.38.64c0,.13.18.16.18.16l.23,0,.07.18h.23l.08.16h.45l0-.24-.43-.07,0-.26-.3-.08c-.1-.44.07-.56.2-.36l.15,0-.05-.39.18,0,0-.54-.15,0v-.18l.63,0a.88.88,0,0,1,0-.49h.17l0,.13.78.08.55-.64s.05-.07,0-.14-.18,0-.3-.07,0-.52,0-.62.43-.26.36,0,0,.33,0,.33c.33-.31.61,0,.58.1s.18.16.3.08.28.23.23.39-.5.13-.53,0-.1-.1-.15,0A.38.38,0,0,1,44,31s0,0,0,0l-.55.64h0c.31.18.16.41,0,.46a.79.79,0,0,1-.28,0l0,.11-.66,0,0,.26c-.33-.06-.45.31-.38.49a.4.4,0,0,1,0,.33l.28.13.36-.1c.05-.26.28-.31.48-.47s.53.29.43.49a.83.83,0,0,0-.1.29l0,.23-.25.1-.2.1,0,.13h-.68l-.13.13-.33,0-.1.15-.23,0s-.38.18-.23.38-.63.19-.81-.1c-.05.26-.33,0-.33,0L40,34.78l0-.39c-.05-.25-.53-.25-.5-.07s-.92.07-.92.07l-.3.15-.28.16,0,.13-.46.05-.2.11-.07-.16H37l-.2.29c-.54,0-1,.33-1,.46s-.2.26-.2.26l-.23.07-.16.24-.3.1,0,.54-.15.1v.24l-.18,0v.13l-.25,0,.15.39.2.1c.36,0,.2.49.2.49l.21,0,.1.28.2.41c.08.31.31.23.41.21s.2.31.2.31l1,0s0,.11.12.16a5.1,5.1,0,0,0,1.4,0c-.05-.23.63-.28.92-.07a.79.79,0,0,0,.65.07l.39.47.25.56.43.13.31.08.1.44.23,0,.07.28c.28.21-.07.64-.07.64V43l.2.1,0,.21.33.34.38,0,1,1,.76.23.13.42.2,0,.15-.13.61,0,.31-.29.33,0,2.82-2.4-.26-.15v-.57c.46-.33.49-.93,0-1s-.17-.38.13-.44l.18-.07v-.23l.58-.55V39l-1.27-1c-.56-.21,0-1.45.38-1.42s0-1.91,0-1.91l-.21-.1.06-.62h-.28l-.46.59-.13.42c0,.54-1.62.43-1.7.36a4.64,4.64,0,0,0-.61-.32s-.4-.33-.48-.23-.43-.13-.43-.05-.33-.18-.33-.18l-.51-.18.38-.08-.07-.31.66.34c.07.1.4.08.4.08l.1.13a.38.38,0,0,1,.33.12c.13.16.79,0,.79,0l.18.16.28.1.78,0,0-.49.15-.16,0-.31.17-.15v-.26l.16-.05,0-.57.13,0V31.64l-.38-.36c0,.13-.43.13-.43.13s-.1.18-.18.18.1.23,0,.38-.26.16-.26.16l-.38.1-.1.13H46L45.91,32l.46-.13.26-.12.12-.26c0-.26.33-.23.33-.23s.59-.49.61-.73.23-.87.59-.87h.66c.25-.1.18-.44.18-.44l.32,0,.06.18s.45.05.5,0,.16-.25.28-.18.54-.18.54-.18c0-.18.66-.1.66-.1l.07-.23a3.74,3.74,0,0,0-.5-.59c-.08,0-.49-.37-.54-.24-.4-.1-.38-.67-.38-.67L50,26.79c0-.2-.38-.64-.46-.59a.36.36,0,0,1,0-.64c.1,0,.36-.39.36-.39l.12-.36.44-.13.05-.34-.23,0s.25-.47.38-.47a6.91,6.91,0,0,0,1-.05,1.36,1.36,0,0,0,.23-.54c0-.08.2-.1.28-.13a1,1,0,0,0,.3-.33c0-.11-.12-.75-.23-.65Z"/><path id="path245" class="cls-1" d="M38.2,31.44s.07.12.15.1.11.14,0,.14-.08.09-.08.13a.25.25,0,0,1-.06.19c0,.06-.11,0-.19,0a.44.44,0,0,0-.21,0c-.09,0,0,.15,0,.15s-.41,0-.33-.08.15-.07.1-.11,0-.08,0-.16.19,0,.13-.09,0-.29.1-.16l0-.13c0-.06,0-.08-.13-.12s0-.27,0-.27l0-.16c0-.19.42-.21.44,0a1.14,1.14,0,0,1,0,.29l.11,0s0,.11-.11.11,0,.06-.06.12l.06.09Z"/><path id="path247" class="cls-1" d="M36.94,31.64c.06-.12.19-.62.34-.47s.25,0,.25,0a.25.25,0,0,1,0,.24c0,.15-.08.31-.17.32s-.17.08-.29.1-.17-.19-.17-.19Z"/><rect class="cls-1" x="57.19" y="84.21" width="2.64" height="13.18"/><rect class="cls-1" x="14.12" y="84.21" width="2.64" height="13.18"/><polygon class="cls-1" points="52.93 94.75 51.03 94.75 51.03 86.85 48.4 86.85 48.4 94.75 46.49 94.75 46.49 97.39 48.4 97.39 51.03 97.39 52.93 97.39 55.57 97.39 55.57 94.75 55.57 84.21 52.93 84.21 52.93 94.75"/><path class="cls-1" d="M28.33,84.21V94.75H25.11v-7.9H18.52V97.39h3.95v4.12h2.64V97.39H44.73V89.48H42.09v5.27H40.77V89.48H38.14v5.27H36.82V89.48H34.18v5.27H31v-7.9H44.73V84.21H28.33ZM22.47,94.75H21.16V89.48h1.31Z"/><path class="cls-1" d="M14.12,105.92H20.7v2.52H16.87v4.22h3.28v2.51H16.87v4.61h4v2.53H14.12Z"/><path class="cls-1" d="M26.32,111.87l1.7,2a6.13,6.13,0,0,1,2.07,4.82,3.63,3.63,0,0,1-3.95,3.89c-2,0-3.92-1.21-3.92-3.59v-2h2.71v1.68c0,.6.12,1.6,1.21,1.6.78,0,1.21-.61,1.21-1.53A4,4,0,0,0,26,115.8l-1.92-2.19a5.33,5.33,0,0,1-1.75-4.21,3.44,3.44,0,0,1,3.78-3.77c1.84,0,3.83.7,3.83,3.65v1.91h-2.6v-1.48c0-1.09-.35-1.72-1.19-1.72S25,108.44,25,109.3A3.27,3.27,0,0,0,26.32,111.87Z"/><path class="cls-1" d="M39.25,118.65c0,2.47-1.43,3.94-3.81,3.94a3.57,3.57,0,0,1-3.82-3.92v-9.1a3.58,3.58,0,0,1,3.8-3.94,3.57,3.57,0,0,1,3.83,3.92v2.34H36.5V109.2c0-.76-.34-1.21-1.06-1.21s-1.07.45-1.07,1.21V119c0,.76.33,1.21,1.07,1.21s1.06-.45,1.06-1.21v-3.24h2.75Z"/><path class="cls-1" d="M40.44,105.92h2.8l1.35,12.14h0l1.25-12.14h2.63l1.21,12.14h0l1.35-12.14h2.75l-2.54,16.39h-3l-1.21-11.1h0l-1.27,11.1h-3Z"/><path class="cls-1" d="M56.21,122.31H53.42L56,105.92h3.73l2.56,16.39H59.41l-.35-3.21h-2.5Zm2.56-5.54-.86-8.7h-.08l-1,8.7Z"/></svg>