<svg id="Layer_1" data-name="Layer 1" xmlns="http://www.w3.org/2000/svg" viewBox="0 0 76.08 123.83"><defs><style>.cls-1{fill:#fff;}</style></defs><g id="g4303"><g id="branches-olive"><path class="cls-1" d="M47.45,59.82A10.72,10.72,0,0,1,46,61.13c-3.24-3.35-7-7.07-10.67-7.07-2.24,0-3.86,1.71-5.74,2.92-2.62,1.67-6.21,2.61-9.28,1.39a10.16,10.16,0,0,1-4.46-3.06,9.72,9.72,0,0,0,8.78.76c3-1.26,6.1-2.92,9.54-2.92C39.24,53.15,44.07,56.58,47.45,59.82ZM9.94,49.27c3.36,3.83,8.84,2.6,13.33,3.55a4.94,4.94,0,0,0,1.88.24,9.66,9.66,0,0,0-1.86-.61c-3.48-1.31-4-5-5.92-7.6,2.43,1.62,4.44,3.84,6.72,5.91a11.27,11.27,0,0,0,5.6,2.49c-.49.18-1.13.14-1.66.27-3.68.91-7.75,2.35-11.66,1.06A11.55,11.55,0,0,1,9.94,49.27ZM4.56,40.42c2.09,4.75,7.36,5.12,10.86,8a9.5,9.5,0,0,0,2.06,1.4l0,0a15.72,15.72,0,0,1-2.3-2.52c-2-2.9-1.34-6.88-2.88-10a21.89,21.89,0,0,1,3.52,5.33c1.3,3.09,1.74,6.62,4.65,9-3.15-1-6.79-.83-9.62-2.69-3-2-5.76-5-6.32-8.53Zm-2.25-9.6c.3,4.18,4.75,6.42,6.88,9.85a9.38,9.38,0,0,0,1.57,2.09,6.83,6.83,0,0,0-.67-1.28,9.59,9.59,0,0,1-.81-4.94c.2-2.13,1.09-4.11.75-6.36,1.83,4,1.24,8.89,2.3,13.15A21.11,21.11,0,0,0,13.49,46c-1.8-1.37-4.15-2.58-6.13-4.13a13.18,13.18,0,0,1-4.42-5.56,13.07,13.07,0,0,1-.63-5.49Zm.13-7.7a13,13,0,0,1,.78-2.76C2.45,24.31,5.08,27.16,6,30.57a27.11,27.11,0,0,0,1,3.85s.09,0,.12-.06c-1.29-3.63.61-7,2.46-9.85A8.4,8.4,0,0,0,10.46,22,18.83,18.83,0,0,1,10,27.24c-.39,2.18-1.14,4.23-1.73,6.33a10,10,0,0,0-.09,4.19L8,37.6c-1.37-2.54-4.09-4.52-4.91-7.29a15.55,15.55,0,0,1-.65-7.19Zm1.45-4.24a12.12,12.12,0,0,1,2.9-7.65s.09-.07.15-.06c-1.91,2.92-.17,6.6-.42,9.91l-.25,3.4s0,.13.13.09a9.25,9.25,0,0,0,.21-1.17c.46-2.74,2.87-4.65,4.91-6.58a4.32,4.32,0,0,0,1.06-1.58,12.76,12.76,0,0,1-1.16,4C9.85,22.42,6.82,25,6.27,28.6,6,25.14,3.89,22.56,3.89,18.88Zm5-10.07a6.92,6.92,0,0,1,3.34-2.23c-2.5,1.71-2.37,4.79-3.13,7.36-.28.94-.69,1.82-.91,2.79l.06.05a8.3,8.3,0,0,1,2.06-3c1.76-1.66,4.4-2.67,5.27-5.09,0,3.37-2.91,5.93-5.54,7.92a9.62,9.62,0,0,0-2.78,3.33,12.69,12.69,0,0,0,.06-2.61c-.27-3-.44-6.25,1.57-8.49ZM19.09,3.14a35.39,35.39,0,0,0-4.52,5.61c-1.18,1.56-2.81,2.53-4.21,3.85.76-1.57.9-3.36,1.86-4.88C13.86,5.13,16.57,4.12,19.09,3.14Z"/></g><g id="branches-olive-2" data-name="branches-olive"><path class="cls-1" d="M28.28,59.82a11.26,11.26,0,0,0,1.44,1.31c3.25-3.35,7.06-7.07,10.67-7.07,2.25,0,3.86,1.71,5.75,2.92,2.62,1.67,6.21,2.61,9.28,1.39a10.16,10.16,0,0,0,4.46-3.06,9.72,9.72,0,0,1-8.78.76c-3-1.26-6.1-2.92-9.54-2.92C36.48,53.15,31.66,56.58,28.28,59.82ZM65.79,49.27c-3.36,3.83-8.84,2.6-13.33,3.55a4.94,4.94,0,0,1-1.88.24,9.66,9.66,0,0,1,1.86-.61c3.48-1.31,4-5,5.92-7.6-2.43,1.62-4.44,3.84-6.72,5.91A11.31,11.31,0,0,1,46,53.25c.49.18,1.13.14,1.66.27,3.68.91,7.75,2.35,11.66,1.06A11.59,11.59,0,0,0,65.79,49.27Zm5.38-8.85c-2.09,4.75-7.36,5.12-10.86,8a10,10,0,0,1-2.06,1.4l0,0a15.33,15.33,0,0,0,2.31-2.52c2-2.9,1.34-6.88,2.88-10a21.6,21.6,0,0,0-3.52,5.33c-1.3,3.09-1.74,6.62-4.66,9,3.16-1,6.79-.83,9.63-2.69,3-2,5.75-5,6.32-8.53Zm2.25-9.6c-.31,4.18-4.76,6.42-6.88,9.85A9.13,9.13,0,0,1,65,42.76a8.26,8.26,0,0,1,.67-1.28,9.6,9.6,0,0,0,.82-4.94c-.2-2.13-1.09-4.11-.75-6.36-1.83,4-1.24,8.89-2.3,13.15A21.11,21.11,0,0,1,62.24,46c1.8-1.37,4.15-2.58,6.12-4.13a13.13,13.13,0,0,0,4.43-5.56,13.07,13.07,0,0,0,.63-5.49Zm-.13-7.7a13.62,13.62,0,0,0-.78-2.76c.77,3.95-1.86,6.8-2.75,10.21a27.13,27.13,0,0,1-1,3.85s-.09,0-.12-.06c1.3-3.63-.6-7-2.45-9.85A8.4,8.4,0,0,1,65.27,22a18.83,18.83,0,0,0,.45,5.25c.39,2.18,1.14,4.23,1.73,6.33a10,10,0,0,1,.09,4.19l.19-.16c1.37-2.54,4.09-4.52,4.91-7.29a15.68,15.68,0,0,0,.65-7.19Zm-1.45-4.24a12.12,12.12,0,0,0-2.9-7.65c-.06,0-.09-.07-.16-.06,1.92,2.92.18,6.6.42,9.91l.26,3.4s0,.13-.13.09a9.25,9.25,0,0,1-.21-1.17c-.47-2.74-2.87-4.65-4.91-6.58a4.32,4.32,0,0,1-1.06-1.58,12.76,12.76,0,0,0,1.16,4c1.57,3.18,4.6,5.75,5.15,9.36C69.72,25.14,71.84,22.56,71.84,18.88ZM66.78,8.81a6.85,6.85,0,0,0-3.33-2.23c2.5,1.71,2.36,4.79,3.13,7.36.28.94.69,1.82.91,2.79l-.06.05a8.3,8.3,0,0,0-2.06-3c-1.76-1.66-4.41-2.67-5.28-5.09,0,3.37,2.92,5.93,5.54,7.92a9.54,9.54,0,0,1,2.79,3.33,12,12,0,0,1-.06-2.61c.27-3,.44-6.25-1.58-8.49ZM56.64,3.14a34.77,34.77,0,0,1,4.51,5.61c1.19,1.56,2.82,2.53,4.22,3.85-.76-1.57-.9-3.36-1.86-4.88C61.87,5.13,59.16,4.12,56.64,3.14Z"/></g></g><path id="path51" class="cls-1" d="M60.52,36.85l-.55-.3A24.46,24.46,0,0,1,55.43,43l-3.2-3.2A20.06,20.06,0,0,0,56,34.38l-.55-.3a19.64,19.64,0,0,1-3.65,5.3l-2.9-2.9a15.48,15.48,0,0,0,2.94-4.37l-.54-.3A14.55,14.55,0,0,1,48.46,36l-3.2-3.2a10.21,10.21,0,0,0,2.05-3.21l-.55-.3a9.34,9.34,0,0,1-1.93,3.07l-2.91-2.9a5.43,5.43,0,0,0,1.38-3.33h4.11a9.23,9.23,0,0,1-.65,3.16l.55.3A10.37,10.37,0,0,0,48,26.17h4.54a14.53,14.53,0,0,1-1.26,5.64l.54.3a15.37,15.37,0,0,0,1.33-5.94h4.11a19.41,19.41,0,0,1-1.83,7.91l.55.3a19.94,19.94,0,0,0,1.88-8.21h4.54A24.27,24.27,0,0,1,60,36.55l.55.3a25.22,25.22,0,0,0,.69-20.42l-.57.24a24.52,24.52,0,0,1,1.78,8.9H57.88a19.84,19.84,0,0,0-1.41-7.11l-.56.24a19.42,19.42,0,0,1,1.37,6.87H53.17a15.18,15.18,0,0,0-1-5.24l-.55.24a14.73,14.73,0,0,1,1,5H48a9.94,9.94,0,0,0-.62-3.21l-.55.24a9.54,9.54,0,0,1,.56,3H43.3a5.43,5.43,0,0,0-1.38-3.33l2.91-2.91a9.52,9.52,0,0,1,2,3.27l.55-.24a10.07,10.07,0,0,0-2.14-3.46l3.21-3.21a14.76,14.76,0,0,1,3.11,4.88l.55-.24a15.21,15.21,0,0,0-3.23-5.07l2.9-2.91a19.27,19.27,0,0,1,4.11,6.35l.56-.24a20,20,0,0,0-4.24-6.53l3.21-3.21a24.37,24.37,0,0,1,5.2,8l.57-.24A25.33,25.33,0,0,0,47.27,2.51L47,3.08a24.32,24.32,0,0,1,8,5.21L51.8,11.5a20.08,20.08,0,0,0-6.41-4.19l-.23.56a19.45,19.45,0,0,1,6.21,4.06l-2.9,2.91a15.15,15.15,0,0,0-4.81-3.14l-.22.56a14.77,14.77,0,0,1,4.6,3l-3.21,3.21a10,10,0,0,0-3-2l-.22.57a9.21,9.21,0,0,1,2.84,1.85l-2.91,2.91a5.43,5.43,0,0,0-3.33-1.38V16.32a9.55,9.55,0,0,1,3.4.74l.22-.57a10.24,10.24,0,0,0-3.62-.78V11.18a14.72,14.72,0,0,1,5.28,1.08l.22-.56a15.22,15.22,0,0,0-5.5-1.13V6.46a19.21,19.21,0,0,1,7,1.41l.23-.56a20.05,20.05,0,0,0-7.23-1.46V1.31A24.61,24.61,0,0,1,47,3.08l.23-.57a25.21,25.21,0,0,0-20.67.86l.28.53A24.41,24.41,0,0,1,37.56,1.31V5.85A19.87,19.87,0,0,0,29,7.93l.27.53a19.15,19.15,0,0,1,8.3-2v4.11a15.08,15.08,0,0,0-6.39,1.54l.28.53a14.65,14.65,0,0,1,6.11-1.47v4.54a10.1,10.1,0,0,0-4,1l.28.53a9.4,9.4,0,0,1,3.72-.88v4.12a5.21,5.21,0,0,0-1.81.42l.28.53A4.7,4.7,0,0,1,37.86,21a4.85,4.85,0,0,1,4.84,4.84,4.84,4.84,0,1,1-9.68,0,4.86,4.86,0,0,1,3-4.48l-.28-.53a5.36,5.36,0,0,0-1.52,1L31.32,18.9a9.48,9.48,0,0,1,2.52-1.7l-.28-.53a9.93,9.93,0,0,0-2.66,1.81l-3.22-3.22a14.67,14.67,0,0,1,3.77-2.62l-.28-.53a15.44,15.44,0,0,0-3.91,2.73l-2.91-2.91a19.3,19.3,0,0,1,4.91-3.47L29,7.93a20.31,20.31,0,0,0-5.07,3.58L20.71,8.29A24.29,24.29,0,0,1,26.88,3.9l-.28-.53a25.28,25.28,0,0,0-11.32,11.4l.52.28a24.78,24.78,0,0,1,4.48-6.33l3.22,3.22a20,20,0,0,0-3.69,5.27l.52.29a19.28,19.28,0,0,1,3.59-5.14l2.91,2.91A15.49,15.49,0,0,0,24,19.46l.52.28a15.07,15.07,0,0,1,2.76-4l3.22,3.22a10.27,10.27,0,0,0-2,3l.53.29a9.57,9.57,0,0,1,1.86-2.87l2.92,2.91a5.44,5.44,0,0,0-1.38,3.33H28.31A9.59,9.59,0,0,1,29,22.2l-.53-.29a10.12,10.12,0,0,0-.8,3.66H23.16a14.66,14.66,0,0,1,1.33-5.83L24,19.46a15.08,15.08,0,0,0-1.41,6.11H18.45a19.31,19.31,0,0,1,1.88-8.07l-.52-.29a20,20,0,0,0-2,8.36H13.3a24.55,24.55,0,0,1,2.5-10.52l-.52-.28A25.22,25.22,0,0,0,13.7,33l.59-.15a25,25,0,0,1-1-6.65h4.54a20.1,20.1,0,0,0,.86,5.54l.59-.15a19,19,0,0,1-.84-5.39h4.11a15.63,15.63,0,0,0,.72,4.38l.59-.15a14.94,14.94,0,0,1-.71-4.23H27.7a9.92,9.92,0,0,0,.59,3.12l.59-.15a9.27,9.27,0,0,1-.57-3h4.12A5.34,5.34,0,0,0,33.8,29.5l-2.91,2.91a9.25,9.25,0,0,1-2-3.27l-.59.15a10.13,10.13,0,0,0,2.17,3.55l-3.21,3.21a14.72,14.72,0,0,1-3.38-5.64l-.59.14a15.24,15.24,0,0,0,3.55,5.93l-2.91,2.91a19.39,19.39,0,0,1-4.63-7.83l-.59.15a20,20,0,0,0,4.79,8.11L20.28,43a24.35,24.35,0,0,1-6-10.2l-.6.15A25.31,25.31,0,0,0,27,48.6l.3-.54a24.25,24.25,0,0,1-6.6-4.61l3.21-3.21a20.23,20.23,0,0,0,5.63,3.86l.3-.54a19.56,19.56,0,0,1-5.5-3.74l2.91-2.91A15.19,15.19,0,0,0,31.88,40l.29-.53a14.68,14.68,0,0,1-4.48-3l3.2-3.21a10,10,0,0,0,3.54,2.17l.3-.53a9.62,9.62,0,0,1-3.41-2.07l2.92-2.91a5.38,5.38,0,0,0,3.32,1.38v4.12a9.58,9.58,0,0,1-2.83-.52l-.3.53a10,10,0,0,0,3.13.59v4.54a14.39,14.39,0,0,1-5.38-1.13l-.3.53a15.17,15.17,0,0,0,5.68,1.21v4.11a19.42,19.42,0,0,1-7.71-1.72l-.3.53a20.2,20.2,0,0,0,8,1.8v4.54a24.72,24.72,0,0,1-10.25-2.37l-.3.53a25.23,25.23,0,0,0,22.2-.25l-.29-.55a24.45,24.45,0,0,1-10.75,2.64V45.9a20,20,0,0,0,8.67-2.12l-.28-.55a19.39,19.39,0,0,1-8.39,2.06V41.18a15.25,15.25,0,0,0,6.51-1.6L44.4,39a14.5,14.5,0,0,1-6.23,1.53V36a10,10,0,0,0,4.15-1L42,34.47a9.69,9.69,0,0,1-3.87,1V31.31a5.38,5.38,0,0,0,3.32-1.38l2.91,2.91A9.93,9.93,0,0,1,42,34.47l.28.54a10,10,0,0,0,2.51-1.74L48,36.48A15,15,0,0,1,44.4,39l.28.54a15,15,0,0,0,3.79-2.67l2.9,2.9a19.55,19.55,0,0,1-4.81,3.42l.28.55a20.18,20.18,0,0,0,5-3.53l3.2,3.2a24.85,24.85,0,0,1-6.09,4.35l.29.55a25.42,25.42,0,0,0,11.32-11.5Z"/><polygon id="polygon59" class="cls-1" points="39.15 20.05 39.16 20.23 39.31 20.22 39.3 20.04 39.15 20.05"/><rect id="rect61" class="cls-1" x="38.93" y="19.8" width="0.2" height="0.15"/><polygon id="polygon63" class="cls-1" points="38.74 19.77 38.76 19.62 38.58 19.59 38.56 19.75 38.74 19.77"/><rect id="rect65" class="cls-1" x="38.26" y="19.52" width="0.15" height="0.18" transform="translate(13.68 54.9) rotate(-82.15)"/><rect id="rect67" class="cls-1" x="36.95" y="19.49" width="0.2" height="0.15"/><polygon id="polygon69" class="cls-1" points="36.68 19.82 36.7 19.67 36.53 19.64 36.51 19.8 36.68 19.82"/><rect id="rect71" class="cls-1" x="36.36" y="19.83" width="0.16" height="0.21" transform="translate(8.08 50.27) rotate(-75.61)"/><polygon id="rect73" class="cls-1" points="36.16 20.22 36.13 20.07 36.29 20.04 36.31 20.2 36.16 20.22"/><polygon id="polygon75" class="cls-1" points="16.15 35.78 16.02 35.78 16.02 36.03 16.23 36.03 16.23 36.37 16.38 36.37 16.35 35.98 16.15 35.91 16.15 35.78"/><polygon id="polygon77" class="cls-1" points="17.57 37.66 17.47 37.43 17.29 36.96 17.67 37.14 17.8 37.5 17.98 37.63 18.16 38.02 18.05 38.2 17.78 37.94 17.57 37.66"/><polygon id="polygon79" class="cls-1" points="23.29 44.88 23.08 44.56 23.39 44.62 23.72 44.9 23.84 45.23 23.67 45.34 23.57 45.19 23.31 45.11 23.29 44.88"/><path id="path81" class="cls-1" d="M37.07,21.71H36.8l-.06-.57.16-.1v-.29H36l0-.28.13-.08-.2-.08-.16.21,0,.23-.25.05v.13h-.18v.34l-.71.59-1.42-.05c-.1.23-.36,0-.36,0-.05-.15-.4,0-.4,0,0,.29-.49-.12-.49-.12L31,21c-.51-.46-1.27.13-1.3.26,0,.36-.58.08-.58.08s-.51-.16-.59,0-.4.15-.4.15l-.05.11-.26.05,0,.15-.3.05.76,0c.2,0-.08.43-.21.41l-.35,0-.13.13h-.33l-.15.21-.48,0s-.28.24-.26.31,0,.31-.12.31-.23.24-.18.31-.15.34-.15.34l-.05.26-.16.05v.69l-.3.21v.31l-.46.49.05.41-.38.41.05.41-.23.08,0,.18-.1.54.26,0c.12,0,.1.33,0,.39s-.39.15-.23.25-.41.08-.41-.07-.3-.29-.38-.24-.2-.23-.2-.23c-.28-.28-1.15,0-1.15,0l-.12.41c-.28,0-.46.52-.46.52-.23.07-.41.36-.33.43s-.13.11-.13.11v.57l-.12.17,0,.62c.15,0,.13.29.13.29-.26,0-.21.36-.21.36l-.53.18-.1.15-.66,0-.18.18-.18-.18H18L18,31.76l-.25-.06,0-.28-.38,0-.07.15-.41,0c0,.26-.4.64-.46.54s-.33-.39-.2-.44a3.31,3.31,0,0,1,.46-.1v-.18l-.94,0-.1.16-.38,0V32l-.18.06c-.13.07,0,.36,0,.36.18.18,0,.46,0,.46-.15.16.12.44.12.44.21.05-.12.21-.12.21a.47.47,0,0,0,.2.33.27.27,0,0,0,.1.39l0,.44.18.1v.28l.1.18H16l0-.64c-.36-.41.3-.52.33-.36s.3.23.3.23c.06.39.49.62.61.23s.23-.15.31,0a3.31,3.31,0,0,0,.56.62h.38l.05.36c.43,0,.56,0,.73.61a1.11,1.11,0,0,0,.66.75l.36,0c0-.31.36,0,.36.2s.68.75.68.75l.69.15.63.52.48,0h.21c.12-.44.73,0,.78.18s.46.41.51.28.33-.05.38.34.23.31.23.31l1.45,0,.51-.44,1.29,0c.66,0,.26-.93.13-.93-.23-.18.08-.93.08-.93l-1.86-1.73c-.43,0-.05-.61-.05-.61.33-.21-.08-.54-.08-.54a1.18,1.18,0,0,0-.17-.67.92.92,0,0,1-.33-.91v-.41c-.38-.36.15-.41.15-.41a.42.42,0,0,0-.13-.54l0-.34-.41,0L25.75,30l-.91-1.32c-.18-.05-.06-.36-.06-.36.23-.12-.05-.43-.05-.43l0-.57.53-.05.13-.21h.25l0-.67a.28.28,0,0,1,.43-.15l.35,0,.21-.39.05-.3-.28,0c-.31-.18-.15-.85-.15-.85.48-.72,1-.31,1-.31l.35,0c.54.36,0,1,0,1a1.53,1.53,0,0,0,0,.64l.13.83-.33.28c-.28.15-.28.51,0,.59s.13.52-.17.18c-.46,0,.25.41.05.31.46.23.35-.21.35-.21l.61-.49c.23-.18.64.39.64.47a4.27,4.27,0,0,0,1,0,1.21,1.21,0,0,1,.38.65c.28-.36.87,0,.44.18.4.26.4.49.4.49.33-.1.33.15.33.23a2.67,2.67,0,0,0,.1-.39c-.38-.28.51-.38.26.13l-.15.24.25.2,0,.59c.55,0,.4-.74.4-.74l.26-.05c0-.24.17-.11.17-.11-.17-.87.41-1,.41-1,.33-.08.35-.77.35-.77-.22-.11-.1-.47.16-.16s-.16-.61-.16-.61l-.2-.19-.28,0,0-.29h-.46l-.08.37-.17.05,0-.11-.08.29h-.46l0-.31.28-.08.1-.15.07-.42h.33l.44-.13c0-.43.25-.33.25-.33l.15.13.23.18,0,.15-.16.08,0,.21.07.28h.21a.42.42,0,0,1,.76-.15l.15-.37c-.35-.18,0-.46.1-.33s.33-.33.33-.33.18.23,0-.08a.33.33,0,0,1,.13-.47c-.05-.3.33-.25.33-.25l0-.42-.36,0c-.08.36-.38.05-.23,0a1.36,1.36,0,0,0,.31-.23v-.26l.15-.05,0-.26h.39l.33-.15.07-.13.36,0,.5-.46,0-.21c-.3,0,0-.23,0-.23l0-.38Z"/><path id="path83" class="cls-1" d="M26.84,26.81l-.46,0,0,.18h.13a2.55,2.55,0,0,1,0,1.24s-.3,0-.35-.13-.18.33-.08.41.46,0,.48.28.23-.18.23-.18V26.81Z"/><polygon id="polygon85" class="cls-1" points="26.64 29.05 26.38 28.9 26.38 29.52 26.79 30.06 26.94 29.7 26.99 29.46 26.82 29.39 26.84 29 26.99 28.97 27.02 28.79 26.64 29.05"/><polygon id="polygon87" class="cls-1" points="27.04 30.36 26.87 30.39 26.84 30.6 27.04 30.62 27.04 30.36"/><polygon id="polygon89" class="cls-1" points="26.82 31.68 26.6 31.7 26.6 31.89 26.82 31.86 26.82 31.68"/><path id="path91" class="cls-1" d="M27.11,31.07a.11.11,0,0,0,0-.22.11.11,0,0,0,0,.22Z"/><path id="circle93" class="cls-1" d="M27.29,31.39a.11.11,0,1,1-.11.11A.11.11,0,0,1,27.29,31.39Z"/><path id="circle95" class="cls-1" d="M27.3,28.45a.1.1,0,0,1,.11.11.11.11,0,0,1-.22,0A.1.1,0,0,1,27.3,28.45Z"/><polygon id="polygon97" class="cls-1" points="35.63 26.24 35.68 25.93 35.7 25.7 35.81 25.55 36.11 25.42 36.11 24.93 35.96 24.93 35.93 24.75 35.65 24.72 35.6 24.85 35.48 24.85 35.45 25.06 35.6 25.06 35.63 25.21 35.52 25.32 35.48 25.44 35.27 25.5 34.81 25.93 34.79 26.14 34.66 26.32 34.51 26.71 33.98 26.73 33.88 27.2 33.95 27.58 34.41 27.76 34.46 27.5 34.61 27.43 34.64 27.17 34.74 26.99 34.89 26.81 34.94 26.6 35.2 26.45 35.5 26.4 35.63 26.24"/><path id="path99" class="cls-1" d="M36.64,26.5v-.36l0-.34-.38-.18-.28.26,0,.36v.23l-.25.06-.05.69-.21.08,0,.26-.28.07-.28.08-.05.34-.2.13-.11.31-.12.74s.23.44.35.23a.52.52,0,0,1,.33-.23l.08-.18.68,0a.2.2,0,0,1,.39,0c0,.13.25,0,.25,0l.18-.28h.28l0-.31.13-.08v-.46a.49.49,0,0,0,.35-.52l.11-.13-.06-.18c-.2-.07-.1-.25,0-.2s-.18-.24-.18-.24S37,26.5,37,26.5Z"/><path id="path101" class="cls-1" d="M37.05,29.62c0,.31-.41.41-.41.41L36.36,30l-.15-.13,0-.36.22,0,.06.15.58,0Z"/><path id="path103" class="cls-1" d="M38.42,28c.06.22,0-.36.15-.34s0-.36,0-.36l-.46.34c.23,0,.25.26.28.36Z"/><path id="path105" class="cls-1" d="M39.77,26.63c.1.23.07.57.45.82.13.09-.07.26-.2.18a3.4,3.4,0,0,1-.48-.64v-.34c.08-.2.18-.12.23,0Z"/><polygon id="polygon107" class="cls-1" points="39.94 34.33 39.77 34.46 39.84 34.54 39.92 34.67 40.1 34.38 39.94 34.33"/><polygon id="polygon111" class="cls-1" points="43.01 33.55 42.92 33.42 42.72 33.55 42.8 33.68 43.01 33.55"/><path id="path113" class="cls-1" d="M50.15,39.05l.23.1,0,.44c.3.31,1.29,0,1.29,0s-.05-1-.05-1l-.13-.13,0-.64c.1-.34-.49-.83-.54-.72s-.38,0-.38.13-.2.62-.1.8-.07.18-.1.36-.28.49-.23.64Z"/><path id="path115" class="cls-1" d="M49.59,38c-.05.19-.22.31-.33.23s.13.13.18.23a.14.14,0,0,0,.26,0c0-.1,0-.33.07-.43s-.15-.13-.18,0Z"/><rect id="rect117" class="cls-1" x="48.41" y="33.29" width="0.18" height="0.49"/><path id="path119" class="cls-1" d="M51,28.33c-.11-.15.51-.41.61-.1s0,.26-.1.23-.36.08-.51-.13Z"/><polygon id="polygon123" class="cls-1" points="51.56 25.03 51.84 25.08 51.87 24.93 51.59 24.88 51.56 25.03"/><polygon id="polygon125" class="cls-1" points="50.89 25.37 51.03 25.31 50.98 25.18 50.95 25.1 50.88 25.14 50.69 25.25 50.52 25.15 50.44 25.27 50.65 25.41 50.68 25.43 50.72 25.41 50.87 25.32 50.89 25.37"/><path id="path127" class="cls-1" d="M51.83,19.05h-.38s.12.05-.23-.28a.35.35,0,0,0-.59.08l-.4,0v.41l-.21.08,0,.25.28,0s0,.31.08.18.71,0,.66.33c0,.13.63.47.56.88a.31.31,0,0,1,.25.39l.43.05.13-.26.13,0v-.16L52.29,21l-.06-.82L52.06,20l0-.2-.21-.08.11-.34-.18-.36Z"/><path id="path129" class="cls-1" d="M52.94,21.68l-.2,0-.45.07-.26.49a.75.75,0,0,1,.23.26c.1.18.15,1.24-.15,1.42s0,.07,0,.07l-.05.57c.08.26.21.13.28,0s.15-.15.25-.28a1.33,1.33,0,0,0,.28-.54c0-.18.16-.47.08-.54s.08-.44.08-.44a.53.53,0,0,0,0-.42.53.53,0,0,1,.1-.54l-.21-.1Z"/><polygon id="rect133" class="cls-1" points="53.25 22.73 53.28 22.53 53.43 22.55 53.4 22.75 53.25 22.73"/><rect id="rect135" class="cls-1" x="53.13" y="23.26" width="0.17" height="0.15" transform="translate(8.03 59.86) rotate(-62.63)"/><path id="path137" class="cls-1" d="M53,21.4l-.1-.23a.93.93,0,0,1,0-.31c.05-.11-.1-.21-.18-.24s0-.23-.08-.33-.2-.18-.2-.18,0-.39,0-.46-.23-.18-.15-.26a2.54,2.54,0,0,1,.2-.23c.08-.05-.07-.42.05-.34s.13.21.18.31,0,.46.1.54,0,.34.18.34.08.49.08.49-.05.36.07.38,0,.65,0,.65L53,21.4Z"/><path id="path139" class="cls-1" d="M51.37,17.22c.08.1.23.18.23.29s-.05.18.1.2.26,0,.31.1a.84.84,0,0,1,0,.44c0,.11,0,.26.15.26s.16,0,.16.1.15-.28.15-.28a1,1,0,0,1-.23-.34,4.06,4.06,0,0,1-.13-.41s-.17-.1-.25-.13-.21-.25-.21-.25l-.3,0Z"/><path id="path141" class="cls-1" d="M51.62,17a.68.68,0,0,0-.25-.23.63.63,0,0,0-.28-.1.17.17,0,0,1-.15-.24c.05-.12-.08-.18-.08-.28s.08-.1.2,0,.11.1.21.23.15.25.25.23.18.23.28.15.08.18.08.18l-.26.08Z"/><path id="path143" class="cls-1" d="M48.65,19.9c.14.14-.76.11-.76,0s.08-.46.31-.38.25-.47.25-.47-.2,0,0-.08,0-.25-.08-.33a1.07,1.07,0,0,1-.15-.21h.35c.15-.1.2-.59.2-.59a.41.41,0,0,0,.46-.1,1,1,0,0,0,.16.28c.1.13-.26.18-.13.26a.38.38,0,0,1,.13.39c-.06.07-.34,0-.34-.08s-.1.13,0,.26-.12.3-.17.3-.38.06-.11.21a.87.87,0,0,0,.59.08s.23,0,.3.1,0,.16-.15.16l-.74-.06s-.17.19-.1.26Z"/><path id="path145" class="cls-1" d="M47,20.14c.13,0,.43-.06.48,0s-.18.18-.18.18l-.3.05c-.1-.13-.13-.23,0-.25Z"/><path id="path147" class="cls-1" d="M50.31,18c.2-.1.63-.1.6-.26s.26-.2.26-.2l.07.31.23.15,0,.28s.07-.05-.21,0-.1.21-.1.21l-.61,0-.07-.26-.2-.28Z"/><path id="path149" class="cls-1" d="M49.31,16.58c.16,0-.05.59.36.54s0,.18.33.21.23-.24.33-.42.05-.28-.13-.33-.18,0-.23-.26a.39.39,0,0,0-.25-.26l-.08-.31-.33.21L49,16.4c0,.33.18.18.33.18Z"/><polygon id="rect153" class="cls-1" points="49.99 18.76 50.06 18.6 50.2 18.67 50.12 18.82 49.99 18.76"/><rect id="rect155" class="cls-1" x="49.72" y="18.51" width="0.15" height="0.18"/><polygon id="rect157" class="cls-1" points="49.85 15.08 49.87 15.31 49.72 15.33 49.7 15.1 49.85 15.08"/><rect id="rect159" class="cls-1" x="49.41" y="17.48" width="0.15" height="0.13"/><polygon id="rect161" class="cls-1" points="49.01 17.48 49 17.32 49.25 17.3 49.27 17.45 49.01 17.48"/><rect id="rect163" class="cls-1" x="46.79" y="19.76" width="0.2" height="0.15" transform="translate(10.15 55.08) rotate(-66.74)"/><rect id="rect165" class="cls-1" x="46.12" y="19.32" width="0.26" height="0.15" transform="translate(-1.63 4.47) rotate(-5.44)"/><polygon id="polygon169" class="cls-1" points="41.16 19.46 41.17 19.62 41.72 19.59 41.72 19.44 41.16 19.46"/><rect id="rect171" class="cls-1" x="40.76" y="19.41" width="0.15" height="0.24" transform="translate(-3.25 9.28) rotate(-12.47)"/><polygon id="rect173" class="cls-1" points="40.68 19.82 40.63 19.68 40.71 19.65 40.76 19.8 40.68 19.82"/><path id="path175" class="cls-1" d="M42,19.39l0,.18.28,0s.13.11.13.18.18.16.28.16a1.28,1.28,0,0,0,.38-.21s.13-.36,0-.33-.31.18-.33,0-.33-.07-.33-.07l-.41.05Z"/><path id="path177" class="cls-1" d="M43.22,19.1c0,.08,0,.18.1.21s.43-.1.46.05,0,.26.23.34a1.37,1.37,0,0,0,.48.1,4.73,4.73,0,0,0,.48-.05s.36.05.43.13c.28.28.46.36.54.23s0-.41,0-.52-.39-.59-.51-.49-.16,0-.38.08-.72,0-.74-.08-.38-.15-.38-.25-.25-.24-.23-.08-.18.23-.23.18-.2.15-.2.15Z"/><path id="path179" class="cls-1" d="M49.06,15.8l.18-.56C49,15.19,49,14.9,49,14.9c0-.23-.38-.49-.5-.41s-.08-.54-.08-.54.23-.16.33-.08-.86-1.29-1.07-1.16-.66-.13-.63-.36-.91-1-.91-1-.31-.21-.36-.06-.15.26,0,.34.13-.13.3,0,.51.41.39.57a.71.71,0,0,1-.28.2l.17.21h.28l0,.44a1,1,0,0,1,.39.33c.07.18.07.29,0,.39a.71.71,0,0,0-.21.46.39.39,0,0,0,.23.26l.2,0,.16.07V15c.2-.05.53.23.5.41s0,.08.31.26.18.21.35.34.33,0,.41-.19Z"/><path id="path181" class="cls-1" d="M44.87,12.3c0-.1-.08-.46.08-.44s0,0,.23.08.2-.13.2-.13h.28l.35.28,0,.23-.25,0c-.13-.21-.38-.13-.33.05a.6.6,0,0,1-.23.54c-.1,0-.43,0-.41-.12s.13-.52.13-.52Z"/><path id="path183" class="cls-1" d="M44.67,11.6v-.2s0-.21-.16-.21-.35-.15-.3-.26-.43-.2-.43-.2-.43-.41-.28-.36.07-.18.07-.18a1.39,1.39,0,0,1-.38,0c-.07,0,0-.26,0-.26s-.3-.07-.3,0,.1.08.15.24,0,.41.25.46.28.1.31.21.3.12.3.12l.21.11.61.51Z"/><polygon id="polygon185" class="cls-1" points="41.85 8.77 41.65 8.72 41.65 8.95 41.92 8.98 41.85 8.77"/><path id="path187" class="cls-1" d="M41.85,7.89c-.27-.2.35.16.35.16a.31.31,0,0,1,.33.23c0,.08.28.05.28.05l0-.18-.2-.26-.18-.12s-.28,0-.28-.11-.23.31-.33.23Z"/><path id="path189" class="cls-1" d="M46.52,8.05c-.07.22-.1.54-.23.54s-.08.33-.08.33a2.79,2.79,0,0,1,.44,0c.1,0,.1.28.1.28.38,0,.53.49.48.62s.15.13.15.13a2.26,2.26,0,0,1-.05.52c0,.1.33.18.43.33a.92.92,0,0,1-.12.7c-.08,0,.2.1.17.23s.08,0,.11.2.07.65.07.65l.36,0c0-.33.7-.34.81-.31a1.56,1.56,0,0,1,.76,1c0,.16-.28.18-.28.18l0,.75a1.22,1.22,0,0,1,.74.85c0,.11.3.08.3.08.06-.46.49-.31.51-.16l.1.5.13.23.18.18.28,0L52,16l.33.05a3.1,3.1,0,0,1,.31.39c0,.07.41.05.51.07s.25.1.27.23a1.28,1.28,0,0,0,.19.34s.3.08.33.18a1.82,1.82,0,0,0,.15.33l.25.21,0,.23.28,0,.07.31.46,0,.25-.18a1.42,1.42,0,0,0,.59-.51c0-.11.07-.49.33-.42s.07-.56.07-.56-.35-.26-.33-.39-.35-.39-.33-.49-.33-.31-.3-.41-.18-.39-.18-.39l-.38-.36,0-.23-.31,0-.6-.75,0-.2-.18,0v-.28l-.17-.1-.29,0-.55-.62-.06-.28h-.27l.05-.54a1,1,0,0,0,.07-.67s-.35.18-.53.1.08-.26.08-.26v-.2L52,10.39s-.43,0-.45,0-.11-.42-.11-.42l0-.43-.18-.08,0-.16-.28,0V9L50.74,9l-.16-.08,0-.31-.56,0-.18-.26L49.62,8l-.64,0-.15-.15-.25-.06-.18-.08-.08.14-.48,0,0,.15c-.26.13-1.28,0-1.3.11Z"/><path id="path191" class="cls-1" d="M49.19,7.38c0-.21.51-.39.63-.23a1,1,0,0,1,.53.95c0,.28-.45-.28-.45-.28l-.38-.13a.39.39,0,0,1-.33-.31Z"/><polygon id="rect193" class="cls-1" points="41.74 7.69 41.6 7.63 41.7 7.4 41.84 7.46 41.74 7.69"/><path id="path195" class="cls-1" d="M40.43,5.16l-.33-.33V4.54L40,4.44l-.1-.36L39.56,4l-.33.13-.35.24-.38,0-.21.23.82.08.15.26.58,0,.38.38c.33.11.41,0,.21-.23Z"/><path id="path197" class="cls-1" d="M40.38,3.9c-.06-.23-.39.28-.05.38a1.13,1.13,0,0,0,.65,0l.08-.15,1.27,0a.83.83,0,0,0,.15-.26s.31-.11.43,0,0-.36-.1-.31a1.05,1.05,0,0,1-.38,0H42c0-.18-.44-.1-.46,0s-.18.13-.18.13l-.58.05c-.06.16-.36.26-.38.16Z"/><path id="path199" class="cls-1" d="M37.86,8.25c.39.12.53,0,.56-.07s0-.13.2-.16,0-.33-.17-.31a.26.26,0,0,1-.33-.18c0-.13-.28-.46-.31-.2s-.18.25-.15.44.1.44.2.48Z"/><path id="path201" class="cls-1" d="M34.94,8.54c0-.09.51-.11.59,0s0,.21.25.21.13.15.1.23-.28.05-.3,0-.41-.1-.41-.1-.2-.15-.23-.28Z"/><polygon id="polygon205" class="cls-1" points="43.38 3.18 43.25 3.04 43.14 3.15 43.32 3.33 43.37 3.38 43.42 3.34 43.67 3.13 43.58 3.01 43.38 3.18"/><polygon id="polygon207" class="cls-1" points="42.01 2.44 41.94 2.57 42.14 2.7 42.18 2.73 42.22 2.7 42.5 2.52 42.42 2.39 42.18 2.54 42.01 2.44"/><polygon id="polygon209" class="cls-1" points="41.32 7.84 41.07 7.82 41.05 7.97 41.27 7.99 41.43 8.24 41.56 8.16 41.38 7.88 41.36 7.85 41.32 7.84"/><path id="path211" class="cls-1" d="M33,15l0,.28h.38c.15,0-.13-.18-.13-.18s-.3,0-.28-.1Z"/><polygon id="rect213" class="cls-1" points="33.45 15.04 33.54 14.92 33.7 15.05 33.6 15.17 33.45 15.04"/><polygon id="rect215" class="cls-1" points="28.82 10.22 28.93 10.11 29.08 10.26 28.97 10.37 28.82 10.22"/><polygon id="polygon219" class="cls-1" points="35.94 43.26 35.87 43.4 36.03 43.48 35.98 43.53 36.09 43.64 36.22 43.51 36.29 43.44 36.19 43.39 35.94 43.26"/><polygon id="polygon221" class="cls-1" points="34.13 41.41 33.98 41.54 33.9 41.61 33.98 41.66 34.16 41.79 34.25 41.67 34.15 41.6 34.23 41.53 34.13 41.41"/><path id="path223" class="cls-1" d="M53.11,36.64c0-.13-.18-.18-.2-.19l0,.15h0l0,0,0,.14,0,0,.11.11a.3.3,0,0,0,.09-.27Z"/><polygon id="polygon225" class="cls-1" points="53.1 36.14 53.12 35.91 53.36 35.95 53.34 36.16 53.1 36.14"/><path id="path227" class="cls-1" d="M59.23,34.15c.11-.07.25-.2.23.09s-.13.2-.23.29S59.08,34.24,59.23,34.15Z"/><path id="path231" class="cls-1" d="M60.52,33.05v0a.34.34,0,0,0,0-.16l-.14.06a.61.61,0,0,1,0,.11.15.15,0,0,0,.05.13.11.11,0,0,0,.1,0l0-.15,0,0Z"/><path id="path233" class="cls-1" d="M60.18,33.18c0,.16.1.31.1.32l.14-.06s-.05-.15-.09-.3l-.15,0Z"/><path id="path235" class="cls-1" d="M59.63,33.79l-.15,0c0,.13,0,.28.13.3l0-.15h0s0-.07,0-.13Z"/><path id="path237" class="cls-1" d="M59,30.71a.18.18,0,0,0-.08-.11c-.11-.05-.3,0-.4.1l.09.13a.33.33,0,0,1,.25-.08h0l.15,0Z"/><path id="path241" class="cls-1" d="M51.93,22.48a.83.83,0,0,1-.33.15l-.08.29-.12.1a.83.83,0,0,1,0,.26c0,.18-.26.28-.26.28l-.1.13a5.26,5.26,0,0,1-.69,0c-.22-.1-.07-.41.08-.39s0-.43,0-.43l.2,0s0-.46.1-.46,0-.16-.13-.24-.23-.33-.33-.31a2.83,2.83,0,0,1-.51,0l-.07.16-.28.05s0,.2,0,.26-.73.57-.48-.08l.08-.15v-.24l-.46,0s-.23-.08-.23-.18a1.84,1.84,0,0,0,0-.23l-.54-.6-.63-.07,0-.13-.38-.05c-.46-.23-.87,0-.79.36s.2.54,0,.54a.3.3,0,0,1-.31-.21s-.2-.07-.2,0-.08.31,0,.41-.1.26-.18.18-.28-.31-.22-.38-.36-.57.05-.65,0-.31.12-.36l.21-.1h.2l.13-.11-.33-.05-.21,0-.38,0a1.06,1.06,0,0,0-.45.57c-.21.38-.69-.16-.51-.36s-.56,0-.69.08-.51.05-.51.05c-.07.23-.43,0-.33-.18a.55.55,0,0,0,.1-.26l-.12,0-.15.29c-.36,0-.46.2-.39.33s-.1,0-.15.15,0,.19.18.26-.08.08,0,.21.41,0,.23.18-.53.1-.53.1c0,.24-.51.18-.56.11s-.43-.55-.43-.55l-.48,0c-.05-.36.23-.18.33-.47a4.11,4.11,0,0,0,.15-.74s-.41,0-.43.1-.28.21-.28.21-.2.07-.13.18-.15.15-.15.15,0,.17,0,.23c-.2.21-.71,0-.78-.05l-.31-.13-.3-.2-.36.15-.1.1h-.38l0,.31.69.08,0,.64-.28-.1H37.4l-.07-.15-.15,0v.57l.15.13.12.13.26,0,0,.31.63,0,.08.13.38,0,.74.75-.05.23-.13.08c.05.18-.33.08-.33.08V24l.18,0,.18.1.25-.44c.28-.18.41.08.43.23s-.13.13-.13.13v.36l.16.05A.31.31,0,0,1,40,25l-.07.26c-.08.23-.36.18-.36.18l-.1.16-.3.07.6.08c.06-.2.21-.26.29-.15a.59.59,0,0,1,.07.28l.16,0,0,.28.15.05V27l.18.2c.3-.13.3.08.15.18s-.05.57-.05.57l-.13.13v.2l-.15.11v.28a.64.64,0,0,0-.63,0c-.23-.15-.71-.1-.71,0s-.18.25-.18.25l-.18.21c.13.26-.13.28-.13.28V30l-.3.29,0,.67c0,.18.38.2.46.1s.38.21.38.21h.23l.05-.47-.15-.08v-.74l.25-.29c.31-.1.21.67.21.75,0,.28.15.26.27.21s.06.28-.15.26-.07.25-.07.25l.12.05-.22.19-.21.23-.25-.08-.31,0-.1-.19-.18,0,0,.36-.13.15-.3.31c.4,0,0,.29-.16.29.23.07,0,.3-.61.13v.17l-.2,0,.18.21.2,0-.07.44c0,.34-.84.1-.92,0l0,.46-.16,0,0,.31,0,.43.28,0v.18l.69,0,1-1.06.58-.13c0-.26.31,0,.31,0a.26.26,0,0,1,.3.16l.33,0c.28.08.11.1.13.21s.15.1.15.1l.05-.33.16,0-.16-.18L40,33.56l-.3-.13c-.2-.28.05-.23.25-.2h.33a2.76,2.76,0,0,1,.38.64c0,.13.18.16.18.16l.23,0,.08.18h.23l.07.15h.46l0-.23L41.49,34l0-.26-.31-.08c-.1-.44.08-.57.21-.36l.15,0L41.47,33l.17,0,0-.54-.15-.06v-.18l.64,0a.94.94,0,0,1,0-.49h.18l0,.13.78.07.55-.63c0-.05.06-.08,0-.14s-.18,0-.31-.07,0-.52,0-.62.44-.26.36,0a.38.38,0,0,0,0,.34.34.34,0,0,1,.59.1c0,.08.17.15.3.08s.28.23.23.38-.51.13-.53,0-.11-.11-.16,0a.35.35,0,0,1-.4.05.07.07,0,0,1,0,0l-.55.63h0c.3.18.15.41.05.46a.79.79,0,0,1-.28,0l0,.11-.66.05,0,.25a.36.36,0,0,0-.38.49.48.48,0,0,1,0,.34l.27.13.36-.11c0-.25.28-.31.48-.46s.54.28.43.49a.83.83,0,0,0-.1.28l0,.24-.26.1-.2.1,0,.13h-.69l-.13.13-.33,0-.1.15-.23,0s-.38.18-.23.38-.63.18-.81-.1c0,.26-.33,0-.33,0l-.28-.08,0-.39c-.05-.26-.54-.26-.51-.08s-.92.08-.92.08l-.3.15-.28.16,0,.13-.46.05-.2.1-.08-.15h-.2l-.21.28c-.53,0-1,.34-1,.47s-.2.25-.2.25l-.23.08-.15.23-.31.11-.05.54-.15.1v.23l-.18,0v.13l-.25,0,.15.39.21.1c.35.05.2.49.2.49l.2,0,.1.29.21.41c.07.31.3.23.4.21s.2.31.2.31l1,0s-.05.11.13.16a5,5,0,0,0,1.39,0c0-.23.64-.28.92-.07a.81.81,0,0,0,.66.07l.38.47.25.56.43.13.31.08.1.44.23,0,.08.29c.28.2-.08.64-.08.64v.57l.2.1,0,.21.33.33.38,0,1,1,.77.23.12.41.21,0,.15-.13.61,0,.3-.28.33,0,2.82-2.4-.25-.15V42c.45-.34.48-.93.05-1s-.18-.39.13-.44l.17-.08v-.23l.59-.54v-.41L48,38.25c-.56-.2,0-1.44.38-1.42s0-1.9,0-1.9l-.2-.1.05-.62h-.28l-.46.59-.12.41c-.05.54-1.63.44-1.71.36a3.86,3.86,0,0,0-.6-.31s-.41-.33-.49-.23-.43-.13-.43-.05-.33-.18-.33-.18l-.51-.18.39-.08-.08-.31.66.34c.07.1.4.07.4.07l.11.13a.42.42,0,0,1,.33.13c.12.16.78,0,.78,0l.18.15.28.11.79,0,0-.49.16-.15,0-.31.18-.16v-.25l.15-.06,0-.56.12,0V32l-.38-.36c0,.13-.43.13-.43.13s-.1.18-.18.18.11.23.05.39-.25.15-.25.15l-.38.11-.1.13h-.41l-.05-.34.46-.13.25-.13.13-.25c0-.26.33-.24.33-.24s.58-.49.61-.72.23-.87.58-.87h.66c.26-.11.18-.44.18-.44l.33-.05,0,.18s.46.05.51,0,.15-.26.28-.18.53-.18.53-.18c0-.18.66-.1.66-.1l.08-.23s-.43-.6-.51-.6-.48-.36-.53-.23c-.41-.1-.38-.67-.38-.67l-.16-.36c0-.21-.38-.65-.45-.59a.37.37,0,0,1,0-.65c.1,0,.35-.38.35-.38l.13-.37L50.1,25l0-.34-.23,0s.26-.47.38-.47a6.84,6.84,0,0,0,1-.05,1.36,1.36,0,0,0,.23-.54c0-.08.21-.1.28-.13a1,1,0,0,0,.31-.33c.05-.11-.13-.75-.23-.65Z"/><path id="path245" class="cls-1" d="M37.86,31.77s.08.12.15.1.12.13,0,.13-.07.1-.07.14a.26.26,0,0,1-.06.19c-.06.06-.12,0-.19,0a.38.38,0,0,0-.21,0c-.1,0,0,.16,0,.16s-.4,0-.33-.08.16-.08.1-.12,0-.07,0-.15.19,0,.13-.1,0-.28.1-.15l.06-.14c-.06-.05,0-.07-.14-.11s0-.27,0-.27l0-.16c0-.19.42-.21.44,0a1.1,1.1,0,0,1,0,.29l.12,0s0,.12-.12.12,0,.06-.06.11l.06.1Z"/><path id="path247" class="cls-1" d="M36.6,32c.06-.11.19-.61.35-.46s.24,0,.24,0a.24.24,0,0,1,0,.23c0,.16-.07.31-.17.33s-.17.08-.28.1-.18-.2-.18-.2Z"/><rect class="cls-1" x="56.85" y="84.54" width="2.64" height="13.18"/><rect class="cls-1" x="13.78" y="84.54" width="2.64" height="13.18"/><polygon class="cls-1" points="52.59 95.08 50.69 95.08 50.69 87.17 48.06 87.17 48.06 95.08 46.16 95.08 46.16 97.72 48.06 97.72 50.69 97.72 52.59 97.72 55.23 97.72 55.23 95.08 55.23 84.54 52.59 84.54 52.59 95.08"/><path class="cls-1" d="M28,84.54V95.08H24.77V87.17H18.19V97.72h3.95v4.11h2.63V97.72H44.39V89.81H41.76v5.27H40.44V89.81H37.8v5.27H36.48V89.81H33.85v5.27H30.63V87.17H44.39V84.54H28ZM22.14,95.08H20.82V89.81h1.32Z"/><path class="cls-1" d="M13.78,106.24h6.59v2.52H16.53V113h3.28v2.5H16.53v4.62h4v2.52H13.78Z"/><path class="cls-1" d="M26,112.19l1.7,2A6.17,6.17,0,0,1,29.76,119a3.64,3.64,0,0,1-4,3.9c-2,0-3.92-1.21-3.92-3.59v-2h2.71V119c0,.6.12,1.6,1.21,1.6.78,0,1.21-.62,1.21-1.54a4,4,0,0,0-1.31-2.89l-1.93-2.2a5.35,5.35,0,0,1-1.74-4.2A3.43,3.43,0,0,1,25.8,106c1.85,0,3.84.69,3.84,3.65v1.9H27V110c0-1.09-.35-1.73-1.19-1.73s-1.21.45-1.21,1.32A3.26,3.26,0,0,0,26,112.19Z"/><path class="cls-1" d="M38.92,119a3.58,3.58,0,0,1-3.82,3.94A3.57,3.57,0,0,1,31.29,119v-9.11A3.56,3.56,0,0,1,35.08,106a3.57,3.57,0,0,1,3.84,3.91v2.34H36.17v-2.68c0-.77-.35-1.22-1.07-1.22s-1.06.45-1.06,1.22v9.82c0,.76.32,1.21,1.06,1.21s1.07-.45,1.07-1.21v-3.24h2.75Z"/><path class="cls-1" d="M40.11,106.24H42.9l1.35,12.15h0l1.25-12.15h2.63l1.21,12.15h0l1.35-12.15h2.75L51,122.63H48l-1.21-11.09h0l-1.28,11.09h-3Z"/><path class="cls-1" d="M55.87,122.63H53.09l2.56-16.39h3.73L62,122.63H59.07l-.34-3.2H56.22Zm2.57-5.54-.86-8.69H57.5l-1,8.69Z"/><path class="cls-1" d="M8,70v3.56c0,1.34.59,1.91,1.39,1.91s1.46-.59,1.46-1.91V70h.79v3.51c0,1.84-1,2.59-2.27,2.59s-2.16-.7-2.16-2.57V70Z"/><path class="cls-1" d="M12.86,76V70h.86l1.91,3A16.3,16.3,0,0,1,16.7,75h0c-.07-.81-.09-1.54-.09-2.47V70h.73v6h-.78L14.68,73a16,16,0,0,1-1.11-2h0c.05.76.05,1.48.05,2.47V76Z"/><path class="cls-1" d="M19.41,70v6h-.78V70Z"/><path class="cls-1" d="M21.81,70.67H20V70h4.44v.66H22.6V76h-.79Z"/><path class="cls-1" d="M28.11,73.2H25.79v2.16h2.6V76H25V70h3.25v.65H25.79v1.89h2.32Z"/><path class="cls-1" d="M29.3,70.1A10.06,10.06,0,0,1,31,70a3.48,3.48,0,0,1,2.43.75,2.73,2.73,0,0,1,.86,2.16,3.17,3.17,0,0,1-.87,2.33,3.73,3.73,0,0,1-2.66.86A11.41,11.41,0,0,1,29.3,76Zm.78,5.3a5.66,5.66,0,0,0,.78,0,2.31,2.31,0,0,0,2.56-2.55A2.14,2.14,0,0,0,31,70.58a4,4,0,0,0-.91.08Z"/><path class="cls-1" d="M37,76V70h.85l1.92,3A17.65,17.65,0,0,1,40.78,75h0c-.07-.81-.09-1.54-.09-2.47V70h.73v6h-.78L38.76,73a16,16,0,0,1-1.11-2h0c.05.76.06,1.48.06,2.47V76Z"/><path class="cls-1" d="M43.69,74.12,43.06,76h-.8l2.05-6h.93l2,6h-.82l-.64-1.89Zm2-.6-.59-1.73c-.14-.39-.22-.75-.31-1.1h0c-.09.35-.18.72-.3,1.09l-.59,1.74Z"/><path class="cls-1" d="M48.53,70.67H46.71V70h4.44v.66H49.32V76h-.79Z"/><path class="cls-1" d="M52.5,70v6h-.78V70Z"/><path class="cls-1" d="M58.9,73c0,2-1.26,3.16-2.79,3.16a2.76,2.76,0,0,1-2.7-3.06,2.85,2.85,0,0,1,2.78-3.15A2.74,2.74,0,0,1,58.9,73ZM54.23,73c0,1.29.7,2.44,1.93,2.44s1.92-1.14,1.92-2.5c0-1.2-.62-2.45-1.92-2.45S54.23,71.73,54.23,73Z"/><path class="cls-1" d="M59.82,76V70h.85l1.92,3A17.65,17.65,0,0,1,63.65,75h0c-.07-.81-.09-1.54-.09-2.47V70h.73v6h-.78L61.63,73a16,16,0,0,1-1.11-2h0c0,.76.06,1.48.06,2.47V76Z"/><path class="cls-1" d="M65.49,75.07a2.67,2.67,0,0,0,1.38.39c.79,0,1.26-.42,1.26-1s-.33-.88-1.14-1.18c-1-.36-1.58-.87-1.58-1.71a1.72,1.72,0,0,1,1.94-1.63,2.71,2.71,0,0,1,1.32.29l-.21.64a2.2,2.2,0,0,0-1.14-.29c-.82,0-1.13.49-1.13.9,0,.56.37.84,1.2,1.16,1,.39,1.52.88,1.52,1.76s-.68,1.74-2.09,1.74a3.2,3.2,0,0,1-1.54-.39Z"/></svg>