<?xml version="1.0" encoding="utf-8"?>
<!-- Generator: Adobe Illustrator 21.0.0, SVG Export Plug-In . SVG Version: 6.00 Build 0)  -->
<svg version="1.1" id="Layer_1" xmlns="http://www.w3.org/2000/svg" xmlns:xlink="http://www.w3.org/1999/xlink" x="0px" y="0px"
	 viewBox="0 0 204 206.5" style="enable-background:new 0 0 204 206.5;" xml:space="preserve">
<style type="text/css">
	.st0{fill:#F2F2F2;}
	.st1{fill:#FFFFFF;}
	.st2{fill:#5FBA46;}
	.st3{fill:#D1A02A;}
	.st4{fill:#C22134;}
	.st5{fill:#2D9A47;}
	.st6{fill:#48773C;}
	.st7{fill:#FDB715;}
	.st8{fill:#EF4228;}
	.st9{fill:#F99E26;}
	.st10{fill:#047DBB;}
	.st11{fill:#8F1839;}
	.st12{fill:#00ADD8;}
	.st13{fill:#F36E26;}
	.st14{fill:#E81F2F;}
	.st15{fill:#E01983;}
	.st16{fill:#1E3768;}
	.st17{fill:#CD8B2A;}
	.st18{fill:#00558A;}
	.st19{fill:#E8E8E8;}
</style>
<path class="st0" d="M102.6,77.9c-15.1,0-27.4,12.3-27.4,27.4s12.3,27.4,27.4,27.4c15.1,0,27.4-12.3,27.4-27.4
	S117.7,77.9,102.6,77.9z M102.6,130.3c-13.9,0-25.1-11.2-25.1-25.1c0-13.9,11.2-25.1,25.1-25.1s25.1,11.2,25.1,25.1
	C127.7,119.1,116.4,130.3,102.6,130.3z"/>
<path class="st2" d="M75.3,89.4c1.4-2.3,3-4.4,4.9-6.3L64.2,65.5c-4,3.9-7.5,8.3-10.2,13.3L75.3,89.4z"/>
<path class="st3" d="M114.7,77c2.4,1.1,4.7,2.5,6.7,4.2l16.1-17.6c-4.2-3.7-9.1-6.7-14.3-8.9L114.7,77z"/>
<path class="st4" d="M151.6,82.3l-21.3,10.6c1,2.4,1.7,4.9,2.1,7.5l23.7-2.2C155.4,92.6,153.9,87.2,151.6,82.3"/>
<path class="st5" d="M128.7,89.8L150,79.2c-2.6-4.9-6-9.4-10-13.2L124,83.5C125.8,85.4,127.4,87.5,128.7,89.8"/>
<path class="st6" d="M71.1,105c0-0.5,0-1,0-1.4l-23.7-2.1c-0.1,1.2-0.1,2.4-0.1,3.6c0,4.6,0.6,9,1.6,13.2l22.9-6.6
	C71.3,109.5,71.1,107.3,71.1,105"/>
<path class="st7" d="M125.7,124.5c-1.7,2.1-3.6,3.9-5.8,5.4l12.5,20.3c4.7-3.2,8.8-7,12.3-11.4L125.7,124.5z"/>
<path class="st8" d="M132.7,105c0,2.2-0.2,4.4-0.7,6.6l22.9,6.6c1-4.2,1.6-8.6,1.6-13.1c0-1.1,0-2.2-0.1-3.4l-23.7,2.2
	C132.7,104.3,132.7,104.6,132.7,105"/>
<path class="st9" d="M78.5,125l-19,14.4c3.5,4.3,7.7,8.1,12.4,11.2l12.5-20.3C82.2,128.8,80.2,127,78.5,125"/>
<path class="st10" d="M71.5,100.1c0.4-2.7,1.2-5.2,2.3-7.6L52.4,81.8c-2.4,5-4,10.4-4.7,16.1L71.5,100.1z"/>
<path class="st11" d="M129.5,152.1L117,131.8c-2.3,1.3-4.7,2.3-7.3,3l4.4,23.5C119.6,157,124.8,154.9,129.5,152.1"/>
<path class="st12" d="M131.1,114.9c-0.8,2.4-2,4.7-3.3,6.9l19,14.4c3.1-4.4,5.5-9.4,7.2-14.6L131.1,114.9z"/>
<path class="st13" d="M106.3,135.5c-1.4,0.2-2.9,0.3-4.4,0.3c-1.2,0-2.4-0.1-3.6-0.2L93.9,159c2.6,0.4,5.3,0.6,8,0.6
	c3,0,6-0.2,8.9-0.7L106.3,135.5z"/>
<path class="st14" d="M103.9,74.2c2.6,0.2,5.2,0.7,7.6,1.5l8.6-22.3c-5.1-1.8-10.5-2.9-16.2-3.1V74.2z"/>
<path class="st15" d="M94.9,135c-2.7-0.6-5.2-1.6-7.6-2.9l-12.5,20.3c4.8,2.8,10.1,4.8,15.7,6L94.9,135z"/>
<path class="st16" d="M92.6,75.6c2.5-0.8,5.1-1.3,7.8-1.4V50.4c-5.7,0.2-11.2,1.2-16.4,3L92.6,75.6z"/>
<path class="st17" d="M76.4,122.2c-1.5-2.2-2.7-4.7-3.6-7.3l-22.9,6.6c1.7,5.5,4.3,10.6,7.6,15.1L76.4,122.2z"/>
<path class="st18" d="M82.8,80.8c2-1.6,4.2-2.9,6.6-4l-8.6-22.2c-5.1,2.2-9.9,5.1-14.1,8.6L82.8,80.8z"/>
<path class="st19" d="M102.3,192.6c-6.2-0.6-10.5-3.8-13.1-9.3c-0.5-1.1-1.1-1.6-2.2-1.8c-30.1-5.9-55-30.8-61.1-61.2
	c-0.2-1.1-0.7-1.6-1.7-2.1c-5.4-2.5-8.9-6.6-9.3-12.7c-0.3-5.5,3.6-11.1,9.2-13.5c1-0.4,1.5-1,1.8-2.1c4-19.3,14-34.8,29.5-46.8
	c9.4-7.3,20-12.1,31.7-14.4c1.1-0.2,1.6-0.7,2.1-1.7c2.5-5.4,6.6-8.9,12.7-9.2c5.4-0.3,11,3.6,13.5,9.3c0.4,1,1,1.5,2.1,1.7
	c19.2,4,34.7,14,46.7,29.4c7.3,9.4,12.2,20.1,14.6,31.9c0.1,0.7,0.9,1.6,1.6,1.9c5.4,2.7,9,6.7,9.3,12.9c0.3,5.4-3.7,11-9.3,13.4
	c-1.1,0.5-1.5,1.1-1.7,2.1c-5.9,26.3-21.3,45-45.8,56.2c-4.9,2.3-10.4,3.3-15.5,5c-0.7,0.2-1.5,0.9-1.9,1.6
	C112.7,188.7,108.5,192,102.3,192.6z M107.1,164.1c0,0.5,0.5,1.3,0.9,1.5c2.6,1.4,4.7,3.3,6.3,5.8c0.5,0.8,1,1,1.9,0.8
	c26.7-5.4,47.3-25.8,52.9-52.5c0.3-1.4-0.1-2-1.2-2.8c-4-2.8-6.7-6.6-6.7-11.7c0-5.2,2.8-9,6.9-11.9c1-0.7,1.2-1.2,1-2.4
	c-6.8-28.3-24.3-45.8-52.6-52.7c-1.4-0.3-1.9,0.1-2.6,1.1c-2.8,4-6.5,6.7-11.6,6.7c-5.3,0-9.1-2.8-12.1-7c-0.5-0.8-1-1.2-2-1
	C61.5,43.5,41,63.9,35.4,90.7c-0.3,1.3-0.1,1.9,1,2.7c4.1,2.8,6.8,6.6,6.8,11.8c0,5.3-2.8,9-6.9,11.9c-1,0.7-1.2,1.2-0.9,2.4
	c6.8,28.3,24.4,45.9,52.8,52.7c1.1,0.3,1.5,0,2.3-0.8c1.8-2,3.8-3.8,5.9-5.4c0.9-0.7,1.3-1.2,1.3-2.3 M102.3,36.6
	c3.4,0,4.6-1.5,4.6-5.4c0-2.6-1.7-4-4.7-3.9c-3,0-4.6,1.4-4.6,4.1C97.6,35.1,98.9,36.6,102.3,36.6z M33.7,105.1
	c0-3.4-1.5-4.7-5.3-4.7c-2.6,0-4,1.6-4,4.6c0,3.1,1.5,4.7,4.2,4.7C32.3,109.7,33.7,108.5,33.7,105.1z M175.2,109.6
	c3,0.2,4.6-0.9,4.9-3.6c0.3-3.4-0.9-5.2-3.6-5.5c-3.5-0.3-5.4,1-5.7,3.7C170.5,107.8,171.9,109.9,175.2,109.6z M97.7,178.1
	c-0.3,2.9,1,4.6,3.7,4.8c3.3,0.3,5.2-0.9,5.4-3.5c0.3-3.5-0.9-5.5-3.3-5.8C99.5,173.3,98.1,174.4,97.7,178.1z"/>
<path class="st1" d="M102.3,36.6c-3.4,0-4.7-1.4-4.7-5.3c0-2.6,1.6-4,4.6-4.1c3,0,4.7,1.4,4.7,3.9C106.9,35.1,105.7,36.5,102.3,36.6
	z"/>
<path class="st1" d="M175.2,109.6c-3.3,0.3-4.7-1.8-4.4-5.4c0.2-2.7,2.2-4,5.7-3.7c2.7,0.3,3.9,2.1,3.6,5.5
	C179.9,108.7,178.3,109.9,175.2,109.6z"/>
<path class="st1" d="M97.7,178.1c0.4-3.8,1.8-4.8,5.8-4.4c2.5,0.3,3.7,2.3,3.3,5.8c-0.2,2.6-2.1,3.8-5.4,3.5
	C98.7,182.7,97.4,181.1,97.7,178.1z"/>
</svg>
