<svg id="Layer_1" data-name="Layer 1" xmlns="http://www.w3.org/2000/svg" viewBox="0 0 392 399"><defs><style>.cls-1{fill:#5fba46;}.cls-2{fill:#d2a02b;}.cls-3{fill:#c12034;}.cls-4{fill:#2c9947;}.cls-5{fill:#49773c;}.cls-6{fill:#fcb614;}.cls-7{fill:#ee4128;}.cls-8{fill:#f89d26;}.cls-9{fill:#007dba;}.cls-10{fill:#8e1939;}.cls-11{fill:#00acd7;}.cls-12{fill:#f26e26;}.cls-13{fill:#e81f2e;}.cls-14{fill:#df1782;}.cls-15{fill:#1f3668;}.cls-16{fill:#cc8a2a;}.cls-17{fill:#005589;}</style></defs><title>sdg</title><path class="cls-1" d="M106.19,147.94a105,105,0,0,1,16.53-21.27L68.51,67.21A185.7,185.7,0,0,0,34.09,112Z"/><path class="cls-2" d="M239.11,105.94a103.2,103.2,0,0,1,22.74,14.24l54.38-59.36A184.66,184.66,0,0,0,268,30.76Z"/><path class="cls-3" d="M363.62,123.81l-72.07,35.92a103,103,0,0,1,7.22,25.47l80.16-7.57a182.75,182.75,0,0,0-15.32-53.82"/><path class="cls-4" d="M286.39,149.32l72.06-35.91A185,185,0,0,0,324.77,68.7L270.4,128a104.64,104.64,0,0,1,16,21.28"/><path class="cls-5" d="M91.87,200.53c0-1.62.06-3.25.12-4.86L11.81,188.5c-.24,4-.41,8-.41,12a184.66,184.66,0,0,0,5.46,44.6l77.44-22.22a103.75,103.75,0,0,1-2.44-22.38"/><path class="cls-6" d="M276.3,266.43a105.61,105.61,0,0,1-19.55,18.4l42.34,68.54a185.86,185.86,0,0,0,41.45-38.5Z"/><path class="cls-7" d="M299.89,200.53a103.29,103.29,0,0,1-2.38,22.12l77.43,22.25a183.91,183.91,0,0,0,5.41-44.37c0-3.8-.13-7.57-.36-11.33l-80.18,7.58c0,1.25.08,2.49.08,3.75"/><path class="cls-8" d="M116.77,268,52.69,316.67a185.7,185.7,0,0,0,41.85,37.91l42.33-68.47A105.2,105.2,0,0,1,116.77,268"/><path class="cls-9" d="M93.17,184.11a102.36,102.36,0,0,1,7.68-25.82l-72-35.89a183.32,183.32,0,0,0-15.9,54.52Z"/><path class="cls-10" d="M289.23,359.57,247,291.12a103.6,103.6,0,0,1-24.67,10l14.92,79.19a183,183,0,0,0,52-20.76"/><path class="cls-11" d="M294.43,233.86A104.57,104.57,0,0,1,283.18,257l64.29,48.49a183.87,183.87,0,0,0,24.33-49.43Z"/><path class="cls-12" d="M210.89,303.45a103.25,103.25,0,0,1-27.11.38L168.86,383a185.49,185.49,0,0,0,56.93-.45Z"/><path class="cls-13" d="M202.53,96.73a103,103,0,0,1,25.74,5l28.92-75.16a183.55,183.55,0,0,0-54.66-10.35Z"/><path class="cls-14" d="M172.31,301.85a103,103,0,0,1-25.53-9.66L104.43,360.7a183.61,183.61,0,0,0,53,20.26Z"/><path class="cls-15" d="M164.62,101.32a103.11,103.11,0,0,1,26.27-4.67V16.13a183.91,183.91,0,0,0-55.39,10.09Z"/><path class="cls-16" d="M109.71,258.71a103.24,103.24,0,0,1-12.27-24.6L20.06,256.32a183.27,183.27,0,0,0,25.56,51.1Z"/><path class="cls-17" d="M131.44,118.95a104.78,104.78,0,0,1,22.3-13.5L124.65,30.38A184.29,184.29,0,0,0,77.18,59.45Z"/></svg>