<svg id="Layer_1" data-name="Layer 1" xmlns="http://www.w3.org/2000/svg" viewBox="0 0 392 399"><defs><style>.cls-1{fill:#fefefe;}.cls-2{fill:#edefef;}.cls-3{fill:#0e756d;}.cls-4{fill:#ec2427;}.cls-5{fill:#cf9031;}.cls-6{fill:#389ad4;}.cls-7{fill:#f2a325;}.cls-8{fill:#e01d88;}.cls-9{fill:#922142;}.cls-10{fill:#7ea641;}.cls-11{fill:#7c50a0;}.cls-12{fill:#3aaa9e;}.cls-13{fill:#b8ca3e;}.cls-14{fill:#f8d019;}.cls-15{fill:#5c3084;}.cls-16{fill:#8d1b35;}</style></defs><title>DEMOGRAPHIC-STATISTICS-01</title><path class="cls-1" d="M10.24,198.24q0-95.88,0-191.76c0-1.8.41-2.21,2.21-2.2q183.84.07,367.68,0c1.8,0,2.21.41,2.2,2.2q-.07,192,0,384c0,1.8-.41,2.21-2.2,2.2q-183.84-.07-367.68,0c-1.8,0-2.21-.41-2.21-2.2Q10.28,294.36,10.24,198.24ZM197.67,369.6a173.91,173.91,0,0,0,61.51-12.78,167.33,167.33,0,0,0,54.29-35.56,164.53,164.53,0,0,0,37-53.78c8.64-20.2,13.86-41.39,13.86-63.39,0-58.85-24-106.2-71.17-141.05a156.84,156.84,0,0,0-92.63-31.13C141.5,31.23,93.5,54.73,58.31,102.42c-20.89,28.31-31.22,60.72-31.64,95.93A165.63,165.63,0,0,0,39,263.64,172.47,172.47,0,0,0,75.4,319.15a162.74,162.74,0,0,0,55,37.35A171.86,171.86,0,0,0,197.67,369.6ZM188.89,23.51q0-1.08,0-2.16c0-3.15,0-3.19-3.18-3A174,174,0,0,0,139.2,26.8c-3.58,1.18-3.58,1.19-2.32,4.61a24.63,24.63,0,0,1,1.37,3.82c.45,2.39,1.8,2.45,3.79,2.06,13.74-2.75,27.1-7.39,41.4-7.32,5.35,0,5.44-.77,5.45-6.22Q188.89,23.63,188.89,23.51ZM128.82,41.19c-.15-.39-.33-.83-.51-1.27-.78-1.92-1.72-3.8-2.31-5.77s-1.36-1.92-3-1.19A177,177,0,0,0,82.53,57.88c-3.14,2.57-3.16,2.56-.61,5.53A28.83,28.83,0,0,1,84.09,66c1,1.49,1.9,1.33,3.33.44,13.31-8.21,26.29-17,40.29-24.06C128.2,42.1,128.8,42,128.82,41.19Zm74.49-22.83c-2.9-.19-2.9-.19-2.91,2.66,0,.4,0,.8,0,1.2,0,7.62,0,7.63,7.83,7.94,4.22.17,8.44,0,12.64.78,7.62,1.36,15.06,3.5,22.64,5,2.17.44,4.71,1.85,6.46.79s1.57-4,2.59-6,.09-2.37-1.54-2.93A176.46,176.46,0,0,0,203.32,18.36Zm-7.45,363.18a117.44,117.44,0,0,0,13.46-.55c4.22-.29,8.41-1,12.62-1.39,1.64-.17,2.17-.79,1.71-2.48a23.39,23.39,0,0,1-.75-5c-.09-1.81-.87-2.29-2.59-2-2.29.33-4.61.46-6.92.65a227.46,227.46,0,0,1-41.39-.45c-3.92-.38-3.32-.66-3.91,3.05-.21,1.34-.45,2.68-.75,4s-.17,2.13,1.58,2.35A195.75,195.75,0,0,0,195.87,381.54Zm173.29-128c.31-1.47-.44-1.59-1-1.78a31.52,31.52,0,0,1-5.22-1.68c-1.92-1-2.32-.11-3,1.39-6.7,14.91-12.78,30.12-21.4,44.1-.59,1-.28,1.38.51,1.89a47.38,47.38,0,0,1,4.93,3.39c1.45,1.22,2.1.85,3.05-.6a181.22,181.22,0,0,0,20.39-41.32C368.08,256.93,368.69,254.94,369.16,253.5Zm-76.24,89.23a2.92,2.92,0,0,0,.8,2,29,29,0,0,1,2.56,3.75c.77,1.57,1.46,1.36,2.67.52a185.2,185.2,0,0,0,36.5-33.41c3.51-4.22,3.48-4.24-.77-7.88l-.19-.15c-2.72-2.39-3.65-2.26-5.93.65a150.14,150.14,0,0,1-13.37,14.71,174.23,174.23,0,0,1-20.8,17.31A2.68,2.68,0,0,0,292.91,342.73ZM157.3,369.51c.49-1.58-.93-1.44-1.67-1.71-6.14-2.23-12.34-4.32-18.46-6.6A239.12,239.12,0,0,1,109.36,349c-1.48-.77-2.24-.62-2.88,1a18.67,18.67,0,0,1-2.15,4c-1.17,1.58-1,2.36.81,3.38a179.71,179.71,0,0,0,43.6,18.14c7.56,2,7.55,2.06,8.51-5.74A1.58,1.58,0,0,1,157.3,369.51Zm219.53-166.6c-.28-5.1-.59-10.2-.81-15.3-.05-1.23-.4-1.72-1.71-1.57a25.24,25.24,0,0,1-4.78.19c-2.1-.16-2.63.57-2.62,2.69,0,15.58-.14,31.15-3.77,46.43a3,3,0,0,0,2.37,4c1.68.48,3.48.61,5.12,1.21s2-.12,2.25-1.52A188.71,188.71,0,0,0,376.83,202.91ZM287.25,355.7c-1.11-2-2.34-3.93-3.33-6-.53-1.12-.94-1.42-2.1-.81-2,1-4,1.91-6.05,2.86-10.53,4.95-20.88,10.35-32.36,12.92a42,42,0,0,0-7,2.34c-1.88.79-2.85,1.71-2,3.9a18.87,18.87,0,0,1,.94,4.44c.15,1.3.63,1.62,1.87,1.25,2.22-.65,4.48-1.14,6.71-1.76a180.92,180.92,0,0,0,42-17.66C286.45,356.85,287.33,356.76,287.25,355.7ZM45.08,114.85a2.91,2.91,0,0,0,3-1.66c1.61-2.66,3.25-5.31,5-7.89C59.94,95.17,68,86,76.37,77.06c1.22-1.31,1.52-2.2,0-3.47a31.09,31.09,0,0,1-3.65-3.8c-1.13-1.36-1.93-1.6-3.31-.13C66,73.32,62.53,77,59.28,80.83a175,175,0,0,0-19.9,29c-.33.6-1.42,1.41-.46,2A19.28,19.28,0,0,0,45.08,114.85ZM97.74,342.56c.1-1.32-.73-1.91-1.61-2.55q-6.33-4.56-12.2-9.7a212.85,212.85,0,0,1-22-22.4c-1.29-1.53-2.59-2-4.24-.5a33.53,33.53,0,0,1-3.37,2.7c-1,.7-1.12,1.27-.32,2.29a180.63,180.63,0,0,0,38.17,36.51c.42.29,1,1,1.43.46C95.16,347.22,97,345.21,97.74,342.56Zm-68.2-93.78A37.74,37.74,0,0,1,25.43,250c-2,.39-2.47,1.18-1.83,3.27a182.27,182.27,0,0,0,21,45.76c1.82,2.83,1.82,2.83,4.64.8.91-.65,1.76-1.39,2.72-2,1.16-.69,1.21-1.42.55-2.54-1.38-2.34-2.64-4.75-3.94-7.13-6-11.06-12.32-22-15.43-34.41a10.31,10.31,0,0,0-2.23-4.2C30.54,249.22,30.2,248.74,29.54,248.78ZM304.21,67.54a2,2,0,0,0,2-.8,29.2,29.2,0,0,1,2.53-2.88c1.6-1.41,1.12-2.27-.35-3.47a193.2,193.2,0,0,0-39.24-25.1c-5.32-2.55-5.32-2.54-7.63,2.8-1.22,2.83-.71,4.14,2.24,5.36A159,159,0,0,1,302,66.37,5.33,5.33,0,0,0,304.21,67.54Zm63.28,107.2a29.75,29.75,0,0,1,4.48-.41c2.14.14,2.3-.85,2-2.58a186.28,186.28,0,0,0-14.35-45c-2.24-4.8-2.2-4.73-7-2.63-2.06.9-2.33,2.37-1.57,4,6.56,14.12,10.33,29.1,13.78,44.18C365.27,174.3,365.87,175.26,367.5,174.74Zm-327-47.56c0-1.33.11-2.2-1-2.87-5.43-3.45-6.06-3.3-8.53,2.52l-.37.88A188.19,188.19,0,0,0,18.3,171.83c-.27,1.78.26,2.2,1.86,2.36,5.43.56,5.42.6,6.75-4.64.06-.23.09-.47.15-.7,3.33-13.56,6.62-27.13,12.86-39.75A10.35,10.35,0,0,0,40.51,127.18Zm-24,74a162.62,162.62,0,0,0,3.27,37.13c.25,1.24.65,1.65,1.89,1.25a47.1,47.1,0,0,1,4.84-1.33c1.22-.25,1.48-.74,1.26-2-2.71-14.83-3.49-29.81-3.6-44.85,0-5.57,0-5.51-5.51-5.78-1.56-.08-2.18.35-2.17,1.92C16.56,192.09,16.54,196.64,16.54,201.19Zm329.59-86c1.24-.17,2.51-1.4,4-2s1.75-1.22.83-2.75A195.51,195.51,0,0,0,322.84,73.9c-1.39-1.41-2.89-3.84-4.29-3.8s-2.78,2.56-4.25,3.89c-1,.88-1.06,1.51-.11,2.51,10.85,11.44,21.14,23.33,29,37.11A2.85,2.85,0,0,0,346.13,115.22Z"/><path class="cls-2" d="M197.67,369.6a171.86,171.86,0,0,1-67.3-13.1,162.74,162.74,0,0,1-55-37.35A172.47,172.47,0,0,1,39,263.64a165.63,165.63,0,0,1-12.29-65.29c.41-35.21,10.75-67.62,31.64-95.93C93.5,54.73,141.5,31.23,200.56,31.92A156.84,156.84,0,0,1,293.19,63c47.19,34.85,71.16,82.2,71.17,141.05,0,22-5.22,43.19-13.86,63.39a164.53,164.53,0,0,1-37,53.78,167.33,167.33,0,0,1-54.29,35.56A173.91,173.91,0,0,1,197.67,369.6ZM136.49,98.36c-1.74-.28-2.08,1.68-3.33,2.1-3.88,1.32-7,3.88-10.1,6.37-2.11,1.7-4.62,3.19-5.83,5.86a3,3,0,0,0-1.85.89,99.18,99.18,0,0,0-15.17,16.84c-.86,1.17.19,1.43.36,1.51,2,1,3.35,2.8,5.17,4A41.24,41.24,0,0,1,117.9,148c1.81,2.78,3.9,5.53,4.48,8.77a40,40,0,0,1,.58,12.38c-.76,5.84-3.34,10.68-6.09,15.51-3.1,5.46-8.51,8.43-13.9,11.25-2.52,1.32-5.34,1.54-8.06,2.17-5,1.17-10,.72-15,.42-2.37-.14-2.44.56-2.45,2.26a98.25,98.25,0,0,0,2.93,23.88c1.08,3.83,1,7.83,2.94,11.61a92.27,92.27,0,0,1,4.25,10.51,60.13,60.13,0,0,0,6.63,13.62c1.45,2.13,3.29,4,4.31,6.41s3.5,3.09,5,1a25,25,0,0,1,4.87-4.42c6-4.82,13-6.79,20.46-7.4,3.54-.29,6.95.75,10.39,1.64A30.58,30.58,0,0,1,152,264.45c6,5.26,10.1,11.71,11.18,19.63a39.34,39.34,0,0,1-3.8,23.17c-1.89,3.81-.76,4.36,2.63,5.24,2.79.72,5.7,1.1,8.35,2.16a30.38,30.38,0,0,0,13.15,2.07,65.6,65.6,0,0,0,23.93,0,23,23,0,0,0,11-1.24c3.69-1.28,7.46-2,11.19-3,2.76-.69,3.85-2.37,2.25-4.9-4.16-6.56-4.61-14.06-4.76-21.37-.06-3,1.42-6.55,2.9-9.48,2.54-5,5.56-9.75,10.21-13.4,5.83-4.57,12.46-6.53,19.55-7.42,2.16-.27,4.35.32,6.53.6a32.48,32.48,0,0,1,18.08,8.36,25.23,25.23,0,0,0,4.12,3.49c1.53.88,3,.57,3.64-.79,2.39-4.81,6-8.91,8.26-13.73,1.11-2.33,2.85-4.46,3-7.2.1-.8.85-1.18,1.13-2,1-3,2.18-5.88,3.15-8.86a43.16,43.16,0,0,0,2.47-11.31c.78-2.44,1.9-4.83,2.27-7.33.74-5,1.5-10,1.12-15.14-.1-1.34.46-3-.43-3.95s-1.92.56-3.06.58c-4.16.06-8.31.27-12.47.06a10.22,10.22,0,0,1-3.07-.34,65.79,65.79,0,0,1-9.16-3.93A34.57,34.57,0,0,1,274.45,185c-3.75-5.14-6.23-11.13-6.11-17.82.09-4.88-.18-9.7,1.86-14.44a33.91,33.91,0,0,1,5.83-9.77,35.55,35.55,0,0,1,11.24-8.69c4.06-1.86,4.37-4.26,1.46-6.92a30.44,30.44,0,0,1-4.36-4.9c-2.33-3.29-5.44-6-8.43-8.77a4.56,4.56,0,0,0-2.56-1A9.62,9.62,0,0,0,271,109.4c-3.82-4.12-8.9-6.45-13.52-9.42-.87-.56-1.23-2.2-2.77-1.63-.36-1.06-1.3-1.44-2.2-1.87C247,93.79,241.4,91.27,235.69,89c-3.38-1.34-5.69-.61-6,2a28.63,28.63,0,0,1-3.54,11.3c-2.09,3.68-4.12,7.49-7.21,10.34a34,34,0,0,1-19.14,8.59c-6.23.79-12.28-.44-18.24-2.64-7.2-2.66-11.72-8.12-15.78-14.07-2.66-3.89-3.49-8.58-4.33-13.16-.46-2.49-1.82-3.3-4.28-2.77-4.6,1-8.64,3.38-12.94,5.09C141.46,94.86,138.65,96.09,136.49,98.36ZM68.25,164.11C66.64,175.28,79.46,186,89.36,185.92c10.41,0,21.57-10.13,21.53-21.29,0-11.83-10.41-21.88-21.42-22C79,142.57,67.35,152.8,68.25,164.11ZM282.4,288.86c.08-12.24-9-20.57-20.12-21-14.41-.53-21.9,9-22.42,19.74-.64,13.32,9.32,22.26,20.84,22.67S282.51,300.59,282.4,288.86ZM216.7,87.18c.73-5.67-2.17-10.43-5.88-14.6a21.16,21.16,0,0,0-15.14-7.28c-6.4,0-12.51,3.56-16.8,8.48-3.17,3.63-4.48,8.41-4.67,13.61-.42,11.72,10.5,21.22,21.35,21.21C207.14,108.6,217,98.92,216.7,87.18Zm105.61,77.15c.58-12.73-9.79-21.34-20.3-21.51a21.9,21.9,0,0,0-21.76,21.64c0,11.5,10.58,21.32,21.27,21.35S323.37,176.46,322.31,164.33ZM130,267.84c-13.69.46-20.89,8.8-20.95,20.76-.07,12.93,8.29,21.45,20.82,21.6,12,.15,21.17-8.91,21.35-21C151.41,276.53,142.43,268,130,267.84Z"/><path class="cls-3" d="M188.89,23.51q0,.12,0,.24c0,5.45-.1,6.25-5.45,6.22-14.3-.07-27.66,4.57-41.4,7.32-2,.4-3.34.33-3.79-2.06a24.63,24.63,0,0,0-1.37-3.82C135.62,28,135.62,28,139.2,26.8a174,174,0,0,1,46.51-8.49c3.18-.15,3.18-.11,3.18,3Q188.89,22.43,188.89,23.51Z"/><path class="cls-3" d="M128.82,41.19c0,.79-.63.91-1.11,1.15-14,7.06-27,15.84-40.29,24.06-1.43.89-2.33,1-3.33-.44a28.83,28.83,0,0,0-2.18-2.55c-2.55-3-2.53-3,.61-5.53A177,177,0,0,1,123,33c1.65-.74,2.45-.71,3,1.19s1.53,3.85,2.31,5.77C128.5,40.36,128.67,40.8,128.82,41.19Z"/><path class="cls-4" d="M203.32,18.36A176.46,176.46,0,0,1,251,27.84c1.62.56,2.51,1.06,1.54,2.93s-.87,4.94-2.59,6-4.29-.35-6.46-.79c-7.58-1.52-15-3.66-22.64-5-4.21-.75-8.42-.61-12.64-.78-7.83-.31-7.83-.32-7.83-7.94,0-.4,0-.8,0-1.2C200.41,18.17,200.41,18.17,203.32,18.36Z"/><path class="cls-5" d="M195.87,381.54a195.75,195.75,0,0,1-26.94-1.82c-1.75-.23-1.9-1-1.58-2.35s.54-2.66.75-4c.59-3.72,0-3.43,3.91-3.05a227.46,227.46,0,0,0,41.39.45c2.31-.2,4.63-.32,6.92-.65,1.72-.25,2.5.23,2.59,2a23.39,23.39,0,0,0,.75,5c.46,1.69-.07,2.31-1.71,2.48-4.21.44-8.4,1.1-12.62,1.39A117.44,117.44,0,0,1,195.87,381.54Z"/><path class="cls-6" d="M369.16,253.5c-.47,1.45-1.08,3.43-1.74,5.39A181.22,181.22,0,0,1,347,300.21c-1,1.45-1.61,1.82-3.05.6a47.38,47.38,0,0,0-4.93-3.39c-.79-.51-1.1-.93-.51-1.89,8.62-14,14.7-29.19,21.4-44.1.68-1.5,1.07-2.42,3-1.39a31.52,31.52,0,0,0,5.22,1.68C368.72,251.9,369.47,252,369.16,253.5Z"/><path class="cls-7" d="M292.91,342.73a2.68,2.68,0,0,1,1.47-2.54,174.23,174.23,0,0,0,20.8-17.31,150.14,150.14,0,0,0,13.37-14.71c2.28-2.91,3.21-3,5.93-.65l.19.15c4.24,3.64,4.28,3.67.77,7.88A185.2,185.2,0,0,1,299,349c-1.21.85-1.91,1.06-2.67-.52a29,29,0,0,0-2.56-3.75A2.92,2.92,0,0,1,292.91,342.73Z"/><path class="cls-8" d="M157.3,369.51a1.72,1.72,0,0,0-.06.23c-1,7.8-.95,7.76-8.51,5.74a179.71,179.71,0,0,1-43.6-18.14c-1.76-1-2-1.79-.81-3.38a18.67,18.67,0,0,0,2.15-4c.64-1.57,1.4-1.73,2.88-1a239.12,239.12,0,0,0,27.81,12.17c6.13,2.27,12.32,4.37,18.46,6.6C156.37,368.07,157.79,367.93,157.3,369.51Z"/><path class="cls-4" d="M376.83,202.91a188.71,188.71,0,0,1-4,36.14c-.3,1.39-.55,2.14-2.25,1.52s-3.43-.72-5.12-1.21a3,3,0,0,1-2.37-4c3.63-15.28,3.8-30.85,3.77-46.43,0-2.11.52-2.85,2.63-2.69a25.24,25.24,0,0,0,4.78-.19c1.31-.15,1.65.34,1.71,1.57C376.25,192.71,376.56,197.81,376.83,202.91Z"/><path class="cls-9" d="M287.25,355.7c.08,1.06-.81,1.14-1.37,1.47a180.92,180.92,0,0,1-42,17.66c-2.23.62-4.49,1.11-6.71,1.76-1.24.37-1.72,0-1.87-1.25a18.87,18.87,0,0,0-.94-4.44c-.83-2.19.14-3.12,2-3.9a42,42,0,0,1,7-2.34c11.48-2.57,21.83-8,32.36-12.92,2-.95,4.08-1.82,6.05-2.86,1.16-.61,1.56-.32,2.1.81C284.91,351.77,286.15,353.74,287.25,355.7Z"/><path class="cls-10" d="M45.08,114.85a19.28,19.28,0,0,1-6.15-3c-1-.62.14-1.43.46-2a175,175,0,0,1,19.9-29C62.53,77,66,73.32,69.43,69.65c1.38-1.46,2.18-1.23,3.31.13a31.09,31.09,0,0,0,3.65,3.8c1.49,1.28,1.19,2.17,0,3.47C68,86,59.94,95.17,53,105.31c-1.75,2.57-3.39,5.22-5,7.89A2.91,2.91,0,0,1,45.08,114.85Z"/><path class="cls-7" d="M97.74,342.56c-.72,2.65-2.58,4.66-4.14,6.82-.4.55-1-.17-1.43-.46A180.63,180.63,0,0,1,54,312.41c-.79-1-.68-1.59.32-2.29a33.53,33.53,0,0,0,3.37-2.7c1.65-1.51,2.95-1,4.24.5a212.85,212.85,0,0,0,22,22.4q5.86,5.15,12.2,9.7C97,340.65,97.84,341.24,97.74,342.56Z"/><path class="cls-5" d="M29.54,248.78c.66,0,1,.43,1.35.85a10.31,10.31,0,0,1,2.23,4.2c3.11,12.38,9.38,23.34,15.43,34.41,1.3,2.38,2.56,4.79,3.94,7.13.66,1.12.61,1.85-.55,2.54-1,.57-1.81,1.31-2.72,2-2.81,2-2.82,2-4.64-.8a182.27,182.27,0,0,1-21-45.76c-.63-2.09-.2-2.88,1.83-3.27A37.8,37.8,0,0,0,29.54,248.78Z"/><path class="cls-5" d="M304.21,67.54A5.33,5.33,0,0,1,302,66.37a159,159,0,0,0-38.27-22.91c-2.94-1.22-3.46-2.53-2.24-5.36,2.31-5.35,2.31-5.35,7.63-2.8a193.2,193.2,0,0,1,39.24,25.1c1.47,1.21,2,2.06.35,3.47a29.2,29.2,0,0,0-2.53,2.88A2,2,0,0,1,304.21,67.54Z"/><path class="cls-4" d="M367.5,174.74c-1.62.52-2.22-.44-2.67-2.38-3.46-15.08-7.22-30.06-13.78-44.18-.77-1.65-.49-3.12,1.57-4,4.8-2.09,4.76-2.17,7,2.63a186.28,186.28,0,0,1,14.35,45c.32,1.73.16,2.72-2,2.58A29.75,29.75,0,0,0,367.5,174.74Z"/><path class="cls-6" d="M40.51,127.18a10.35,10.35,0,0,1-.59,1.91c-6.24,12.62-9.53,26.19-12.86,39.75-.06.23-.09.47-.15.7-1.33,5.25-1.33,5.2-6.75,4.64-1.6-.16-2.14-.58-1.86-2.36a188.19,188.19,0,0,1,12.36-44.12l.37-.88c2.48-5.81,3.1-6,8.53-2.52C40.62,125,40.5,125.85,40.51,127.18Z"/><path class="cls-10" d="M16.54,201.19c0-4.55,0-9.1,0-13.65,0-1.57.6-2,2.17-1.92,5.5.27,5.47.21,5.51,5.78.1,15,.89,30,3.6,44.85.23,1.24,0,1.73-1.26,2a47.1,47.1,0,0,0-4.84,1.33c-1.24.4-1.64,0-1.89-1.25A162.62,162.62,0,0,1,16.54,201.19Z"/><path class="cls-3" d="M346.13,115.22a2.85,2.85,0,0,1-2.94-1.61c-7.87-13.78-18.15-25.67-29-37.11-1-1-.87-1.63.11-2.51,1.48-1.33,2.81-3.85,4.25-3.89s2.9,2.39,4.29,3.8A195.51,195.51,0,0,1,351,110.45c.92,1.53.63,2.17-.83,2.75S347.37,115,346.13,115.22Z"/><path class="cls-11" d="M183.54,316.71a30.38,30.38,0,0,1-13.15-2.07c-2.65-1.06-5.56-1.44-8.35-2.16-3.39-.88-4.52-1.43-2.63-5.24a39.34,39.34,0,0,0,3.8-23.17c-1.08-7.92-5.16-14.37-11.18-19.63a30.58,30.58,0,0,0-12.71-6.87c-3.44-.88-6.84-1.93-10.39-1.64-7.46.61-14.48,2.59-20.46,7.4a25,25,0,0,0-4.87,4.42c-1.54,2.09-4,1.41-5-1s-2.86-4.28-4.31-6.41a60.13,60.13,0,0,1-6.63-13.62,24.11,24.11,0,0,1,3.12,0c3.93.5,7.76-.53,11.5-1.23,3.32-.62,6.81-1.07,10-2.82,2.87-1.57,6.39-1.9,9.42-3.24,7-3.06,13.58-6.68,19.28-11.92,4.92-4.52,9.72-9.07,13.22-14.82l1.42-.11c1.76,1.15,3.83,1.59,5.71,2.46a59.31,59.31,0,0,1,10.72,5.8c4,2.95,8.7,5.08,12,8.76s7.41,6.73,10.31,10.84c.3.43.44,1.05,1.16,1l0,.94c-1.59.34-1.08,2-1.86,3a36.94,36.94,0,0,0-4.32,6.2,68.91,68.91,0,0,0-6.1,15.53c-.79,3.42-1.71,6.92-2.41,10.35-.84,4.1-.25,8.43-1,12.68-.81,4.42,1.12,8.84,1.05,13.39a21.08,21.08,0,0,0,1,5.69C182.56,311.72,183.55,314.1,183.54,316.71Z"/><path class="cls-4" d="M155.58,212.61l-1.42.11a7.42,7.42,0,0,1-1.62-.34A40.56,40.56,0,0,0,137.88,209c-9.83-.55-19.61-.23-29.32,2.5a102.08,102.08,0,0,0-15.65,5.79c-4.39,2.05-8.28,5-12.48,7.37a98.25,98.25,0,0,1-2.93-23.88c0-1.7.08-2.41,2.45-2.26,5,.3,10,.75,15-.42,2.72-.63,5.53-.85,8.06-2.17,5.39-2.82,10.79-5.79,13.9-11.25,2.74-4.82,5.33-9.66,6.09-15.51a40,40,0,0,0-.58-12.38c-.58-3.24-2.67-6-4.48-8.77a41.24,41.24,0,0,0-12.15-12.05c-1.82-1.19-3.14-3-5.17-4-.17-.08-1.22-.34-.36-1.51a99.18,99.18,0,0,1,15.17-16.84,3,3,0,0,1,1.85-.89,38.69,38.69,0,0,1,2.21,3.65,71.18,71.18,0,0,0,6.05,12.55c2.27,3.57,4,7.48,7.21,10.45s5.36,6.61,8.72,9.38c5.9,4.86,12.53,8.43,19.12,12.15,3.14,1.77,6.72,2.23,9.89,3.83l.14.16c.18,4.22-1.21,8.3-1,12.52a3.39,3.39,0,0,1-.22,1.15c-1.14,3.45-1.37,7.08-2.92,10.51-2,4.41-3.17,9.2-5.48,13.51C159.11,205.9,157.35,209.26,155.58,212.61Z"/><path class="cls-12" d="M195.52,242.41l0-.94c1.64-.8,2.08-2.65,3.34-3.79,4.4-4,8.25-8.59,13.11-12A150.48,150.48,0,0,1,225,217.39c3.32-1.87,7-3.19,10.45-4.75l1,.13c1.23,2.26,3.29,3.87,4.79,5.87,3.9,5.22,9.11,9,14,13a50.75,50.75,0,0,0,9.52,5.74c5.1,2.56,10.63,3.93,15.74,6.41a21.35,21.35,0,0,0,8.37,1.71c4.89.21,9.69,1.49,14.59,1.19-.16,2.75-1.9,4.88-3,7.2-2.31,4.82-5.87,8.91-8.26,13.73-.67,1.35-2.11,1.67-3.64.79a25.23,25.23,0,0,1-4.12-3.49,32.48,32.48,0,0,0-18.08-8.36c-2.18-.28-4.37-.87-6.53-.6-7.09.89-13.72,2.85-19.55,7.42-4.65,3.64-7.67,8.35-10.21,13.4-1.48,2.93-3,6.46-2.9,9.48.15,7.32.59,14.81,4.76,21.37,1.6,2.52.52,4.2-2.25,4.9-3.73.94-7.5,1.67-11.19,3a23,23,0,0,1-11,1.24c-.35-2.28.73-4.36,1.24-6.44a96.48,96.48,0,0,0,2.57-18.08,40,40,0,0,0-.19-9.8c-.88-4.42-1.14-8.92-2.46-13.3-.84-2.81-1.69-5.64-2.64-8.42-1.19-3.49-3.21-6.62-5-9.82C199.36,247.94,197.36,245.22,195.52,242.41Z"/><path class="cls-13" d="M236.43,212.77l-1-.13c-.68-2.64-2.54-4.68-3.66-7.12-1.72-3.71-3.64-7.36-5.41-11-2.71-5.62-3.84-11.83-4.75-17.94a81,81,0,0,1-1.21-11.74l.15-1.18c4.34.47,8.18-1.15,11.77-3.21a105.57,105.57,0,0,0,13-8.37c2.17-1.72,4.58-3.19,6.53-5.25a119.65,119.65,0,0,0,10.29-12.45,82.25,82.25,0,0,0,6.34-9.92c2-3.75,3.29-7.82,4.89-11.75a4.56,4.56,0,0,1,2.56,1c3,2.76,6.1,5.47,8.43,8.77a30.44,30.44,0,0,0,4.36,4.9c2.91,2.66,2.6,5.06-1.46,6.92A35.55,35.55,0,0,0,276,142.93a33.91,33.91,0,0,0-5.83,9.77c-2,4.73-1.77,9.56-1.86,14.44-.12,6.68,2.36,12.68,6.11,17.82a34.57,34.57,0,0,0,10.95,9.55,65.79,65.79,0,0,0,9.16,3.93,10.22,10.22,0,0,0,3.07.34c4.16.21,8.31,0,12.47-.06,1.14,0,2.22-1.51,3.06-.58s.33,2.61.43,3.95c.38,5.1-.38,10.13-1.12,15.14-.37,2.5-1.49,4.89-2.27,7.33C306,222,302,219,297.46,216.91a99.3,99.3,0,0,0-17.93-6.34c-2.19-.56-4.39-.47-6.51-1-6.79-1.62-13.68-1.1-20.44-.48A74.73,74.73,0,0,0,236.43,212.77Z"/><path class="cls-14" d="M220.58,163.62l-.15,1.18c-.67-.16-.88.58-1.42.72a92.14,92.14,0,0,1-16,2.76,77.82,77.82,0,0,1-22.07-.91c-3.49-.69-7.1-1-10.4-2.5l-.13-.16c.83-4.69-.42-9.28-1-13.86a27,27,0,0,0-.9-5.24c-.55-1.57-.29-3.48-1.24-4.67a15.29,15.29,0,0,1-2.74-6c-1.05-4.52-3.48-8.4-5.54-12.3-2.72-5.18-7-9.52-10.8-14-3-3.55-7.24-5.93-9.94-9.83-.44-.64-1.16-.38-1.76-.47,2.15-2.27,5-3.5,7.76-4.61,4.3-1.71,8.34-4.09,12.94-5.09,2.45-.54,3.82.27,4.28,2.77.84,4.57,1.67,9.26,4.33,13.16,4.07,5.95,8.58,11.4,15.78,14.07,6,2.2,12,3.44,18.24,2.64A34,34,0,0,0,219,112.69c3.09-2.86,5.12-6.66,7.21-10.34A28.63,28.63,0,0,0,229.71,91c.28-2.65,2.59-3.38,6-2,5.71,2.26,11.31,4.79,16.84,7.47.9.44,1.84.81,2.2,1.87-.2.66-.32,1.21-1.18,1.57a15.5,15.5,0,0,0-4.32,2.59c-2.69,2.44-5.14,5.13-7.75,7.65-1.07,1-.88,2.81-2.44,3.57-1.26.62-1.93,2-2.85,3-2.12,2.45-3.35,5.4-5.06,8.08a41.65,41.65,0,0,0-4.61,8.7c-1.68,5-3.8,10-4.35,15.44C221.68,153.84,220.25,158.63,220.58,163.62Z"/><path class="cls-15" d="M195.52,242.41c1.84,2.81,3.84,5.53,5.48,8.45,1.79,3.2,3.8,6.33,5,9.82,1,2.78,1.8,5.61,2.64,8.42,1.31,4.38,1.58,8.89,2.46,13.3a40,40,0,0,1,.19,9.8,96.48,96.48,0,0,1-2.57,18.08c-.51,2.08-1.58,4.16-1.24,6.44a65.6,65.6,0,0,1-23.93,0c0-2.61-1-5-1.69-7.44a21.08,21.08,0,0,1-1-5.69c.07-4.55-1.86-9-1.05-13.39.78-4.25.19-8.58,1-12.68.7-3.43,1.62-6.93,2.41-10.35a68.91,68.91,0,0,1,6.1-15.53,36.94,36.94,0,0,1,4.32-6.2C194.44,244.45,193.93,242.75,195.52,242.41Z"/><path class="cls-16" d="M80.44,224.62c4.19-2.4,8.08-5.32,12.48-7.37a102.08,102.08,0,0,1,15.65-5.79c9.71-2.73,19.49-3.05,29.32-2.5a40.56,40.56,0,0,1,14.66,3.43,7.42,7.42,0,0,0,1.62.34c-3.5,5.75-8.3,10.29-13.22,14.82-5.7,5.25-12.32,8.86-19.28,11.92-3,1.33-6.55,1.67-9.42,3.24-3.2,1.74-6.68,2.2-10,2.82-3.73.7-7.57,1.73-11.5,1.23a24.11,24.11,0,0,0-3.12,0,92.25,92.25,0,0,0-4.25-10.51C81.42,232.45,81.52,228.45,80.44,224.62Z"/><path class="cls-3" d="M236.43,212.77a74.73,74.73,0,0,1,16.15-3.65c6.76-.62,13.65-1.14,20.44.48,2.12.51,4.32.41,6.51,1a99.3,99.3,0,0,1,17.93,6.34C302,219,306,222,310.2,224.55a43.16,43.16,0,0,1-2.47,11.31c-1,3-2.11,5.91-3.15,8.86-.28.78-1,1.17-1.13,2-4.91.3-9.7-1-14.59-1.19a21.35,21.35,0,0,1-8.37-1.71c-5.1-2.48-10.64-3.85-15.74-6.41a50.75,50.75,0,0,1-9.52-5.74c-4.91-4-10.12-7.79-14-13C239.72,216.63,237.66,215,236.43,212.77Z"/><path class="cls-10" d="M220.58,163.62c-.34-5,1.1-9.78,1.59-14.66.55-5.48,2.67-10.42,4.35-15.44a41.65,41.65,0,0,1,4.61-8.7c1.71-2.67,2.94-5.62,5.06-8.08.91-1.05,1.59-2.39,2.85-3,1.56-.77,1.37-2.54,2.44-3.57,2.61-2.52,5.07-5.21,7.75-7.65a15.5,15.5,0,0,1,4.32-2.59c.85-.37,1-.91,1.18-1.57,1.54-.57,1.9,1.08,2.77,1.64,4.62,3,9.7,5.3,13.52,9.42a9.62,9.62,0,0,1,2.35,3.27c-1.6,3.93-2.93,8-4.89,11.75a82.25,82.25,0,0,1-6.34,9.92,119.65,119.65,0,0,1-10.29,12.45c-2,2.06-4.36,3.53-6.53,5.25a105.57,105.57,0,0,1-13,8.37C228.77,162.47,224.93,164.09,220.58,163.62Z"/><path class="cls-7" d="M136.49,98.36c.61.09,1.32-.17,1.76.47,2.7,3.9,6.9,6.28,9.94,9.83,3.85,4.49,8.08,8.83,10.8,14,2.06,3.91,4.48,7.78,5.54,12.3a15.29,15.29,0,0,0,2.74,6c.94,1.19.69,3.1,1.24,4.67a27,27,0,0,1,.9,5.24c.6,4.57,1.85,9.16,1,13.86-3.17-1.6-6.75-2.06-9.89-3.83-6.59-3.72-13.22-7.3-19.12-12.15-3.36-2.77-5.59-6.47-8.72-9.38s-4.94-6.88-7.21-10.45a71.18,71.18,0,0,1-6.05-12.55,38.69,38.69,0,0,0-2.21-3.65c1.21-2.67,3.72-4.16,5.83-5.86,3.08-2.49,6.22-5,10.1-6.37C134.42,100,134.76,98.08,136.49,98.36Z"/><path class="cls-16" d="M68.25,164.11c-.9-11.3,10.73-21.54,21.21-21.45,11,.09,21.38,10.15,21.42,22,0,11.16-11.11,21.25-21.53,21.29C79.46,186,66.64,175.28,68.25,164.11Z"/><path class="cls-3" d="M282.4,288.86c.12,11.73-10.08,21.86-21.7,21.44s-21.48-9.35-20.84-22.67c.52-10.7,8-20.27,22.42-19.74C273.38,268.29,282.48,276.61,282.4,288.86Z"/><path class="cls-7" d="M216.7,87.18c.29,11.74-9.56,21.42-21.15,21.43-10.85,0-21.77-9.49-21.35-21.21.19-5.2,1.5-10,4.67-13.61,4.29-4.92,10.4-8.52,16.8-8.48a21.16,21.16,0,0,1,15.14,7.28C214.52,76.75,217.43,81.51,216.7,87.18Z"/><path class="cls-10" d="M322.31,164.33c1.06,12.13-10,21.51-20.79,21.48s-21.27-9.85-21.27-21.35A21.9,21.9,0,0,1,302,142.83C312.51,143,322.89,151.6,322.31,164.33Z"/><path class="cls-15" d="M130,267.84c12.45.19,21.42,8.69,21.23,21.4-.18,12.05-9.33,21.12-21.35,21-12.53-.16-20.89-8.67-20.82-21.6C109.1,276.65,116.3,268.31,130,267.84Z"/><path class="cls-1" d="M170.57,164.87c3.31,1.5,6.92,1.81,10.4,2.5a77.82,77.82,0,0,0,22.07.91,92.14,92.14,0,0,0,16-2.76c.54-.15.75-.88,1.42-.72a81,81,0,0,0,1.21,11.74c.9,6.1,2,12.32,4.75,17.94,1.78,3.68,3.7,7.33,5.41,11,1.13,2.43,3,4.48,3.66,7.12-3.5,1.56-7.13,2.88-10.45,4.75A150.48,150.48,0,0,0,212,225.66c-4.86,3.43-8.71,8-13.11,12-1.26,1.14-1.7,3-3.34,3.79-.72,0-.86-.57-1.16-1-2.9-4.11-7-7.13-10.31-10.84s-8-5.81-12-8.76a59.31,59.31,0,0,0-10.72-5.8c-1.88-.86-3.95-1.31-5.71-2.46,1.77-3.35,3.53-6.71,5.32-10,2.32-4.32,3.49-9.1,5.48-13.51,1.55-3.43,1.79-7.06,2.92-10.51a3.39,3.39,0,0,0,.22-1.15C169.37,173.18,170.75,169.09,170.57,164.87Z"/></svg>